<?xml version="1.0" encoding="UTF-8"?>
<svg version="1.1" xmlns="http://www.w3.org/2000/svg" width="1024" height="172">
<path d="M0 0 C15.63375 -0.37125 31.2675 -0.7425 47.375 -1.125 C54.72531494 -1.37080811 54.72531494 -1.37080811 62.22412109 -1.62158203 C68.30004883 -1.70288086 68.30004883 -1.70288086 71.16226196 -1.71798706 C73.12305684 -1.74527987 75.08358646 -1.80787018 77.04238892 -1.90036011 C87.7360847 -2.37917272 96.21644637 -1.68237053 104.87800407 5.10220528 C113.16810142 12.72483244 116.5366791 20.14025989 117.32910156 31.32421875 C117.49381406 35.78045322 117.4973829 40.21720306 117.41785908 44.67538834 C117.37147378 48.10243266 117.41476868 51.52872115 117.44281006 54.95581055 C117.47533553 60.70620129 117.4330284 66.45239864 117.34667969 72.20214844 C117.24871541 78.80049578 117.28046583 85.38883228 117.37955499 91.98693752 C117.46191625 97.70558779 117.47245379 103.42126752 117.42565894 109.14032078 C117.39794495 112.53265918 117.39280993 115.92033135 117.45331573 119.31234741 C117.621101 133.02197291 117.14222727 144.34138332 107.28662109 154.68310547 C98.99988362 162.30264327 91.13454687 164.23821982 80.09106445 164.03686523 C78.06841082 163.94630047 76.0458644 163.85330662 74.0234375 163.7578125 C72.1157382 163.73125874 70.20790635 163.71295016 68.30004883 163.70288086 C61.32299775 163.60952457 54.34877713 163.35821599 47.375 163.125 C31.74125 162.75375 16.1075 162.3825 0 162 C0 108.54 0 55.08 0 0 Z M39 38 C39 66.05 39 94.1 39 123 C51.21 123 63.42 123 76 123 C76 95.28 76 67.56 76 39 C57.685 38.505 57.685 38.505 39 38 Z " fill="#231E1F" transform="translate(5,0)"/>
<path d="M0 0 C12.54 0 25.08 0 38 0 C38 20.46 38 40.92 38 62 C48.56 62 59.12 62 70 62 C70 41.54 70 21.08 70 0 C82.87 0 95.74 0 109 0 C109 53.46 109 106.92 109 162 C96.13 162 83.26 162 70 162 C70 141.54 70 121.08 70 100 C59.44 100 48.88 100 38 100 C38 120.46 38 140.92 38 162 C25.46 162 12.92 162 0 162 C0 108.54 0 55.08 0 0 Z " fill="#221E1F" transform="translate(364,0)"/>
<path d="M0 0 C12.87 0 25.74 0 39 0 C38.95117676 4.52485107 38.95117676 4.52485107 38.90136719 9.14111328 C38.8022034 19.15146654 38.76975563 29.16125577 38.76940536 39.17207527 C38.76717316 45.2370412 38.74306149 51.30021553 38.66748047 57.36474609 C38.59525059 63.22693114 38.58241075 69.08661537 38.60929108 74.9491539 C38.60934652 77.17613409 38.58865199 79.40322254 38.5460434 81.62979507 C38.32104869 94.15498813 38.71366423 102.86123167 47.62624741 112.22938728 C50.3489412 115.10640142 50.3489412 115.10640142 54 116 C60.37088532 110.87370116 65.84309043 105.11797498 67.1036377 96.78912354 C67.63054622 90.63501927 67.50868038 84.48946365 67.390625 78.3203125 C67.39068143 76.0534505 67.39603943 73.78658305 67.40643311 71.51974487 C67.41953196 65.59716445 67.36134193 59.67742091 67.28753662 53.75537109 C67.22487522 47.69504559 67.2306808 41.63481124 67.23046875 35.57421875 C67.22009119 23.7150058 67.12795377 11.85852771 67 0 C79.87 0 92.74 0 106 0 C106.20364656 14.93442883 106.36922808 29.86814037 106.46630955 44.80363178 C106.51259711 51.73946876 106.57562942 58.67437796 106.67895508 65.60961914 C106.7786981 72.30762093 106.83061742 79.00446198 106.85389519 85.70323753 C106.87047471 88.25372639 106.90285186 90.80416491 106.95157051 93.35424232 C107.36412393 115.85122432 107.36412393 115.85122432 101.67163086 122.87768555 C100.15162874 124.29283977 98.5965275 125.67178019 97 127 C95.76244122 128.44421061 94.54864469 129.90963577 93.375 131.40625 C92.25015976 132.77096503 91.12515979 134.13554842 90 135.5 C85.33759455 141.15592988 80.68680513 146.82066304 76.0625 152.5078125 C75.381875 153.33023438 74.70125 154.15265625 74 155 C73.64905273 155.60021973 73.29810547 156.20043945 72.93652344 156.81884766 C70.64641291 160.28761353 68.98649568 161.76814582 64.86914062 162.73583984 C61.65672466 163.02892787 58.5045593 163.16432706 55.27929688 163.13232422 C53.26221043 163.12504407 51.26451942 163.21329908 49.25 163.30859375 C43.5266119 163.32569551 39.56999192 163.21783716 34.95019531 159.63427734 C32.41485182 156.8646952 30.18419812 154.05111122 28 151 C26.75688201 149.45277869 25.50812629 147.91004213 24.25 146.375 C23.61835937 145.57191406 22.98671875 144.76882812 22.3359375 143.94140625 C19.22764266 140.02744971 16.05293213 136.16999517 12.875 132.3125 C12.28879883 131.5994873 11.70259766 130.88647461 11.09863281 130.15185547 C10.52725586 129.45850098 9.95587891 128.76514648 9.3671875 128.05078125 C8.86300293 127.43887939 8.35881836 126.82697754 7.83935547 126.1965332 C6.13994326 124.0679048 6.13994326 124.0679048 4.5318222 122.65976906 C1.03128641 119.22052723 -0.40990486 116.65444725 -0.7215271 111.71644592 C-0.73881628 109.63268818 -0.7231991 107.54849312 -0.68115234 105.46508789 C-0.6820285 104.32289795 -0.68290466 103.18070801 -0.68380737 102.00390625 C-0.67963984 98.2427848 -0.63302192 94.4834647 -0.5859375 90.72265625 C-0.57474253 88.10950189 -0.56620377 85.49633492 -0.56021118 82.88316345 C-0.54160464 76.71716837 -0.49242598 70.55181592 -0.43211424 64.38610309 C-0.36491718 57.36319085 -0.33202721 50.340247 -0.30194163 43.31709301 C-0.23932189 28.87768417 -0.12934282 14.43896989 0 0 Z " fill="#221E1F" transform="translate(560,0)"/>
<path d="M0 0 C2.60287362 -0.2864952 4.96705374 -0.37848245 7.57080078 -0.34057617 C8.74166733 -0.34123329 8.74166733 -0.34123329 9.93618774 -0.34190369 C12.52281489 -0.33980941 15.10879824 -0.31644883 17.6953125 -0.29296875 C19.48607021 -0.28737506 21.2768325 -0.28310389 23.06759644 -0.28010559 C27.78595608 -0.26863895 32.50403964 -0.23915625 37.22229004 -0.20599365 C42.88068435 -0.16994307 48.53917086 -0.15614027 54.19764709 -0.13863373 C62.79862353 -0.10951985 71.39899397 -0.05204553 80 0 C80 12.54 80 25.08 80 38 C60.86 38 41.72 38 22 38 C22 45.92 22 53.84 22 62 C35.53 62 49.06 62 63 62 C63 74.54 63 87.08 63 100 C49.47 100 35.94 100 22 100 C22 107.59 22 115.18 22 123 C41.14 123 60.28 123 80 123 C80.020625 129.249375 80.04125 135.49875 80.0625 141.9375 C80.071604 143.91226318 80.08070801 145.88702637 80.09008789 147.92163086 C80.09300705 149.47770113 80.09555561 151.03377216 80.09765625 152.58984375 C80.10277222 153.40521606 80.10788818 154.22058838 80.11315918 155.06066895 C80.1134694 157.04080523 80.06238096 159.02084654 80 161 C78.08574952 162.91425048 74.66624804 162.30781671 72.11962891 162.41503906 C71.39897751 162.44570465 70.67832611 162.47637024 69.93583679 162.50796509 C63.22072736 162.7783662 56.5028396 162.93909665 49.78363991 163.06656265 C45.27737109 163.15388366 40.77864295 163.27642644 36.27636719 163.48828125 C31.91068662 163.6926824 27.55189029 163.79869708 23.18174362 163.84160614 C21.5329532 163.87370783 19.88440019 163.93845614 18.23839188 164.03943634 C8.49132896 164.6101009 1.76293092 162.72008241 -5.9635334 156.55877495 C-14.73048142 148.56340534 -18.62055316 141.23323468 -19.23632812 129.35595703 C-19.32586919 124.82703381 -19.24970561 120.32168398 -19.09114265 115.79510736 C-18.98929396 112.33064537 -18.99441875 108.86607892 -18.98571777 105.40036011 C-18.95646967 99.60075626 -18.85743831 93.80600078 -18.70800781 88.00830078 C-18.51670488 80.57561774 -18.43782296 73.14616077 -18.3950882 65.71130562 C-18.35790251 59.28729354 -18.27657279 52.86396106 -18.18459129 46.44052649 C-18.15632021 44.38791036 -18.13279416 42.33527323 -18.10939026 40.28259659 C-18.05626709 36.46475705 -17.96860714 32.64939876 -17.86914062 28.83251953 C-17.85726715 27.70215271 -17.84539368 26.57178589 -17.8331604 25.40716553 C-17.58041915 17.75382842 -17.58041915 17.75382842 -14.60192871 13.88546753 C-13.74329224 13.26326324 -12.88465576 12.64105896 -12 12 C-11.175 11.34 -10.35 10.68 -9.5 10 C-8.675 9.34 -7.85 8.68 -7 8 C-4.29046625 5.41649107 -2.07904656 3.11856984 0 0 Z " fill="#221E1F" transform="translate(159,0)"/>
<path d="M0 0 C1.74678173 0.0318146 3.49371799 0.05596264 5.2407074 0.07289124 C9.78069972 0.13699405 14.31104401 0.30313646 18.84729004 0.49285889 C24.32052884 0.69964388 29.79704586 0.77579458 35.27309418 0.87456512 C43.5415815 1.03797921 51.78902515 1.36391556 60.05859375 1.66015625 C60.05859375 14.20015625 60.05859375 26.74015625 60.05859375 39.66015625 C40.91859375 39.66015625 21.77859375 39.66015625 2.05859375 39.66015625 C2.05859375 47.58015625 2.05859375 55.50015625 2.05859375 63.66015625 C15.58859375 63.66015625 29.11859375 63.66015625 43.05859375 63.66015625 C43.05859375 76.20015625 43.05859375 88.74015625 43.05859375 101.66015625 C29.52859375 101.66015625 15.99859375 101.66015625 2.05859375 101.66015625 C2.05859375 109.25015625 2.05859375 116.84015625 2.05859375 124.66015625 C21.19859375 124.66015625 40.33859375 124.66015625 60.05859375 124.66015625 C60.05859375 137.53015625 60.05859375 150.40015625 60.05859375 163.66015625 C41.31441019 164.38211482 41.31441019 164.38211482 33.2109375 164.5390625 C27.71793635 164.64596208 22.23042287 164.77114058 16.74169922 165.01806641 C12.3060621 165.21632532 7.876311 165.32177787 3.43658066 165.36794662 C1.75911603 165.40075391 0.08190998 165.46482614 -1.59298325 165.56329727 C-11.12130164 166.10026599 -17.92868913 164.58011664 -25.54070759 158.57091999 C-33.99799112 150.87230201 -37.4989528 143.61798137 -38.25463867 132.22827148 C-38.41225335 127.72953936 -38.41115167 123.25023075 -38.32633376 118.74990726 C-38.27617848 115.29174218 -38.31656165 111.83427146 -38.34187317 108.37599182 C-38.36985495 102.5743065 -38.32365395 96.77679608 -38.2331543 90.97583008 C-38.1303056 84.3153156 -38.1533314 77.66403777 -38.24211234 71.00352901 C-38.32474562 64.53436775 -38.31005473 58.0686262 -38.25521278 51.59929085 C-38.23412817 48.87403518 -38.24677623 46.15226338 -38.28899193 43.4272747 C-38.42613385 29.97237734 -38.28686947 18.56622512 -28.48193359 8.46337891 C-19.61869979 0.43706092 -11.52881223 -0.62954959 0 0 Z " fill="#221E1F" transform="translate(728.94140625,-1.66015625)"/>
<path d="M0 0 C12.87 0 25.74 0 39 0 C38.96777344 4.42019531 38.93554688 8.84039063 38.90234375 13.39453125 C38.90186291 16.94669214 38.91042383 20.49857875 38.9250412 24.05069733 C38.93795592 27.78559678 38.93540561 31.51893828 38.89379883 35.25366211 C38.85425075 38.85954239 38.85939135 42.46297951 38.89392281 46.0688839 C38.89946851 47.43582504 38.88962827 48.8029287 38.86323357 50.16962624 C38.69491836 59.58651833 40.27195448 64.81006364 46.77687073 71.72538757 C47.51050339 72.47600967 48.24413605 73.22663177 49 74 C50.0227873 75.31593462 51.0323308 76.64302023 52 78 C57.98928054 76.00357315 61.87092211 71.12200862 64.91168213 65.75671387 C68.81975677 55.85754393 67.40235104 43.36557234 67.21887207 32.83428955 C67.16622192 29.12655093 67.17624035 25.41897095 67.18164062 21.7109375 C67.18770106 14.47074268 67.091539 7.24222497 67 0 C79.54 0 92.08 0 105 0 C105.4411969 19.19429353 105.4411969 19.19429353 105.53710938 27.44726562 C105.60259125 33.05497325 105.67959645 38.66068475 105.82983398 44.2668457 C105.9503503 48.79285639 106.01532642 53.31672468 106.04364967 57.8442173 C106.06380156 59.56149817 106.10315477 61.27867633 106.16303062 62.99503136 C106.47702201 72.37850025 106.15451219 79.08652033 99.71020508 86.32348633 C97.85053924 88.26631958 95.9319871 90.12687074 94 92 C91.73502827 94.66469095 89.55973506 97.37849948 87.3918457 100.12231445 C85.63668495 102.23398944 83.91462948 104.10560087 81.97338867 106.02416992 C73.25300092 115.05616858 71.50361073 122.56835759 71.58984375 134.95898438 C71.64191291 136.95185774 71.695314 138.94469672 71.75 140.9375 C71.76200318 142.98890751 71.76855134 145.04035449 71.76953125 147.09179688 C71.78358243 152.06388948 71.87102348 157.02961539 72 162 C66.60653012 162.02464849 61.21309275 162.04283531 55.81958008 162.05493164 C53.98331125 162.05997231 52.14704646 162.06680477 50.31079102 162.07543945 C47.67723599 162.08751672 45.04373384 162.09323081 42.41015625 162.09765625 C41.17109276 162.10539818 41.17109276 162.10539818 39.90699768 162.11329651 C37.93763632 162.11349205 35.96838386 162.06204152 34 162 C33.67 161.67 33.34 161.34 33 161 C33.01322237 157.95234012 33.08201656 154.92041741 33.17578125 151.875 C34.81356169 129.0622895 34.81356169 129.0622895 27.4309082 108.43579102 C25.01504328 105.93279964 22.52867701 103.63759072 19.79638672 101.48388672 C16.99578728 99.17048044 14.86093064 96.40683176 12.625 93.5625 C11.91601562 92.71816406 11.20703125 91.87382813 10.4765625 91.00390625 C9.65929687 90.01261719 8.84203125 89.02132812 8 88 C7.02762894 87.08590111 7.02762894 87.08590111 6.03561401 86.15333557 C-0.29155551 79.61324676 -0.98366585 73.65433125 -0.90637207 64.97470093 C-0.86553499 63.30342496 -0.82380729 61.63217055 -0.78125 59.9609375 C-0.76630348 58.22647731 -0.75492787 56.49198304 -0.74694824 54.75747681 C-0.71660254 50.22251874 -0.63819752 45.68965563 -0.54931641 41.15551758 C-0.4525412 35.69921661 -0.41626207 30.24220962 -0.36968994 24.78529358 C-0.29246985 16.52207822 -0.13907624 8.26344654 0 0 Z " fill="#231E1F" transform="translate(919,0)"/>
<path d="M0 0 C12.87 0 25.74 0 39 0 C39 40.59 39 81.18 39 123 C55.5 123 72 123 89 123 C89 135.87 89 148.74 89 162 C72.00277791 162.72195857 72.00277791 162.72195857 64.640625 162.87890625 C59.65428157 162.98571795 54.67399502 163.11060573 49.69238281 163.35791016 C45.66516962 163.55653595 41.64445145 163.6616835 37.61271286 163.70779037 C36.09145091 163.74053917 34.57046508 163.80449654 33.05205154 163.90314102 C24.10193626 164.46034901 17.67893091 162.6217043 10.47357559 157.13123703 C2.52147705 150.09590598 -0.95421997 143.46157302 -1.88903046 132.86920166 C-2.19890356 126.27307939 -2.04590473 119.69330657 -1.82509089 113.09711981 C-1.71118025 109.10992772 -1.70188875 105.12238768 -1.68063354 101.13381958 C-1.62507796 93.60976432 -1.47794713 86.09051758 -1.29634273 78.56856358 C-1.09388593 69.99341947 -0.99587292 61.41802338 -0.9058249 52.84107757 C-0.71856813 35.22411914 -0.38902241 17.61373776 0 0 Z " fill="#221E1F" transform="translate(258,0)"/>
<path d="M0 0 C1.60279503 0.01494144 3.20562688 0.02631947 4.80847168 0.03430176 C9.00487096 0.06468812 13.19901603 0.14312692 17.39453125 0.23193359 C22.44026099 0.32859875 27.48674928 0.36496878 32.53314209 0.41156006 C40.17990717 0.48885395 47.82173752 0.64221341 55.46875 0.78125 C55.46875 13.32125 55.46875 25.86125 55.46875 38.78125 C38.63875 38.78125 21.80875 38.78125 4.46875 38.78125 C4.46875 79.37125 4.46875 119.96125 4.46875 161.78125 C-8.40125 161.78125 -21.27125 161.78125 -34.53125 161.78125 C-34.64407593 143.07505722 -34.73619827 124.36913951 -34.79031086 105.66269302 C-34.81610302 96.9771533 -34.85127266 88.29183982 -34.90844727 79.60644531 C-34.95825152 72.03707854 -34.99053366 64.4678756 -35.00169247 56.89834952 C-35.00821638 52.88948777 -35.02356967 48.88109477 -35.05990028 44.87238312 C-35.09381321 41.09991018 -35.10431281 37.32809948 -35.09678841 33.55548859 C-35.0981651 32.17033287 -35.10812653 30.78515524 -35.12727737 29.40013123 C-35.1521334 27.50993841 -35.14319749 25.61939104 -35.13252258 23.72906494 C-35.13713155 22.6708466 -35.14174051 21.61262825 -35.14648914 20.52234268 C-34.31474977 16.81667027 -32.60972361 15.8700768 -29.53125 13.78125 C-26.10367122 10.47233767 -26.10367122 10.47233767 -23.09997559 6.79016113 C-16.78246247 -1.11635026 -9.25358605 -0.25419663 0 0 Z " fill="#221E1F" transform="translate(846.53125,-0.78125)"/>
<path d="M0 0 C12.87 0 25.74 0 39 0 C39 53.46 39 106.92 39 162 C26.13 162 13.26 162 0 162 C0 108.54 0 55.08 0 0 Z " fill="#221E1F" transform="translate(496,0)"/>
<path d="M0 0 C12.54 0 25.08 0 38 0 C38 12.54 38 25.08 38 38 C25.46 38 12.92 38 0 38 C0 25.46 0 12.92 0 0 Z " fill="#EA4035" transform="translate(5,124)"/>
<path d="M0 0 C12.54 0 25.08 0 38 0 C38 12.21 38 24.42 38 37 C25.46 37 12.92 37 0 37 C0 24.79 0 12.58 0 0 Z " fill="#EC4035" transform="translate(986,0)"/>
</svg>
