<?xml version="1.0" encoding="UTF-8"?>
<svg version="1.1" xmlns="http://www.w3.org/2000/svg" width="1205" height="337">
<path d="M0 0 C0.59651367 0.47695313 1.19302734 0.95390625 1.80761719 1.4453125 C36.98529384 29.8456386 58.15042812 70.7080142 63.40234375 115.42578125 C67.56070352 162.07916006 53.47510317 206.88477595 23.5 242.75 C10.93861709 257.40166356 -3.43591823 269.164507 -20 279 C-20.58330078 279.34659668 -21.16660156 279.69319336 -21.76757812 280.05029297 C-36.39498265 288.59632596 -52.48625213 294.3340498 -69 298 C-69.96220459 298.22429687 -69.96220459 298.22429687 -70.94384766 298.453125 C-111.97563142 307.68851072 -158.18503976 299.06753941 -193.66601562 276.97729492 C-201.2043944 272.14916661 -208.2628182 266.90569417 -215 261 C-215.8146875 260.30648438 -216.629375 259.61296875 -217.46875 258.8984375 C-251.19669176 229.54658945 -270.50036493 188.05626772 -273.72265625 143.68359375 C-274.0915867 137.76066884 -274.30867374 131.93190414 -274 126 C-273.96422852 125.28005859 -273.92845703 124.56011719 -273.89160156 123.81835938 C-271.75511311 85.54870496 -257.36590451 48.40856168 -231.0859375 20.23828125 C-229.13555617 18.14545634 -227.28368633 15.99701459 -225.4375 13.8125 C-221.92644794 9.80558182 -218.12718174 6.36237845 -214 3 C-213.05253906 2.2265625 -212.10507813 1.453125 -211.12890625 0.65625 C-150.64539916 -47.75890731 -60.65111482 -48.81431122 0 0 Z M-187.875 52.3125 C-188.40867187 52.84488281 -188.94234375 53.37726563 -189.4921875 53.92578125 C-194.6706313 61.04949539 -194.43981666 67.84971315 -194.41992188 76.39575195 C-194.42727041 77.75000708 -194.43585891 79.10425597 -194.44558716 80.45849609 C-194.46773211 84.1219152 -194.47073731 87.7851089 -194.46883965 91.44858575 C-194.46871959 94.51490957 -194.47729803 97.58118624 -194.48561716 100.64749688 C-194.5048268 107.88701911 -194.50774433 115.12642606 -194.50097656 122.3659668 C-194.49434077 129.81478488 -194.51718675 137.26310715 -194.55429029 144.71182472 C-194.58506231 151.12398754 -194.59633914 157.53599151 -194.59245348 163.94822663 C-194.59039332 167.77044416 -194.59575044 171.59227591 -194.62034607 175.41442299 C-194.64273494 179.0122729 -194.64063643 182.60932146 -194.62041855 186.20717621 C-194.61542475 188.14229152 -194.63494031 190.0774226 -194.65542603 192.01243591 C-194.58245414 199.65022566 -193.53003996 205.69397673 -189 212 C-186.49285745 214.33901117 -183.95364602 216.26187033 -181 218 C-180.10474609 218.54140625 -180.10474609 218.54140625 -179.19140625 219.09375 C-172.44439309 221.88395865 -164.56586177 221.14801884 -157.41455078 221.14526367 C-156.16002106 221.14862228 -154.90549133 221.1519809 -153.61294556 221.15544128 C-150.18722659 221.16329052 -146.76156826 221.16661748 -143.33584452 221.16725707 C-141.1914421 221.16797004 -139.04704596 221.170109 -136.90264511 221.17275429 C-129.4098648 221.18199242 -121.91710222 221.18609104 -114.42431641 221.18530273 C-107.45847649 221.18470213 -100.49271405 221.19525446 -93.52689373 221.2110464 C-87.53005491 221.22415338 -81.53324131 221.22948532 -75.53638828 221.22884732 C-71.96192563 221.2285933 -68.38753193 221.2313918 -64.81308365 221.24202538 C-60.82341523 221.25357144 -56.83391888 221.24894026 -52.84423828 221.24291992 C-51.67199707 221.24853943 -50.49975586 221.25415894 -49.29199219 221.25994873 C-38.77581185 221.2197059 -30.10516374 220.17841052 -22 213 C-17.85115629 207.77443257 -15.87941037 203.15789861 -15.85955811 196.45405579 C-15.85384796 195.30033981 -15.84813782 194.14662384 -15.84225464 192.95794678 C-15.84113678 191.69089905 -15.84001892 190.42385132 -15.83886719 189.1184082 C-15.83423808 187.77135584 -15.8292133 186.42430478 -15.82382202 185.07725525 C-15.81070206 181.41585599 -15.80425348 177.75447506 -15.79981136 174.09305596 C-15.79687907 171.80395464 -15.79277389 169.51485831 -15.78830719 167.22575951 C-15.77463129 160.05926484 -15.76496595 152.8927816 -15.7611053 145.72627479 C-15.75662875 137.46234872 -15.73910006 129.19858839 -15.7101047 120.93471271 C-15.68845684 114.54221997 -15.67839931 108.14977375 -15.67706418 101.75724477 C-15.67601807 97.94182569 -15.67015215 94.1265624 -15.65224457 90.31118202 C-15.63571077 86.71849906 -15.63363389 83.12608807 -15.64238358 79.53338051 C-15.64351561 77.5954655 -15.62983797 75.65755931 -15.6156311 73.71969604 C-15.65142002 66.21499247 -16.11252574 60.15915982 -20.5078125 53.828125 C-21.04148438 53.30734375 -21.57515625 52.7865625 -22.125 52.25 C-22.64320313 51.71890625 -23.16140625 51.1878125 -23.6953125 50.640625 C-31.68611018 44.95226055 -39.10620133 44.42070276 -48.73046875 44.48242188 C-50.09649396 44.47699169 -51.46251331 44.46986402 -52.82852173 44.46118164 C-56.51457392 44.44305149 -60.20017489 44.4499726 -63.88623428 44.46269798 C-67.75774533 44.47287953 -71.62921973 44.46341808 -75.50073242 44.45715332 C-82.00023276 44.44989183 -88.49955082 44.45942507 -94.99902344 44.47851562 C-102.4955681 44.50028161 -109.9916775 44.49322917 -117.48821163 44.47121 C-123.94371972 44.45301309 -130.39909737 44.45051856 -136.85462284 44.46096468 C-140.70185027 44.46717613 -144.54887362 44.46810046 -148.39608765 44.45481873 C-152.01442038 44.44319797 -155.63219615 44.45139793 -159.25046921 44.47439575 C-161.19884237 44.48214087 -163.14726307 44.47038024 -165.09561157 44.45788574 C-173.76356872 44.54092707 -181.61950364 45.79246772 -187.875 52.3125 Z " fill="#146EB4" transform="translate(274,36)"/>
<path d="M0 0 C1.14984375 -0.00257812 2.2996875 -0.00515625 3.484375 -0.0078125 C5.28648437 0.00378906 5.28648437 0.00378906 7.125 0.015625 C8.32640625 0.00789063 9.5278125 0.00015625 10.765625 -0.0078125 C12.49039063 -0.00394531 12.49039063 -0.00394531 14.25 0 C15.83167969 0.00338379 15.83167969 0.00338379 17.4453125 0.00683594 C20.125 0.265625 20.125 0.265625 23.125 2.265625 C24.25639105 5.65979814 24.25371423 8.2391797 24.25871277 11.81881714 C24.26097833 12.48755517 24.26324388 13.1562932 24.26557809 13.84529603 C24.27191858 16.09072913 24.2710887 18.33610189 24.27026367 20.58154297 C24.27325514 22.18961668 24.27665764 23.79768967 24.28044128 25.40576172 C24.28928692 29.77768502 24.29161964 34.14958876 24.29225707 38.52152014 C24.29320591 42.16966335 24.29688394 45.817802 24.30042917 49.46594346 C24.30857594 58.07251283 24.3110132 66.67907174 24.31030273 75.28564453 C24.30970193 84.16689513 24.32025373 93.04808499 24.3360464 101.92932022 C24.34911772 109.55147935 24.3544868 117.17361862 24.35384732 124.79578888 C24.35359221 129.34939401 24.35645087 133.90294518 24.36702538 138.45653915 C24.37669943 142.73943674 24.3767903 147.02222871 24.36950874 151.30513 C24.36846203 152.87688984 24.37083095 154.44865623 24.3768692 156.02040482 C24.38457994 158.16654957 24.3799506 160.31232876 24.37223816 162.45846558 C24.37278293 163.65935255 24.37332769 164.86023952 24.37388897 166.09751701 C24.12531567 169.26160686 23.58283435 171.45775218 22.125 174.265625 C19.49332552 175.58146224 17.51024212 175.39517512 14.56640625 175.3984375 C12.90448242 175.40037109 12.90448242 175.40037109 11.20898438 175.40234375 C10.04689453 175.39847656 8.88480469 175.39460937 7.6875 175.390625 C6.52927734 175.39449219 5.37105469 175.39835938 4.17773438 175.40234375 C3.06849609 175.40105469 1.95925781 175.39976562 0.81640625 175.3984375 C-0.20251709 175.39730957 -1.22144043 175.39618164 -2.27124023 175.39501953 C-4.875 175.265625 -4.875 175.265625 -7.875 174.265625 C-9.09193876 171.83174747 -9.19459896 169.84723654 -9.4375 167.140625 C-9.56318359 165.77550781 -9.56318359 165.77550781 -9.69140625 164.3828125 C-9.75199219 163.68414062 -9.81257813 162.98546875 -9.875 162.265625 C-10.596875 163.008125 -11.31875 163.750625 -12.0625 164.515625 C-23.25071378 175.45521181 -35.93923144 178.65372013 -51.1496582 178.56396484 C-66.76919322 178.19203265 -81.1627994 171.39045283 -92.1171875 160.33984375 C-106.58326285 144.74974931 -110.81323882 125.63043054 -110.04980469 104.83251953 C-108.94250317 88.57250819 -101.17164032 73.83295159 -89.875 62.265625 C-76.98199214 51.07510631 -61.89108621 45.84089247 -44.875 46.265625 C-33.11165332 47.23089162 -22.93613132 50.41497851 -14.08984375 58.44140625 C-13.29570068 59.15852783 -12.50155762 59.87564941 -11.68334961 60.61450195 C-11.08659424 61.15937256 -10.48983887 61.70424316 -9.875 62.265625 C-9.86620064 61.14475998 -9.86620064 61.14475998 -9.85722351 60.00125122 C-9.79937676 52.9673399 -9.72734702 45.93375142 -9.63928509 38.90016365 C-9.59451161 35.28388816 -9.55527148 31.66772715 -9.52856445 28.05126953 C-9.50260019 24.56270971 -9.46224823 21.07458879 -9.41181374 17.5862999 C-9.38694982 15.60435623 -9.37708215 13.62224299 -9.36735535 11.64016724 C-9.34756119 10.43907318 -9.32776703 9.23797913 -9.30737305 8.00048828 C-9.29626999 6.93903595 -9.28516693 5.87758362 -9.27372742 4.78396606 C-9.14214737 3.95291351 -9.01056732 3.12186096 -8.875 2.265625 C-5.42139557 -0.03677795 -4.07000616 0.00870723 0 0 Z M-68.875 89.265625 C-76.3154998 98.47925059 -77.9761545 107.59338726 -76.875 119.265625 C-74.75873899 128.50021851 -70.37136133 135.97988318 -62.6875 141.578125 C-53.64300114 147.1044799 -44.23079188 148.47502517 -33.875 146.265625 C-24.82343527 143.00880448 -17.47333682 138.07833398 -12.5625 129.703125 C-8.05815735 119.64147647 -7.89503184 108.2973487 -11.6953125 98.0546875 C-16.12168411 88.34642708 -22.91670647 82.97110066 -32.73828125 79.15234375 C-46.07997216 75.38078231 -59.65993586 79.0221839 -68.875 89.265625 Z " fill="#000000" transform="translate(515.875,76.734375)"/>
<path d="M0 0 C1.14984375 0.00064453 2.2996875 0.00128906 3.484375 0.00195312 C4.68578125 0.01806641 5.8871875 0.03417969 7.125 0.05078125 C8.32640625 0.04755859 9.5278125 0.04433594 10.765625 0.04101562 C19.72446075 0.09625508 19.72446075 0.09625508 23.125 2.36328125 C24.46093951 6.37109977 24.30290164 10.24374299 24.33032227 14.42456055 C24.34022186 15.35158783 24.35012146 16.27861511 24.36032104 17.23373413 C24.39193936 20.30163 24.41669486 23.36954136 24.44140625 26.4375 C24.46197548 28.56313991 24.48297195 30.68877572 24.50437927 32.81440735 C24.55960306 38.41212654 24.60901103 44.00988266 24.65722656 49.60766602 C24.70743931 55.31855562 24.76312656 61.02939151 24.81835938 66.74023438 C24.92594473 77.9478708 25.02738891 89.15555383 25.125 100.36328125 C27.37269752 97.47904897 29.61930412 94.59396874 31.86572266 91.70874023 C32.49869766 90.8965377 33.13167267 90.08433517 33.78382874 89.24752045 C38.10419393 83.6971258 42.35675987 78.10994369 46.5 72.42578125 C47.07596924 71.64146729 47.65193848 70.85715332 48.24536133 70.04907227 C50.74252462 66.6446801 53.22633081 63.23186696 55.67578125 59.79296875 C56.38089844 58.80554688 57.08601562 57.818125 57.8125 56.80078125 C58.39386719 55.97449219 58.97523438 55.14820313 59.57421875 54.296875 C61.125 52.36328125 61.125 52.36328125 64.125 50.36328125 C67.37133789 50.10449219 67.37133789 50.10449219 71.34765625 50.09765625 C72.39958412 50.09478607 72.39958412 50.09478607 73.47276306 50.09185791 C74.95295572 50.09049858 76.43316041 50.09417743 77.91333008 50.10253906 C80.18272544 50.1132587 82.45133211 50.10262755 84.72070312 50.08984375 C86.15885592 50.09116508 87.59700822 50.09372691 89.03515625 50.09765625 C90.34621338 50.09991211 91.65727051 50.10216797 93.00805664 50.10449219 C96.125 50.36328125 96.125 50.36328125 98.125 52.36328125 C97.87287753 56.82508496 95.88408117 59.41317388 93.1875 62.86328125 C92.78781006 63.38027588 92.38812012 63.89727051 91.97631836 64.42993164 C91.12849617 65.52530276 90.27692519 66.61778124 89.421875 67.70751953 C88.15628216 69.32334232 86.90395346 70.94846137 85.65625 72.578125 C82.34756262 76.89931405 79.01977329 81.20567728 75.69140625 85.51171875 C69.08858849 94.06897057 62.59404613 102.70454082 56.125 111.36328125 C57.42265126 114.14782458 58.85184632 116.43569738 60.8125 118.796875 C61.60527344 119.75980469 61.60527344 119.75980469 62.4140625 120.7421875 C62.97867188 121.42152344 63.54328125 122.10085937 64.125 122.80078125 C68.20705156 127.76398051 72.23339707 132.74915174 76.125 137.86328125 C79.38737213 142.14914268 82.72818035 146.34921493 86.14794922 150.51049805 C100.27459498 167.71049804 100.27459498 167.71049804 99.8828125 172.0390625 C99.50769531 173.18955078 99.50769531 173.18955078 99.125 174.36328125 C94.92141595 176.46507328 89.42763057 175.54913948 84.80371094 175.54858398 C82.76476008 175.55076546 80.72635475 175.56891192 78.6875 175.58789062 C77.40101563 175.58982422 76.11453125 175.59175781 74.7890625 175.59375 C73.60779785 175.59785889 72.4265332 175.60196777 71.20947266 175.60620117 C67.46779475 175.31152257 65.33268645 174.65281912 62.75976562 171.90551758 C62.15165039 171.05896606 62.15165039 171.05896606 61.53125 170.1953125 C61.06444824 169.55698486 60.59764648 168.91865723 60.11669922 168.26098633 C59.37830811 167.22880981 59.37830811 167.22880981 58.625 166.17578125 C57.5567752 164.71591799 56.48640709 163.25762099 55.4140625 161.80078125 C54.59663574 160.68896484 54.59663574 160.68896484 53.76269531 159.5546875 C51.25391305 156.19767653 48.6348668 152.93418901 46 149.67578125 C39.6577002 141.81017203 33.34722458 133.90826139 27.48413086 125.67578125 C27.04040634 125.05316406 26.59668182 124.43054688 26.13951111 123.7890625 C25.63732811 123.08330078 25.63732811 123.08330078 25.125 122.36328125 C25.11691315 122.95574646 25.10882629 123.54821167 25.10049438 124.15863037 C25.0144604 130.32309495 24.91495716 136.48723755 24.80761719 142.65136719 C24.76932583 144.95209345 24.73447326 147.2528796 24.703125 149.55371094 C24.6574783 152.86024387 24.59948253 156.16636437 24.5390625 159.47265625 C24.52751129 160.50195251 24.51596008 161.53124878 24.50405884 162.59173584 C24.48418915 163.55242981 24.46431946 164.51312378 24.44384766 165.50292969 C24.43052399 166.34676208 24.41720032 167.19059448 24.4034729 168.05999756 C24.09804578 170.58622296 23.47499099 172.21476337 22.125 174.36328125 C19.49332552 175.67911849 17.51024212 175.49283137 14.56640625 175.49609375 C12.90448242 175.49802734 12.90448242 175.49802734 11.20898438 175.5 C10.04689453 175.49613281 8.88480469 175.49226562 7.6875 175.48828125 C6.52927734 175.49214844 5.37105469 175.49601563 4.17773438 175.5 C3.06849609 175.49871094 1.95925781 175.49742187 0.81640625 175.49609375 C-0.20251709 175.49496582 -1.22144043 175.49383789 -2.27124023 175.49267578 C-4.875 175.36328125 -4.875 175.36328125 -7.875 174.36328125 C-9.32182011 171.46964103 -9.00768648 168.96130904 -9.01544189 165.72706604 C-9.01841302 165.03735354 -9.02138414 164.34764104 -9.0244453 163.63702816 C-9.03315049 161.31472865 -9.03464206 158.99248057 -9.03613281 156.67016602 C-9.04075964 155.00973398 -9.04578411 153.34930301 -9.05117798 151.68887329 C-9.06431554 147.17033976 -9.07074937 142.6518211 -9.07518864 138.13327146 C-9.07811668 135.31270665 -9.08222093 132.49214593 -9.08669281 129.67158318 C-9.1003702 120.85363138 -9.11003615 112.03568891 -9.1138947 103.21772724 C-9.11837871 93.02543754 -9.13594146 82.83328173 -9.1648953 72.64103276 C-9.1864795 64.77094418 -9.1965972 56.90089336 -9.19793582 49.03077549 C-9.19898603 44.32628199 -9.2049397 39.6219143 -9.22275543 34.91745186 C-9.23918026 30.49418786 -9.241419 26.07114502 -9.23261642 21.64786148 C-9.23184309 20.02204358 -9.23622762 18.39621406 -9.24607468 16.7704258 C-9.25870608 14.55551044 -9.25296638 12.3413889 -9.24249268 10.1264801 C-9.24395924 8.885579 -9.2454258 7.64467791 -9.2469368 6.36617374 C-8.875 3.36328125 -8.875 3.36328125 -7.51951218 1.46385098 C-5.03281669 -0.20033966 -2.96403662 -0.00837938 0 0 Z " fill="#000000" transform="translate(688.875,76.63671875)"/>
<path d="M0 0 C8.78642706 8.31302043 13.6842462 19.08834089 14.14717102 31.18582153 C14.16217637 32.70863774 14.17176201 34.23151342 14.17700195 35.75439453 C14.18357315 36.58911285 14.19014435 37.42383118 14.19691467 38.28384399 C14.21655976 41.03428241 14.22828554 43.78466667 14.23828125 46.53515625 C14.24235678 47.47562679 14.2464323 48.41609734 14.25063133 49.38506699 C14.27144633 54.35517911 14.28577237 59.32526394 14.29516602 64.29541016 C14.3062703 69.43496274 14.34072906 74.57408711 14.38033772 79.71348763 C14.40642057 83.6630842 14.41485 87.61257691 14.41844749 91.56225204 C14.42332865 93.45774124 14.43498585 95.35322533 14.45348549 97.24863052 C14.47771844 99.89413366 14.47694228 102.53850294 14.4699707 105.18408203 C14.48278076 105.96960449 14.49559082 106.75512695 14.50878906 107.56445312 C14.45782142 112.85303928 14.45782142 112.85303928 12.13273621 115.32531738 C9.45339839 116.59985797 7.4650913 116.72781974 4.5 116.73828125 C3.448125 116.74214844 2.39625 116.74601563 1.3125 116.75 C0.219375 116.73839844 -0.87375 116.72679687 -2 116.71484375 C-3.093125 116.72644531 -4.18625 116.73804688 -5.3125 116.75 C-6.8903125 116.74419922 -6.8903125 116.74419922 -8.5 116.73828125 C-9.4590625 116.73489746 -10.418125 116.73151367 -11.40625 116.72802734 C-14.43738831 116.27438371 -15.80806088 115.45448685 -18 113.33984375 C-18.75 110.65234375 -18.75 110.65234375 -19 108.33984375 C-19.46148438 108.7265625 -19.92296875 109.11328125 -20.3984375 109.51171875 C-32.08230283 118.8403385 -44.49680447 120.2166874 -59 119.33984375 C-69.6839141 117.99974405 -78.94764751 113.38843457 -85.9375 105.08984375 C-93.41784596 94.33684644 -94.31187536 83.09115746 -93 70.33984375 C-91.28348271 61.62521751 -86.77099735 53.89668843 -79.60546875 48.5546875 C-66.41885248 40.31052034 -51.81571474 38.19914112 -36.63818359 41.51977539 C-30.02316029 43.13735166 -24.49471466 45.21880776 -19 49.33984375 C-18.19328236 35.38205814 -18.19328236 35.38205814 -23.8125 22.96484375 C-29.27512238 18.9068957 -35.42832473 18.57776695 -42 19.33984375 C-46.47997727 20.39604092 -49.84113994 21.74853104 -52.6015625 25.5390625 C-53.46312858 27.10348511 -54.27635596 28.69599533 -55.02734375 30.31640625 C-56 32.33984375 -56 32.33984375 -58 34.33984375 C-60.56616211 34.59863281 -60.56616211 34.59863281 -63.77734375 34.60546875 C-65.50694336 34.60933594 -65.50694336 34.60933594 -67.27148438 34.61328125 C-68.48126953 34.60554688 -69.69105469 34.5978125 -70.9375 34.58984375 C-72.74637695 34.60144531 -72.74637695 34.60144531 -74.59179688 34.61328125 C-75.74615234 34.61070312 -76.90050781 34.608125 -78.08984375 34.60546875 C-79.15066162 34.60321289 -80.21147949 34.60095703 -81.30444336 34.59863281 C-84 34.33984375 -84 34.33984375 -87 32.33984375 C-88.76019803 24.15492291 -86.03817869 16.39018371 -82 9.33984375 C-73.47250336 -2.35453752 -62.09773882 -9.30989652 -47.9375 -11.97265625 C-30.70947027 -14.22774033 -13.66414479 -11.34230769 0 0 Z M-58.5 72.02734375 C-60.43817225 76.30747413 -60.69346814 79.71672284 -60 84.33984375 C-58.15259885 88.95834663 -55.37466895 91.07439019 -51 93.33984375 C-42.75232405 95.90491043 -34.87717047 95.78508986 -26.859375 92.44921875 C-23.43475556 90.63618493 -20.70304565 88.8405487 -19 85.33984375 C-17.78212386 80.69057935 -17.49079824 77.46433098 -19.5 73.02734375 C-23.89096328 68.30705822 -28.99212273 65.54393776 -35.51171875 65.1015625 C-44.81529269 64.85391341 -51.8658327 64.8956139 -58.5 72.02734375 Z " fill="#000000" transform="translate(886,135.66015625)"/>
<path d="M0 0 C1.38643559 1.21411026 2.74133279 2.46517138 4.0625 3.75 C4.77019531 4.41902344 5.47789062 5.08804688 6.20703125 5.77734375 C14.80792456 14.60163689 18.22226912 25.16593418 18.19189453 37.25048828 C18.19452301 38.53401688 18.19452301 38.53401688 18.19720459 39.84347534 C18.20160254 42.66910841 18.19869286 45.4946788 18.1953125 48.3203125 C18.19598601 50.28278617 18.19695642 52.24525977 18.19821167 54.20773315 C18.19968575 58.31834712 18.1975429 62.42893934 18.19287109 66.53955078 C18.18716647 71.81693814 18.19045928 77.09427473 18.19644356 82.37166023 C18.20005057 86.42243841 18.19891007 90.47320447 18.19631577 94.523983 C18.19564727 96.47050864 18.19647221 98.41703536 18.19879532 100.36355972 C18.20132493 103.07850324 18.19747719 105.79336349 18.19189453 108.50830078 C18.19391876 109.31769104 18.19594299 110.1270813 18.19802856 110.96099854 C18.17676569 116.52146862 18.17676569 116.52146862 17.0625 118.75 C12.19975189 120.37091604 7.21760494 120.01780189 2.125 120.0625 C1.02736328 120.09150391 -0.07027344 120.12050781 -1.20117188 120.15039062 C-2.78575195 120.16295898 -2.78575195 120.16295898 -4.40234375 120.17578125 C-5.85048462 120.19765503 -5.85048462 120.19765503 -7.32788086 120.2199707 C-10.6779046 119.61665929 -11.83299969 118.36559755 -13.9375 115.75 C-14.6875 113.5 -14.6875 113.5 -14.9375 111.75 C-15.39898438 112.13671875 -15.86046875 112.5234375 -16.3359375 112.921875 C-27.97721756 122.21649386 -40.46437419 123.70280842 -54.9375 122.75 C-64.69237528 121.25738655 -75.16839727 116.67783613 -81.46484375 108.8515625 C-89.00049299 98.34955744 -90.16652508 87.34599351 -88.9375 74.75 C-87.18661649 64.55985795 -81.94087224 57.43555882 -73.85546875 51.125 C-62.26055355 43.44079584 -48.20693007 41.91237718 -34.68359375 44.46875 C-27.33765022 46.07594103 -21.02241374 48.18631469 -14.9375 52.75 C-14.85585841 50.0618751 -14.79670332 47.376277 -14.75 44.6875 C-14.72486328 43.93533203 -14.69972656 43.18316406 -14.67382812 42.40820312 C-14.60424014 37.04992864 -15.55871524 33.54951283 -17.9375 28.75 C-18.2675 27.76 -18.5975 26.77 -18.9375 25.75 C-25.11103669 22.40140755 -32.36824317 21.63199035 -39.140625 23.2890625 C-44.72892088 25.17252518 -47.79740625 27.55751202 -50.5625 32.875 C-51.01625 33.82375 -51.47 34.7725 -51.9375 35.75 C-55.13939713 38.95189713 -58.84380147 38.04542548 -63.20898438 38.07226562 C-64.41876953 38.06904297 -65.62855469 38.06582031 -66.875 38.0625 C-68.68387695 38.08666992 -68.68387695 38.08666992 -70.52929688 38.11132812 C-72.26083008 38.11229492 -72.26083008 38.11229492 -74.02734375 38.11328125 C-75.08816162 38.11626221 -76.14897949 38.11924316 -77.24194336 38.12231445 C-79.9375 37.75 -79.9375 37.75 -81.77978516 36.34448242 C-84.10305012 33.14472631 -83.43542582 29.50707666 -82.9375 25.75 C-80.05274287 13.79886331 -72.71220131 4.61515051 -62.390625 -1.84375 C-44.00128354 -11.98273827 -17.46251508 -12.83569484 0 0 Z M-54.4375 75.4375 C-56.38240929 79.73250802 -56.73670697 83.11293454 -55.9375 87.75 C-53.86157632 92.33433145 -51.14036438 95.02305529 -46.609375 97.05859375 C-38.17602715 99.24090745 -27.57178277 99.07129213 -19.9375 94.75 C-16.4138518 91.41321193 -14.05768105 88.34239892 -13.6875 83.4375 C-14.03498711 78.31206507 -15.57049153 76.04311612 -19.25 72.5625 C-29.50073202 65.64921562 -45.95360173 66.31730936 -54.4375 75.4375 Z " fill="#000000" transform="translate(1002.9375,132.25)"/>
<path d="M0 0 C13.71665728 15.91267384 13.74486907 34.47846155 13.75390625 54.36328125 C13.75712607 56.03952054 13.76049067 57.71575956 13.76399231 59.39199829 C13.76994229 62.88324639 13.77183614 66.37446986 13.77124023 69.86572266 C13.77113803 74.3344172 13.7848682 78.80295494 13.80201244 83.27161217 C13.81312903 86.72373175 13.81515966 90.17581311 13.81463051 93.62794876 C13.81580813 95.27614515 13.82021764 96.9243426 13.82796288 98.57252121 C13.83777004 100.8718656 13.83488361 103.1708648 13.82885742 105.47021484 C13.83028244 106.77606537 13.83170746 108.08191589 13.83317566 109.42733765 C13.59506851 112.71381298 13.11756809 114.93906812 11.5859375 117.83984375 C8.95426302 119.15568099 6.97117962 118.96939387 4.02734375 118.97265625 C2.36541992 118.97458984 2.36541992 118.97458984 0.66992188 118.9765625 C-0.49216797 118.97269531 -1.65425781 118.96882812 -2.8515625 118.96484375 C-4.00978516 118.96871094 -5.16800781 118.97257813 -6.36132812 118.9765625 C-7.47056641 118.97527344 -8.57980469 118.97398437 -9.72265625 118.97265625 C-10.74157959 118.97152832 -11.76050293 118.97040039 -12.81030273 118.96923828 C-15.4140625 118.83984375 -15.4140625 118.83984375 -18.4140625 117.83984375 C-19.90881561 114.85033753 -19.56358991 112.11379777 -19.58764648 108.77905273 C-19.5943335 108.05194595 -19.60102051 107.32483917 -19.60791016 106.57569885 C-19.62197642 104.99334334 -19.63386544 103.41096734 -19.64385796 101.82858086 C-19.66027285 99.31810555 -19.6835154 96.80777969 -19.70875549 94.29737854 C-19.77948559 87.15820797 -19.83940106 80.01897345 -19.89086914 72.87963867 C-19.92282508 68.51355608 -19.96415152 64.14764063 -20.01106453 59.78169441 C-20.02699734 58.12288513 -20.03935874 56.46403731 -20.04797173 54.80517387 C-19.53555089 40.43427288 -19.53555089 40.43427288 -24.6015625 27.46484375 C-29.59193419 22.80716351 -34.44955638 21.32187261 -41.13671875 21.5390625 C-44.86868482 22.03196368 -47.96101515 23.35146127 -51.4140625 24.83984375 C-52.4040625 25.16984375 -53.3940625 25.49984375 -54.4140625 25.83984375 C-55.53341323 27.48614568 -55.53341323 27.48614568 -56.4140625 29.83984375 C-56.92142441 31.0488031 -57.42878632 32.25776245 -57.95152283 33.50335693 C-59.46175611 37.56139416 -59.8438933 41.35168197 -59.81469727 45.66113281 C-59.82167633 46.39714722 -59.8286554 47.13316162 -59.83584595 47.89147949 C-59.85565525 50.29626268 -59.85532187 52.7006117 -59.85546875 55.10546875 C-59.86725342 56.78840273 -59.8806203 58.47132631 -59.89549255 60.15423584 C-59.93153797 64.56505553 -59.95184193 68.97578286 -59.96704102 73.38671875 C-59.99195575 80.45994734 -60.03153293 87.53297215 -60.08894157 94.60601044 C-60.10524882 97.07220766 -60.10904524 99.53821112 -60.11195374 102.00445557 C-60.12172894 103.51501806 -60.13199204 105.02557751 -60.14282227 106.53613281 C-60.14709732 107.85325256 -60.15137238 109.17037231 -60.15577698 110.52740479 C-60.39583199 113.6060426 -60.67895648 115.3249591 -62.4140625 117.83984375 C-65.04573698 119.15568099 -67.02882038 118.96939387 -69.97265625 118.97265625 C-71.63458008 118.97458984 -71.63458008 118.97458984 -73.33007812 118.9765625 C-74.49216797 118.97269531 -75.65425781 118.96882812 -76.8515625 118.96484375 C-78.00978516 118.96871094 -79.16800781 118.97257813 -80.36132812 118.9765625 C-81.47056641 118.97527344 -82.57980469 118.97398437 -83.72265625 118.97265625 C-84.74157959 118.97152832 -85.76050293 118.97040039 -86.81030273 118.96923828 C-89.4140625 118.83984375 -89.4140625 118.83984375 -92.4140625 117.83984375 C-93.63960981 115.38874912 -93.54255831 113.79809486 -93.54777527 111.05712891 C-93.55204025 110.04757141 -93.55630524 109.03801392 -93.56069946 107.99786377 C-93.56024628 106.88610779 -93.55979309 105.77435181 -93.55932617 104.62890625 C-93.56268478 103.46139832 -93.5660434 102.29389038 -93.56950378 101.09100342 C-93.57739039 97.88446817 -93.58068216 94.67797172 -93.58131957 91.47142792 C-93.58226801 88.79730064 -93.58594546 86.12317771 -93.58949167 83.44905281 C-93.59763851 77.14246429 -93.60007565 70.83589005 -93.59936523 64.52929688 C-93.598764 58.01614549 -93.60932428 51.50307681 -93.6251089 44.98994637 C-93.63816694 39.40350516 -93.64354988 33.81709105 -93.64290982 28.23063469 C-93.64265437 24.89162522 -93.64553152 21.55267439 -93.65608788 18.21368408 C-93.66583006 14.49264559 -93.66303277 10.77182284 -93.65698242 7.05078125 C-93.66260193 5.93902527 -93.66822144 4.82726929 -93.67401123 3.68182373 C-93.66981674 2.67226624 -93.66562225 1.66270874 -93.66130066 0.62255859 C-93.66211781 -0.69816147 -93.66211781 -0.69816147 -93.66295147 -2.04556274 C-93.4140625 -4.16015625 -93.4140625 -4.16015625 -91.4140625 -6.16015625 C-86.78740494 -6.67568988 -82.12864707 -6.57698032 -77.4765625 -6.59765625 C-75.52459961 -6.64696289 -75.52459961 -6.64696289 -73.53320312 -6.69726562 C-71.66631836 -6.70790039 -71.66631836 -6.70790039 -69.76171875 -6.71875 C-68.61711182 -6.73220459 -67.47250488 -6.74565918 -66.29321289 -6.75952148 C-63.4140625 -6.16015625 -63.4140625 -6.16015625 -61.56030273 -3.76977539 C-60.58292302 -1.54459716 -59.85543715 0.45642063 -59.4140625 2.83984375 C-58.89199219 2.30875 -58.36992188 1.77765625 -57.83203125 1.23046875 C-42.80754727 -13.18882586 -15.69628411 -15.04546258 0 0 Z " fill="#000000" transform="translate(1130.4140625,133.16015625)"/>
<path d="M0 0 C1.87171875 -0.00386719 1.87171875 -0.00386719 3.78125 -0.0078125 C5.74578125 0.00378906 5.74578125 0.00378906 7.75 0.015625 C9.0596875 0.00789063 10.369375 0.00015625 11.71875 -0.0078125 C12.9665625 -0.00523438 14.214375 -0.00265625 15.5 0 C16.64984375 0.00225586 17.7996875 0.00451172 18.984375 0.00683594 C21.75 0.265625 21.75 0.265625 23.75 2.265625 C24.01501465 5.33082581 24.01501465 5.33082581 24.03710938 9.32641602 C24.04394241 10.0535228 24.05077545 10.78062958 24.05781555 11.5297699 C24.07142357 13.11211101 24.08046398 14.69449637 24.08552551 16.27688789 C24.0938091 18.78744416 24.11431363 21.29763568 24.13806152 23.80809021 C24.18635991 29.14804755 24.21919344 34.48804194 24.25 39.828125 C24.28574709 45.99345512 24.32792403 52.15861025 24.38594055 58.32377434 C24.40587587 60.78582542 24.41430509 63.24773952 24.42224121 65.70985413 C24.25744555 80.45079429 24.25744555 80.45079429 30.75 93.265625 C36.24645645 97.49366842 43.14142953 96.99184154 49.75 96.265625 C55.10832896 94.69609872 58.78178369 92.06043595 61.75 87.265625 C65.6206346 78.30205014 64.91342125 67.99187211 64.97979546 58.41147041 C64.99638526 56.10398489 65.01961922 53.79665064 65.04469299 51.48924255 C65.11503904 44.9360214 65.17589463 38.38274669 65.22680664 31.8293457 C65.2585291 27.80534024 65.29975961 23.78152502 65.34700203 19.75767326 C65.36303027 18.22705411 65.37534805 16.69639149 65.38390923 15.16571236 C65.39601434 13.03548795 65.42013417 10.90571636 65.44702148 8.77563477 C65.45732895 7.56367935 65.46763641 6.35172394 65.47825623 5.1030426 C65.75 2.265625 65.75 2.265625 67.75 0.265625 C70.515625 0.00683594 70.515625 0.00683594 74 0 C75.87171875 -0.00386719 75.87171875 -0.00386719 77.78125 -0.0078125 C79.74578125 0.00378906 79.74578125 0.00378906 81.75 0.015625 C83.0596875 0.00789063 84.369375 0.00015625 85.71875 -0.0078125 C86.9665625 -0.00523438 88.214375 -0.00265625 89.5 0 C90.64984375 0.00225586 91.7996875 0.00451172 92.984375 0.00683594 C95.75 0.265625 95.75 0.265625 97.75 2.265625 C97.99609566 4.4014225 97.99609566 4.4014225 97.99050903 7.09976196 C97.99325836 8.12062393 97.99600769 9.1414859 97.99884033 10.19328308 C97.9880545 11.8796563 97.9880545 11.8796563 97.97705078 13.60009766 C97.97734283 14.78057175 97.97763489 15.96104584 97.97793579 17.17729187 C97.97677917 20.41887419 97.96673177 23.66028502 97.95278788 26.90183306 C97.94030614 30.28776845 97.93911204 33.67370702 97.93673706 37.05966187 C97.93051475 43.47345959 97.91409382 49.88718933 97.89403808 56.30095708 C97.8717024 63.60194325 97.86069153 70.90293263 97.85064721 78.20394444 C97.82972821 93.22454254 97.7945377 108.24507698 97.75 123.265625 C94.29797694 125.1202888 91.94115717 125.52241518 87.99609375 125.53125 C86.89458984 125.53382813 85.79308594 125.53640625 84.65820312 125.5390625 C83.51287109 125.53132813 82.36753906 125.52359375 81.1875 125.515625 C80.03830078 125.52335937 78.88910156 125.53109375 77.70507812 125.5390625 C76.60486328 125.53648437 75.50464844 125.53390625 74.37109375 125.53125 C72.86180298 125.52786621 72.86180298 125.52786621 71.32202148 125.52441406 C68.75 125.265625 68.75 125.265625 65.75 123.265625 C65.04947539 120.602562 64.97255182 118.02526763 64.75 115.265625 C64.21632813 115.79671875 63.68265625 116.3278125 63.1328125 116.875 C52.89604243 126.58044982 42.51187154 128.70485871 28.765625 128.4765625 C18.00316573 128.06957875 9.35440173 123.32963266 2 115.578125 C-10.6904999 100.1787481 -9.44580051 79.99048391 -9.19921875 61.22265625 C-9.1799407 59.51967105 -9.16088655 57.81668331 -9.14204407 56.11369324 C-9.10139701 52.57467512 -9.05620881 49.03574977 -9.00805664 45.49682617 C-8.94691708 40.95629019 -8.90026246 36.41572848 -8.85722637 31.87498951 C-8.82197124 28.37229261 -8.77773392 24.86975237 -8.73087502 21.36719322 C-8.70982032 19.6914399 -8.69192076 18.01564389 -8.6772213 16.33982277 C-8.65574714 14.01122428 -8.62185938 11.6831302 -8.5847168 9.35473633 C-8.58098557 8.6623436 -8.57725433 7.96995087 -8.57341003 7.25657654 C-8.43856449 0.49911307 -6.37575706 0.01250849 0 0 Z " fill="#000000" transform="translate(563.25,126.734375)"/>
<path d="M0 0 C3.99060834 1.81391288 5.5444409 3.19011716 7.6875 7 C8.88107228 10.20343824 9.56820643 13.48028915 10.3125 16.8125 C12.54880442 26.07056855 17.02282018 33.63690659 25 39 C33.41286171 44.11204072 42.33814598 46.41183962 52.078125 44.34765625 C63.10079501 41.3612817 71.09136336 35.86684954 77 26 C79.38274657 21.29482956 80.30338479 16.46246726 81.3125 11.3125 C82.92111925 4.2737701 82.92111925 4.2737701 85.5 1.6875 C90.42320862 -0.68618987 94.63168261 -0.86946002 100 0 C104.160826 2.04391453 106.30434283 3.72663977 108 8 C109.73105649 21.00305223 105.26387035 34.30552126 98 45 C95.19149163 48.54320165 92.18731572 51.79616969 89 55 C88.40832031 55.62648437 87.81664062 56.25296875 87.20703125 56.8984375 C82.98594693 61.01702308 78.21659581 63.66495028 73 66.3125 C72.33540771 66.65039551 71.67081543 66.98829102 70.98608398 67.33642578 C57.62560699 73.82368873 39.9239231 74.49155608 25.6875 70.375 C23.76740471 69.64414145 21.86841795 68.85436205 20 68 C18.58074219 67.36384766 18.58074219 67.36384766 17.1328125 66.71484375 C10.08953599 63.21271596 4.54752315 58.5284922 -1 53 C-1.63808594 52.38511719 -2.27617188 51.77023438 -2.93359375 51.13671875 C-12.34916073 41.34369029 -17.90776905 27.14597685 -18.4375 13.6875 C-18.29595071 8.49061896 -17.58015484 5.77905233 -14 2 C-9.53610711 -0.7353216 -5.08663004 -0.63482429 0 0 Z " fill="#146EB4" transform="translate(124,112)"/>
<path d="M0 0 C7.99383416 6.57270809 12.76196194 13.6554855 14.19140625 24.07421875 C14.57572106 32.7646923 12.17031039 40.73451525 6.8125 47.625 C0.69488702 53.89781669 -6.52633879 57.49513162 -15.28344727 57.92163086 C-22.23370361 57.97436422 -28.31631977 57.2540739 -34.1875 53.3125 C-34.88230469 52.84972656 -35.57710937 52.38695312 -36.29296875 51.91015625 C-43.28917071 46.54158852 -47.51377707 39.29804971 -48.6953125 30.5546875 C-48.98446729 21.01257953 -47.25255424 14.00023001 -42.0625 6.0625 C-29.85723969 -5.61209682 -14.85533147 -7.86458725 0 0 Z M-38.1875 11.3125 C-42.06279499 17.63358635 -43.86372908 24.30620711 -42.625 31.6875 C-40.85260123 38.56581575 -37.20773737 44.30516807 -31.25 48.25 C-24.16781589 52.11909491 -18.04040377 52.97938995 -10.1875 51.3125 C-2.1944153 48.79669097 2.62059283 43.05995419 6.75 36 C8.97649807 28.272742 8.7276725 20.43811396 4.8125 13.3125 C0.43154539 7.15548271 -4.75732876 3.0271549 -12.1875 1.3125 C-22.93275552 0.28138962 -31.01132608 3.0702426 -38.1875 11.3125 Z " fill="#000000" transform="translate(1191.1875,66.6875)"/>
<path d="M0 0 C2.866875 -0.0825 5.73375 -0.165 8.6875 -0.25 C9.58170654 -0.28641602 10.47591309 -0.32283203 11.3972168 -0.36035156 C15.38752251 -0.41584084 17.51811585 -0.28701368 21.0234375 1.80078125 C23.74293946 4.82663027 23.92942865 6.97743319 24 11 C22.99137363 15.03450549 21.49011466 16.78959405 18 19 C18.3609375 19.55429688 18.721875 20.10859375 19.09375 20.6796875 C19.5578125 21.40414062 20.021875 22.12859375 20.5 22.875 C21.19609375 23.95394531 21.19609375 23.95394531 21.90625 25.0546875 C23 27 23 27 23 29 C20.375 29.5625 20.375 29.5625 17 29 C15.25519497 26.79603575 13.92463959 24.53868028 12.58984375 22.06640625 C11.13288577 19.75267093 11.13288577 19.75267093 8.31640625 19.21484375 C7.55199219 19.14394531 6.78757812 19.07304688 6 19 C6 22.3 6 25.6 6 29 C4.02 29 2.04 29 0 29 C0 19.43 0 9.86 0 0 Z M6 4 C6 7.3 6 10.6 6 14 C8.413125 13.814375 8.413125 13.814375 10.875 13.625 C11.77992187 13.55539063 12.68484375 13.48578125 13.6171875 13.4140625 C16.17941903 13.20431868 16.17941903 13.20431868 18 11 C17.67958603 8.39719432 17.67958603 8.39719432 17 6 C12.9402698 4.48940272 10.45389333 4 6 4 Z " fill="#000000" transform="translate(1164,79)"/>
</svg>
