<?xml version="1.0" encoding="UTF-8"?>
<svg version="1.1" xmlns="http://www.w3.org/2000/svg" width="289" height="175">
<path d="M0 0 C95.37 0 190.74 0 289 0 C289 57.75 289 115.5 289 175 C193.63 175 98.26 175 0 175 C0 117.25 0 59.5 0 0 Z " fill="#FF7F01" transform="translate(0,0)"/>
<path d="M0 0 C5.6288916 3.9809374 10.79827336 8.21162459 15.40209961 13.36352539 C15.40209961 13.69352539 15.40209961 14.02352539 15.40209961 14.36352539 C14.40307617 14.41250977 13.40405273 14.46149414 12.37475586 14.51196289 C11.0844043 14.58672852 9.79405273 14.66149414 8.46459961 14.73852539 C7.17682617 14.80813477 5.88905273 14.87774414 4.56225586 14.94946289 C3.5194043 15.08610352 2.47655273 15.22274414 1.40209961 15.36352539 C1.07209961 16.02352539 0.74209961 16.68352539 0.40209961 17.36352539 C0.98701172 17.36239746 1.57192383 17.36126953 2.17456055 17.36010742 C4.83490307 17.37224306 7.49239206 17.42990925 10.15209961 17.48852539 C11.07249023 17.48594727 11.99288086 17.48336914 12.94116211 17.48071289 C13.83061523 17.50649414 14.72006836 17.53227539 15.63647461 17.55883789 C16.86188965 17.57454834 16.86188965 17.57454834 18.11206055 17.59057617 C20.40209961 18.36352539 20.40209961 18.36352539 24.40209961 24.36352539 C14.50209961 24.69352539 4.60209961 25.02352539 -5.59790039 25.36352539 C-6.25790039 26.68352539 -6.91790039 28.00352539 -7.59790039 29.36352539 C-6.55335693 29.33734131 -5.50881348 29.31115723 -4.43261719 29.28417969 C-0.55832325 29.19370036 3.31587736 29.1362857 7.19091797 29.08886719 C8.86816102 29.06371747 10.54529441 29.0295928 12.22216797 28.98632812 C14.63268046 28.92569079 17.04174513 28.89732256 19.45288086 28.87524414 C20.57802849 28.8365345 20.57802849 28.8365345 21.72590637 28.79704285 C23.84863281 28.79589844 23.84863281 28.79589844 27.40209961 29.36352539 C28.39209961 31.01352539 29.38209961 32.66352539 30.40209961 34.36352539 C16.87209961 34.69352539 3.34209961 35.02352539 -10.59790039 35.36352539 C-11.25790039 36.68352539 -11.91790039 38.00352539 -12.59790039 39.36352539 C2.25209961 39.36352539 17.10209961 39.36352539 32.40209961 39.36352539 C33.39209961 41.83852539 33.39209961 41.83852539 34.40209961 44.36352539 C18.23209961 44.69352539 2.06209961 45.02352539 -14.59790039 45.36352539 C-14.92790039 46.35352539 -15.25790039 47.34352539 -15.59790039 48.36352539 C1.56209961 48.69352539 18.72209961 49.02352539 36.40209961 49.36352539 C36.73209961 51.34352539 37.06209961 53.32352539 37.40209961 55.36352539 C30.16130326 55.38898801 22.92051856 55.40643945 15.6796875 55.41845703 C13.21907113 55.42346979 10.75845772 55.4302817 8.29785156 55.43896484 C4.75056222 55.45116471 1.20331244 55.45678442 -2.34399414 55.46118164 C-3.4349791 55.46634293 -4.52596405 55.47150421 -5.65000916 55.4768219 C-11.7192632 55.47726252 -17.57975903 55.15951754 -23.59790039 54.36352539 C-23.72036133 55.47598633 -23.84282227 56.58844727 -23.96899414 57.73461914 C-24.69732269 63.57023928 -25.97967528 69.28621028 -27.22485352 75.02954102 C-29.19582259 83.30543841 -29.19582259 83.30543841 -27.59790039 91.36352539 C-24.71578737 92.32422973 -22.89939995 92.46934422 -19.91040039 92.42602539 C-19.1021582 92.41700195 -18.29391602 92.40797852 -17.46118164 92.39868164 C-16.84629883 92.38708008 -16.23141602 92.37547852 -15.59790039 92.36352539 C-15.26790039 90.05352539 -14.93790039 87.74352539 -14.59790039 85.36352539 C-16.24790039 85.36352539 -17.89790039 85.36352539 -19.59790039 85.36352539 C-20.69820266 82.02387554 -20.47423094 79.71288947 -19.72290039 76.30102539 C-19.44833008 75.01518555 -19.44833008 75.01518555 -19.16821289 73.70336914 C-18.59790039 71.36352539 -18.59790039 71.36352539 -17.59790039 68.36352539 C-15.94790039 68.36352539 -14.29790039 68.36352539 -12.59790039 68.36352539 C-12.26790039 66.05352539 -11.93790039 63.74352539 -11.59790039 61.36352539 C-13.24790039 61.36352539 -14.89790039 61.36352539 -16.59790039 61.36352539 C-16.59790039 60.70352539 -16.59790039 60.04352539 -16.59790039 59.36352539 C1.55209961 59.36352539 19.70209961 59.36352539 38.40209961 59.36352539 C37.40209961 66.36352539 37.40209961 66.36352539 36.40209961 68.36352539 C36.33015092 71.24722872 36.30918253 74.10592203 36.33959961 76.98852539 C36.34636719 78.1912207 36.34636719 78.1912207 36.35327148 79.41821289 C36.36506793 81.40001545 36.38300356 83.38177972 36.40209961 85.36352539 C32.44209961 85.36352539 28.48209961 85.36352539 24.40209961 85.36352539 C25.09427607 73.73496093 25.09427607 73.73496093 28.40209961 70.36352539 C31.08959961 70.11352539 31.08959961 70.11352539 33.40209961 70.36352539 C34.39209961 67.39352539 35.38209961 64.42352539 36.40209961 61.36352539 C32.99897222 62.42227613 30.3885673 63.37254693 27.40209961 65.36352539 C27.40209961 64.04352539 27.40209961 62.72352539 27.40209961 61.36352539 C24.76209961 61.36352539 22.12209961 61.36352539 19.40209961 61.36352539 C19.27963867 62.62036133 19.15717773 63.87719727 19.03100586 65.17211914 C18.4223886 70.64967449 17.40397148 76.02142336 16.33959961 81.42602539 C16.15333008 82.38702148 15.96706055 83.34801758 15.77514648 84.33813477 C15.3206477 86.68055158 14.86182586 89.02212891 14.40209961 91.36352539 C17.37209961 91.69352539 20.34209961 92.02352539 23.40209961 92.36352539 C23.40209961 91.70352539 23.40209961 91.04352539 23.40209961 90.36352539 C27.69209961 90.36352539 31.98209961 90.36352539 36.40209961 90.36352539 C36.07209961 92.34352539 35.74209961 94.32352539 35.40209961 96.36352539 C18.57209961 96.36352539 1.74209961 96.36352539 -15.59790039 96.36352539 C-15.26790039 98.01352539 -14.93790039 99.66352539 -14.59790039 101.36352539 C0.91209961 101.36352539 16.42209961 101.36352539 32.40209961 101.36352539 C32.07209961 103.01352539 31.74209961 104.66352539 31.40209961 106.36352539 C17.54209961 106.69352539 3.68209961 107.02352539 -10.59790039 107.36352539 C-10.26790039 108.68352539 -9.93790039 110.00352539 -9.59790039 111.36352539 C2.94209961 111.36352539 15.48209961 111.36352539 28.40209961 111.36352539 C27.41209961 113.01352539 26.42209961 114.66352539 25.40209961 116.36352539 C22.21582031 116.93115234 22.21582031 116.93115234 18.32788086 116.85180664 C17.64404831 116.8447319 16.96021576 116.83765717 16.25566101 116.83036804 C14.07418802 116.80240543 11.89529467 116.73967603 9.71459961 116.67602539 C8.23481901 116.65094436 6.75499812 116.62813083 5.27514648 116.60766602 C1.64996098 116.55257674 -1.97371792 116.46629647 -5.59790039 116.36352539 C-4.93790039 117.68352539 -4.27790039 119.00352539 -3.59790039 120.36352539 C4.65209961 120.69352539 12.90209961 121.02352539 21.40209961 121.36352539 C20.40209961 123.36352539 19.40209961 125.36352539 18.40209961 127.36352539 C15.68762982 127.67593994 13.063006 127.87689131 10.33959961 127.98852539 C9.58098633 128.02719727 8.82237305 128.06586914 8.04077148 128.10571289 C6.16162766 128.20026101 4.28189625 128.28299295 2.40209961 128.36352539 C4.79973146 130.76115724 5.73483459 130.70633125 9.02709961 130.98852539 C9.84436523 131.06329102 10.66163086 131.13805664 11.50366211 131.21508789 C12.13014648 131.26407227 12.75663086 131.31305664 13.40209961 131.36352539 C-0.94984223 146.64139896 -20.6022307 155.92534756 -41.57836914 156.69946289 C-68.35332222 157.09217643 -89.52306085 149.84847063 -109.22290039 131.23852539 C-125.25833012 114.65409379 -134.35344924 91.87946507 -134.00024414 68.81811523 C-133.74185842 62.07219271 -132.63173657 55.81171055 -130.59790039 49.36352539 C-130.40454102 48.74268066 -130.21118164 48.12183594 -130.01196289 47.48217773 C-122.64783681 24.41814396 -107.06251561 5.59059989 -85.47290039 -5.57397461 C-58.39024683 -18.27753652 -25.12108568 -17.09151491 0 0 Z " fill="#FF0101" transform="translate(133.597900390625,16.636474609375)"/>
<path d="M0 0 C95.37 0 190.74 0 289 0 C289 57.75 289 115.5 289 175 C263.59 175 238.18 175 212 175 C215.59309188 173.20345406 218.6444292 172.20783687 222.5 171.1875 C238.43877904 166.6949115 251.1695688 159.63837874 263 148 C263.7734375 147.23945313 264.546875 146.47890625 265.34375 145.6953125 C282.41919742 127.8596568 287.75298369 104.8322275 287.3046875 80.734375 C286.4027071 58.08795795 273.99968891 37.10967433 257.7265625 21.87109375 C237.72832262 4.89584362 213.06150611 0.28410508 187.484375 2.2734375 C170.89692808 4.624065 155.50155796 13.13521487 143 24 C142.48953125 23.64808594 141.9790625 23.29617187 141.453125 22.93359375 C138.98741602 21.25918499 136.49841612 19.6252179 134 18 C133.10667969 17.4121875 132.21335938 16.824375 131.29296875 16.21875 C113.27733637 4.9805443 88.72400049 0.43244797 67.8203125 4.72265625 C64.4544951 5.64844344 61.25239811 6.73564063 58 8 C56.99195313 8.350625 55.98390625 8.70125 54.9453125 9.0625 C34.83331062 16.58491109 18.52521448 32.55153614 9.15234375 51.6484375 C5.16774286 60.5183353 2.87289509 69.49806434 1 79 C0.67 79 0.34 79 0 79 C0 52.93 0 26.86 0 0 Z " fill="#FFFCFC" transform="translate(0,0)"/>
<path d="M0 0 C1.62052349 3.24104699 2.4548926 5.74650943 3.19042969 9.2277832 C7.7463867 30.42834046 20.51989222 49.8366082 38.75 61.75 C59.48347965 74.74617976 81.99012262 77.95880205 106 74 C118.11745469 71.08029655 129.24140842 65.30972519 138.80078125 57.37109375 C141 56 141 56 142.9387207 56.28466797 C146.2918126 57.44830166 149.0017459 59.65207869 151.875 61.6875 C164.42649041 70.25025326 177.23836655 74.1547872 192 77 C192 77.33 192 77.66 192 78 C128.64 78 65.28 78 0 78 C0 52.26 0 26.52 0 0 Z " fill="#FFFBFB" transform="translate(0,97)"/>
<path d="M0 0 C4.95 0 9.9 0 15 0 C15.33 6.93 15.66 13.86 16 21 C18.97 14.07 21.94 7.14 25 0 C29.62 0 34.24 0 39 0 C37.42312908 12.74637325 35.26362588 25.35895099 33 38 C30.36 38 27.72 38 25 38 C25.11793595 36.10371412 25.24489537 34.20798986 25.375 32.3125 C25.44460937 31.25675781 25.51421875 30.20101562 25.5859375 29.11328125 C26.16294139 23.38134643 27.12401322 17.69391407 28 12 C24.37 20.58 20.74 29.16 17 38 C14.36 38 11.72 38 9 38 C8.27586627 34.68856994 7.83645745 31.52155779 7.68359375 28.13671875 C7.64169922 27.25048828 7.59980469 26.36425781 7.55664062 25.45117188 C7.51732422 24.53916016 7.47800781 23.62714844 7.4375 22.6875 C7.39431641 21.75615234 7.35113281 20.82480469 7.30664062 19.86523438 C7.20102775 17.57695546 7.09892248 15.28857628 7 13 C4.99383248 21.2921591 3.29165308 29.56626517 2 38 C-0.64 38 -3.28 38 -6 38 C-5.3609607 29.68885127 -3.94352269 21.56742594 -2.4375 13.375 C-2.20353516 12.08464844 -1.96957031 10.79429688 -1.72851562 9.46484375 C-1.15583563 6.30926013 -0.5784034 3.15453957 0 0 Z " fill="#FFF3F3" transform="translate(15,71)"/>
<path d="M0 0 C2.97 0 5.94 0 9 0 C7.2472116 12.71703924 5.33289971 25.37586897 3 38 C0.03 38 -2.94 38 -6 38 C-6.33 37.34 -6.66 36.68 -7 36 C-7.99 36.66 -8.98 37.32 -10 38 C-13.06526351 38.54531842 -15.93408329 38.54325893 -19 38 C-21.75569447 35.81840855 -23.43588747 34.12822506 -25 31 C-25.71787029 23.75976537 -25.92890935 17.50119562 -21.4140625 11.5234375 C-18.86101254 8.77291407 -16.83935501 7.22440131 -13.046875 6.76171875 C-9.22772606 6.62734129 -6.21262806 6.85824796 -3 9 C-3 9.66 -3 10.32 -3 11 C-2.34 11 -1.68 11 -1 11 C-1.020625 9.9275 -1.04125 8.855 -1.0625 7.75 C-1 4 -1 4 0 0 Z " fill="#FFFBF8" transform="translate(269,71)"/>
<path d="M0 0 C0.71220703 -0.02900391 1.42441406 -0.05800781 2.15820312 -0.08789062 C5.63111254 -0.12965549 8.06502459 0.25324795 11.19921875 1.76953125 C14.16195996 5.55881323 13.69496035 8.67089252 13.1875 13.3125 C12.7877241 16.52173996 12.26871778 19.69401081 11.6875 22.875 C11.47287109 24.10186523 11.47287109 24.10186523 11.25390625 25.35351562 C10.90521688 27.34104504 10.54733915 29.32695896 10.1875 31.3125 C7.5475 31.3125 4.9075 31.3125 2.1875 31.3125 C2.1875 30.6525 2.1875 29.9925 2.1875 29.3125 C1.32125 29.8075 0.455 30.3025 -0.4375 30.8125 C-4.03350908 32.41072626 -5.94132641 32.88905777 -9.8125 32.3125 C-13.52408357 30.25050913 -14.59933763 29.03192301 -15.8125 24.9375 C-15.8125 20.77434095 -15.09088766 18.76936404 -12.8125 15.3125 C-8.77404652 11.53459191 -4.93902835 11.17925621 0.4375 11.25 C1.32953125 11.25902344 2.2215625 11.26804687 3.140625 11.27734375 C3.81609375 11.28894531 4.4915625 11.30054687 5.1875 11.3125 C4.5275 9.9925 3.8675 8.6725 3.1875 7.3125 C-1.1025 7.3125 -5.3925 7.3125 -9.8125 7.3125 C-9.8125 5.3325 -9.8125 3.3525 -9.8125 1.3125 C-6.69762623 -0.24493688 -3.41674191 0.04563769 0 0 Z " fill="#FFF5F5" transform="translate(66.8125,77.6875)"/>
<path d="M0 0 C1.83498047 -0.03867188 1.83498047 -0.03867188 3.70703125 -0.078125 C7.44181539 0.27397586 9.23847895 0.98396587 12.1875 3.25 C14.9551427 7.40146404 13.86449071 10.54211962 13.1875 15.25 C12.91823387 17.36558803 12.6576767 19.48215793 12.39746094 21.59887695 C12.00138223 24.81683902 11.59402238 28.0333423 11.1875 31.25 C8.5475 31.25 5.9075 31.25 3.1875 31.25 C2.8575 30.59 2.5275 29.93 2.1875 29.25 C1.506875 29.745 0.82625 30.24 0.125 30.75 C-3.56038284 32.63189762 -5.72096373 32.83450518 -9.8125 32.25 C-12.73213173 30.26216563 -14.42352978 28.8185303 -15.29296875 25.3125 C-15.57684385 21.26152557 -15.12455819 19.64874102 -12.5625 16.375 C-8.21326689 13.01422896 -5.60304847 11.99308218 -0.0625 12.125 C0.92234375 12.14304687 1.9071875 12.16109375 2.921875 12.1796875 C4.04335937 12.21449219 4.04335937 12.21449219 5.1875 12.25 C4.8575 10.93 4.5275 9.61 4.1875 8.25 C-0.4325 8.25 -5.0525 8.25 -9.8125 8.25 C-9.55688677 5.9068787 -9.21979228 3.57156597 -8.8125 1.25 C-5.88789571 -0.21230215 -3.25597176 0.04091273 0 0 Z " fill="#FFF8F5" transform="translate(210.8125,77.75)"/>
<path d="M0 0 C2.25890202 1.47486564 3.83066822 2.74336769 5.046875 5.17578125 C5.18548491 9.17883532 5.08949706 13.16930749 5.046875 17.17578125 C-1.553125 17.17578125 -8.153125 17.17578125 -14.953125 17.17578125 C-14.623125 18.82578125 -14.293125 20.47578125 -13.953125 22.17578125 C-5.42847497 23.21393217 -5.42847497 23.21393217 3.046875 22.17578125 C2.716875 24.48578125 2.386875 26.79578125 2.046875 29.17578125 C-3.15722435 31.86176801 -8.63108553 32.18908965 -14.20703125 30.48828125 C-17.70822765 28.94079113 -19.64492131 27.58992995 -21.953125 24.48828125 C-23.74064294 18.56712806 -23.87218777 13.52844611 -21.203125 7.86328125 C-16.74192291 -0.05022917 -8.87250369 -3.74419656 0 0 Z " fill="#FFF6F6" transform="translate(142.953125,78.82421875)"/>
<path d="M0 0 C-0.33 2.64 -0.66 5.28 -1 8 C-2.44632813 7.93039063 -2.44632813 7.93039063 -3.921875 7.859375 C-5.18515625 7.82328125 -6.4484375 7.7871875 -7.75 7.75 C-9.00296875 7.70359375 -10.2559375 7.6571875 -11.546875 7.609375 C-15.03890356 7.70200689 -15.03890356 7.70200689 -17.375 9.8359375 C-20.02050068 13.35903215 -20.8212977 16.7490839 -21.4375 21.0625 C-21.18053205 24.14154168 -21.18053205 24.14154168 -19.1875 26.875 C-14.56130904 29.95912731 -10.40469637 29.42593929 -5 29 C-5.5859375 35.15234375 -5.5859375 35.15234375 -6 37 C-10.26747314 39.13373657 -15.81389329 38.650627 -20.296875 37.31640625 C-25.11407331 35.1341792 -27.41211685 32.73420525 -30 28 C-31.23657466 20.24795612 -31.05972236 12.42501551 -26.51953125 5.80859375 C-26.01808594 5.21175781 -25.51664063 4.61492187 -25 4 C-24.55011719 3.45472656 -24.10023438 2.90945312 -23.63671875 2.34765625 C-17.90473907 -2.99922919 -6.99626114 -2.33208705 0 0 Z " fill="#FFF7F4" transform="translate(199,72)"/>
<path d="M0 0 C1.05960938 0.00676758 1.05960938 0.00676758 2.140625 0.01367188 C3.88545275 0.02546125 5.630237 0.04339676 7.375 0.0625 C7.045 2.3725 6.715 4.6825 6.375 7.0625 C2.745 7.0625 -0.885 7.0625 -4.625 7.0625 C-2.62820123 11.05609753 -2.17003148 11.65785434 1.4375 13.6875 C5.27777778 15.86805556 5.27777778 15.86805556 6.375 18.0625 C6.82717391 26.20163043 6.82717391 26.20163043 4.375 29.0625 C-1.87986724 32.24679605 -7.66677394 32.67163764 -14.625 32.0625 C-15.285 31.7325 -15.945 31.4025 -16.625 31.0625 C-16.625 28.7525 -16.625 26.4425 -16.625 24.0625 C-12.335 24.0625 -8.045 24.0625 -3.625 24.0625 C-3.625 22.7425 -3.625 21.4225 -3.625 20.0625 C-4.17929688 19.79695313 -4.73359375 19.53140625 -5.3046875 19.2578125 C-6.02914062 18.90460938 -6.75359375 18.55140625 -7.5 18.1875 C-8.21929687 17.83945313 -8.93859375 17.49140625 -9.6796875 17.1328125 C-11.625 16.0625 -11.625 16.0625 -13.625 14.0625 C-14.30681818 7.13068182 -14.30681818 7.13068182 -11.75 3.125 C-8.04865978 -0.46747727 -4.90521629 -0.05882639 0 0 Z " fill="#FFF3F3" transform="translate(96.625,77.9375)"/>
<path d="M0 0 C18.15 0 36.3 0 55 0 C54 7 54 7 53 9 C52.92805131 11.88370333 52.90708292 14.74239664 52.9375 17.625 C52.94201172 18.42679688 52.94652344 19.22859375 52.95117188 20.0546875 C52.96296832 22.03649006 52.98090395 24.01825433 53 26 C49.04 26 45.08 26 41 26 C41.69217646 14.37143553 41.69217646 14.37143553 45 11 C47.6875 10.75 47.6875 10.75 50 11 C50.99 8.03 51.98 5.06 53 2 C49.59687262 3.05875074 46.98646769 4.00902154 44 6 C44 4.68 44 3.36 44 2 C41.36 2 38.72 2 36 2 C35.90912109 2.88751953 35.90912109 2.88751953 35.81640625 3.79296875 C35.37987629 7.90978208 34.91328654 11.95544533 34 16 C33.01 16.33 32.02 16.66 31 17 C30.97421875 16.39671875 30.9484375 15.7934375 30.921875 15.171875 C30.5965201 9.95546103 30.5965201 9.95546103 28.0625 5.5 C23.60093337 2.25522427 19.37141651 2.54177489 14 3 C9.37379349 4.81025472 7.32410764 7.67235129 5 12 C4.14032916 14.97242121 3.51507563 17.95021007 3 21 C1.02 21 -0.96 21 -3 21 C-2.85831863 19.56208484 -2.71148957 18.1246763 -2.5625 16.6875 C-2.48128906 15.88699219 -2.40007812 15.08648437 -2.31640625 14.26171875 C-2 12 -2 12 -1 9 C0.65 9 2.3 9 4 9 C4.33 6.69 4.66 4.38 5 2 C3.35 2 1.7 2 0 2 C0 1.34 0 0.68 0 0 Z " fill="#FF1306" transform="translate(117,76)"/>
<path d="M0 0 C2.64 0 5.28 0 8 0 C7.67 2.31 7.34 4.62 7 7 C8.65 7 10.3 7 12 7 C11.67 9.31 11.34 11.62 11 14 C9.35 14 7.7 14 6 14 C5.34 19.28 4.68 24.56 4 30 C5.65 30.33 7.3 30.66 9 31 C8.74438677 33.3431213 8.40729228 35.67843403 8 38 C4.97562661 39.5121867 2.33758466 39.17263369 -1 39 C-3.76142665 37.98263229 -4.68085371 37.63829259 -6 35 C-6.2179324 30.17566884 -5.72817518 25.8961253 -4.6875 21.19140625 C-4.41679688 19.95068359 -4.14609375 18.70996094 -3.8671875 17.43164062 C-3.58101563 16.15482422 -3.29484375 14.87800781 -3 13.5625 C-2.71026995 12.2455894 -2.42120142 10.92853307 -2.1328125 9.61132812 C-1.42835815 6.40606085 -0.71723193 3.20242787 0 0 Z " fill="#FFF2F2" transform="translate(110,71)"/>
<path d="M0 0 C2.64 0 5.28 0 8 0 C8 0.99 8 1.98 8 3 C8.7425 2.505 9.485 2.01 10.25 1.5 C13 0 13 0 17 0 C16.65612694 1.46598514 16.27352093 2.92291799 15.875 4.375 C15.66617188 5.18710938 15.45734375 5.99921875 15.2421875 6.8359375 C14 9 14 9 10.99609375 9.90234375 C10.00738281 10.26457031 9.01867187 10.62679687 8 11 C6.65403263 13.82127171 6.65403263 13.82127171 6.1875 17.1875 C5.96835938 18.35023437 5.74921875 19.51296875 5.5234375 20.7109375 C5.35070312 21.79632813 5.17796875 22.88171875 5 24 C4.86851562 24.79664062 4.73703125 25.59328125 4.6015625 26.4140625 C4.36948657 27.93823685 4.17807246 29.46857684 4 31 C0.7 31 -2.6 31 -6 31 C-5.18780613 26.77077448 -4.37519146 22.54162993 -3.5625 18.3125 C-3.21735352 16.51522461 -3.21735352 16.51522461 -2.86523438 14.68164062 C-2.64287109 13.52470703 -2.42050781 12.36777344 -2.19140625 11.17578125 C-1.98717041 10.11270752 -1.78293457 9.04963379 -1.57250977 7.9543457 C-1.05829152 5.30080413 -0.53337702 2.64974848 0 0 Z " fill="#FFF8F4" transform="translate(230,78)"/>
<path d="M0 0 C2.64 0 5.28 0 8 0 C8.33 0.99 8.66 1.98 9 3 C9.391875 2.505 9.78375 2.01 10.1875 1.5 C12.55091715 -0.45593143 14.01435003 -0.24207973 17 0 C16.01 2.97 15.02 5.94 14 9 C13.21625 9.103125 12.4325 9.20625 11.625 9.3125 C8.66954819 9.77595022 8.66954819 9.77595022 7 13 C6.45809704 15.02045309 6.45809704 15.02045309 6.1484375 17.23046875 C6.01953125 18.03291016 5.890625 18.83535156 5.7578125 19.66210938 C5.63148438 20.49548828 5.50515625 21.32886719 5.375 22.1875 C5.2409375 23.03248047 5.106875 23.87746094 4.96875 24.74804688 C4.63924338 26.83099945 4.31875011 28.91537427 4 31 C0.7 31 -2.6 31 -6 31 C-4.02 20.77 -2.04 10.54 0 0 Z " fill="#FFF5F5" transform="translate(153,78)"/>
<path d="M0 0 C6.72 0.72 6.72 0.72 8 2 C8.38389796 7.66249485 8.0314909 11.02835493 5 16 C4 17 4 17 1.125 17.25 C-2 17 -2 17 -3.875 15.9375 C-5.68064102 12.82778491 -5.41842214 10.52670088 -5 7 C-3.50254139 4.39152371 -2.12971098 2.12971098 0 0 Z " fill="#FF8007" transform="translate(257,85)"/>
<path d="M0 0 C1.98 0 3.96 0 6 0 C5.34 3.96 4.68 7.92 4 12 C2.02 12 0.04 12 -2 12 C-1.85831863 10.56208484 -1.71148957 9.1246763 -1.5625 7.6875 C-1.48128906 6.88699219 -1.40007812 6.08648437 -1.31640625 5.26171875 C-1 3 -1 3 0 0 Z " fill="#FF0505" transform="translate(116,85)"/>
<path d="M0 0 C1.21816406 0.03480469 1.21816406 0.03480469 2.4609375 0.0703125 C3.68683594 0.09738281 3.68683594 0.09738281 4.9375 0.125 C5.87722656 0.15980469 5.87722656 0.15980469 6.8359375 0.1953125 C5.8459375 2.5053125 4.8559375 4.8153125 3.8359375 7.1953125 C1.5259375 7.1953125 -0.7840625 7.1953125 -3.1640625 7.1953125 C-3.7890625 4.8203125 -3.7890625 4.8203125 -4.1640625 2.1953125 C-2.1640625 0.1953125 -2.1640625 0.1953125 0 0 Z " fill="#FF8009" transform="translate(208.1640625,95.8046875)"/>
<path d="M0 0 C-0.3125 2.875 -0.3125 2.875 -1 6 C-4 8 -4 8 -7.1875 7.625 C-8.115625 7.41875 -9.04375 7.2125 -10 7 C-9.6875 4.625 -9.6875 4.625 -9 2 C-5.5647952 -0.29013653 -4.014669 -0.17842973 0 0 Z " fill="#FF0101" transform="translate(70,95)"/>
<path d="M0 0 C3.63 0 7.26 0 11 0 C11.33 1.65 11.66 3.3 12 5 C8.04 5 4.08 5 0 5 C0 3.35 0 1.7 0 0 Z " fill="#FF0303" transform="translate(158,97)"/>
<path d="M0 0 C0.33 0 0.66 0 1 0 C1 2.31 1 4.62 1 7 C-2.3 7 -5.6 7 -9 7 C-9 5.02 -9 3.04 -9 1 C-6.03 1.33 -3.06 1.66 0 2 C0 1.34 0 0.68 0 0 Z " fill="#FF7B10" transform="translate(168,90)"/>
<path d="M0 0 C5.28 0 10.56 0 16 0 C14 2 14 2 11.625 3.375 C9.00220598 4.99863439 7.0940361 6.75085011 5 9 C4.01879536 5.94736336 4.01879536 4.05263664 5 1 C3.35 1 1.7 1 0 1 C0 0.67 0 0.34 0 0 Z " fill="#FF0606" transform="translate(117,77)"/>
<path d="M0 0 C3.29714793 0.32971479 4.6226839 0.6226839 7 3 C7 3.99 7 4.98 7 6 C3.7 6 0.4 6 -3 6 C-2 2 -2 2 0 0 Z " fill="#FF0808" transform="translate(133,84)"/>
<path d="M0 0 C1.32 0.66 2.64 1.32 4 2 C4 2.99 4 3.98 4 5 C3.34 4.67 2.68 4.34 2 4 C2 4.66 2 5.32 2 6 C2.66 6.33 3.32 6.66 4 7 C3 8 3 8 0.5 8.125 C-2 8 -2 8 -3 7 C-3.25 4.5625 -3.25 4.5625 -3 2 C-2.01 1.34 -1.02 0.68 0 0 Z " fill="#FFB98C" transform="translate(279,102)"/>
<path d="M0 0 C2 3 2 3 1.375 6.4375 C-0.00780029 10.02020984 -1.25239955 11.44865673 -4 14 C-3.71926927 11.85270859 -3.42511501 9.70716807 -3.125 7.5625 C-2.96257812 6.36753906 -2.80015625 5.17257813 -2.6328125 3.94140625 C-2.42398438 2.97074219 -2.21515625 2.00007813 -2 1 C-1.34 0.67 -0.68 0.34 0 0 Z " fill="#FF810D" transform="translate(226,88)"/>
<path d="M0 0 C3.3 0 6.6 0 10 0 C11 4 11 4 9.0625 7.25 C8.381875 8.1575 7.70125 9.065 7 10 C6.67 9.34 6.34 8.68 6 8 C6.93578995 5.64018187 7.93347808 3.30368736 9 1 C5.59687262 2.05875074 2.98646769 3.00902154 0 5 C0 3.35 0 1.7 0 0 Z " fill="#FF1212" transform="translate(161,77)"/>
<path d="M0 0 C2.97 0.495 2.97 0.495 6 1 C6 2.65 6 4.3 6 6 C4.02 6 2.04 6 0 6 C0 4.02 0 2.04 0 0 Z " fill="#FF720C" transform="translate(114,91)"/>
<path d="M0 0 C2.125 0.9375 2.125 0.9375 4 2 C4 2.99 4 3.98 4 5 C3.38125 4.79375 2.7625 4.5875 2.125 4.375 C1.42375 4.25125 0.7225 4.1275 0 4 C-0.66 4.66 -1.32 5.32 -2 6 C-2 4.35 -2 2.7 -2 1 C-1.34 0.67 -0.68 0.34 0 0 Z " fill="#FFA363" transform="translate(279,102)"/>
<path d="M0 0 C0.99 0.33 1.98 0.66 3 1 C3.33 1.99 3.66 2.98 4 4 C2.35 5.65 0.7 7.3 -1 9 C-0.67 6.03 -0.34 3.06 0 0 Z " fill="#FF871B" transform="translate(223,93)"/>
</svg>
