<?xml version="1.0" encoding="UTF-8"?>
<svg version="1.1" xmlns="http://www.w3.org/2000/svg" width="512" height="512">
<path d="M0 0 C3.60688707 2.13268387 5.89455484 4.48444249 8.56582642 7.68530273 C13.28967785 12.45646336 16.83128152 13.12508076 23.41830444 13.2346344 C25.28864853 13.19776772 25.28864853 13.19776772 27.19677734 13.16015625 C28.54659163 13.16585436 29.89639403 13.17552388 31.24615479 13.18882751 C34.89224703 13.2137495 38.536037 13.18384574 42.18191862 13.14404297 C46.02211624 13.11195514 49.86204733 13.13199237 53.70230103 13.14648438 C60.98601852 13.16632712 68.26884267 13.14142356 75.55243933 13.0995121 C84.57794508 13.04947856 93.60329089 13.05245118 102.62890625 13.05859375 C105.81613151 13.06075332 109.00335664 13.06270255 112.19058228 13.06420898 C112.96547363 13.06460584 113.74036498 13.06500269 114.53873789 13.06541157 C119.81192002 13.06648924 125.08487595 13.05067419 130.35800171 13.02758789 C153.98095415 12.93376336 153.98095415 12.93376336 164.70166016 13.4609375 C165.42692587 13.49493652 166.15219158 13.52893555 166.89943504 13.56396484 C181.84621159 14.45883674 195.09634135 21.3828786 205.30078125 32.1953125 C220.81188138 51.33001417 219.77650331 73.23712725 219.77026367 96.63134766 C219.77326095 98.8866481 219.77666478 101.14194804 219.78044128 103.39724731 C219.78922788 109.48847874 219.79161715 115.57969609 219.79225707 121.67093325 C219.79297065 125.48670248 219.79511077 129.30246819 219.79775429 133.11823654 C219.80651488 145.77251845 219.8111762 158.42679019 219.81042381 171.08107431 C219.81036388 172.1007936 219.81036388 172.1007936 219.81030273 173.14111328 C219.81026185 173.82177268 219.81022097 174.50243208 219.81017885 175.20371751 C219.80977287 186.22122501 219.81933469 197.23869826 219.8334411 208.25619586 C219.84786855 219.61562382 219.85452544 230.97502996 219.85384732 242.3344692 C219.85359373 248.69311458 219.8563676 255.05172116 219.86702538 261.41035843 C219.87678744 267.39736937 219.87673061 273.38430504 219.86950874 279.37131882 C219.86847288 281.55278383 219.87076543 283.73425373 219.8768692 285.91571045 C219.90406986 296.32151754 219.75446782 306.65389349 218.7973175 317.02157593 C218.72816515 317.81888488 218.6590128 318.61619384 218.58776492 319.43766367 C217.2528134 332.12730512 209.99141815 343.83637909 200.67578125 352.4453125 C183.16547516 366.25343959 166.15957528 366.66477794 144.6640625 366.671875 C142.06089255 366.6868757 139.45773204 366.70360677 136.85458374 366.72198486 C130.73869048 366.7610314 124.62296619 366.78282243 118.50696981 366.79595876 C111.53449513 366.81191966 104.56219837 366.85037252 97.58982778 366.89055204 C83.26828335 366.97258705 68.9467315 367.02690546 54.625 367.0625 C54.92792969 368.10180664 55.23085938 369.14111328 55.54296875 370.21191406 C56.66651089 374.07185777 57.78303514 377.93380207 58.89746094 381.79638672 C59.38057632 383.46718777 59.86558783 385.13744177 60.35253906 386.80712891 C61.05253489 389.20854315 61.74566637 391.61184841 62.4375 394.015625 C62.76560669 395.1330307 62.76560669 395.1330307 63.1003418 396.27301025 C64.08260766 399.7094585 64.625 402.45588329 64.625 406.0625 C65.26824219 406.12566406 65.91148437 406.18882812 66.57421875 406.25390625 C80.28727639 408.11230921 90.69897722 415.26698521 99.14453125 425.9921875 C105.49085575 435.23366306 108.57234789 446.95116204 106.625 458.0625 C105.1706543 460.22020721 105.1706543 460.22020721 102.625 462.0625 C99.54135718 462.6608837 96.49619738 462.60190369 93.36328125 462.57043457 C92.41530167 462.57667453 91.46732208 462.5829145 90.49061584 462.58934355 C87.3059928 462.60533082 84.12212907 462.59264664 80.9375 462.58007812 C78.65771029 462.58549668 76.37792408 462.59261783 74.09814453 462.60131836 C67.8998764 462.61958619 61.70187397 462.61246977 55.50360107 462.59980202 C49.02452871 462.58969233 42.54547948 462.59906204 36.06640625 462.60534668 C24.4873627 462.61309578 12.90844068 462.60064589 1.32941628 462.58030933 C-9.17107417 462.56243805 -19.67138775 462.56554208 -30.171875 462.58398438 C-42.36317979 462.60538625 -54.5543586 462.61336079 -66.74568176 462.60153532 C-73.20012663 462.59529123 -79.65444963 462.59448999 -86.10888672 462.60768127 C-92.17625082 462.61921475 -98.24328008 462.61125954 -104.31060791 462.58810425 C-106.54070479 462.5828038 -108.77082972 462.58435361 -111.00091553 462.59315491 C-114.03875445 462.60404098 -117.07551177 462.59043033 -120.11328125 462.57043457 C-121.44576149 462.5838189 -121.44576149 462.5838189 -122.80516052 462.59747362 C-128.76986594 462.52100567 -128.76986594 462.52100567 -131.90698242 460.14403534 C-134.72840494 456.14347652 -134.96022801 451.85300932 -134.375 447.0625 C-131.2338874 432.73826964 -123.82722171 420.64942167 -111.625 412.3125 C-105.52368498 408.74129379 -98.45829382 406.0625 -91.375 406.0625 C-91.19142944 404.56771118 -91.19142944 404.56771118 -91.00415039 403.04272461 C-90.43319363 399.06151422 -89.42311933 395.23830713 -88.30859375 391.37890625 C-88.11024429 390.67853745 -87.91189484 389.97816864 -87.70753479 389.25657654 C-87.08010397 387.04481683 -86.44641698 384.83490837 -85.8125 382.625 C-85.38304678 381.11535287 -84.95400634 379.60558825 -84.52539062 378.09570312 C-83.48002535 374.41659389 -82.42904987 370.7391301 -81.375 367.0625 C-81.96508158 367.06103344 -82.55516315 367.05956688 -83.16312599 367.05805588 C-97.58033389 367.02086011 -111.99733082 366.96167788 -126.41434669 366.87859726 C-133.38658615 366.83893816 -140.3587149 366.80647954 -147.33105469 366.79150391 C-154.06802167 366.77701294 -160.80459582 366.74175263 -167.5414238 366.69419098 C-170.10320413 366.67942879 -172.66503351 366.67146197 -175.22685623 366.67061615 C-196.66640773 366.65642695 -213.8556764 364.91753748 -230.25 349.75 C-248.54853447 329.73307524 -246.52705009 305.47534859 -246.52026367 280.08959961 C-246.52326257 277.82736659 -246.52666676 275.56513408 -246.53044128 273.30290222 C-246.5392075 267.20798491 -246.54161616 261.11308168 -246.54225707 255.01815867 C-246.54297136 251.20089687 -246.54511273 247.38363857 -246.54775429 243.56637764 C-246.5565063 230.90955754 -246.56117706 218.25274757 -246.56042381 205.59592526 C-246.56038386 204.91675772 -246.5603439 204.23759018 -246.56030273 203.5378418 C-246.56026185 202.85782966 -246.56022097 202.17781753 -246.56017885 201.47719897 C-246.55977217 190.45071346 -246.56935381 179.42426207 -246.5834411 168.39778643 C-246.59784906 157.02924271 -246.60452635 145.66072077 -246.60384732 134.29216582 C-246.60359338 127.92810346 -246.6063875 121.56407984 -246.61702538 115.20002556 C-246.62675812 109.2154496 -246.62675027 103.23094904 -246.61950874 97.24637032 C-246.61846958 95.06161005 -246.62078567 92.87684494 -246.6268692 90.6920929 C-246.68746171 67.40843583 -245.83551843 47.52281819 -229.05859375 29.5859375 C-223.15334277 23.91765486 -216.90507793 20.21015354 -209.375 17.0625 C-208.6221875 16.73378906 -207.869375 16.40507813 -207.09375 16.06640625 C-201.86217277 14.14140688 -196.56075537 13.75333732 -191.03393555 13.48828125 C-190.17429797 13.4466687 -189.3146604 13.40505615 -188.4289732 13.36218262 C-176.9528216 12.87802606 -165.46789768 12.98643907 -153.98438638 13.03713608 C-148.70062687 13.06010565 -143.41703102 13.06693558 -138.13322449 13.06420898 C-136.9706495 13.06365525 -136.9706495 13.06365525 -135.78458816 13.06309032 C-132.603958 13.06133198 -129.4233282 13.05912694 -126.24269831 13.05694389 C-117.27574872 13.05167991 -108.30934477 13.06175794 -99.3425293 13.11376953 C-92.16278821 13.15529804 -84.98379066 13.16497145 -77.80397052 13.13765907 C-74.02123904 13.12447133 -70.24005654 13.1270541 -66.45749855 13.16870117 C-62.9098029 13.20745897 -59.36461024 13.20384302 -55.81690216 13.16857719 C-53.90906991 13.16045412 -52.00120719 13.19670363 -50.09373474 13.2346344 C-43.50749676 13.12415716 -40.01991649 12.42734291 -35.30693054 7.65014648 C-34.64386744 6.85374252 -33.98080435 6.05733856 -33.29764843 5.23680115 C-25.66508273 -3.39478022 -10.10187583 -4.62936357 0 0 Z " fill="#043D5A" transform="translate(269.375,25.9375)"/>
<path d="M0 0 C1.16098709 -0.00137466 2.32197418 -0.00274933 3.5181427 -0.00416565 C4.77762222 -0.00057037 6.03710175 0.0030249 7.33474731 0.00672913 C8.68536883 0.00701145 10.03599051 0.00685239 11.38661194 0.00628662 C15.04111231 0.0060004 18.69557967 0.01186882 22.35007238 0.01886058 C26.17374853 0.02512327 29.99742548 0.02570022 33.82110596 0.02688599 C41.05639553 0.02999071 48.29166995 0.03819251 55.52695286 0.04823548 C63.76635273 0.0594233 72.00575333 0.06491379 80.24515891 0.06993091 C97.18925573 0.08037585 114.13333781 0.09795865 131.0774231 0.12025452 C126.5402805 5.56225932 121.72657754 10.60281384 116.70120239 15.59413147 C115.8826326 16.411241 115.06406281 17.22835052 114.22068787 18.07022095 C112.45395745 19.83316308 110.68607327 21.59494958 108.9171505 23.35569191 C106.12060239 26.13943307 103.32722836 28.92632444 100.53465271 31.71405029 C94.61438191 37.62326826 88.68986097 43.52821662 82.7649231 49.43275452 C75.88143341 56.29259401 68.99962237 63.15410095 62.12195778 70.01978111 C59.36464782 72.77058993 56.6043537 75.51838063 53.84394836 78.26608276 C52.16470928 79.9416916 50.48560915 81.61743971 48.80667114 83.29335022 C47.64801041 84.44426147 47.64801041 84.44426147 46.46594238 85.61842346 C45.41670341 86.66755669 45.41670341 86.66755669 44.3462677 87.73788452 C43.73553752 88.34639409 43.12480734 88.95490366 42.49557018 89.58185291 C39.52214459 92.80741587 39.8838968 96.09430364 39.83914185 100.25306702 C39.8310701 100.96373322 39.82299835 101.67439941 39.81468201 102.40660095 C39.80084004 103.91464297 39.79011837 105.42271634 39.78225708 106.93080139 C39.76514271 109.21593086 39.72127401 111.49957535 39.67703247 113.78431702 C39.57970767 122.75211108 39.86020481 129.30776288 46.04226685 136.36244202 C51.81378641 141.13966019 55.53746405 142.86359468 63.0774231 144.12025452 C63.0774231 170.52025452 63.0774231 196.92025452 63.0774231 224.12025452 C55.8174231 224.45025452 48.5574231 224.78025452 41.0774231 225.12025452 C37.1174231 227.10025452 37.1174231 227.10025452 33.0774231 229.12025452 C31.0974231 230.11025452 31.0974231 230.11025452 29.0774231 231.12025452 C27.91820182 232.85168305 27.91820182 232.85168305 27.0774231 235.12025452 C26.57203003 236.16286438 26.06663696 237.20547424 25.54592896 238.27967834 C23.90700365 242.11411344 23.62579267 245.7460668 23.64382935 249.88197327 C23.63858749 250.59505142 23.63334564 251.30812958 23.62794495 252.04281616 C23.62156591 253.53777268 23.62280791 255.03277966 23.63137817 256.52772522 C23.63994172 258.81272463 23.61098982 261.09526362 23.57937622 263.38002014 C23.57776519 264.83900377 23.57833986 266.29799181 23.58132935 267.75697327 C23.57947632 269.07399231 23.57762329 270.39101135 23.57571411 271.74794006 C24.16982589 275.74135416 24.97418288 276.64832044 28.0774231 279.12025452 C30.4893437 279.71405583 30.4893437 279.71405583 33.14994812 279.62361908 C34.69437167 279.63926556 34.69437167 279.63926556 36.26999569 279.65522814 C37.39955464 279.64630525 38.5291136 279.63738236 39.69290161 279.62818909 C40.89406144 279.63442905 42.09522127 279.64066901 43.33277988 279.64709806 C46.66840032 279.66030961 50.0031222 279.65553243 53.33868837 279.64315319 C56.93521527 279.63411696 60.53166264 279.64806529 64.12817383 279.65907288 C71.17427101 279.67687804 78.22019796 279.67300929 85.26630187 279.66142231 C90.99177815 279.65239609 96.71720664 279.65116047 102.44268799 279.65551758 C103.66407702 279.65643698 103.66407702 279.65643698 104.91014057 279.65737495 C106.56418953 279.65865382 108.21823847 279.65995068 109.87228739 279.66126531 C125.38960748 279.67267696 140.90683311 279.65954826 156.42413771 279.63806385 C169.74448588 279.62019232 183.06469463 279.62329626 196.38504028 279.64173889 C211.84607077 279.66313531 227.30701842 279.67157827 242.76806164 279.65928984 C244.41609381 279.65801561 246.064126 279.65675813 247.7121582 279.65551758 C248.52306382 279.65490048 249.33396944 279.65428337 250.16944796 279.65364757 C255.88937303 279.65019098 261.60924565 279.65602966 267.3291626 279.66543579 C274.29797172 279.67664353 281.26660058 279.67364169 288.23538899 279.65231282 C291.79238131 279.64178571 295.34907286 279.63770842 298.90606308 279.65090942 C302.75819441 279.66498977 306.60983108 279.64820062 310.46194458 279.62818909 C311.59150353 279.63711197 312.72106249 279.64603486 313.8848505 279.65522814 C314.9144662 279.64479715 315.9440819 279.63436616 317.00489807 279.62361908 C317.89431312 279.62296967 318.78372816 279.62232026 319.70009518 279.62165117 C322.88494391 278.9499422 324.08720088 277.64768179 326.0774231 275.12025452 C326.69393598 271.67560746 326.69393598 271.67560746 326.6086731 267.79212952 C326.61441345 266.73037506 326.61441345 266.73037506 326.62026978 265.64717102 C326.62298664 264.15104245 326.61564095 262.6548662 326.59890747 261.15882874 C326.57761746 258.89095916 326.59864574 256.62630304 326.6242981 254.35853577 C326.64186491 245.10599948 325.829377 238.83699656 319.8899231 231.37025452 C309.34208554 222.93198447 301.06925471 224.78653221 287.0774231 224.12025452 C287.0774231 197.72025452 287.0774231 171.32025452 287.0774231 144.12025452 C289.7174231 143.46025452 292.3574231 142.80025452 295.0774231 142.12025452 C297.09979362 141.16630616 299.10569269 140.17490101 301.0774231 139.12025452 C302.0674231 138.79025452 303.0574231 138.46025452 304.0774231 138.12025452 C305.18330486 136.24670756 305.18330486 136.24670756 306.0774231 134.12025452 C307.10802856 132.52697327 307.10802856 132.52697327 308.15945435 130.90150452 C311.1189406 124.95223479 310.78442105 118.35415481 310.76370239 111.85707092 C310.76492144 109.62329257 310.82487066 107.3960059 310.88796997 105.16322327 C310.89611099 103.7218328 310.90078391 102.28041772 310.90164185 100.83900452 C310.91284058 99.54929749 310.92403931 98.25959045 310.93557739 96.93080139 C309.07361494 88.66294651 300.437666 82.34298177 294.57180786 76.51698303 C293.75148575 75.69812119 292.93116364 74.87925934 292.08598328 74.0355835 C290.31872513 72.27210861 288.55031345 70.5097891 286.78085518 68.7485218 C283.98449586 65.96498472 281.1912455 63.17834998 278.39894104 60.39074707 C272.48224667 54.48509374 266.5612886 48.58372369 260.6399231 42.68275452 C253.7534948 35.8199765 246.86875176 28.95552427 239.98814201 22.08691216 C237.22911865 19.33439631 234.46711512 16.58489438 231.70500183 13.83547974 C230.02894721 12.16305444 228.35303103 10.49049038 226.67727661 8.81776428 C225.90281189 8.04846588 225.12834717 7.27916748 224.33041382 6.48655701 C223.633741 5.78995468 222.93706818 5.09335236 222.21928406 4.37564087 C221.6089309 3.76750833 220.99857775 3.15937578 220.36972904 2.53281498 C219.0774231 1.12025452 219.0774231 1.12025452 219.0774231 0.12025452 C236.80182841 0.07348613 254.52621766 0.03824197 272.25067139 0.01663017 C280.48086615 0.0063277 288.71102251 -0.00771294 296.94119263 -0.03062439 C304.11652878 -0.05058979 311.29183712 -0.0634694 318.46720028 -0.06792247 C322.26474896 -0.07052452 326.06221808 -0.07661898 329.85974121 -0.0912056 C333.43837823 -0.10483933 337.01690336 -0.10895648 340.59556389 -0.10596085 C342.52634487 -0.10676837 344.45711383 -0.11749959 346.38786316 -0.12858582 C354.74816076 -0.1088346 361.71656869 0.62872387 369.2649231 4.49525452 C370.06285278 4.89486389 370.86078247 5.29447327 371.68289185 5.70619202 C376.43263631 8.51109821 379.86363917 11.76009689 383.1399231 16.18275452 C383.79089966 17.03998108 384.44187622 17.89720764 385.11257935 18.78041077 C391.08823297 28.93783393 391.65527431 38.55569734 391.6164856 50.02259827 C391.62641122 51.63398563 391.6383595 53.24536167 391.65222168 54.85671997 C391.68435551 59.06534219 391.69495705 63.27370433 391.69906616 67.48243713 C391.70787686 74.24168114 391.74334003 81.00071449 391.79124069 87.75978279 C391.80380097 90.11300775 391.80307134 92.46596227 391.80096436 94.81921387 C391.80754329 96.25932525 391.81454927 97.69943476 391.822052 99.13954163 C391.82331085 100.39431808 391.8245697 101.64909454 391.8258667 102.94189453 C392.06439694 105.95567185 392.38997149 107.6459121 394.0774231 110.12025452 C396.84842703 111.50575648 399.01089369 111.30800121 402.0774231 111.12025452 C405.32592287 109.39798956 405.32592287 109.39798956 406.0774231 106.12025452 C406.19448543 104.11183787 406.25418277 102.09989462 406.28274536 100.08827209 C406.30269058 98.84721207 406.3226358 97.60615204 406.34318542 96.32748413 C406.36016837 94.97325261 406.37704722 93.61901979 406.39382935 92.26478577 C406.41440537 90.87901192 406.43540202 89.49324427 406.45680237 88.10748291 C406.51195611 84.46284499 406.56139483 80.81815106 406.60964966 77.17341614 C406.65991365 73.45317102 406.71557413 69.73300709 406.77078247 66.01283264 C406.87828209 58.71537539 406.97974516 51.41785055 407.0774231 44.12025452 C407.4074231 44.12025452 407.7374231 44.12025452 408.0774231 44.12025452 C408.0774231 109.79025452 408.0774231 175.46025452 408.0774231 243.12025452 C407.7474231 243.12025452 407.4174231 243.12025452 407.0774231 243.12025452 C407.07377747 242.25217163 407.07013184 241.38408875 407.06637573 240.48970032 C407.02850805 232.30854102 406.97166949 224.12778086 406.89352036 215.94690323 C406.85401197 211.74099925 406.8218402 207.53530567 406.806427 203.32923889 C406.79128223 199.2700487 406.75687641 195.21143684 406.70911407 191.15250397 C406.6942776 189.60401689 406.68638078 188.05544726 406.68553925 186.50688934 C406.68317446 184.33734494 406.65613885 182.16940522 406.62332153 180.00013733 C406.61443909 178.76547729 406.60555664 177.53081726 406.59640503 176.25874329 C405.98163221 172.54096921 405.06974238 171.34534724 402.0774231 169.12025452 C398.63670143 168.5468009 396.88927196 168.61109762 393.92007446 170.47325134 C390.98165145 174.694351 391.54064016 178.95040294 391.59500122 183.9723053 C391.58913246 185.63157799 391.58913246 185.63157799 391.58314514 187.32437134 C391.57716457 189.72792618 391.58035011 192.13151715 391.59156799 194.53505325 C391.60880234 198.34413171 391.60133474 202.15244923 391.58731079 205.96153259 C391.55977534 214.74207266 391.56897309 223.52241566 391.58000946 232.30297089 C391.59048044 240.97755018 391.58520313 249.65174766 391.55335999 258.32630539 C391.54628314 262.0698553 391.56292726 265.81281669 391.58047485 269.55632019 C391.57476371 271.86816215 391.56794482 274.18000172 391.55984497 276.49183655 C391.57115952 277.52493454 391.58247406 278.55803253 391.59413147 279.62243652 C391.50609213 290.18426778 387.92278729 298.18360038 381.0774231 306.12025452 C380.56437622 306.73900452 380.05132935 307.35775452 379.5227356 307.99525452 C372.61215405 315.66633068 362.18594796 319.69096829 351.97311532 320.30772471 C348.11756128 320.38421078 344.26455787 320.39682148 340.40852356 320.38768005 C338.91215388 320.3914198 337.41578615 320.39602262 335.91942149 320.4014107 C331.8199392 320.41361585 327.72053867 320.41338318 323.62104237 320.41102195 C319.19487897 320.41061316 314.76874156 320.42165883 310.34259033 320.43113708 C301.67580607 320.44773406 293.00904902 320.45324603 284.34225019 320.45436184 C277.296383 320.45531286 270.25052477 320.45942587 263.20466042 320.46576309 C243.22012054 320.48337138 223.23560212 320.49260252 203.25105443 320.49110214 C202.17418822 320.49102223 201.09732201 320.49094232 199.98782349 320.49085999 C198.90963975 320.49077822 197.83145602 320.49069646 196.72060005 320.49061222 C179.24624855 320.48979928 161.77198324 320.50894015 144.29765668 320.53713672 C126.34709717 320.56587279 108.39657968 320.57967664 90.44599658 320.57794917 C80.37131122 320.57728555 70.29671624 320.58276552 60.22205162 320.60430527 C51.64472711 320.62252648 43.06753395 320.6268566 34.49019846 320.61328642 C30.11613759 320.60676174 25.74232867 320.60662148 21.36829185 320.62399292 C17.35924863 320.63975073 13.35065653 320.63683267 9.34162412 320.61942466 C7.89618382 320.61636072 6.45070961 320.61996424 5.00530931 320.63114481 C-8.13734026 320.72602332 -18.95006759 318.01778355 -28.9225769 309.12025452 C-41.90810898 294.90120903 -41.50389345 279.9896074 -41.42428589 261.78382874 C-41.42807297 259.31555372 -41.4335762 256.84728083 -41.44065857 254.37901306 C-41.45313569 248.39341518 -41.44708263 242.40810337 -41.43198299 236.42253338 C-41.4150482 229.44156026 -41.41834244 222.46063891 -41.42207707 215.47965159 C-41.42794381 203.01915233 -41.41382965 190.55875441 -41.38912964 178.09828186 C-41.36520202 166.02597762 -41.35813092 153.95380868 -41.36862183 141.88148499 C-41.38004686 128.71076898 -41.38194233 115.54011541 -41.36752373 102.36940014 C-41.365998 100.9634769 -41.36447765 99.55755365 -41.36296272 98.1516304 C-41.36220491 97.46002159 -41.36144709 96.76841277 -41.36066632 96.05584612 C-41.35593654 91.19726943 -41.35776555 86.33872075 -41.36202812 81.4801445 C-41.36748654 74.93502658 -41.35665206 68.390068 -41.33507347 61.84497452 C-41.32952036 59.44646077 -41.3290267 57.04792903 -41.33402634 54.64941406 C-41.34000552 51.3690521 -41.3274231 48.08925582 -41.31025696 44.8089447 C-41.316267 43.86573958 -41.32227705 42.92253446 -41.32846922 41.95074737 C-41.2220274 30.72224524 -37.67429843 20.61828443 -30.17648315 12.14759827 C-21.70320045 4.13233084 -11.59123238 -0.01063416 0 0 Z " fill="#FEFEFE" transform="translate(80.92257690429688,55.87974548339844)"/>
<path d="M0 0 C0.66 0.33 1.32 0.66 2 1 C1.67 1.66 1.34 2.32 1 3 C0.90400172 4.36874236 0.86904394 5.74202443 0.86577892 7.11412525 C0.86132108 7.98093916 0.85686324 8.84775306 0.85227031 9.74083406 C0.85245467 10.69887789 0.85263903 11.65692173 0.85282898 12.64399719 C0.84915229 13.65742178 0.8454756 14.67084636 0.8416875 15.71498078 C0.83061652 19.13331578 0.82680097 22.55162042 0.82299805 25.9699707 C0.81673573 28.41219683 0.81008914 30.854422 0.80308533 33.29664612 C0.78382755 40.64484732 0.77324975 47.99304046 0.76435754 55.34125951 C0.75997425 58.80385905 0.75460729 62.26645707 0.74936867 65.7290554 C0.73234972 77.24555424 0.71785889 88.76205211 0.71061993 100.27856159 C0.70871008 103.26847141 0.70678975 106.25838122 0.70483398 109.24829102 C0.70435024 109.99140367 0.7038665 110.73451632 0.7033681 111.50014754 C0.69508049 123.51902509 0.66976811 135.5378027 0.63725331 147.55663667 C0.60412212 159.90441026 0.58616543 172.2521332 0.58297569 184.59995145 C0.58081544 191.52925028 0.57213907 198.45840368 0.54651451 205.38765907 C0.52243664 211.91376873 0.51901981 218.43966472 0.52927589 224.96582603 C0.52977029 227.35502364 0.52347845 229.74423429 0.50971985 232.13339233 C0.4172052 249.15807066 0.76435533 263.97073676 12.96484375 277.1171875 C27.11127533 290.67525032 43.9393753 292.14592955 62.5594635 292.15821838 C64.03153648 292.16279059 65.50360818 292.16779157 66.97567838 292.17318195 C71.00290014 292.18669751 75.03011351 292.19416222 79.05735195 292.20060861 C83.4069376 292.20864164 87.75650595 292.22232935 92.1060791 292.23532104 C99.63608824 292.25704274 107.16609916 292.2752029 114.69612312 292.29092598 C125.58319788 292.31366393 136.47025345 292.34180126 147.3573119 292.37124526 C165.02197223 292.41887312 182.68664043 292.46215029 200.35131836 292.50268555 C217.50822562 292.54206495 234.66512591 292.58349702 251.82202148 292.62768555 C252.8800404 292.63040982 253.93805932 292.63313409 255.02813942 292.63594092 C260.33604909 292.6496208 265.64395866 292.66334099 270.95186818 292.67708123 C314.96789756 292.79097049 358.98394204 292.89779649 403 293 C403.33 293.66 403.66 294.32 404 295 C396.00450927 306.27569206 388.37682218 313.21294709 374.57621729 316.57368588 C368.88368607 317.51568966 363.08564385 317.28106772 357.33110046 317.26742554 C355.83473078 317.27116529 354.33836305 317.2757681 352.8419984 317.28115618 C348.74251611 317.29336133 344.64311558 317.29312866 340.54361928 317.29076743 C336.11745587 317.29035864 331.69131847 317.30140431 327.26516724 317.31088257 C318.59838297 317.32747954 309.93162592 317.33299151 301.26482709 317.33410732 C294.2189599 317.33505835 287.17310168 317.33917135 280.12723732 317.34550858 C260.14269744 317.36311687 240.15817902 317.37234801 220.17363133 317.37084763 C219.09676512 317.37076772 218.01989891 317.3706878 216.91040039 317.37060547 C215.83221666 317.37052371 214.75403292 317.37044195 213.64317695 317.37035771 C196.16882546 317.36954476 178.69456015 317.38868563 161.22023358 317.4168822 C143.26967407 317.44561827 125.31915658 317.45942212 107.36857349 317.45769465 C97.29388813 317.45703103 87.21929314 317.462511 77.14462852 317.48405075 C68.56730401 317.50227197 59.99011086 317.50660208 51.41277536 317.4930319 C47.0387145 317.48650723 42.66490557 317.48636696 38.29086876 317.5037384 C34.28182553 317.51949621 30.27323343 317.51657815 26.26420102 317.49917014 C24.81876072 317.4961062 23.37328652 317.49970972 21.92788621 317.51089029 C8.78523665 317.6057688 -2.02749069 314.89752904 -12 306 C-24.98553208 291.78095452 -24.58131655 276.86935288 -24.50170898 258.66357422 C-24.50549606 256.1952992 -24.5109993 253.72702631 -24.51808167 251.25875854 C-24.53055879 245.27316067 -24.52450573 239.28784885 -24.50940608 233.30227886 C-24.49247129 226.32130574 -24.49576553 219.3403844 -24.49950016 212.35939707 C-24.5053669 199.89889782 -24.49125275 187.43849989 -24.46655273 174.97802734 C-24.44262511 162.90572311 -24.43555401 150.83355416 -24.44604492 138.76123047 C-24.45746996 125.59051446 -24.45936543 112.4198609 -24.44494683 99.24914563 C-24.4434211 97.84322239 -24.44190074 96.43729914 -24.44038582 95.03137589 C-24.439628 94.33976707 -24.43887019 93.64815826 -24.43808941 92.9355916 C-24.43335963 88.07701491 -24.43518864 83.21846623 -24.43945122 78.35988998 C-24.44490963 71.81477206 -24.43407516 65.26981349 -24.41249657 58.72472 C-24.40694346 56.32620625 -24.4064498 53.92767451 -24.41144943 51.52915955 C-24.41742862 48.24879758 -24.4048462 44.9690013 -24.38768005 41.68869019 C-24.3936901 40.74548507 -24.39970014 39.80227995 -24.40589231 38.83049285 C-24.3000604 27.66632923 -20.82732915 17.19449826 -13.078125 8.95703125 C-9.06495632 5.30940313 -4.89034942 2.34736772 0 0 Z " fill="#CCD3EA" transform="translate(64,59)"/>
<path d="M0 0 C6.17905743 3.41388601 10.82992507 8.55630741 15.76904297 13.52612305 C16.74486368 14.50086959 17.7211175 15.47518271 18.69776917 16.44909668 C21.33621563 19.08271617 23.96840331 21.72250916 26.59934378 24.36362433 C29.35469024 27.12777716 32.11533053 29.8866337 34.87527466 32.64619446 C39.50360118 37.27545584 44.12804684 41.9085652 48.75 46.54418945 C54.09994305 51.9098979 59.45513525 57.27032128 64.81333244 62.62778634 C69.96719821 67.78104293 75.11820721 72.93714457 80.26761246 78.09485817 C82.46062059 80.29140403 84.65448242 82.48709206 86.84899521 84.68213463 C89.42703667 87.2611768 92.00252624 89.84274046 94.57601738 92.42632294 C95.97701156 93.83165405 97.38046997 95.23452716 98.78398132 96.63734436 C99.60831161 97.46593964 100.43264191 98.29453491 101.2819519 99.14823914 C102.00421904 99.87218211 102.72648617 100.59612509 103.47064018 101.34200573 C105 103 105 103 105 104 C33.72 104 -37.56 104 -111 104 C-104.24947778 96.12439074 -104.24947778 96.12439074 -100.69882202 92.56510925 C-99.89701004 91.75903229 -99.09519806 90.95295532 -98.26908875 90.12245178 C-97.40862442 89.26244064 -96.5481601 88.4024295 -95.66162109 87.51635742 C-94.7405809 86.59195862 -93.81954071 85.66755981 -92.87059021 84.71514893 C-90.36284106 82.19862853 -87.85191669 79.68530042 -85.34009886 77.17284179 C-83.76923893 75.60126828 -82.19909434 74.02898371 -80.62919998 72.45644569 C-75.14822357 66.96624381 -69.66469662 61.47860457 -64.17871094 55.9934082 C-59.06967999 50.88497965 -53.96627183 45.77098081 -48.86542642 40.65438002 C-44.47733831 36.25322282 -40.08541002 31.85592302 -35.69046271 27.46161538 C-33.06902238 24.84042991 -30.44915565 22.21771773 -27.83314133 19.59111595 C-24.920857 16.66736429 -22.00063366 13.75167021 -19.07958984 10.83666992 C-18.21507706 9.96653763 -17.35056427 9.09640533 -16.45985413 8.1999054 C-15.26559563 7.01193863 -15.26559563 7.01193863 -14.04721069 5.79997253 C-13.35812811 5.11034518 -12.66904552 4.42071783 -11.95908165 3.71019268 C-8.13458425 0.37157355 -5.08061108 -0.60967333 0 0 Z " fill="#CBD2EA" transform="translate(259,40)"/>
<path d="M0 0 C0.78824708 0.00027238 1.57649417 0.00054477 2.38862753 0.00082541 C3.76268452 -0.0168826 3.76268452 -0.0168826 5.16450024 -0.03494835 C6.66084429 -0.01617158 6.66084429 -0.01617158 8.18741751 0.00298452 C9.25396897 -0.0034043 10.32052043 -0.00979312 11.41939163 -0.01637554 C14.99946977 -0.0316572 18.57844693 -0.01114183 22.15848684 0.00921011 C24.72251137 0.0057099 27.28653374 0.00005245 29.85054922 -0.00760508 C36.09549151 -0.02039403 42.34002405 -0.00989727 48.58493125 0.01150817 C55.85687258 0.03551902 63.12873943 0.03380374 70.4007116 0.03120226 C83.37553884 0.02751189 96.35021291 0.04833914 109.32499075 0.0824523 C121.91585044 0.11554379 134.50654938 0.12971062 147.09745169 0.12346792 C160.80716993 0.11670394 174.51682082 0.11916434 188.22652912 0.13882732 C188.95149416 0.13986681 189.67645919 0.1409063 190.42339286 0.14197728 C191.87945602 0.14406818 193.33551915 0.14617915 194.79158226 0.14831045 C199.86081431 0.1552062 204.93002562 0.15587533 209.99926138 0.15442801 C216.82171885 0.152838 223.64395638 0.16773253 230.46637297 0.19365454 C232.97340667 0.20082927 235.48046085 0.20289372 237.98750257 0.1995368 C241.40355384 0.19583459 244.81903889 0.21052652 248.23502493 0.23003531 C249.23258763 0.22470738 250.23015033 0.21937945 251.2579422 0.21389008 C256.18685056 0.26262097 259.76099254 0.31070481 263.71122122 3.62444448 C266.84526369 9.89252943 264.71122122 17.61651247 264.71122122 24.62444448 C174.95122122 24.62444448 85.19122122 24.62444448 -7.28877878 24.62444448 C-7.28877878 1.98858786 -7.28877878 1.98858786 0 0 Z " fill="#CBD2EA" transform="translate(127.28877878189087,295.3755555152893)"/>
<path d="M0 0 C79.2 0 158.4 0 240 0 C240 18 240 18 237 23 C232.99567249 24.33477584 229.14775785 24.14455514 224.97242737 24.14044189 C223.57011562 24.14489858 223.57011562 24.14489858 222.13947433 24.1494453 C218.99344593 24.15814665 215.84745551 24.15964175 212.70141602 24.16113281 C210.4513338 24.16575989 208.20125238 24.1707844 205.95117188 24.17617798 C199.82937565 24.18931272 193.7075904 24.19574878 187.58578229 24.20018864 C183.76433428 24.20311701 179.94288929 24.20722132 176.12144279 24.21169281 C165.54335563 24.22380178 154.96527109 24.23418435 144.38717747 24.2375679 C143.7102061 24.23778747 143.03323474 24.23800703 142.33574909 24.23823325 C141.31785366 24.23856067 141.31785366 24.23856067 140.27939469 24.2388947 C138.9042807 24.23933817 137.52916672 24.23978473 136.15405273 24.24023438 C135.13089518 24.24056652 135.13089518 24.24056652 134.08706778 24.24090537 C123.02893684 24.24485532 111.97087172 24.26231594 100.91276623 24.2855939 C89.56280238 24.3092937 78.21288271 24.32151096 66.86288971 24.32293582 C60.48891813 24.32398603 54.11503942 24.32993987 47.74109077 24.34775543 C41.74850462 24.36417922 35.75608171 24.36641938 29.76348114 24.35761642 C27.56078849 24.35684305 25.35808727 24.36122806 23.15541649 24.37107468 C20.15493276 24.38370411 17.15503515 24.37796654 14.15455627 24.36749268 C13.27722684 24.37554908 12.3998974 24.38360548 11.49598223 24.39190602 C7.97350234 24.36302787 5.63528403 24.33805446 2.49034023 22.66453171 C-2.86505824 16.68319243 0 7.12506576 0 0 Z " fill="#CBD2EA" transform="translate(136,160)"/>
<path d="M0 0 C1.31192825 -0.00997513 2.62385651 -0.01995026 3.97554016 -0.03022766 C5.41760242 -0.03112335 6.85966483 -0.03178698 8.30172729 -0.03224182 C9.82992455 -0.03986874 11.35811798 -0.04829715 12.88630676 -0.0574646 C17.02919452 -0.07936905 21.17200848 -0.08820349 25.31494761 -0.09329104 C27.90779773 -0.09694062 30.50062872 -0.10318392 33.09347153 -0.11029243 C42.15231927 -0.1347767 51.21110988 -0.14783579 60.26998901 -0.15138245 C68.69175447 -0.15501284 77.11315441 -0.18487508 85.53480828 -0.22678703 C92.78177854 -0.26157837 100.02862824 -0.27693244 107.27568138 -0.27762848 C111.59652938 -0.27841855 115.91700513 -0.28703117 120.23776627 -0.31562614 C124.30749973 -0.34195774 128.37655638 -0.34392895 132.44633675 -0.3279705 C133.93131942 -0.32616769 135.41634236 -0.33274009 136.9012394 -0.34878922 C148.40309009 -0.46541937 159.24773831 1.33412634 167.93405151 9.53196716 C171.64553304 13.94615586 174.00693627 18.70631871 175.39889526 24.27415466 C107.41889526 24.27415466 39.43889526 24.27415466 -30.60110474 24.27415466 C-27.8146687 14.52162853 -23.3934469 8.92940622 -14.90969849 3.46556091 C-9.953491 0.90778886 -5.55528982 0.02272889 0 0 Z " fill="#95A0C2" transform="translate(183.60110473632813,447.72584533691406)"/>
<path d="M0 0 C0.93147858 0.00359528 1.86295715 0.00719055 2.82266235 0.01089478 C3.79816544 0.01074875 4.77366852 0.01060272 5.7787323 0.01045227 C9.01987899 0.01115184 12.260969 0.01894626 15.50210571 0.02676392 C17.74270089 0.02862794 19.98329648 0.03005192 22.22389221 0.03105164 C28.13404456 0.03487804 34.04417251 0.04470936 39.95431519 0.05575562 C45.98000763 0.06596711 52.005704 0.07054869 58.03140259 0.07559204 C69.86409563 0.08633152 81.69677052 0.10340941 93.52944946 0.12442017 C94.00820393 1.38617137 94.48552923 2.6484649 94.96226501 3.91098022 C95.36121459 4.96530054 95.36121459 4.96530054 95.76822376 6.04092026 C97.72048028 11.3843109 99.15836694 16.90669847 100.71694946 22.37442017 C101.26899048 24.27320923 101.26899048 24.27320923 101.83218384 26.21035767 C102.17958618 27.42465454 102.52698853 28.63895142 102.88491821 29.89004517 C103.20098022 30.99122681 103.51704224 32.09240845 103.84268188 33.22695923 C104.52944946 36.12442017 104.52944946 36.12442017 104.52944946 40.12442017 C64.26944946 40.12442017 24.00944946 40.12442017 -17.47055054 40.12442017 C-16.7435399 35.03534571 -15.8375754 30.37524683 -14.43930054 25.47598267 C-14.14533386 24.42898697 -14.14533386 24.42898697 -13.84542847 23.36083984 C-13.4340632 21.8997479 -13.02050162 20.43927268 -12.60482788 18.97940063 C-11.96685103 16.73641351 -11.33737787 14.49115989 -10.70883179 12.24551392 C-10.30698671 10.82219595 -9.90466041 9.39901374 -9.50180054 7.97598267 C-9.31323486 7.3031424 -9.12466919 6.63030212 -8.9303894 5.93707275 C-7.16296004 -0.23796159 -6.44931273 0.01051939 0 0 Z " fill="#95A0C2" transform="translate(212.47055053710938,391.8755798339844)"/>
<path d="M0 0 C2.875 1.5 2.875 1.5 5 3 C3.68518308 5.90824516 2.27740512 7.96855752 0.01504517 10.21200562 C-0.59615677 10.82306656 -1.2073587 11.4341275 -1.83708191 12.06370544 C-2.50621109 12.72250198 -3.17534027 13.38129852 -3.86474609 14.06005859 C-4.57062363 14.76301559 -5.27650116 15.4659726 -6.00376892 16.19023132 C-7.53646867 17.71532323 -9.0714745 19.23810026 -10.60850143 20.75883102 C-13.04244414 23.16724479 -15.47008285 25.58185294 -17.89614868 27.99819946 C-23.92433046 33.99963642 -29.9632648 39.99021687 -36.00189209 45.98114014 C-41.10217547 51.0419353 -46.19833232 56.10681797 -51.28908157 61.17720413 C-53.67802921 63.55320752 -56.07293406 65.92309301 -58.46810913 68.29281616 C-59.93785773 69.75529679 -61.40732462 71.21806058 -62.87646484 72.68115234 C-63.54154556 73.33590042 -64.20662628 73.9906485 -64.89186096 74.66523743 C-68.43863501 78.21120079 -71.56496227 81.59433671 -74 86 C-73.86654873 89.78020634 -73.86654873 89.78020634 -73 93 C-68.15714006 94.55913523 -64.11605518 95.24669092 -58.97924805 95.23136902 C-58.30850345 95.23222246 -57.63775885 95.2330759 -56.94668865 95.2339552 C-54.71824667 95.23456499 -52.49011741 95.22109934 -50.26171875 95.20776367 C-48.65630186 95.20560046 -47.05088341 95.20441558 -45.44546509 95.20413208 C-41.99751705 95.20208194 -38.5496436 95.19440306 -35.10171509 95.1826992 C-29.64679123 95.16550278 -24.19199943 95.16880041 -18.73706055 95.17634583 C-3.22860546 95.19550809 12.27967688 95.20217066 27.78808594 95.15454102 C36.36040451 95.1283814 44.93234645 95.12707428 53.50466824 95.15368825 C58.03731259 95.16667271 62.56913982 95.16666332 67.10171509 95.1358242 C71.36371734 95.10688085 75.62446692 95.11034429 79.88646317 95.13843155 C81.44772231 95.14292231 83.00906951 95.13549935 84.57020187 95.11510277 C97.82756299 94.95279732 97.82756299 94.95279732 102.48364258 99.49092102 C105 102.615454 105 102.615454 105 104 C33.72 104 -37.56 104 -111 104 C-104.24947778 96.12439074 -104.24947778 96.12439074 -100.69882202 92.56510925 C-99.89701004 91.75903229 -99.09519806 90.95295532 -98.26908875 90.12245178 C-97.40862442 89.26244064 -96.5481601 88.4024295 -95.66162109 87.51635742 C-94.7405809 86.59195862 -93.81954071 85.66755981 -92.87059021 84.71514893 C-90.36284106 82.19862853 -87.85191669 79.68530042 -85.34009886 77.17284179 C-83.76923893 75.60126828 -82.19909434 74.02898371 -80.62919998 72.45644569 C-75.14822357 66.96624381 -69.66469662 61.47860457 -64.17871094 55.9934082 C-59.06967999 50.88497965 -53.96627183 45.77098081 -48.86542642 40.65438002 C-44.47733831 36.25322282 -40.08541002 31.85592302 -35.69046271 27.46161538 C-33.06902238 24.84042991 -30.44915565 22.21771773 -27.83314133 19.59111595 C-24.920857 16.66736429 -22.00063366 13.75167021 -19.07958984 10.83666992 C-18.21507706 9.96653763 -17.35056427 9.09640533 -16.45985413 8.1999054 C-15.26559563 7.01193863 -15.26559563 7.01193863 -14.04721069 5.79997253 C-13.35812811 5.11034518 -12.66904552 4.42071783 -11.95908165 3.71019268 C-8.11067272 0.35069984 -5.10728661 -0.52115169 0 0 Z " fill="#96A1C3" transform="translate(259,40)"/>
<path d="M0 0 C13.2 0 26.4 0 40 0 C40 26.4 40 52.8 40 80 C26.8 80 13.6 80 0 80 C0 53.6 0 27.2 0 0 Z " fill="#FFFFFF" transform="translate(280,200)"/>
<path d="M0 0 C13.2 0 26.4 0 40 0 C40 26.4 40 52.8 40 80 C26.8 80 13.6 80 0 80 C0 53.6 0 27.2 0 0 Z " fill="#FFFFFF" transform="translate(192,200)"/>
<path d="M0 0 C0.96292969 0.05800781 1.92585937 0.11601562 2.91796875 0.17578125 C4.38169922 0.24345703 4.38169922 0.24345703 5.875 0.3125 C6.61105469 0.37050781 7.34710938 0.42851562 8.10546875 0.48828125 C8.18023437 1.15214844 8.255 1.81601562 8.33203125 2.5 C8.52925781 3.82451172 8.52925781 3.82451172 8.73046875 5.17578125 C8.90449219 6.48095703 8.90449219 6.48095703 9.08203125 7.8125 C10.49827288 11.51526915 12.69586462 13.60416273 16.10546875 15.48828125 C19.48839339 16.20593089 22.79366241 16.16636332 26.24203491 16.1275177 C27.25988245 16.13587338 28.27772998 16.14422905 29.32642138 16.15283793 C32.73537828 16.17477644 36.14325883 16.1611574 39.55224609 16.14770508 C41.99645811 16.15615719 44.4406634 16.16680079 46.88485718 16.17947388 C52.14615049 16.20182167 57.40712596 16.20892752 62.66843796 16.20212746 C70.27529675 16.19232227 77.88189606 16.21007045 85.48871286 16.23449477 C97.83085989 16.27337744 110.17293264 16.29004689 122.51513672 16.29272461 C134.50280568 16.29537303 146.49038785 16.30849699 158.47802734 16.33569336 C159.58682519 16.33820343 159.58682519 16.33820343 160.71802299 16.3407642 C164.42644926 16.34922381 168.13487502 16.3578892 171.84330058 16.3666569 C202.59734713 16.43910145 233.35133696 16.47511614 264.10546875 16.48828125 C264.10546875 19.12828125 264.10546875 21.76828125 264.10546875 24.48828125 C174.34546875 24.48828125 84.58546875 24.48828125 -7.89453125 24.48828125 C-7.89453125 1.33173604 -7.89453125 1.33173604 0 0 Z " fill="#95A0C2" transform="translate(127.89453125,295.51171875)"/>
<path d="M0 0 C6.5050875 3.68360377 11.85008743 8.78804102 13.9453125 16.1015625 C14.98243711 23.57601228 13.76585569 30.02744456 9.46875 36.234375 C4.89560658 41.89337896 0.37986492 45.52704559 -6.94921875 46.4765625 C-13.4837736 46.73958861 -18.78929928 46.15273404 -24.0546875 42.1015625 C-30.31146473 36.28629173 -34.10878598 30.36248449 -34.4921875 21.6640625 C-34.25525412 14.99347647 -32.56364046 10.73689929 -27.9609375 5.90234375 C-19.7156089 -1.75206963 -10.78488932 -4.67199659 0 0 Z " fill="#0375FE" transform="translate(266.0546875,81.8984375)"/>
<path d="M0 0 C5.28 0 10.56 0 16 0 C16 26.4 16 52.8 16 80 C10.72 80 5.44 80 0 80 C0 53.6 0 27.2 0 0 Z " fill="#96A1C3" transform="translate(336,200)"/>
<path d="M0 0 C5.28 0 10.56 0 16 0 C16 26.4 16 52.8 16 80 C10.72 80 5.44 80 0 80 C0 53.6 0 27.2 0 0 Z " fill="#96A1C3" transform="translate(248,200)"/>
<path d="M0 0 C5.28 0 10.56 0 16 0 C16 26.4 16 52.8 16 80 C10.72 80 5.44 80 0 80 C0 53.6 0 27.2 0 0 Z " fill="#96A1C3" transform="translate(160,200)"/>
<path d="M0 0 C2.64 0 5.28 0 8 0 C8 23.76 8 47.52 8 72 C3 71 3 71 1.20878601 68.85163879 C-0.22191875 65.476473 -0.36158718 63.0366991 -0.34057617 59.3737793 C-0.34101425 58.72931351 -0.34145233 58.08484772 -0.34190369 57.42085266 C-0.3398249 55.30499254 -0.31653869 53.18993928 -0.29296875 51.07421875 C-0.28736952 49.60163302 -0.28310096 48.12904169 -0.28010559 46.65644836 C-0.26868248 42.79133521 -0.23923756 38.92656332 -0.20599365 35.06158447 C-0.17523783 31.11336889 -0.16158851 27.16509787 -0.14648438 23.21679688 C-0.11436504 15.47770945 -0.06319987 7.73890265 0 0 Z " fill="#CBD2EA" transform="translate(344,200)"/>
<path d="M0 0 C2.64 0 5.28 0 8 0 C8 23.76 8 47.52 8 72 C3 71 3 71 1.20878601 68.85163879 C-0.22191875 65.476473 -0.36158718 63.0366991 -0.34057617 59.3737793 C-0.34101425 58.72931351 -0.34145233 58.08484772 -0.34190369 57.42085266 C-0.3398249 55.30499254 -0.31653869 53.18993928 -0.29296875 51.07421875 C-0.28736952 49.60163302 -0.28310096 48.12904169 -0.28010559 46.65644836 C-0.26868248 42.79133521 -0.23923756 38.92656332 -0.20599365 35.06158447 C-0.17523783 31.11336889 -0.16158851 27.16509787 -0.14648438 23.21679688 C-0.11436504 15.47770945 -0.06319987 7.73890265 0 0 Z " fill="#CBD2EA" transform="translate(256,200)"/>
<path d="M0 0 C2.64 0 5.28 0 8 0 C8 23.76 8 47.52 8 72 C3 71 3 71 1.20878601 68.85163879 C-0.22191875 65.476473 -0.36158718 63.0366991 -0.34057617 59.3737793 C-0.34101425 58.72931351 -0.34145233 58.08484772 -0.34190369 57.42085266 C-0.3398249 55.30499254 -0.31653869 53.18993928 -0.29296875 51.07421875 C-0.28736952 49.60163302 -0.28310096 48.12904169 -0.28010559 46.65644836 C-0.26868248 42.79133521 -0.23923756 38.92656332 -0.20599365 35.06158447 C-0.17523783 31.11336889 -0.16158851 27.16509787 -0.14648438 23.21679688 C-0.11436504 15.47770945 -0.06319987 7.73890265 0 0 Z " fill="#CBD2EA" transform="translate(168,200)"/>
<path d="M0 0 C2.64 0 5.28 0 8 0 C8.36351562 0.87011719 8.36351562 0.87011719 8.734375 1.7578125 C13.33871734 12.48947194 18.46020952 18.08317466 29 23 C29 23.33 29 23.66 29 24 C25.08347368 24.08714316 21.16719689 24.14043985 17.25 24.1875 C16.13882813 24.21263672 15.02765625 24.23777344 13.8828125 24.26367188 C12.81289062 24.27333984 11.74296875 24.28300781 10.640625 24.29296875 C9.65610352 24.3086792 8.67158203 24.32438965 7.65722656 24.34057617 C4.54996903 23.94231962 3.22663016 23.17353946 1 21 C0.07811539 18.23434618 -0.11785222 16.61716298 -0.09765625 13.76953125 C-0.09282227 12.56586914 -0.09282227 12.56586914 -0.08789062 11.33789062 C-0.07951172 10.50451172 -0.07113281 9.67113281 -0.0625 8.8125 C-0.05798828 7.96751953 -0.05347656 7.12253906 -0.04882812 6.25195312 C-0.03705403 4.16793845 -0.0191189 2.08396023 0 0 Z " fill="#95A0C2" transform="translate(136,160)"/>
<path d="M0 0 C2.875 1.6875 2.875 1.6875 5 5 C5.90290167 11.65251133 6.10885197 17.44096499 2 23 C-0.80915474 24.40457737 -2.88810534 24.24895157 -6 24 C-9.1359157 22.22015595 -9.84102736 21.47691793 -11 18 C-12.0494539 6.63591344 -12.0494539 6.63591344 -8.875 1.6875 C-5.44657382 -0.32483711 -3.9001417 -0.81252952 0 0 Z " fill="#09415D" transform="translate(483,184)"/>
<path d="M0 0 C0.66 0.33 1.32 0.66 2 1 C-2.62 5.62 -7.24 10.24 -12 15 C-12.66 14.67 -13.32 14.34 -14 14 C-12.60919892 12.41224451 -11.21211596 10.82999061 -9.8125 9.25 C-8.64654297 7.92742188 -8.64654297 7.92742188 -7.45703125 6.578125 C-5.11544754 4.12113732 -2.69841735 2.05137234 0 0 Z " fill="#386580" transform="translate(48,49)"/>
</svg>
