<?xml version="1.0" encoding="UTF-8"?>
<svg version="1.1" xmlns="http://www.w3.org/2000/svg" width="2000" height="573">
<path d="M0 0 C0.8559375 -0.02900391 1.711875 -0.05800781 2.59375 -0.08789062 C10.62908347 -0.16702648 17.16012726 2.27457813 23.5 7.25 C24.10328125 7.71277344 24.7065625 8.17554688 25.328125 8.65234375 C27.25 10.3125 27.25 10.3125 29.5703125 12.9375 C32.81680177 15.81485492 34.60158546 16.03254804 38.875 16.375 C53.19401149 18.005901 65.07497228 24.33899741 74.7421875 35.08203125 C83.2295087 45.92075783 90.12553753 57.77316264 93.25 71.3125 C94.71759766 70.78849609 94.71759766 70.78849609 96.21484375 70.25390625 C113.92449567 64.04998887 113.92449567 64.04998887 120.04223633 66.37255859 C124.15423349 68.85934826 127.18575617 71.91212142 130.51171875 75.3515625 C131.18419144 76.03302338 131.85666412 76.71448425 132.54951477 77.41659546 C134.68617752 79.58316277 136.81260013 81.7593994 138.9375 83.9375 C141.0740013 86.12181011 143.21268421 88.30379858 145.35762024 90.47982788 C146.68941682 91.83140426 148.01625121 93.18789193 149.33757019 94.54971313 C149.93862076 95.16059784 150.53967133 95.77148254 151.15893555 96.40087891 C151.68488815 96.94032135 152.21084076 97.47976379 152.75273132 98.03555298 C155.40287445 100.29573008 158.31192231 100.5028241 161.65234375 100.8125 C162.97407593 100.93516235 162.97407593 100.93516235 164.32250977 101.06030273 C165.74067993 101.18514038 165.74067993 101.18514038 167.1875 101.3125 C168.15937256 101.40152588 169.13124512 101.49055176 170.13256836 101.58227539 C175.07949546 102.01757935 180.01371299 102.37181984 184.9765625 102.55859375 C185.87511963 102.59275391 186.77367676 102.62691406 187.69946289 102.66210938 C189.40398901 102.71944184 191.10899382 102.76430222 192.81420898 102.79492188 C197.39407938 102.94362825 200.58298784 103.26936515 204.25 106.3125 C206.12340942 109.40514677 206.70863573 112.25301108 207.22387695 115.81079102 C207.47000984 117.47478439 207.47000984 117.47478439 207.72111511 119.1723938 C207.89177994 120.37491791 208.06244476 121.57744202 208.23828125 122.81640625 C208.5133123 124.69632767 208.5133123 124.69632767 208.79389954 126.61422729 C209.28889792 129.99886069 209.77538652 133.384667 210.26026154 136.7707634 C210.76593548 140.29135311 211.27967896 143.81076503 211.79248047 147.33032227 C213.94560958 162.12983729 216.06499277 176.93431664 218.15643311 191.74267578 C220.04661177 205.11970172 222.0915852 218.47212732 224.14016724 231.82568359 C226.28070465 245.78926771 228.33773129 259.76204136 230.3125 273.75 C232.19994582 287.1193169 234.17221019 300.47143368 236.25 313.8125 C238.28175595 326.86254908 240.21617985 339.92244592 242.0625 353 C244.41395853 369.63824371 246.87277469 386.25878895 249.375 402.875 C250.13698826 407.94136574 250.8985927 413.00778916 251.66015625 418.07421875 C251.75934734 418.73409349 251.85853844 419.39396824 251.96073532 420.07383919 C252.72422307 425.15333281 253.48726813 430.23289282 254.25 435.3125 C254.37466393 436.14269905 254.49932785 436.9728981 254.62776947 437.8282547 C256.2826452 448.85079332 257.93333888 459.87394534 259.57606888 470.89830112 C260.2602419 475.48920327 260.9459712 480.0798602 261.63555908 484.66995239 C262.28698067 489.00626147 262.93425194 493.34317016 263.57841682 497.68056297 C263.81795018 499.28846893 264.05898085 500.89615263 264.30160332 502.50359535 C264.63555342 504.71779674 264.96405642 506.93274225 265.29125977 509.14794922 C265.47729263 510.39260956 265.6633255 511.6372699 265.85499573 512.91964722 C266.22402839 516.08941925 266.32482934 519.12530763 266.25 522.3125 C259.61468964 524.70627073 252.96244939 526.37404384 246.0625 527.8125 C244.65387695 528.11220703 244.65387695 528.11220703 243.21679688 528.41796875 C241.26242019 528.83345574 239.30756957 529.24671851 237.35229492 529.65795898 C234.07943629 530.34848657 230.80916771 531.05046015 227.5390625 531.75390625 C222.53037419 532.82853855 217.51863061 533.8875437 212.50390625 534.93359375 C194.32384194 538.72922636 176.16679147 542.62183073 158.02389526 546.59152222 C154.4462892 547.37307993 150.86792013 548.15104773 147.28930664 548.92797852 C133.28519097 551.96582523 133.28519097 551.96582523 119.313797 555.14970398 C116.30323862 555.85232342 113.28889407 556.53766492 110.27383423 557.22067261 C108.34643249 557.66525641 106.42529603 558.13674757 104.50463867 558.60961914 C95.60208285 560.61339189 88.17157393 560.00390951 79.25 558.3125 C77.87570067 558.06190215 76.50135063 557.81158228 75.12695312 557.56152344 C71.5067078 556.89000341 67.89495952 556.18046877 64.28469849 555.45736694 C60.29981823 554.65964571 56.31175541 553.87806351 52.32421875 553.09375 C51.13595741 552.85938484 51.13595741 552.85938484 49.9236908 552.62028503 C43.56161052 551.36728211 37.19085859 550.16740438 30.8125 549 C17.42928028 546.54347272 4.05820423 544.0236323 -9.3125 541.5 C-10.45759033 541.28393097 -11.60268066 541.06786194 -12.7824707 540.84524536 C-29.3077435 537.72635711 -45.82855717 534.58460659 -62.34695435 531.42953491 C-72.26231484 529.53646882 -82.18005442 527.66642322 -92.11694336 525.88916016 C-102.95426726 523.93753461 -113.7644283 521.83907237 -124.58007812 519.77148438 C-135.07816834 517.76524754 -145.57688387 515.77310782 -156.09838867 513.89282227 C-167.89855674 511.76812553 -179.66875113 509.47803111 -191.44335938 507.21679688 C-193.18745758 506.88259104 -194.93159765 506.54860361 -196.67578125 506.21484375 C-197.52189972 506.05277435 -198.36801819 505.89070496 -199.23977661 505.72372437 C-205.67507908 504.49870957 -212.12180079 503.34792701 -218.58283997 502.2665863 C-223.5354095 501.41979525 -223.5354095 501.41979525 -225.75 500.3125 C-225.86783683 494.45325153 -225.44322941 488.88674816 -224.6484375 483.0859375 C-224.5317572 482.20273834 -224.4150769 481.31953918 -224.29486084 480.40957642 C-223.90963427 477.50156716 -223.51724164 474.5945706 -223.125 471.6875 C-222.84954226 469.61595919 -222.5746504 467.54434307 -222.30029297 465.47265625 C-221.73172196 461.1829679 -221.16074158 456.89361103 -220.58789062 452.60449219 C-219.45269983 444.09445997 -218.34208468 435.58125457 -217.23376465 427.06768799 C-216.86889324 424.26560223 -216.50335154 421.46360453 -216.13769531 418.66162109 C-213.17086965 395.9161971 -210.24213403 373.16584153 -207.31036377 350.4158783 C-206.09918328 341.01792433 -204.88602527 331.62022697 -203.671875 322.22265625 C-202.00608118 309.32908282 -200.34286969 296.43517801 -198.68164062 283.54101562 C-198.07179761 278.80783465 -197.46110308 274.07476487 -196.84960938 269.34179688 C-196.15082938 263.93245921 -195.45423863 258.52284399 -194.75933838 253.11300659 C-194.50924472 251.16867436 -194.25842843 249.2244349 -194.0067749 247.28030396 C-192.66711221 236.92688841 -191.40342902 226.57736648 -190.41519165 216.18354797 C-189.85639608 210.52529215 -189.85639608 210.52529215 -188.75 208.3125 C-188.34809222 205.43652268 -187.99100691 202.56824513 -187.6640625 199.68359375 C-187.45345668 197.90816375 -187.24250792 196.1327744 -187.03125 194.35742188 C-186.70269794 191.56252921 -186.37698673 188.7673931 -186.05761719 185.97143555 C-185.74742844 183.27024852 -185.42526605 180.57069015 -185.1015625 177.87109375 C-185.01081451 177.04886826 -184.92006653 176.22664276 -184.8265686 175.37950134 C-184.04738582 168.98077636 -182.8480969 162.41768341 -179.1875 157 C-172.0840447 152.08222325 -162.84955416 149.94773907 -154.6875 147.375 C-153.59566406 147.02800049 -152.50382812 146.68100098 -151.37890625 146.32348633 C-143.77121866 143.91755513 -136.13975435 141.61308053 -128.46875 139.41796875 C-126.62796875 138.87076172 -126.62796875 138.87076172 -124.75 138.3125 C-123.58863525 138.0817981 -123.58863525 138.0817981 -122.40380859 137.84643555 C-117.70745656 136.75232441 -117.70745656 136.75232441 -114.52246094 133.35961914 C-113.60780192 130.84118513 -112.95859216 128.36472173 -112.375 125.75 C-111.9296875 124.01953125 -111.484375 122.2890625 -111.0390625 120.55859375 C-110.83104004 119.69613037 -110.62301758 118.83366699 -110.40869141 117.94506836 C-106.64721609 102.91171463 -100.57240956 89.16495768 -93.75 75.3125 C-93.36038086 74.51183105 -92.97076172 73.71116211 -92.56933594 72.88623047 C-77.89142352 42.92443678 -56.22226268 15.59829123 -24.01953125 3.96484375 C-20.94211922 2.99467657 -17.88020063 2.09394642 -14.75 1.3125 C-14.00621094 1.12171875 -13.26242188 0.9309375 -12.49609375 0.734375 C-8.33423639 0.09500004 -4.20520893 0.04665542 0 0 Z M-48.375 45.125 C-49.51733553 46.50668203 -50.64107328 47.90386335 -51.75 49.3125 C-52.44609375 50.18390625 -53.1421875 51.0553125 -53.859375 51.953125 C-68.29430596 70.56920838 -89.75 102.86670347 -89.75 127.3125 C-84.68795137 126.71095519 -79.99626533 125.61770971 -75.13671875 124.0625 C-74.44109329 123.84432617 -73.74546783 123.62615234 -73.02876282 123.40136719 C-71.57167836 122.943295 -70.11540086 122.48264866 -68.65991211 122.01953125 C-66.42800451 121.30947913 -64.19376424 120.60720384 -61.95898438 119.90625 C-60.538922 119.45877896 -59.11899512 119.01087767 -57.69921875 118.5625 C-57.03153976 118.35206055 -56.36386078 118.14162109 -55.6759491 117.92480469 C-52.14186367 116.79937326 -52.14186367 116.79937326 -48.75 115.3125 C-48.00099541 113.14480286 -48.00099541 113.14480286 -47.453125 110.4921875 C-47.22004639 109.48953857 -46.98696777 108.48688965 -46.74682617 107.45385742 C-46.50037354 106.37595947 -46.2539209 105.29806152 -46 104.1875 C-43.83428773 95.17615311 -41.46801858 86.69335628 -37.62011719 78.23632812 C-36.6360471 76.06055028 -35.69944518 73.86633521 -34.7578125 71.671875 C-30.05744914 60.982253 -24.57672346 51.98101168 -16.75 43.3125 C-16.29866699 42.80750977 -15.84733398 42.30251953 -15.38232422 41.78222656 C-9.53924524 35.34325881 -3.45050677 30.4242529 3.9140625 25.87109375 C6.35069843 24.52427309 6.35069843 24.52427309 7.25 22.3125 C-12.844588 16.75060511 -35.40869142 30.85910696 -48.375 45.125 Z M43.25 38.3125 C43.44335938 38.93253906 43.63671875 39.55257812 43.8359375 40.19140625 C48.17959109 54.96412909 48.70671773 70.02771722 49.25 85.3125 C53.07065691 84.25662231 56.87957052 83.16331737 60.6875 82.0625 C61.77611328 81.76214844 62.86472656 81.46179688 63.98632812 81.15234375 C65.02080078 80.84941406 66.05527344 80.54648438 67.12109375 80.234375 C68.07943115 79.96206055 69.03776855 79.68974609 70.02514648 79.40917969 C72.39938436 78.53323302 72.39938436 78.53323302 73.11743164 76.37036133 C73.75132862 66.53036573 65.08708037 54.95072901 59.1171875 47.734375 C54.3537073 42.58915249 50.15221632 39.73210478 43.25 38.3125 Z M14.8125 45.6875 C13.84441406 46.31398438 12.87632812 46.94046875 11.87890625 47.5859375 C9.99804616 48.82121262 8.12230532 50.06429645 6.25 51.3125 C6.25 51.9725 6.25 52.6325 6.25 53.3125 C5.69828125 53.51488281 5.1465625 53.71726562 4.578125 53.92578125 C-10.8386301 63.10858001 -20.09761961 89.23870158 -24.33422852 105.5637207 C-24.47143311 106.14081787 -24.6086377 106.71791504 -24.75 107.3125 C-19.38960183 106.71767775 -14.69690154 105.42228288 -9.625 103.625 C-1.79857993 100.92330627 6.09214064 98.5800872 14.08056641 96.40551758 C19.00939109 95.0420127 23.59984006 93.44565862 28.25 91.3125 C29.0183504 74.40169877 27.63264977 58.46044932 22.25 42.3125 C19.17152882 42.3125 17.36359377 44.0274257 14.8125 45.6875 Z " fill="#95BF48" transform="translate(225.75,-0.3125)"/>
<path d="M0 0 C3.82742765 0.40421284 5.79084043 1.29594144 8.45751953 4.03515625 C9.08812286 4.67251709 9.7187262 5.30987793 10.36843872 5.96655273 C11.03318207 6.65821533 11.69792542 7.34987793 12.3828125 8.0625 C13.07889618 8.76898682 13.77497986 9.47547363 14.49215698 10.20336914 C16.71281389 12.45962657 18.91963753 14.72879864 21.125 17 C23.33919591 19.26941875 25.55623366 21.53586674 27.77926636 23.79663086 C29.16156343 25.20345389 30.53847914 26.61558859 31.90945435 28.03344727 C32.84590286 28.98948853 32.84590286 28.98948853 33.80126953 29.96484375 C34.34800323 30.5280835 34.89473694 31.09132324 35.45803833 31.67163086 C38.12693175 33.97082917 41.02338946 34.18675188 44.40234375 34.5 C45.28349854 34.5817749 46.16465332 34.6635498 47.07250977 34.74780273 C48.01795654 34.83102783 48.96340332 34.91425293 49.9375 35 C51.39530884 35.13353882 51.39530884 35.13353882 52.88256836 35.26977539 C57.82949546 35.70507935 62.76371299 36.05931984 67.7265625 36.24609375 C68.62511963 36.28025391 69.52367676 36.31441406 70.44946289 36.34960938 C72.15398901 36.40694184 73.85899382 36.45180222 75.56420898 36.48242188 C80.14407938 36.63112825 83.33298784 36.95686515 87 40 C88.87340942 43.09264677 89.45863573 45.94051108 89.97387695 49.49829102 C90.22000984 51.16228439 90.22000984 51.16228439 90.47111511 52.8598938 C90.64177994 54.06241791 90.81244476 55.26494202 90.98828125 56.50390625 C91.17163528 57.75718719 91.35498932 59.01046814 91.54389954 60.30172729 C92.03889792 63.68636069 92.52538652 67.072167 93.01026154 70.4582634 C93.51593548 73.97885311 94.02967896 77.49826503 94.54248047 81.01782227 C96.69560958 95.81733729 98.81499277 110.62181664 100.90643311 125.43017578 C102.79661177 138.80720172 104.8415852 152.15962732 106.89016724 165.51318359 C109.03070465 179.47676771 111.08773129 193.44954136 113.0625 207.4375 C114.94994582 220.8068169 116.92221019 234.15893368 119 247.5 C121.03175595 260.55004908 122.96617985 273.60994592 124.8125 286.6875 C127.16395853 303.32574371 129.62277469 319.94628895 132.125 336.5625 C132.88698826 341.62886574 133.6485927 346.69528916 134.41015625 351.76171875 C134.50934734 352.42159349 134.60853844 353.08146824 134.71073532 353.76133919 C135.47422307 358.84083281 136.23726813 363.92039282 137 369 C137.18699589 370.24529858 137.18699589 370.24529858 137.37776947 371.5157547 C139.0326452 382.53829332 140.68333888 393.56144534 142.32606888 404.58580112 C143.0102419 409.17670327 143.6959712 413.7673602 144.38555908 418.35745239 C145.03698067 422.69376147 145.68425194 427.03067016 146.32841682 431.36806297 C146.56795018 432.97596893 146.80898085 434.58365263 147.05160332 436.19109535 C147.38555342 438.40529674 147.71405642 440.62024225 148.04125977 442.83544922 C148.32030907 444.70243973 148.32030907 444.70243973 148.60499573 446.60714722 C148.97402839 449.77691925 149.07482934 452.81280763 149 456 C142.36468964 458.39377073 135.71244939 460.06154384 128.8125 461.5 C127.87341797 461.69980469 126.93433594 461.89960937 125.96679688 462.10546875 C124.01242019 462.52095574 122.05756957 462.93421851 120.10229492 463.34545898 C116.82943629 464.03598657 113.55916771 464.73796015 110.2890625 465.44140625 C105.28037415 466.51603856 100.26862903 467.57503607 95.25390625 468.62109375 C75.89574548 472.66295779 56.56703789 476.82836905 37.25 481.0625 C16.86390722 485.53090228 -3.53947965 489.88523361 -24 494 C-24.0274215 490.91660421 -24.04703852 487.83346139 -24.0625 484.75 C-24.07506836 483.46996094 -24.07506836 483.46996094 -24.08789062 482.1640625 C-24.10469485 477.66053133 -23.97169008 473.23099902 -23.5546875 468.74609375 C-22.66821252 458.95959806 -22.43443975 449.12908021 -22.0625 439.3125 C-21.2752458 418.63292728 -20.28618532 397.96585392 -19.26187134 377.29696655 C-18.8881615 369.74911068 -18.52135048 362.20091989 -18.15432358 354.65273666 C-17.95456019 350.546387 -17.75421742 346.44006559 -17.55395508 342.33374023 C-17.26001972 336.30541972 -16.96648758 330.27707975 -16.67333508 324.24872112 C-15.86486725 307.62613776 -15.05491086 291.00367372 -14.2149353 274.38264847 C-13.91277197 268.40100028 -13.61254796 262.41925462 -13.3125 256.4375 C-13.24893311 255.17329224 -13.18536621 253.90908447 -13.11987305 252.60656738 C-12.45093706 239.23782535 -11.85640293 225.8823209 -11.5625 212.5 C-11.19209509 195.89314148 -9.92962178 179.34449653 -8.78890991 162.77624512 C-7.35843906 141.88570069 -6.35785853 121.00592682 -5.64868164 100.07836914 C-5.21034819 87.1920928 -4.6126889 74.34228916 -3.75170898 61.47753906 C-3.20738527 53.10943344 -2.8018207 44.74244107 -2.46484375 36.36328125 C-2.42050201 35.26138962 -2.37616028 34.15949799 -2.33047485 33.0242157 C-2.1109284 27.50756402 -1.89994798 21.9906845 -1.69726562 16.47338867 C-1.61983301 14.46142419 -1.54236096 12.44946122 -1.46484375 10.4375 C-1.43261215 9.4975972 -1.40038055 8.5576944 -1.36717224 7.58930969 C-1.33358109 6.73354843 -1.29998993 5.87778717 -1.26538086 4.99609375 C-1.2381041 4.24513428 -1.21082733 3.4941748 -1.182724 2.72045898 C-1 1 -1 1 0 0 Z " fill="#5F8E3D" transform="translate(343,66)"/>
<path d="M0 0 C17.34920517 13.75068196 25.73709177 35.26790253 28.86181641 56.70141602 C29.48628871 62.51057947 29.54699677 68.30551919 29.51074219 74.14111328 C29.50004454 76.17901594 29.51069771 78.21603041 29.5234375 80.25390625 C29.53728635 92.61014582 28.04261046 104.6686817 25.4375 116.75 C25.26645752 117.54583496 25.09541504 118.34166992 24.91918945 119.16162109 C15.86374332 159.95784812 -6.30937832 199.75660322 -41.80712891 223.1015625 C-67.59086774 239.17184959 -98.55123075 244.83378316 -128.3359375 238.3125 C-133.40763596 236.82696818 -138.09685595 234.80666408 -142.75 232.3125 C-144.70269161 239.500067 -146.2357861 246.70814743 -147.48364258 254.04663086 C-148.64235544 260.82115513 -149.93920141 267.56591375 -151.25 274.3125 C-152.63304767 281.45010474 -154.00724308 288.5865103 -155.25 295.75 C-156.59008527 303.44393782 -157.97187646 311.12979898 -159.375 318.8125 C-159.59349609 320.02607178 -159.81199219 321.23964355 -160.03710938 322.48999023 C-160.34745117 324.18103882 -160.34745117 324.18103882 -160.6640625 325.90625 C-160.8492041 326.92396484 -161.0343457 327.94167969 -161.22509766 328.99023438 C-161.75 331.3125 -161.75 331.3125 -162.75 332.3125 C-164.89743549 332.40675595 -167.04801026 332.42992648 -169.19750977 332.42602539 C-170.20722336 332.42624443 -170.20722336 332.42624443 -171.23733521 332.4264679 C-173.47205784 332.42576878 -175.7066981 332.41797652 -177.94140625 332.41015625 C-179.48697362 332.40829206 -181.03254157 332.40686816 -182.57810974 332.40586853 C-186.65357077 332.4020434 -190.72899637 332.39221317 -194.80444336 332.38116455 C-198.96011882 332.37095032 -203.11579999 332.36637089 -207.27148438 332.36132812 C-215.43100587 332.35059089 -223.59049853 332.33351454 -231.75 332.3125 C-231.22228824 326.39471377 -230.5333954 320.5928691 -229.40234375 314.75390625 C-229.27016953 314.0638298 -229.1379953 313.37375336 -229.0018158 312.6627655 C-228.56759852 310.39940931 -228.12748249 308.13724183 -227.6875 305.875 C-227.05150389 302.5693708 -226.41852978 299.26316381 -225.78515625 295.95703125 C-225.53759583 294.66839676 -225.53759583 294.66839676 -225.28503418 293.35372925 C-223.52708521 284.18880722 -221.83306086 275.01224223 -220.13757324 265.83560181 C-217.63063266 252.27265923 -215.08043739 238.72432833 -212.33154297 225.20800781 C-211.09256031 219.09909074 -209.96167 212.9815154 -208.9128418 206.83740234 C-207.63853994 199.47220401 -206.13949721 192.15199595 -204.63867188 184.83007812 C-203.44926572 178.98248323 -202.3489172 173.12468477 -201.32421875 167.24609375 C-199.82411434 158.64081127 -198.20605683 150.0603367 -196.56192017 141.48153687 C-196.04542298 138.78587285 -195.53070255 136.08987425 -195.01635742 133.39379883 C-193.40011131 124.92502227 -191.77851124 116.45728825 -190.15040588 107.99078369 C-183.36872515 72.71493572 -176.897415 37.42997882 -172.70068359 1.73510742 C-172.58934082 0.80158447 -172.47799805 -0.13193848 -172.36328125 -1.09375 C-172.22079956 -2.32061523 -172.22079956 -2.32061523 -172.07543945 -3.57226562 C-171.75 -5.6875 -171.75 -5.6875 -170.75 -8.6875 C-150.62 -8.6875 -130.49 -8.6875 -109.75 -8.6875 C-108.53663529 -5.04740587 -108.90623117 -2.64642852 -109.30859375 1.16796875 C-109.37659683 1.82960526 -109.44459991 2.49124176 -109.5146637 3.17292786 C-109.73290158 5.28263345 -109.96008049 7.39126637 -110.1875 9.5 C-110.33717905 10.93157901 -110.48627456 12.36321916 -110.63476562 13.79492188 C-110.99974582 17.30151558 -111.37274969 20.80720268 -111.75 24.3125 C-111.29625 23.6525 -110.8425 22.9925 -110.375 22.3125 C-109.83875 21.6525 -109.3025 20.9925 -108.75 20.3125 C-108.09 20.3125 -107.43 20.3125 -106.75 20.3125 C-106.34007812 19.41917969 -106.34007812 19.41917969 -105.921875 18.5078125 C-99.04420776 5.62364921 -79.15343162 -4.85823503 -65.78125 -8.96875 C-43.44459997 -15.31806158 -19.10233129 -14.3556081 0 0 Z M-93.75 56.3125 C-94.41386719 56.87453125 -95.07773438 57.4365625 -95.76171875 58.015625 C-104.9928963 66.35814302 -110.41388378 77.85209587 -115.0625 89.1875 C-115.37574219 89.93999023 -115.68898438 90.69248047 -116.01171875 91.46777344 C-121.31741418 105.03244134 -123.47353654 119.6839075 -125.75 134 C-126.25876678 137.15152414 -126.77145948 140.30240106 -127.28515625 143.453125 C-127.40939468 144.21797714 -127.53363312 144.98282928 -127.66163635 145.77085876 C-128.8715614 153.16684051 -130.23138499 160.5346544 -131.72070312 167.87963867 C-132.85600545 173.62510073 -132.85600545 173.62510073 -131.75 179.3125 C-122.67394109 186.83898788 -111.62234676 187.81599207 -100.203125 187.16796875 C-87.64607517 185.08276522 -76.72186718 175.43711842 -69.41308594 165.49365234 C-50.02658303 137.45526274 -40.12102525 102.47263472 -44.21484375 68.44921875 C-45.88782824 60.65845664 -49.51088123 55.55161877 -55.0625 50 C-68.4278938 41.60777599 -82.72771606 46.11214546 -93.75 56.3125 Z " fill="#000000" transform="translate(1449.75,228.6875)"/>
<path d="M0 0 C0.65378128 -0.00014603 1.30756256 -0.00029205 1.9811554 -0.0004425 C4.14551086 0.00025504 6.30978063 0.00803999 8.47412109 0.01586914 C9.97341871 0.01773388 11.47271694 0.01915752 12.97201538 0.02015686 C16.92087482 0.0239776 20.86969756 0.03380411 24.81854248 0.04486084 C28.84695947 0.05508448 32.87538238 0.05965653 36.90380859 0.06469727 C44.81007545 0.07542677 52.71631246 0.09249789 60.62255859 0.11352539 C61.78016809 4.09994829 61.30485713 6.88287966 60.50537109 10.98071289 C60.37319183 11.67053253 60.24101257 12.36035217 60.10482788 13.07107544 C59.66051179 15.37854364 59.20401533 17.68343062 58.74755859 19.98852539 C58.42846605 21.63291454 58.11012398 23.27744947 57.79248047 24.92211914 C56.92799064 29.38561829 56.05264198 33.84692036 55.17443848 38.30773926 C54.24432287 43.03649557 53.32064266 47.76650974 52.39599609 52.49633789 C51.25786316 58.31441055 50.11900645 64.13234024 48.97851562 69.94995117 C46.65871393 81.78666513 44.34378993 93.62428734 42.08032227 105.47192383 C41.77994951 107.0412313 41.47807893 108.61025297 41.17456055 110.17895508 C39.63576476 118.13938087 38.25718602 126.02202566 37.62255859 134.11352539 C38.0635791 133.57663086 38.50459961 133.03973633 38.95898438 132.48657227 C42.11474609 128.64477539 42.11474609 128.64477539 43.62255859 127.11352539 C44.28255859 127.11352539 44.94255859 127.11352539 45.62255859 127.11352539 C45.62255859 126.45352539 45.62255859 125.79352539 45.62255859 125.11352539 C63.61491334 109.23016461 86.28524847 100.10301476 110.41162109 100.83227539 C127.56523619 102.33478182 141.11386022 107.9538662 152.39990234 121.19946289 C167.22084097 141.48868677 165.38419237 169.75277164 161.82369995 193.22042847 C160.83433369 199.5320242 159.74694622 205.82475016 158.62255859 212.11352539 C158.30158203 213.92844482 158.30158203 213.92844482 157.97412109 215.7800293 C156.44352523 224.34357144 154.80370599 232.88511394 153.14459229 241.42443848 C151.39345921 250.44483143 149.65340932 259.46738062 147.90994263 268.48925781 C147.42761715 270.98395652 146.94493218 273.47858575 146.46188354 275.97314453 C143.12575456 293.2016851 139.85230184 310.43943513 136.72827148 327.70776367 C133.12025263 347.61583136 133.12025263 347.61583136 131.62255859 349.11352539 C129.47512311 349.20778134 127.32454834 349.23095187 125.17504883 349.22705078 C124.16533524 349.22726982 124.16533524 349.22726982 123.13522339 349.22749329 C120.90050075 349.22679418 118.6658605 349.21900191 116.43115234 349.21118164 C114.88558498 349.20931745 113.34001702 349.20789355 111.79444885 349.20689392 C107.71898783 349.20306879 103.64356223 349.19323856 99.56811523 349.18218994 C95.41243977 349.17197571 91.25675861 349.16739628 87.10107422 349.16235352 C78.94155272 349.15161628 70.78206006 349.13453993 62.62255859 349.11352539 C63.18096281 342.61294191 64.03834509 336.26441308 65.29443359 329.86352539 C65.45714249 329.0153978 65.61985138 328.1672702 65.78749084 327.29344177 C66.31172952 324.56599073 66.84210633 321.83977407 67.37255859 319.11352539 C67.73715948 317.22176144 68.10133301 315.32991508 68.46508789 313.43798828 C69.3536807 308.82121926 70.24691094 304.20536531 71.14227295 299.58990479 C72.03928363 294.964868 72.93268037 290.3391354 73.82470703 285.71313477 C74.21031108 283.7153973 74.59747479 281.71795968 74.98681641 279.72094727 C76.05142323 274.22734078 77.04532074 268.72392235 78.00537109 263.21118164 C79.13340044 256.74803949 80.34122038 250.30337279 81.59521484 243.86352539 C81.76557755 242.98547745 81.93594025 242.1074295 82.11146545 241.20277405 C82.81024175 237.60330333 83.50958519 234.00398264 84.21850586 230.40649414 C87.20642739 215.21823646 90.02667985 200.02908495 89.87255859 184.48852539 C89.88029297 183.6699707 89.88802734 182.85141602 89.89599609 182.00805664 C89.86974525 173.83091864 88.37963838 168.00767851 82.62255859 162.11352539 C77.17149534 158.4960016 69.85871429 159.51475252 63.62255859 160.11352539 C51.17588178 163.62107043 41.06406265 175.40549836 34.62255859 186.11352539 C25.7980342 202.27747129 21.07488911 218.63713252 17.62255859 236.61352539 C17.28995999 238.31679403 16.95662985 240.01991998 16.62255859 241.72290039 C15.95545819 245.12737142 15.29266502 248.53264116 14.63256836 251.93847656 C13.44015565 258.07331338 12.20843121 264.20021788 10.96765137 270.32543945 C9.96407146 275.30609219 9.04511709 280.29351615 8.18505859 285.30102539 C6.95617419 292.43159859 5.55767978 299.52165253 4.12255859 306.61352539 C1.4782382 319.69564241 -0.90466234 332.7980395 -2.94775391 345.98852539 C-3.37744141 348.11352539 -3.37744141 348.11352539 -4.37744141 349.11352539 C-6.5554986 349.20781881 -8.7366542 349.23095077 -10.91674805 349.22705078 C-11.59964401 349.22719681 -12.28253998 349.22734283 -12.98612976 349.22749329 C-15.25331755 349.22679415 -17.52042414 349.21900179 -19.78759766 349.21118164 C-21.35558528 349.20931746 -22.92357348 349.20789356 -24.49156189 349.20689392 C-28.62620643 349.20306873 -32.76081606 349.19323845 -36.89544678 349.18218994 C-41.11144539 349.17197584 -45.32744962 349.1673963 -49.54345703 349.16235352 C-57.82146788 349.15161618 -66.0994503 349.13453975 -74.37744141 349.11352539 C-74.07027077 347.07456119 -73.7612242 345.03587956 -73.45141602 342.99731445 C-73.27952255 341.8619928 -73.10762909 340.72667114 -72.93052673 339.5569458 C-72.08522162 334.29421194 -71.01914306 329.08245105 -69.93994141 323.86352539 C-68.36373973 316.21621251 -66.91033026 308.55658123 -65.57025146 300.8646698 C-64.03988152 292.11682752 -62.36175034 283.39772947 -60.68994141 274.67602539 C-60.34111383 272.8519097 -59.99240221 271.02777183 -59.64379883 269.20361328 C-59.10241151 266.3707426 -58.56093378 263.53788956 -58.01899719 260.7051239 C-56.75766613 254.11058392 -55.50320229 247.51476519 -54.25244141 240.91821289 C-47.85675749 207.2047999 -47.85675749 207.2047999 -45.01147461 193.35742188 C-43.9121356 187.96736017 -42.91679315 182.56375617 -41.97119141 177.14477539 C-40.31143944 167.63564441 -38.50687537 158.15618207 -36.68994141 148.67602539 C-36.33890375 146.83946097 -35.98799527 145.00287185 -35.63720703 143.16625977 C-34.91130258 139.36619743 -34.1848534 135.56623985 -33.45800781 131.76635742 C-31.75929291 122.88306991 -30.06872284 113.99823052 -28.37744141 105.11352539 C-27.71217136 101.61871572 -27.04682474 98.12392065 -26.38134766 94.62915039 C-26.21652893 93.76360031 -26.05171021 92.89805023 -25.88189697 92.00627136 C-24.87414883 86.71590114 -23.86394665 81.42600563 -22.85188293 76.13645935 C-22.00544322 71.71229939 -21.16003191 67.28794325 -20.31494141 62.86352539 C-20.06851395 61.5739241 -20.06851395 61.5739241 -19.81710815 60.25827026 C-17.96445576 50.55559348 -16.13584796 40.84900558 -14.35400391 31.13305664 C-14.19144608 30.24691681 -14.02888824 29.36077698 -13.86140442 28.44778442 C-13.08606012 24.21629909 -12.31421888 19.98420828 -11.54711914 15.7512207 C-11.27312721 14.24828824 -10.99912088 12.7453584 -10.72509766 11.24243164 C-10.60256622 10.56018021 -10.48003479 9.87792877 -10.35379028 9.17500305 C-9.84596756 6.39728822 -9.27224778 3.7979445 -8.37744141 1.11352539 C-5.54349754 -0.30344654 -3.16870402 -0.0059339 0 0 Z " fill="#000000" transform="translate(827.37744140625,114.886474609375)"/>
<path d="M0 0 C24.09 0 48.18 0 73 0 C74.17418877 6.45803822 75.26768154 12.54789966 75.9296875 19.015625 C76.00475021 19.73719284 76.07981293 20.45876068 76.15715027 21.20219421 C76.40049576 23.55106493 76.63782238 25.90049919 76.875 28.25 C77.04707766 29.92394727 77.21953014 31.59785605 77.39233398 33.27172852 C77.75171283 36.75985373 78.10855605 40.24822486 78.46337891 43.73681641 C78.98376624 48.84992587 79.51259388 53.9621371 80.04296875 59.07421875 C81.96105705 77.59081492 83.80478274 96.11321807 85.58056641 114.64404297 C86.43889298 123.57622403 87.31520387 132.50667488 88.1875 141.4375 C88.36849987 143.2915029 88.54948972 145.14550678 88.73046875 146.99951172 C89.1535117 151.33302092 89.57670832 155.66651509 90 160 C90.40524902 158.83033691 90.81049805 157.66067383 91.22802734 156.45556641 C95.88972186 143.0442565 100.72249506 129.69994784 105.625 116.375 C106.01473999 115.31427277 106.40447998 114.25354553 106.80603027 113.16067505 C113.25606173 95.61353058 119.8572988 78.13012117 126.58789062 60.68896484 C128.38348094 55.99820246 130.14596394 51.2953898 131.89581299 46.58738708 C133.53254669 42.19676306 135.24667332 37.84493811 137 33.5 C139.61317615 27.02178583 142.08441118 20.50061724 144.5078125 13.94921875 C146.27408283 9.27461325 148.1440999 4.63975024 150 0 C173.76 0 197.52 0 222 0 C222 5.03009236 221.50233121 6.64054294 219.375 11 C219.07722656 11.61883057 218.77945312 12.23766113 218.47265625 12.87524414 C217.3247691 15.25494937 216.16175941 17.62703547 215 20 C212.97319164 24.16980714 210.95070477 28.34169842 208.93075562 32.51483154 C208.30890606 33.79939056 207.68669172 35.08377304 207.06411743 36.36798096 C203.03099498 44.69147096 199.12992272 53.0475936 195.48828125 61.55078125 C192.03241072 69.56005599 188.24267595 77.41999473 184.46484375 85.28125 C178.51884228 97.65567639 172.74177347 110.0919016 167.08740234 122.60205078 C163.63219899 130.22149563 160.06687772 137.78841598 156.44140625 145.328125 C155.50255743 147.28122754 154.5637566 149.23435314 153.625 151.1875 C153.15143066 152.17194092 152.67786133 153.15638184 152.18994141 154.1706543 C149.16495836 160.48588813 146.26531636 166.84449098 143.4375 173.25 C139.45397462 182.22710834 134.97499106 190.87909949 130.32226562 199.52441406 C128.44867713 203.03220346 126.62045216 206.56307283 124.78857422 210.09277344 C108.25136215 241.91048371 89.42356656 273.08590515 65.13671875 299.640625 C63.28828021 301.68167962 61.51665115 303.76374282 59.75 305.875 C40.97526037 327.28251921 15.13895147 342.74031912 -12 351 C-14.875 351.125 -14.875 351.125 -17 351 C-20.24092325 342.49985399 -23.0898542 333.88579655 -25.93066406 325.24511719 C-26.89895729 322.30663462 -27.87483047 319.37075435 -28.8522644 316.43530273 C-29.90940567 313.25112409 -30.95367419 310.0627486 -32 306.875 C-32.41008301 305.64749023 -32.82016602 304.41998047 -33.24267578 303.15527344 C-33.61634277 302.00833008 -33.99000977 300.86138672 -34.375 299.6796875 C-34.71273438 298.65601074 -35.05046875 297.63233398 -35.3984375 296.57763672 C-36 294 -36 294 -35 291 C-33.27270508 290.05200195 -33.27270508 290.05200195 -31.01953125 289.23828125 C-30.19195313 288.92834229 -29.364375 288.61840332 -28.51171875 288.29907227 C-27.17560547 287.81071899 -27.17560547 287.81071899 -25.8125 287.3125 C1.73461558 276.74510952 23.87516198 258.24075272 39.0390625 233.0234375 C42.26688752 222.86759781 38.83874248 211.74822374 36.75 201.625 C36.42499291 200.00958242 36.10110769 198.39393875 35.77832031 196.77807617 C35.144475 193.60974826 34.50605955 190.44240628 33.86328125 187.27587891 C32.78690432 181.96207303 31.75854504 176.63956819 30.75 171.3125 C30.59362061 170.49112549 30.43724121 169.66975098 30.27612305 168.82348633 C29.20304195 163.15778049 28.19815353 157.48175212 27.21386719 151.80004883 C26.05635646 145.1844892 24.77781112 138.59322245 23.5 132 C21.7062217 122.73920583 19.99688481 113.47045232 18.38134766 104.17724609 C16.00886439 90.63191591 13.47549604 77.11748872 10.83837891 63.62133789 C9.26174042 55.51003329 7.81846558 47.37874939 6.39376831 39.23977661 C5.86702963 36.24365695 5.33210603 33.24902917 4.79640198 30.25450134 C4.26589041 27.28863612 3.73801436 24.32230417 3.21020508 21.35595703 C2.94057224 19.843431 2.67003564 18.33106585 2.39868164 16.81884766 C1.99907134 14.59058846 1.60272795 12.36176954 1.20703125 10.1328125 C1.08519974 9.45791779 0.96336823 8.78302307 0.83784485 8.087677 C0.35297906 5.34109898 0 2.79660923 0 0 Z " fill="#000000" transform="translate(1778,222)"/>
<path d="M0 0 C6.06607143 5.10502232 6.06607143 5.10502232 8 7.3125 C8 7.9725 8 8.6325 8 9.3125 C8.66 9.3125 9.32 9.3125 10 9.3125 C28.64659454 33.03833144 32.48922267 58.92460635 32 88.3125 C31.97486328 90.23449219 31.97486328 90.23449219 31.94921875 92.1953125 C30.58916869 126.9348768 15.62360878 167.18379156 -9 192.3125 C-9.66 192.3125 -10.32 192.3125 -11 192.3125 C-11.23460937 192.87839844 -11.46921875 193.44429687 -11.7109375 194.02734375 C-22.0610876 212.37533711 -50.77273949 224.17973079 -69.77685547 229.69433594 C-96.59545469 237.15147334 -127.40985333 235.63763083 -152.26171875 222.6015625 C-173.80956719 210.10636045 -187.90297573 190.35057234 -194.49609375 166.47607422 C-196.81158788 156.53425783 -197.32577185 146.73878979 -197.25 136.5625 C-197.24323242 135.24354736 -197.23646484 133.92459473 -197.22949219 132.56567383 C-196.81631777 93.52309376 -183.84765998 54.94773788 -158 25.3125 C-157.33226562 24.45914063 -156.66453125 23.60578125 -155.9765625 22.7265625 C-154.19871837 20.55520347 -152.44927186 18.80528105 -150.3125 17 C-148.15795911 15.16962856 -146.03054833 13.34128253 -143.97265625 11.40234375 C-107.07774518 -23.15657668 -40.87068635 -33.01710348 0 0 Z M-96 46.3125 C-114.87876844 67.18334628 -125.51523634 99.50784154 -126 127.3125 C-126.03867188 128.60542969 -126.07734375 129.89835937 -126.1171875 131.23046875 C-126.44757874 146.48262851 -125.05205641 160.89279117 -114.15625 172.3984375 C-107.7368259 178.09683933 -100.47721378 179.77490235 -92.0625 179.640625 C-81.22971953 178.47996995 -73.05411749 172.256326 -66 164.3125 C-45.101242 137.39620078 -36.29584973 97.67066532 -39.5625 64.1875 C-41.20334466 54.34243207 -45.00756247 45.84849873 -53.0078125 39.64453125 C-67.7047491 29.817756 -83.79683146 35.12013608 -96 46.3125 Z " fill="#000000" transform="translate(1204,235.6875)"/>
<path d="M0 0 C0.73833069 -0.00328308 1.47666138 -0.00656616 2.23736572 -0.00994873 C28.70907559 -0.04811627 28.70907559 -0.04811627 38.25 6.3125 C36.91095325 13.30532596 35.35495607 20.22113991 33.6484375 27.1328125 C33.2864476 28.60982132 33.2864476 28.60982132 32.91714478 30.1166687 C32.15508565 33.22410476 31.39009474 36.33081012 30.625 39.4375 C30.10397167 41.55984797 29.58313652 43.68224338 29.0625 45.8046875 C27.79389775 50.9745084 26.52289558 56.14373461 25.25 61.3125 C24.49541504 61.17247559 23.74083008 61.03245117 22.96337891 60.88818359 C10.74078002 58.71907025 -4.73424239 56.16333373 -15.75 63.3125 C-22.28883529 67.99215111 -26.44054944 73.03170876 -29.75 80.3125 C-30.16894531 81.17230469 -30.58789062 82.03210938 -31.01953125 82.91796875 C-35.19785092 92.06987739 -36.45931758 100.0044291 -38.75 110.3125 C-23.57 110.3125 -8.39 110.3125 7.25 110.3125 C6.13213852 124.84469927 6.13213852 124.84469927 4.875 130.0625 C3.49666303 136.08011748 2.36418216 142.10297639 1.34033203 148.18847656 C0.47061265 153.288363 -0.62348658 158.24318963 -1.75 163.3125 C-17.26 163.3125 -32.77 163.3125 -48.75 163.3125 C-49.74 170.7375 -49.74 170.7375 -50.75 178.3125 C-51.34455049 181.73688515 -51.95838853 185.1395187 -52.6328125 188.546875 C-52.8080545 189.45229034 -52.98329651 190.35770569 -53.16384888 191.29055786 C-53.5374344 193.2187842 -53.91290167 195.14664682 -54.29016113 197.07415771 C-55.30378677 202.25346526 -56.30339965 207.43548321 -57.3046875 212.6171875 C-57.50924561 213.67386627 -57.71380371 214.73054504 -57.92456055 215.81924438 C-60.00729605 226.59805944 -62.00717076 237.39177099 -64 248.1875 C-66.27840734 260.51820901 -68.58173406 272.83934404 -71.11621094 285.12060547 C-72.35204388 291.14329226 -73.4450918 297.18605764 -74.50198364 303.24220276 C-76.23397075 313.1344492 -78.09386375 323.00307942 -79.9375 332.875 C-81.195625 339.619375 -82.45375 346.36375 -83.75 353.3125 C-106.85 353.3125 -129.95 353.3125 -153.75 353.3125 C-152.62702172 339.83676069 -152.62702172 339.83676069 -151.4375 334.2421875 C-151.17130859 332.95957031 -150.90511719 331.67695313 -150.63085938 330.35546875 C-150.41659302 329.34299072 -150.41659302 329.34299072 -150.19799805 328.31005859 C-146.90319681 312.6997033 -144.03710467 297.02020847 -141.25 281.3125 C-138.55823608 266.16873783 -135.77565349 251.05614275 -132.70126343 235.98532104 C-130.18793012 223.66046471 -127.87320549 211.30529926 -125.61685181 198.93096924 C-123.44685297 187.03189277 -121.17823293 175.16227668 -118.75 163.3125 C-128.98 163.3125 -139.21 163.3125 -149.75 163.3125 C-147.93971903 151.24396019 -145.86319648 139.24504668 -143.625 127.25 C-143.42411774 126.16525391 -143.42411774 126.16525391 -143.21917725 125.05859375 C-142.8344391 122.985018 -142.44533757 120.91231291 -142.0546875 118.83984375 C-141.82765137 117.63062256 -141.60061523 116.42140137 -141.36669922 115.17553711 C-140.75 112.3125 -140.75 112.3125 -139.75 110.3125 C-124.405 109.8175 -124.405 109.8175 -108.75 109.3125 C-108.069375 105.785625 -107.38875 102.25875 -106.6875 98.625 C-101.44157696 72.89005071 -91.93509843 44.47908859 -71.75 26.3125 C-71.09 26.3125 -70.43 26.3125 -69.75 26.3125 C-69.75 25.6525 -69.75 24.9925 -69.75 24.3125 C-49.65173116 7.1220658 -26.1672375 0.09431581 0 0 Z " fill="#000000" transform="translate(1759.75,110.6875)"/>
<path d="M0 0 C0.75287796 -0.01508102 1.50575592 -0.03016205 2.28144836 -0.04570007 C4.72151956 -0.08549329 7.16123806 -0.11057209 9.6015625 -0.12890625 C10.42870758 -0.13541199 11.25585266 -0.14191772 12.10806274 -0.14862061 C25.7953426 -0.1980901 39.51275055 0.66155557 52.2265625 6.30859375 C53.2165625 7.29859375 53.2165625 7.29859375 54.2265625 8.30859375 C53.77414846 14.56153884 51.15986444 20.85323723 49.109375 26.734375 C48.81094696 27.60321823 48.51251892 28.47206146 48.20504761 29.36723328 C47.25844972 32.12011779 46.30522986 34.87065129 45.3515625 37.62109375 C44.40871689 40.35505577 43.4672334 43.08948144 42.52655029 45.82418823 C41.92029894 47.5825673 41.3113363 49.34001417 40.69952393 51.09646606 C39.4143301 54.79453561 38.15027029 58.48793945 37.03027344 62.23974609 C36.7005957 63.32852051 36.37091797 64.41729492 36.03125 65.5390625 C35.64042236 66.91227661 35.64042236 66.91227661 35.24169922 68.31323242 C34.2265625 70.30859375 34.2265625 70.30859375 32.27148438 71.16235352 C29.3297679 71.37272698 27.50061256 70.32142857 24.8515625 69.05859375 C13.50046569 64.1841395 3.16076774 63.01910828 -9.0859375 62.87109375 C-10.75003662 62.83761841 -10.75003662 62.83761841 -12.44775391 62.8034668 C-22.62476388 62.83174051 -29.71246424 65.52916492 -37.109375 72.54296875 C-42.10772292 77.84638016 -42.3599866 83.06501714 -42.19140625 90.11328125 C-41.27101103 97.14957365 -36.87794223 101.6681349 -31.7734375 106.30859375 C-31.17144531 106.87964844 -30.56945312 107.45070313 -29.94921875 108.0390625 C-25.54303774 112.11946303 -20.93668991 115.68996876 -16.0234375 119.12109375 C6.66861737 135.02971497 25.21286199 153.32150158 31.85595703 181.06738281 C32.62243777 185.70262209 32.51977984 190.37280839 32.4765625 195.05859375 C32.46834473 196.13189941 32.46012695 197.20520508 32.45166016 198.31103516 C32.10344035 222.91482391 23.44430372 245.90363954 6.00390625 263.55859375 C0.87901752 268.33097691 -4.6091917 272.00914167 -10.7734375 275.30859375 C-11.4334375 275.67726563 -12.0934375 276.0459375 -12.7734375 276.42578125 C-34.20359248 287.22457028 -62.10138842 285.63627482 -84.35253906 278.47900391 C-100.54961084 272.90162477 -113.94101475 264.61929557 -126.7734375 253.30859375 C-127.37800781 252.82519531 -127.98257813 252.34179688 -128.60546875 251.84375 C-129.7734375 250.30859375 -129.7734375 250.30859375 -129.8046875 248.171875 C-128.21440359 240.5361736 -125.97884447 233.15242369 -123.56347656 225.74365234 C-122.33194613 221.94782895 -121.12926577 218.14290017 -119.92260742 214.33911133 C-118.54385329 209.99423318 -117.15877988 205.6513749 -115.7734375 201.30859375 C-112.60823307 202.83128133 -109.78794038 204.62951254 -106.90136719 206.63452148 C-92.07062106 216.89380387 -75.49280395 226.74118469 -56.7734375 224.30859375 C-51.50805309 222.71623959 -47.15908074 220.63913939 -44.2734375 215.80859375 C-43.7784375 214.65359375 -43.2834375 213.49859375 -42.7734375 212.30859375 C-42.3609375 211.54546875 -41.9484375 210.78234375 -41.5234375 209.99609375 C-39.24168317 201.81980739 -40.85255121 195.59308672 -44.89453125 188.25 C-50.04770091 180.18277182 -56.67635234 174.43669605 -64.1862793 168.69067383 C-75.95555704 159.62878644 -86.00198944 150.03346479 -93.7734375 137.30859375 C-94.31355469 136.44621094 -94.85367188 135.58382812 -95.41015625 134.6953125 C-104.84871779 118.17106866 -103.8980578 93.09788019 -99.20263672 75.12353516 C-92.09599728 51.12066084 -77.73598187 31.10746749 -56.7734375 17.30859375 C-55.87367188 16.70273438 -54.97390625 16.096875 -54.046875 15.47265625 C-41.56160529 7.59627398 -27.15559549 3.98479182 -12.7734375 1.30859375 C-11.68615356 1.05384277 -11.68615356 1.05384277 -10.5769043 0.79394531 C-7.05171573 0.18364531 -3.56775582 0.06985091 0 0 Z " fill="#FEFEFD" transform="translate(205.7734375,191.69140625)"/>
<path d="M0 0 C-0.63160166 5.99129486 -2.26128366 11.38547689 -4.16015625 17.08984375 C-4.62415077 18.5066317 -4.62415077 18.5066317 -5.09751892 19.95204163 C-6.08040032 22.94901636 -7.07131868 25.94326131 -8.0625 28.9375 C-8.73295548 30.97703821 -9.40288306 33.01675003 -10.07226562 35.05664062 C-11.70873815 40.03978645 -13.35180583 45.02071968 -15 50 C-20.07589849 49.33293603 -24.67173309 48.22150166 -29.5 46.5625 C-44.02244151 41.81288333 -62.39798236 38.66629467 -76.8125 45.29296875 C-82.16616641 48.31996909 -85.50863766 50.93264817 -87.6875 56.875 C-88.59739742 63.06230243 -87.93429223 67.44580399 -85 73 C-83.70420353 74.36984198 -82.38007251 75.7151049 -81 77 C-81 77.66 -81 78.32 -81 79 C-80.49984375 79.23847656 -79.9996875 79.47695313 -79.484375 79.72265625 C-62.00836279 88.70796441 -44.51256064 99.58505946 -31 114 C-31 114.66 -31 115.32 -31 116 C-30.34 116 -29.68 116 -29 116 C-27.44029522 118.11674221 -26.01778173 120.21403052 -24.625 122.4375 C-24.22015381 123.08203125 -23.81530762 123.7265625 -23.39819336 124.390625 C-13.19970196 140.86336531 -12.64079105 157.69564499 -16.3125 176.4375 C-17.62402964 182.01150098 -19.36923887 186.92832648 -22 192 C-22.38542969 192.83660156 -22.77085937 193.67320312 -23.16796875 194.53515625 C-28.53742068 205.47876062 -37.62114081 215.5404303 -48 222 C-49.53914063 222.96679688 -49.53914063 222.96679688 -51.109375 223.953125 C-65.64783516 232.79850453 -81.77561188 237.68175148 -98.625 239.6875 C-99.67623047 239.8127002 -100.72746094 239.93790039 -101.81054688 240.06689453 C-125.45681006 242.72114063 -148.63506514 240.29446873 -171 232 C-172.03898438 231.62488281 -173.07796875 231.24976563 -174.1484375 230.86328125 C-179.05715962 228.99855648 -183.51624444 226.72924251 -188 224 C-186.70407839 217.66578805 -185.00264445 211.70304696 -182.8125 205.625 C-182.51005371 204.77373535 -182.20760742 203.9224707 -181.89599609 203.04541016 C-172.87458657 177.74917315 -172.87458657 177.74917315 -171 174 C-166.39801904 174.6701914 -162.40987245 176.46211162 -158.1875 178.3125 C-140.91683081 185.65220557 -117.39244037 191.73046867 -98.98046875 184.98046875 C-94.0426283 182.53589685 -90.17206641 179.14436781 -88 174 C-86.48881532 166.72112711 -86.58442457 160.43528733 -90.16796875 153.85546875 C-96.09175536 145.16014187 -105.6414985 140.21033672 -114.4765625 134.90625 C-121.86483012 130.46270957 -128.55741221 125.74027081 -135 120 C-135.928125 119.17886719 -136.85625 118.35773438 -137.8125 117.51171875 C-150.41845853 105.69363263 -158.720436 91.02335182 -159.46655273 73.47338867 C-159.77255913 52.55997333 -152.47496552 33.19498954 -138 18 C-106.24670925 -14.03730945 -39.13168157 -23.85459188 0 0 Z " fill="#000000" transform="translate(756,228)"/>
<path d="M0 0 C1.24132187 0.00222061 2.48264374 0.00444122 3.76158142 0.00672913 C4.44447739 0.0065831 5.12737335 0.00643707 5.83096313 0.00628662 C8.09815092 0.00698575 10.36525752 0.01477811 12.63243103 0.02259827 C14.20041865 0.02446245 15.76840685 0.02588635 17.33639526 0.02688599 C21.47103981 0.03071117 25.60564944 0.04054146 29.74028015 0.05158997 C33.95627876 0.06180407 38.172283 0.0663836 42.38829041 0.07142639 C50.66630125 0.08216373 58.94428368 0.09924015 67.22227478 0.12025452 C66.91042453 2.34047822 66.59705939 4.56048917 66.2830658 6.78041077 C66.10872513 8.01670227 65.93438446 9.25299377 65.75476074 10.52674866 C65.02943758 15.4216252 64.11978408 20.26687416 63.15977478 25.12025452 C62.95207458 26.1865509 62.74437439 27.25284729 62.53038025 28.35145569 C61.91114551 31.52574085 61.28846146 34.69932905 60.66423035 37.87263489 C59.05460935 46.05856128 57.45155385 54.24577993 55.84727478 62.43275452 C55.65230408 63.42722595 55.45733337 64.42169739 55.25645447 65.44630432 C52.68243391 78.57985199 50.13866381 91.71841102 47.65977478 104.87025452 C47.52007263 105.61136475 47.38037048 106.35247498 47.23643494 107.11604309 C46.6685838 110.12952585 46.10107851 113.14307351 45.53395081 116.1566925 C43.81447949 125.29216888 42.08363602 134.42547426 40.34727478 143.55775452 C40.18302002 144.42213135 40.01876526 145.28650818 39.84953308 146.17707825 C36.94665605 161.44155352 33.95870569 176.6887505 30.95597839 191.93385315 C28.38185077 205.01494417 25.89601875 218.10459107 23.62974548 231.24281311 C23.45403015 232.25811096 23.27831482 233.27340881 23.09727478 234.31947327 C22.95032166 235.18403137 22.80336853 236.04858948 22.65196228 236.93934631 C22.22227478 239.12025452 22.22227478 239.12025452 21.22227478 242.12025452 C-1.87772522 242.12025452 -24.97772522 242.12025452 -48.77772522 242.12025452 C-47.6527679 230.87068128 -47.6527679 230.87068128 -46.82899475 226.65711975 C-46.64392365 225.69847015 -46.45885254 224.73982056 -46.26817322 223.75212097 C-46.0676535 222.73794098 -45.86713379 221.72376099 -45.66053772 220.67884827 C-45.44769135 219.58281281 -45.23484497 218.48677734 -45.01554871 217.35752869 C-44.31537475 213.75679155 -43.60897159 210.15730505 -42.90272522 206.55775452 C-42.40841497 204.01968358 -41.91460842 201.4815145 -41.42127991 198.94325256 C-40.39338864 193.65712309 -39.36335695 188.37141897 -38.33143616 183.08607483 C-35.88203473 170.53784287 -33.45328982 157.98561312 -31.02772522 145.43275452 C-30.79597595 144.23442993 -30.56422668 143.03610535 -30.32545471 141.8014679 C-27.38968005 126.61393601 -24.51446817 111.41764031 -21.74638367 96.19868469 C-19.17304519 82.06268033 -16.41832668 67.96459023 -13.63484192 53.86860657 C-10.7928609 39.47086679 -8.0698951 25.05767027 -5.54115295 10.60145569 C-5.20966248 8.72937439 -5.20966248 8.72937439 -4.87147522 6.81947327 C-4.68262756 5.73496887 -4.49377991 4.65046448 -4.29920959 3.53309631 C-3.56479253 0.13504207 -3.54216473 0.15334897 0 0 Z " fill="#000000" transform="translate(1527.7777252197266,221.87974548339844)"/>
<path d="M0 0 C7.46386311 5.06526816 12.0450396 12.38156177 14.28125 21.05859375 C16.3697083 32.79538421 14.08738174 44.08090462 7.56640625 54.08984375 C1.46757359 62.06623635 -6.2763525 67.80936419 -16.24609375 69.71484375 C-19.66473565 70.01840483 -23.06490678 70.1202066 -26.49609375 70.15234375 C-27.77383667 70.16769165 -27.77383667 70.16769165 -29.07739258 70.18334961 C-37.74195179 70.06219659 -44.78275407 67.09216618 -51.0703125 60.92578125 C-59.04844521 52.26189709 -60.86255633 43.40550535 -60.57421875 31.765625 C-59.9382065 20.85175905 -55.28011678 12.77409439 -47.84375 5.01953125 C-34.2246793 -7.06355403 -15.79509089 -9.03753896 0 0 Z " fill="#000000" transform="translate(1595.24609375,124.28515625)"/>
</svg>
