<?xml version="1.0" encoding="UTF-8"?>
<svg version="1.1" xmlns="http://www.w3.org/2000/svg" width="512" height="256">
<path d="M0 0 C5.62721559 -0.00558872 11.25420171 -0.02991574 16.88134384 -0.05797195 C21.25816559 -0.07653803 25.6349296 -0.08179965 30.01178741 -0.08333588 C32.08981905 -0.08635246 34.16784991 -0.09434721 36.24584198 -0.10752106 C39.12241751 -0.1245309 41.99839495 -0.12271938 44.875 -0.11621094 C45.72155151 -0.12542572 46.56810303 -0.1346405 47.44030762 -0.14413452 C52.09147751 -0.11108519 55.13378608 0.22685748 58.91503906 3.24023438 C62.14223699 8.22772208 60.57137112 14.13942114 59.40545654 19.6477356 C58.78463283 22.19041 58.12270723 24.71779214 57.43847656 27.24414062 C57.19014069 28.16686264 56.94180481 29.08958466 56.6859436 30.04026794 C56.1602857 31.97835603 55.63063359 33.91536482 55.09716797 35.85131836 C54.29275603 38.79279927 53.51986187 41.74148449 52.74707031 44.69140625 C52.22946759 46.58451272 51.70999766 48.47710986 51.18847656 50.36914062 C50.96525726 51.24018936 50.74203796 52.1112381 50.51205444 53.00868225 C48.74163556 59.23145997 46.0098325 64.12526587 40.91503906 68.24023438 C35.01553175 71.51093186 29.95619566 71.65443768 23.2980957 71.58081055 C22.25344147 71.58124863 21.20878723 71.58168671 20.13247681 71.58213806 C16.69652293 71.58005629 13.26106344 71.5567535 9.82519531 71.53320312 C7.43623623 71.52760501 5.0472737 71.52333593 2.65830994 71.52033997 C-3.61680681 71.50890822 -9.8917139 71.47945514 -16.16674805 71.44622803 C-22.5750037 71.41549129 -28.98329337 71.40182691 -35.39160156 71.38671875 C-47.95614392 71.35458407 -60.52054126 71.30398774 -73.08496094 71.24023438 C-73.35182205 72.38086334 -73.61868317 73.52149231 -73.89363098 74.69668579 C-74.25140045 76.2224404 -74.60920571 77.74818661 -74.96704102 79.27392578 C-75.22949993 80.39638451 -75.22949993 80.39638451 -75.49726105 81.54151917 C-77.15258383 88.59369849 -78.94052078 95.60676616 -80.77246094 102.61523438 C-81.07990234 103.80117187 -81.38734375 104.98710937 -81.70410156 106.20898438 C-83.94597961 114.82329038 -83.94597961 114.82329038 -85.08496094 118.24023438 C-93.00496094 118.24023438 -100.92496094 118.24023438 -109.08496094 118.24023438 C-103.11941455 94.78479063 -96.59600498 71.57147552 -90.08496094 48.24023438 C-51.80496094 47.91023438 -13.52496094 47.58023438 25.91503906 47.24023438 C29.38003906 36.35023437 29.38003906 36.35023437 32.91503906 25.24023438 C-24.99996094 24.74523437 -24.99996094 24.74523437 -84.08496094 24.24023438 C-78.08496094 4.24023437 -78.08496094 4.24023437 -77.08496094 1.24023438 C-51.39242013 0.2255634 -25.71057324 0.02166913 0 0 Z " fill="#737373" transform="translate(301.0849609375,68.759765625)"/>
<path d="M0 0 C8.25 0 16.5 0 25 0 C23.75827566 6.20862172 22.50085611 12.19302204 20.76928711 18.24780273 C20.5560228 19.00522263 20.34275848 19.76264252 20.12303162 20.54301453 C19.42810633 23.00758532 18.72781431 25.47059387 18.02734375 27.93359375 C17.53903949 29.66080532 17.05105347 31.38810689 16.56336975 33.11549377 C15.28652991 37.63450789 14.00501203 42.1521826 12.72259521 46.6696167 C11.67402388 50.36639517 10.62885058 54.06413025 9.58383846 57.76191616 C8.33698862 62.1736338 7.08862807 66.58492334 5.83984375 70.99609375 C5.60193556 71.83663237 5.36402737 72.67717098 5.11890984 73.54318047 C4.44719124 75.91500447 3.77444748 78.28653496 3.10131836 80.65795898 C2.90233948 81.36082031 2.7033606 82.06368164 2.49835205 82.7878418 C1.71456401 85.54557791 0.90678147 88.27965559 0 91 C44.55 91.495 44.55 91.495 90 92 C90.66 88.7 91.32 85.4 92 82 C92.7166675 79.13671604 93.45213357 76.29084205 94.23071289 73.44506836 C94.55060936 72.26022858 94.55060936 72.26022858 94.87696838 71.05145264 C95.57221083 68.48000348 96.27224019 65.90988809 96.97265625 63.33984375 C97.46084057 61.54054409 97.94882872 59.74119119 98.43663025 57.94178772 C99.4540396 54.19179999 100.47383986 50.44247309 101.49536133 46.69360352 C102.8069534 41.87941674 104.11243216 37.06359655 105.41616154 32.24727535 C106.41997225 28.54158954 107.42698859 24.83678088 108.43499565 21.13223457 C108.91804431 19.35541499 109.40007762 17.57831906 109.88109016 15.80094719 C110.55035388 13.32985498 111.22391872 10.85997619 111.89868164 8.39038086 C112.09766052 7.65227676 112.2966394 6.91417267 112.50164795 6.15370178 C113.88573305 1.11426695 113.88573305 1.11426695 115 0 C116.78071246 -0.08726223 118.5648314 -0.10699041 120.34765625 -0.09765625 C121.42724609 -0.09443359 122.50683594 -0.09121094 123.61914062 -0.08789062 C125.32360352 -0.07532227 125.32360352 -0.07532227 127.0625 -0.0625 C128.77276367 -0.05573242 128.77276367 -0.05573242 130.51757812 -0.04882812 C133.34510604 -0.03699746 136.17251896 -0.01967618 139 0 C136.32016256 11.82188904 133.28169934 23.49991892 129.97265625 35.16015625 C129.49684832 36.84623572 129.02130385 38.53238955 128.54600525 40.21861267 C127.55747205 43.72265179 126.56646906 47.22597904 125.57348633 50.72875977 C124.31448502 55.17032425 123.06074017 59.61335103 121.80873966 64.05689335 C120.82980893 67.52967087 119.84857499 71.00179437 118.86663628 74.47372246 C118.4040777 76.10986673 117.94207722 77.7461689 117.48069954 79.38264656 C116.21465746 83.86984561 114.93122654 88.35139976 113.62617874 92.82741165 C112.98273665 95.05989689 112.36294984 97.29824451 111.7428894 99.537323 C111.32623623 100.98406755 110.90864118 102.43054127 110.48999023 103.87670898 C110.3132908 104.53699883 110.13659136 105.19728868 109.95453739 105.87758732 C109.08107222 108.81936449 108.00087526 110.99888584 106.10452271 113.41285706 C101.16361719 115.93882452 96.30765962 115.55565164 90.83764648 115.51757812 C88.98813385 115.52809204 88.98813385 115.52809204 87.10125732 115.53881836 C83.72707939 115.55339268 80.35388439 115.54999829 76.97976184 115.53730202 C73.44621653 115.52716051 69.91271264 115.53657067 66.37916565 115.54284668 C60.44679235 115.55011882 54.51461841 115.54054593 48.58227539 115.52148438 C41.72531087 115.4997062 34.86882193 115.50677521 28.01186889 115.52879 C22.12126707 115.54694454 16.23080837 115.54950243 10.34018761 115.53903532 C6.82337113 115.53280189 3.3067782 115.53196056 -0.21002388 115.54518127 C-4.12921759 115.55888638 -8.0478788 115.53988908 -11.96704102 115.51757812 C-13.13234848 115.52567505 -14.29765594 115.53377197 -15.49827576 115.54211426 C-16.56514618 115.53083496 -17.6320166 115.51955566 -18.73121643 115.50793457 C-19.65757684 115.50642647 -20.58393724 115.50491837 -21.53836918 115.50336456 C-24.79323422 114.83779615 -25.97194179 113.58650975 -28 111 C-29.43586426 104.90542105 -28.73240712 100.39333208 -26.98974609 94.46704102 C-26.76383789 93.65437271 -26.53792969 92.84170441 -26.30517578 92.00440979 C-25.55881824 89.33334158 -24.79135726 86.66884756 -24.0234375 84.00390625 C-23.49461721 82.12828594 -22.96710237 80.25229712 -22.44082642 78.3759613 C-21.05207486 73.43854588 -19.64522088 68.50646661 -18.23461914 63.57525635 C-16.8182729 58.6113067 -15.41986457 53.64231355 -14.01953125 48.67382812 C-9.43223475 32.42343464 -4.78578505 16.19312592 0 0 Z " fill="#737373" transform="translate(71,70)"/>
<path d="M0 0 C2.49348922 2.39283844 3.95238688 4.55226936 5.48046875 7.66796875 C6.14272461 9.00698242 6.14272461 9.00698242 6.81835938 10.37304688 C7.27017578 11.30181641 7.72199219 12.23058594 8.1875 13.1875 C8.65091797 14.12787109 9.11433594 15.06824219 9.59179688 16.03710938 C10.73332063 18.35546175 11.86914338 20.67643065 13 23 C14.47503749 20.20577803 15.57052704 17.46873908 16.5078125 14.453125 C16.77207031 13.60878906 17.03632813 12.76445313 17.30859375 11.89453125 C17.57800781 11.02183594 17.84742188 10.14914063 18.125 9.25 C18.40214844 8.36183594 18.67929687 7.47367187 18.96484375 6.55859375 C19.64627239 4.37332258 20.32454602 2.18712381 21 0 C23.73515469 2.42693 25.19776568 4.98828189 26.85083008 8.23413086 C27.39761917 9.30211411 27.94440826 10.37009735 28.50776672 11.47044373 C29.08914902 12.62359573 29.67053131 13.77674774 30.26953125 14.96484375 C30.87532036 16.1616978 31.48117149 17.35852047 32.08708191 18.55531311 C33.35319151 21.06058254 34.6139302 23.56847837 35.87182617 26.07788086 C37.4856597 29.29464777 39.11961434 32.50073188 40.75861073 35.70473385 C42.0158471 38.17089303 43.25869547 40.64409481 44.49765587 43.11947823 C45.38409063 44.88158923 46.28545059 46.63616628 47.18696594 48.39060974 C47.71799423 49.46174515 48.24902252 50.53288055 48.79614258 51.63647461 C49.27118729 52.57784775 49.74623199 53.51922089 50.235672 54.48912048 C51 57 51 57 50.23005676 59.23345947 C48.90081561 61.14244322 47.51777201 62.63293101 45.8046875 64.20703125 C45.17546387 64.78984863 44.54624023 65.37266602 43.89794922 65.97314453 C43.23037598 66.58013184 42.56280273 67.18711914 41.875 67.8125 C41.19066895 68.44269043 40.50633789 69.07288086 39.80126953 69.72216797 C35.94082063 73.26650299 32.04095044 76.75909464 28.0703125 80.1796875 C23.52189588 84.17886135 19.11405609 88.33766708 14.67138672 92.45361328 C11.08303804 95.77359583 7.48011655 99.07751303 3.87109375 102.375 C1.94097262 104.13968218 0.0165675 105.91063467 -1.90234375 107.6875 C-2.80082031 108.5125 -3.69929688 109.3375 -4.625 110.1875 C-5.42164063 110.92355469 -6.21828125 111.65960938 -7.0390625 112.41796875 C-9 114 -9 114 -11 114 C-9.60695059 106.59225491 -7.88100377 99.29829463 -6 92 C-6.72703125 92.74443359 -6.72703125 92.74443359 -7.46875 93.50390625 C-11.50434557 97.59382715 -15.61523821 101.51707191 -19.9765625 105.2578125 C-21.40271813 106.485738 -22.81283521 107.73241335 -24.2109375 108.9921875 C-24.92507813 109.63414062 -25.63921875 110.27609375 -26.375 110.9375 C-27.02210938 111.52402344 -27.66921875 112.11054688 -28.3359375 112.71484375 C-30 114 -30 114 -32 114 C-28.85458784 100.89406648 -25.2040455 87.95264022 -21.484375 75 C-20.86209242 72.82575015 -20.24004662 70.65143253 -19.6182251 68.47705078 C-17.99636958 62.80812179 -16.37134089 57.14010738 -14.74560547 51.47229004 C-13.08105637 45.66698118 -11.41957093 39.86079567 -9.7578125 34.0546875 C-6.50817324 22.70227442 -3.2551745 11.35082705 0 0 Z " fill="#EC742E" transform="translate(419,69)"/>
<path d="M0 0 C8.25 0 16.5 0 25 0 C22.05199311 12.02755523 18.84217497 23.95950396 15.5 35.8828125 C14.97703546 37.75449737 14.45425274 39.62623305 13.93164062 41.49801636 C12.56737728 46.38219904 11.20045792 51.26563451 9.83300781 56.14892578 C8.72365522 60.11229274 7.61623453 64.07619823 6.50891113 68.04013252 C5.17327089 72.82121136 3.8367525 77.60204454 2.5 82.3828125 C2.25096924 83.2735358 2.00193848 84.16425911 1.74536133 85.08197403 C-1.13941322 95.39684723 -4.0467403 105.70451179 -7 116 C-15.25 116 -23.5 116 -32 116 C-30.68293131 109.41465655 -29.28935941 103.06888857 -27.44970703 96.64160156 C-27.07851746 95.32715057 -27.07851746 95.32715057 -26.6998291 93.98614502 C-25.8894604 91.11992752 -25.07368871 88.25527915 -24.2578125 85.390625 C-23.68699636 83.37588712 -23.11651679 81.36105386 -22.5463562 79.34613037 C-21.0487106 74.05701386 -19.54644793 68.76921966 -18.04321289 63.48168945 C-16.52464932 58.13704017 -15.01059572 52.79111383 -13.49609375 47.4453125 C-9.0128722 31.62578748 -4.52231629 15.80839749 0 0 Z " fill="#737373" transform="translate(377,69)"/>
<path d="M0 0 C2.73515469 2.42693 4.19776568 4.98828189 5.85083008 8.23413086 C6.39761917 9.30211411 6.94440826 10.37009735 7.50776672 11.47044373 C8.08914902 12.62359573 8.67053131 13.77674774 9.26953125 14.96484375 C9.87532036 16.1616978 10.48117149 17.35852047 11.08708191 18.55531311 C12.35319151 21.06058254 13.6139302 23.56847837 14.87182617 26.07788086 C16.4856597 29.29464777 18.11961434 32.50073188 19.75861073 35.70473385 C21.0158471 38.17089303 22.25869547 40.64409481 23.49765587 43.11947823 C24.38409063 44.88158923 25.28545059 46.63616628 26.18696594 48.39060974 C26.71799423 49.46174515 27.24902252 50.53288055 27.79614258 51.63647461 C28.27118729 52.57784775 28.74623199 53.51922089 29.235672 54.48912048 C30 57 30 57 29.23005676 59.23345947 C27.90081561 61.14244322 26.51777201 62.63293101 24.8046875 64.20703125 C24.17546387 64.78984863 23.54624023 65.37266602 22.89794922 65.97314453 C22.23037598 66.58013184 21.56280273 67.18711914 20.875 67.8125 C20.19066895 68.44269043 19.50633789 69.07288086 18.80126953 69.72216797 C14.94082063 73.26650299 11.04095044 76.75909464 7.0703125 80.1796875 C2.52189588 84.17886135 -1.88594391 88.33766708 -6.32861328 92.45361328 C-9.91696196 95.77359583 -13.51988345 99.07751303 -17.12890625 102.375 C-19.05902738 104.13968218 -20.9834325 105.91063467 -22.90234375 107.6875 C-23.80082031 108.5125 -24.69929688 109.3375 -25.625 110.1875 C-26.42164063 110.92355469 -27.21828125 111.65960938 -28.0390625 112.41796875 C-30 114 -30 114 -32 114 C-31.41302543 110.64806629 -30.7169719 107.32641612 -30 104 C-29.77828125 102.86820312 -29.5565625 101.73640625 -29.328125 100.5703125 C-27.13545474 91.11700769 -23.3656427 86.17364556 -16 80 C-14.77055745 78.91697977 -13.54137272 77.83366676 -12.3125 76.75 C-11.69117188 76.21117187 -11.06984375 75.67234375 -10.4296875 75.1171875 C-9.62789063 74.41851562 -8.82609375 73.71984375 -8 73 C-7.39833008 72.47825195 -6.79666016 71.95650391 -6.17675781 71.41894531 C-4.0813872 69.58787372 -2.00864909 67.73339759 0.0625 65.875 C1.10120239 64.9773291 1.10120239 64.9773291 2.16088867 64.06152344 C2.80002197 63.48176758 3.43915527 62.90201172 4.09765625 62.3046875 C4.68039307 61.78890137 5.26312988 61.27311523 5.86352539 60.74169922 C7.23309575 59.01887142 7.23309575 59.01887142 6.86743164 56.65966797 C5.87110028 53.60477524 4.55645121 50.96586019 3.0234375 48.140625 C2.435625 47.02429688 1.8478125 45.90796875 1.2421875 44.7578125 C0.00213377 42.4281718 -1.25041138 40.10513537 -2.515625 37.7890625 C-6.03128386 31.05200698 -8.18565022 26.43087656 -6 19 C-5.77892578 18.18418457 -5.55785156 17.36836914 -5.33007812 16.52783203 C-4.59253445 13.97416003 -3.78034596 11.45821565 -2.9375 8.9375 C-2.65583984 8.07189453 -2.37417969 7.20628906 -2.08398438 6.31445312 C-1.39701565 4.20697281 -0.70229934 2.1024105 0 0 Z " fill="#0A7838" transform="translate(440,69)"/>
</svg>
