<?xml version="1.0" encoding="UTF-8"?>
<svg version="1.1" xmlns="http://www.w3.org/2000/svg" width="2000" height="404">
<path d="M0 0 C0.98427302 -0.00350607 1.96854604 -0.00701215 2.98264551 -0.01062447 C6.29492782 -0.01995998 9.60703515 -0.01500953 12.91932487 -0.01015663 C15.31246137 -0.01389181 17.70559664 -0.0184928 20.09872997 -0.02388728 C25.30929189 -0.03358602 30.5198197 -0.03703002 35.73038864 -0.03497505 C43.47895289 -0.0319266 51.22747598 -0.04024566 58.97603224 -0.0507243 C73.62081766 -0.07007534 88.2655891 -0.07569296 102.9103858 -0.07683842 C114.22068883 -0.07775728 125.53098637 -0.08187281 136.84128761 -0.08823967 C140.09624985 -0.09003475 143.3512121 -0.09181438 146.60617435 -0.09358943 C147.41535996 -0.09403152 148.22454557 -0.09447362 149.05825196 -0.09492911 C171.82268828 -0.1072394 194.5871227 -0.11513006 217.3515625 -0.11424255 C218.63922714 -0.11419582 218.63922714 -0.11419582 219.95290521 -0.11414814 C224.30389983 -0.11398192 228.65489445 -0.11378384 233.00588907 -0.11357872 C233.87001861 -0.11353883 234.73414815 -0.11349894 235.62446343 -0.11345784 C237.37194522 -0.11337697 239.11942701 -0.11329337 240.86690879 -0.11320706 C268.04991939 -0.11198177 295.23288007 -0.12698984 322.41587639 -0.15435219 C352.95337424 -0.18507847 383.49083929 -0.20228432 414.02835357 -0.20042574 C417.28520195 -0.20027648 420.54205032 -0.20017907 423.7988987 -0.20011711 C424.60082105 -0.2000938 425.4027434 -0.20007049 426.22896643 -0.20004648 C439.13050968 -0.19998495 452.03200959 -0.21275342 464.93353996 -0.22998164 C477.90279671 -0.24694194 490.8719901 -0.2489089 503.84125181 -0.235763 C511.54398056 -0.22837616 519.24651674 -0.23202371 526.94922507 -0.25164768 C532.70424218 -0.26506935 538.45908104 -0.25752937 544.21408556 -0.24190123 C546.53981218 -0.23882422 548.86555965 -0.24249001 551.19126166 -0.25362138 C573.52689944 -0.35343522 573.52689944 -0.35343522 583.22154045 4.25726891 C584.94437248 5.06937828 584.94437248 5.06937828 586.7020092 5.89789391 C599.28739993 13.38011754 607.61616072 21.95589814 614.40904045 34.81976891 C614.90899529 35.72855797 614.90899529 35.72855797 615.41905022 36.65570641 C622.23010547 50.11675046 621.65642276 65.43467971 621.60972404 80.10101891 C621.61379728 82.26606065 621.61914335 84.43110031 621.62565422 86.59613609 C621.63924413 92.43496433 621.63406375 98.27363222 621.62451696 104.112463 C621.61687699 110.2473243 621.62397795 116.38217264 621.62867546 122.51703453 C621.63412044 132.81588751 621.62697449 143.11467577 621.61265373 153.41351891 C621.59632971 165.28954061 621.6016191 177.16540775 621.61813295 189.0414257 C621.63178373 199.27119067 621.63364995 209.50090933 621.62581694 219.73068047 C621.62116014 225.82591342 621.6204604 231.92107392 621.63042641 238.01630211 C621.63914623 243.74891899 621.63298315 249.48133822 621.61574364 255.21393394 C621.61180545 257.30719234 621.61286656 259.40046761 621.61953163 261.4937191 C621.68343541 283.61752953 619.02478707 302.36718191 603.22154045 319.25726891 C591.64027358 330.77758174 577.71101085 338.34089309 561.05539095 338.38635021 C559.8793035 338.38198095 559.8793035 338.38198095 558.67945671 338.37752342 C557.40994921 338.37880506 557.40994921 338.37880506 556.11479509 338.38011259 C553.28658563 338.38175614 550.45843583 338.37626445 547.63023186 338.3707943 C545.59981602 338.37051216 543.56940008 338.37067068 541.5389843 338.3712368 C536.03124185 338.37152373 530.52352118 338.36564387 525.01578379 338.35866284 C519.25822911 338.35241192 513.50067393 338.35182413 507.74311638 338.35063744 C496.84227665 338.34752926 485.94144694 338.33932277 475.04061162 338.32928795 C462.62958541 338.31811089 450.21855872 338.31261234 437.80752873 338.30759251 C412.27886041 338.29713974 386.75020099 338.27955022 361.22154045 338.25726891 C362.18196347 340.82625428 363.14308044 343.39497644 364.10459709 345.96355247 C364.37509125 346.68730112 364.6455854 347.41104976 364.92427635 348.15673018 C366.75637228 353.0487912 368.64586337 357.90921831 370.65904045 362.72992516 C370.94706535 363.42637642 371.23509026 364.12282768 371.53184319 364.84038353 C372.42593244 367.00121536 373.32349048 369.16058061 374.22154045 371.31976891 C375.41033222 374.18512007 376.59756735 377.05111318 377.78404045 379.91742516 C378.07021233 380.60825188 378.3563842 381.2990786 378.65122795 382.01083946 C381.56875423 389.06874581 384.40324215 396.15926075 387.22154045 403.25726891 C384.03302153 404.28250368 383.41805711 404.34042017 380.1473217 402.95648766 C378.93565406 402.29908811 377.73164221 401.62745673 376.53404045 400.94476891 C375.88266106 400.58592613 375.23128166 400.22708336 374.5601635 399.85736656 C368.75275154 396.63079687 363.04809626 393.22552424 357.34092522 389.82587242 C353.44821805 387.51982083 349.54789418 385.35376288 345.47154045 383.38226891 C339.7027539 380.58576573 334.15725192 377.44161625 328.59654045 374.25726891 C327.72545647 373.75856285 326.85437248 373.2598568 325.95689201 372.74603844 C320.77998181 369.76672564 315.64814268 366.72279868 310.55088615 363.60907555 C308.09434104 362.18345032 305.59243558 360.92702574 303.03404045 359.69476891 C295.61574279 356.0680456 288.48524121 351.93526513 281.31846428 347.83905602 C280.36093254 347.29257408 279.4034008 346.74609215 278.41685295 346.18305016 C277.1331884 345.44695518 277.1331884 345.44695518 275.82359123 344.69598961 C274.96491447 344.22121178 274.10623772 343.74643394 273.22154045 343.25726891 C271.92826458 342.49122306 271.92826458 342.49122306 270.60886192 341.70970154 C266.41752666 339.91251985 262.93468955 339.70191785 258.42234612 339.57962608 C257.55221461 339.54655904 256.6820831 339.513492 255.78558397 339.47942293 C244.53078483 339.09469609 233.26858146 339.10441935 222.00864983 339.09955406 C219.54244206 339.09487327 217.07623514 339.08972767 214.61002922 339.08415794 C209.34147104 339.07297164 204.07291572 339.06444467 198.8043499 339.05803871 C190.465406 339.04760731 182.12650045 339.02702279 173.78758049 339.00491905 C170.9221555 338.99744381 168.05673035 338.99002958 165.19130516 338.98263168 C164.4756949 338.98078112 163.76008463 338.97893055 163.02278921 338.97702391 C154.91716829 338.95618922 146.81154327 338.93731217 138.70591545 338.91937828 C137.96673828 338.9177401 137.22756112 338.91610192 136.46598464 338.91441409 C124.46056336 338.88807057 112.45513905 338.86944982 100.44970101 338.85278638 C88.07759822 338.83533828 75.7055553 338.80647684 63.33350039 338.76789701 C55.72545211 338.74459168 48.11750137 338.73051104 40.50941712 338.72856937 C34.68159504 338.72620181 28.85389982 338.70827971 23.02612877 338.68470001 C20.64457749 338.67752473 18.26300459 338.67539741 15.88144493 338.67880249 C-7.30655374 338.70665321 -7.30655374 338.70665321 -16.77845955 335.25726891 C-17.4392778 335.02005434 -18.10009605 334.78283978 -18.7809391 334.53843689 C-35.46583564 327.91370457 -47.65034034 314.1927015 -54.77064705 297.96039391 C-57.2923923 291.19664308 -58.07058737 285.61183372 -58.04588509 278.42287254 C-58.0504162 277.44938935 -58.05494731 276.47590615 -58.05961573 275.47292346 C-58.07224847 272.21975625 -58.07064006 268.96675671 -58.06898689 265.71356773 C-58.0749729 263.37735339 -58.08177861 261.04114103 -58.08934212 258.70493126 C-58.10700344 252.3638226 -58.1116976 246.02276793 -58.11297369 239.68163705 C-58.11463472 235.05182914 -58.12043576 230.42203321 -58.12664665 225.79222953 C-58.1432491 213.33425304 -58.15073219 200.8763051 -58.14930718 188.41831795 C-58.14922726 187.71153651 -58.14914735 187.00475507 -58.14906502 186.27655602 C-58.14898326 185.56890532 -58.1489015 184.86125463 -58.14881726 184.13215997 C-58.14800493 172.67227055 -58.16713091 161.21251275 -58.19534175 149.75266138 C-58.2241203 137.96860316 -58.23787926 126.18460901 -58.2361542 114.40051478 C-58.23549193 107.79159281 -58.24130492 101.18279205 -58.2625103 94.57389832 C-58.28192057 88.35465631 -58.28199776 82.13570486 -58.26747704 75.91645241 C-58.26539122 73.63971404 -58.27007615 71.36295736 -58.28219795 69.08625031 C-58.39199412 47.02757463 -58.39199412 47.02757463 -53.77845955 37.25726891 C-53.34370497 36.30457524 -52.90895039 35.35188158 -52.46102142 34.37031841 C-45.09555652 18.91219153 -31.41292429 8.43241992 -15.77845955 2.25726891 C-14.93567739 1.91106385 -14.09289522 1.56485879 -13.22457421 1.20816267 C-8.74543287 -0.02777635 -4.6245332 -0.02082277 0 0 Z " fill="#9C5C8F" transform="translate(57.778459548950195,-0.25726890563964844)"/>
<path d="M0 0 C2.8125 2.25 2.8125 2.25 5 5 C5.4640625 5.54140625 5.928125 6.0828125 6.40625 6.640625 C10.19379511 11.64860132 10.85990809 16.31587842 10.6171875 22.51953125 C9.70708256 27.65183187 7.41872667 31.83637103 4.93359375 36.35546875 C-5.92382425 56.23124581 -11.5821996 81.31128225 -14.41015625 103.6171875 C-14.94205746 106.66769375 -15.65064246 109.5729569 -16.43359375 112.56640625 C-18.07586676 119.01815757 -19.10248569 125.47070381 -20 132.0625 C-20.16806152 133.27131836 -20.33612305 134.48013672 -20.50927734 135.72558594 C-21.64754754 144.05560506 -22.68207809 152.39568731 -23.625 160.75 C-23.73585938 161.72718994 -23.84671875 162.70437988 -23.9609375 163.71118164 C-24.33294203 167.13866084 -24.67029746 170.56817323 -25 174 C-25.08191589 174.82654083 -25.16383179 175.65308167 -25.24822998 176.50466919 C-26.90225252 193.44347461 -27.35101135 210.26496767 -27.38085938 227.27709961 C-27.39039082 230.52756205 -27.42408704 233.77709209 -27.4609375 237.02734375 C-27.45589203 237.99929184 -27.45084656 238.97123993 -27.44564819 239.97264099 C-27.56792496 248.48099619 -29.96823566 255.78545492 -36 262 C-40.4014065 265.64687967 -44.55098482 265.50284536 -50 265 C-61.27958531 263.66425963 -69.42207745 254.62515034 -76.17578125 246.125 C-77.22866445 244.75558965 -78.2740233 243.3803673 -79.3125 242 C-80.15651367 240.88044922 -80.15651367 240.88044922 -81.01757812 239.73828125 C-82.69077073 237.50102712 -84.34902923 235.25368993 -86 233 C-86.44778809 232.3915625 -86.89557617 231.783125 -87.35693359 231.15625 C-99.91473329 213.86901694 -109.10604607 194.11017045 -116.625 174.1875 C-117.86923948 170.91216553 -119.13381627 167.70025155 -120.5625 164.5 C-122.35264248 160.14139223 -123.6863896 155.69573277 -125.03515625 151.18359375 C-125.68005776 149.05567986 -126.37604888 146.94260819 -127.12109375 144.84765625 C-128 142 -128 142 -128 138 C-128.66 138 -129.32 138 -130 138 C-130.25253036 138.8293959 -130.50506073 139.65879181 -130.76524353 140.51332092 C-132.15713132 144.44370409 -133.88886756 148.06550908 -135.75610352 151.78686523 C-136.13208176 152.54393265 -136.50806 153.30100006 -136.89543152 154.08100891 C-138.1358036 156.57561322 -139.38206553 159.06721698 -140.62890625 161.55859375 C-141.50147148 163.30761662 -142.37385928 165.05672801 -143.24607849 166.80592346 C-145.07677221 170.47476811 -146.91055317 174.14204989 -148.74633789 177.80834961 C-151.07724764 182.46441328 -153.39910264 187.12492377 -155.71838474 191.78678799 C-157.52020564 195.40530954 -159.32768719 199.02098209 -161.13670158 202.63591194 C-161.99361471 204.35024555 -162.8486812 206.06550369 -163.7017231 207.78176689 C-171.29930272 223.0563335 -179.3369483 237.61698317 -190 251 C-190.58394531 251.76183594 -191.16789062 252.52367187 -191.76953125 253.30859375 C-196.4027633 259.04859317 -202.07151148 263.89861752 -209.4296875 265.54296875 C-213.45512361 265.7937114 -215.60118211 265.23131438 -219.125 263.1875 C-226.18553506 256.22502793 -230.01861917 247.26398411 -233 238 C-233.45160995 236.7034424 -233.90625134 235.40793828 -234.36328125 234.11328125 C-238.05110859 223.54054257 -240.9676958 212.83925279 -243.703125 201.984375 C-244.64817972 198.25809054 -245.77475428 194.6444543 -247 191 C-247.51118937 188.86156908 -247.98876579 186.71490308 -248.4375 184.5625 C-248.69402344 183.34046875 -248.95054687 182.1184375 -249.21484375 180.859375 C-250.23041199 175.86742764 -251.20410597 170.86770494 -252.15625 165.86328125 C-252.83076967 162.77485552 -253.60952153 159.79097194 -254.47265625 156.75390625 C-256.04194793 151.0919677 -257.0401749 145.42613229 -257.9375 139.625 C-259.13410295 132.18770507 -260.37600095 124.76986048 -261.8125 117.375 C-270.90082287 70.32350765 -270.90082287 70.32350765 -273.4453125 51.0390625 C-273.90522266 47.5614962 -274.51010394 44.13015668 -275.1875 40.6875 C-276.65691452 32.85885459 -276.89175112 24.86617938 -272.70703125 17.82421875 C-269.00050703 12.61221683 -265.40178166 9.27815262 -259 8 C-250.88333346 7.38341637 -242.77631419 6.91079284 -236 12 C-228.323514 19.38904049 -227.87454101 30.32605175 -226.56420898 40.32568359 C-225.37831019 49.369713 -224.03242219 58.37221996 -222.5625 67.375 C-222.33925641 68.74926471 -222.1160307 70.12353232 -221.89282227 71.49780273 C-220.45796559 80.30805425 -218.98335685 89.10867182 -217.38134766 97.89013672 C-216.9473746 100.29115794 -216.52639799 102.69431477 -216.10546875 105.09765625 C-213.89606549 117.60866761 -211.32194715 130.01094252 -208.55908203 142.41064453 C-208.00905039 144.95808366 -207.50779326 147.51113688 -207.015625 150.0703125 C-206.04277721 154.99577961 -204.75582437 159.80014275 -203.375 164.625 C-203.14554687 165.43839844 -202.91609375 166.25179687 -202.6796875 167.08984375 C-202.12316749 169.06085213 -201.56208124 171.03057033 -201 173 C-200.59652344 172.18144531 -200.19304687 171.36289063 -199.77734375 170.51953125 C-192.70776715 156.24975767 -185.34848036 142.12746874 -178 128 C-177.51708496 127.07155273 -177.03416992 126.14310547 -176.53662109 125.18652344 C-171.25560798 115.05092668 -165.8243665 105.00565596 -160.32397461 94.98754883 C-157.39344784 89.62682913 -154.56743406 84.23384448 -151.875 78.75 C-136.7663911 48.19065596 -136.7663911 48.19065596 -128.078125 44.09375 C-126.01525812 43.46663847 -124.14787376 43.18029597 -122 43 C-121.16984375 42.92007813 -120.3396875 42.84015625 -119.484375 42.7578125 C-113.76753015 42.46683537 -110.43471615 43.08094852 -106 47 C-97.9815013 54.82758206 -96.30459387 66.26684752 -94.1875 76.875 C-89.96103877 97.22029115 -85.64086074 117.50696872 -78.65673828 137.10693359 C-77.2610294 141.13010337 -76.07542735 145.2206056 -74.859375 149.30078125 C-74.02341491 151.92645589 -73.05651389 154.45602575 -72 157 C-70.42152942 152.06091464 -69.71222456 147.7207242 -69.5 142.5 C-68.77468356 128.34568703 -66.26103943 114.62295914 -63.53222656 100.74365234 C-63.00298968 98.01541196 -62.49416621 95.28415849 -61.9921875 92.55078125 C-59.33929995 78.15051075 -55.91470945 64.09096565 -51.9375 50 C-51.69209473 49.12730469 -51.44668945 48.25460938 -51.19384766 47.35546875 C-49.696163 42.13112737 -48.01306052 37.04778041 -46 32 C-45.5213147 30.79778809 -45.5213147 30.79778809 -45.03295898 29.57128906 C-33.91898563 2.06970376 -33.91898563 2.06970376 -24 -3 C-15.56864853 -5.54860728 -7.64151925 -4.16189888 0 0 Z " fill="#FEFDFE" transform="translate(305,41)"/>
<path d="M0 0 C1.15249741 0.00222061 2.30499481 0.00444122 3.49241638 0.00672913 C5.4443264 0.00684242 5.4443264 0.00684242 7.43566895 0.00695801 C8.86661313 0.01206543 10.29755694 0.01728144 11.72850037 0.02259827 C13.18438672 0.02446249 14.64027369 0.02588637 16.09616089 0.02688599 C19.93488791 0.03071086 23.77357731 0.04054088 27.61228943 0.05158997 C31.52667227 0.06180474 35.44106117 0.06638375 39.35545349 0.07142639 C47.04101755 0.08216318 54.72655057 0.09923923 62.41209412 0.12025452 C63.7628668 4.11097141 64.92798978 8.04114403 65.85740662 12.15150452 C66.12577332 13.33566956 66.39414001 14.51983459 66.67063904 15.73988342 C66.95656921 17.02040588 67.24249939 18.30092834 67.53709412 19.62025452 C67.68627289 20.28498779 67.83545166 20.94972107 67.989151 21.63459778 C73.53746102 46.37116356 78.8663281 71.17835415 83.41209412 96.12025452 C84.33596265 91.76849098 85.25961389 87.41668138 86.18309021 83.06483459 C86.49520947 81.59411975 86.80738133 80.12341607 87.11961365 78.65272522 C87.42261611 77.22547574 87.72553803 75.79820916 88.02838135 74.3709259 C88.3404267 72.9003837 88.65267765 71.42988512 88.96511841 69.95942688 C89.770482 66.16476073 90.5695999 62.36895432 91.35667419 58.57044983 C93.73140882 47.13479122 96.28380042 35.74576953 98.93138123 24.37025452 C99.61329815 21.43629264 100.2891248 18.50096533 100.96482849 15.56556702 C101.39870902 13.69569079 101.83293975 11.82589578 102.26756287 9.95619202 C102.46859116 9.08038483 102.66961945 8.20457764 102.8767395 7.30223083 C104.29759466 1.23475397 104.29759466 1.23475397 105.41209412 0.12025452 C107.49828434 0.02607679 109.58769889 0.00282574 111.67601013 0.00672913 C112.65646301 0.00651009 112.65646301 0.00651009 113.65672302 0.00628662 C115.8265154 0.00698569 117.99622291 0.01477774 120.16600037 0.02259827 C121.66672722 0.02446247 123.16745469 0.02588636 124.66818237 0.02688599 C128.62527638 0.03071099 132.5823339 0.04054112 136.53941345 0.05158997 C140.57444261 0.06180446 144.60947764 0.06638369 148.64451599 0.07142639 C156.56705881 0.08216341 164.48957193 0.09923962 172.41209412 0.12025452 C173.84109619 4.10422522 174.78383179 7.8356182 175.31541443 12.03163147 C175.46484497 13.18366562 175.61427551 14.33569977 175.76823425 15.52264404 C175.92398926 16.76786331 176.07974426 18.01308258 176.24021912 19.29603577 C176.41166346 20.62891447 176.5838202 21.9617017 176.75663757 23.29440308 C177.02949042 25.39972632 177.30181975 27.50510617 177.57197189 29.61077785 C178.48676362 36.74098474 179.44743267 43.86473763 180.41395569 50.98808861 C180.8133256 53.93264386 181.21110369 56.87741344 181.60896301 59.82217312 C181.91628823 62.09655594 182.22384715 64.37090704 182.53147888 66.64524841 C183.06836303 70.6145234 183.6049918 74.58383286 184.14155579 78.55315113 C186.34838324 94.87802834 188.55780573 111.20255282 190.77146912 127.52650452 C190.86375542 128.20704706 190.95604172 128.88758961 191.05112457 129.58875465 C192.15604067 137.7363025 193.26161793 145.88376041 194.36808777 154.03109741 C194.79937598 157.21087599 195.22883185 160.39089817 195.65818787 163.57093811 C196.11933851 166.98164015 196.58913937 170.39081927 197.07225037 173.79847717 C197.21648437 174.8315374 197.21648437 174.8315374 197.3636322 175.88546753 C197.60506681 177.61172771 197.85108065 179.33734593 198.09764099 181.06288147 C198.44080203 184.3993766 198.41209412 187.76615862 198.41209412 191.12025452 C180.92209412 191.12025452 163.43209412 191.12025452 145.41209412 191.12025452 C144.79334412 184.90181702 144.79334412 184.90181702 144.16209412 178.55775452 C141.54657487 152.39528865 138.88071822 126.23871549 136.05924988 100.09754944 C135.83738338 98.04082314 135.61622461 95.98402037 135.39579773 93.92713928 C135.08718626 91.05114554 134.77549864 88.1755021 134.46287537 85.29994202 C134.37136703 84.4433902 134.2798587 83.58683838 134.18557739 82.70433044 C133.75718339 78.79591188 133.27828653 74.96188358 132.41209412 71.12025452 C132.28270447 71.69839905 132.15331482 72.27654358 132.02000427 72.87220764 C128.69051913 87.67627035 125.11940743 102.40705447 121.41209412 117.12025452 C118.33109914 129.34853632 115.32694942 141.58347243 112.54246521 153.88343811 C109.70730827 166.34796678 106.54179232 178.72664965 103.41209412 191.12025452 C91.20209412 191.12025452 78.99209412 191.12025452 66.41209412 191.12025452 C63.4383343 180.40088773 60.48787618 169.70674341 57.97459412 158.87025452 C56.13098418 150.92228077 54.06872601 143.05134375 51.91209412 135.18275452 C49.74234731 127.2584367 47.72411376 119.33526922 45.97459412 111.30775452 C43.02029843 97.76479508 39.18771078 84.45241714 35.41209412 71.12025452 C33.59175748 86.13559292 31.99030203 101.15892513 30.6103363 116.22108459 C29.42459408 129.14194285 28.13324184 142.05144489 26.8290863 154.96083069 C26.11184651 162.0692509 25.39691595 169.17706125 24.74803162 176.29212952 C24.65658875 177.29284485 24.56514587 178.29356018 24.47093201 179.32460022 C24.31243093 181.08319247 24.15766756 182.84212771 24.0075531 184.60145569 C23.5208958 190.01145283 23.5208958 190.01145283 22.41209412 191.12025452 C20.84662364 191.21352167 19.27696639 191.23771034 17.70872498 191.23377991 C16.70776291 191.23370438 15.70680084 191.23362885 14.67550659 191.23355103 C13.58697891 191.22838974 12.49845123 191.22322845 11.37693787 191.21791077 C10.26855057 191.21649582 9.16016327 191.21508087 8.01818848 191.21362305 C4.46196343 191.20800485 0.90580028 191.19544926 -2.65040588 191.18275452 C-5.05470185 191.17774186 -7.4589988 191.17317855 -9.86329651 191.16908264 C-15.77152092 191.15802951 -21.67970898 191.14127368 -27.58790588 191.12025452 C-26.9687508 181.59035805 -25.88988964 172.18961764 -24.60447693 162.73039246 C-24.03401747 158.53064058 -23.47580488 154.3292541 -22.91603088 150.12806702 C-22.80278976 149.28041275 -22.68954865 148.43275848 -22.57287598 147.55941772 C-21.51286908 139.6059016 -20.51111924 131.64577223 -19.52540588 123.68275452 C-17.75903678 109.44212229 -15.93318094 95.20974389 -14.08790588 80.97914124 C-13.41910003 75.81744917 -12.75313767 70.65539222 -12.0874176 65.49330139 C-11.75591775 62.92296233 -11.4242139 60.35264957 -11.09230042 57.78236389 C-10.32148764 51.81292295 -9.55183829 45.8433398 -8.78681946 39.87315369 C-8.43146892 37.10063805 -8.07538601 34.32821668 -7.71925354 31.55580139 C-7.47294088 29.63597012 -7.22766693 27.71600566 -6.98243713 25.79603577 C-6.52499173 22.23641862 -6.05954033 18.67801873 -5.58790588 15.12025452 C-5.50222351 14.47050659 -5.41654114 13.82075867 -5.32826233 13.15132141 C-5.06811893 11.1936977 -4.8007616 9.2370369 -4.53321838 7.28041077 C-4.37611389 6.12291321 -4.2190094 4.96541565 -4.05714417 3.77284241 C-3.41782963 0.15881932 -3.41782963 0.15881932 0 0 Z " fill="#000000" transform="translate(1054.587905883789,74.87974548339844)"/>
<path d="M0 0 C21.78 0 43.56 0 66 0 C68.54386478 10.17545913 71.06099686 20.33536038 73.375 30.5625 C73.52207397 31.21220764 73.66914795 31.86191528 73.82067871 32.53131104 C78.48970774 53.2280048 82.45671244 74.0821708 86 95 C88.28142979 91.20425874 88.89191631 87.1015065 89.6875 82.8125 C90.03596322 81.01137012 90.38637043 79.2106157 90.73828125 77.41015625 C90.93502441 76.40227051 91.13176758 75.39438477 91.33447266 74.35595703 C92.63251758 67.81049646 93.99757731 61.27913815 95.375 54.75 C95.52452118 54.04110626 95.67404236 53.33221252 95.82809448 52.60183716 C98.39649436 40.47047721 101.29458831 28.44412096 104.38623047 16.43505859 C105.50162833 12.00984846 106.48761248 7.55698258 107.45703125 3.09765625 C108 1 108 1 109 0 C111.08619022 -0.09417773 113.17560477 -0.11742878 115.26391602 -0.11352539 C116.2443689 -0.11374443 116.2443689 -0.11374443 117.24462891 -0.1139679 C119.41442128 -0.11326883 121.58412879 -0.10547678 123.75390625 -0.09765625 C125.25463311 -0.09579205 126.75536057 -0.09436816 128.25608826 -0.09336853 C132.21318226 -0.08954352 136.17023978 -0.0797134 140.12731934 -0.06866455 C144.16234849 -0.05845006 148.19738353 -0.05387083 152.23242188 -0.04882812 C160.15496469 -0.03809111 168.07747781 -0.0210149 176 0 C177.47810257 2.95620515 177.53477542 6.09152418 177.87890625 9.33984375 C178.61365316 15.91164157 179.45489647 22.45939072 180.40234375 29.00390625 C180.52566574 29.85619812 180.64898773 30.70848999 180.77604675 31.58660889 C181.03118577 33.34361245 181.28692499 35.10052895 181.54324341 36.85736084 C183.44857343 49.93052931 185.31295726 63.00213414 186.89306641 76.11914062 C188.01723706 85.36339372 189.32789804 94.58003269 190.62811279 103.80072021 C192.88840025 119.86776643 194.93434888 135.96073967 196.94458008 152.06079102 C197.18533275 153.97807471 197.42645159 155.89531246 197.66796875 157.8125 C197.7825795 158.72599716 197.89719025 159.63949432 198.01527405 160.58067322 C198.61895868 165.30981347 199.3173 169.99637856 200.17578125 174.6875 C201 180 201 180 201 191 C183.84 191 166.68 191 149 191 C145.56197796 164.64183099 145.56197796 164.64183099 144.5625 154.5 C144.31520671 152.05077089 144.06780454 149.60155278 143.8203125 147.15234375 C143.69043945 145.8566748 143.56056641 144.56100586 143.42675781 143.22607422 C142.95817489 138.56768701 142.47539826 133.91079532 141.9921875 129.25390625 C138.96135497 100.01887979 138.96135497 100.01887979 137.75 87.0625 C137.66999756 86.23049072 137.58999512 85.39848145 137.50756836 84.54125977 C137.06520027 79.67316044 136.9332635 74.88844834 137 70 C136.34 70 135.68 70 135 70 C134.89333008 70.79124268 134.78666016 71.58248535 134.67675781 72.39770508 C133.54032149 80.33811452 131.85771917 87.95418763 129.75 95.6875 C127.31934009 104.82198465 125.0261404 113.96869739 122.9375 123.1875 C120.83321327 132.46517478 118.59991684 141.69937259 116.25854492 150.91992188 C114.02744777 159.75926045 111.98592318 168.6387873 110.00390625 177.53710938 C109.77058594 178.57029297 109.53726562 179.60347656 109.296875 180.66796875 C108.99281738 182.03344849 108.99281738 182.03344849 108.68261719 183.42651367 C108 186 108 186 106 191 C94.12 191 82.24 191 70 191 C66.65479937 179.07311859 63.4352142 167.12772473 60.375 155.125 C59.9483474 153.45735067 59.52167031 151.78970761 59.0949707 150.12207031 C55.28509378 135.20842295 51.55171845 120.27558527 47.84326172 105.33642578 C44.99164897 93.86477913 42.03822152 82.42364782 39 71 C37.97473517 74.07579449 37.67296151 76.6613285 37.38671875 79.88671875 C37.27529541 81.11390625 37.16387207 82.34109375 37.04907227 83.60546875 C36.99051056 84.26724121 36.93194885 84.92901367 36.87161255 85.61083984 C36.55031883 89.23480724 36.21600228 92.85757892 35.8828125 96.48046875 C35.81218094 97.25103607 35.74154938 98.02160339 35.66877747 98.81552124 C34.84915826 107.71524123 33.95822292 116.60766877 33.0625 125.5 C32.97949646 126.32419434 32.89649292 127.14838867 32.81097412 127.99755859 C32.11248646 134.9315196 32.11248646 134.9315196 31.78921509 138.1366272 C31.14722536 144.51077041 30.51734717 150.88605837 29.890625 157.26171875 C29.61908144 160.0140167 29.34729897 162.76629094 29.07540894 165.51855469 C28.90147536 167.28425812 28.72838664 169.050045 28.55618286 170.81591797 C28.31705735 173.26683005 28.07486828 175.71742203 27.83203125 178.16796875 C27.76240173 178.89006027 27.69277222 179.61215179 27.62103271 180.35612488 C27.25873015 183.98123923 26.71706357 187.41468215 26 191 C9.5 191 -7 191 -24 191 C-22.8500293 173.75043947 -22.8500293 173.75043947 -21.80078125 165.6171875 C-21.68528931 164.69495392 -21.56979736 163.77272034 -21.45080566 162.82254028 C-21.07583646 159.83944293 -20.69437909 156.85721997 -20.3125 153.875 C-20.04560745 151.76565151 -19.77892835 149.656276 -19.51245117 147.546875 C-17.42910027 131.11561142 -15.24978695 114.69728596 -13.04467773 98.28198242 C-11.42304736 86.20906344 -9.85405242 74.13172063 -8.37402344 62.04052734 C-7.93357827 58.46004162 -7.48690513 54.88034744 -7.0390625 51.30078125 C-6.91207222 50.28562943 -6.91207222 50.28562943 -6.78251648 49.24996948 C-6.35095143 45.80135971 -5.91887547 42.35281419 -5.48657227 38.90429688 C-4.68603673 32.51415246 -3.89098346 26.12344456 -3.11328125 19.73046875 C-2.97728516 18.61994141 -2.84128906 17.50941406 -2.70117188 16.36523438 C-2.44862482 14.30044015 -2.19848841 12.23534913 -1.95117188 10.16992188 C-1.78391602 8.80770508 -1.78391602 8.80770508 -1.61328125 7.41796875 C-1.51829346 6.63188232 -1.42330566 5.8457959 -1.32543945 5.03588867 C-1 3 -1 3 0 0 Z " fill="#000000" transform="translate(1282,75)"/>
<path d="M0 0 C16.97800711 14.54224189 26.27069299 36.77507695 28.03125 58.8203125 C29.97110564 89.42277879 25.59131493 118.79365287 10.3125 145.75 C9.96461426 146.38341309 9.61672852 147.01682617 9.25830078 147.66943359 C-2.4210836 168.86337368 -18.78228815 185.64133006 -42.5 192.75 C-63.20259747 197.08768709 -82.83497005 192.14172852 -100.41796875 181.0234375 C-115.22648483 170.26751016 -123.36260009 152.77994279 -127.875 135.5625 C-128.13474609 134.60408203 -128.39449219 133.64566406 -128.66210938 132.65820312 C-138.24680735 96.82084403 -129.09238575 58.3655845 -110.93408203 26.82421875 C-107.91691274 21.80387596 -104.46947036 17.22533159 -100.6875 12.75 C-100.25824219 12.23856445 -99.82898438 11.72712891 -99.38671875 11.20019531 C-73.72953902 -19.05974937 -31.62360486 -24.57210337 0 0 Z " fill="#FEFDFD" transform="translate(614.6875,82.25)"/>
<path d="M0 0 C7.7080436 5.89411057 13.9091973 12.71666001 19 21 C19.70125 22.0725 20.4025 23.145 21.125 24.25 C24.1948662 29.79428422 25.98083666 36.01805692 28 42 C28.4962085 43.40403076 28.4962085 43.40403076 29.00244141 44.83642578 C32.05643692 54.52161273 32.33215769 64.61159612 32.25 74.6875 C32.24250732 75.90993408 32.23501465 77.13236816 32.22729492 78.3918457 C32.03725603 94.48994496 30.12603618 108.7362572 25 124 C24.69191406 124.96035156 24.38382813 125.92070312 24.06640625 126.91015625 C15.06178371 153.44377735 -0.95450489 178.61566383 -26.6015625 191.28515625 C-43.84128476 198.66959754 -62.41403112 199.45391692 -80 193 C-89.44850273 189.14061158 -96.96389661 184.39508825 -104 177 C-104.75796875 176.22398437 -105.5159375 175.44796875 -106.296875 174.6484375 C-126.94985195 151.6452942 -128.06146905 120.65134503 -126.89599609 91.38867188 C-124.94919153 57.43640024 -108.51766804 26.56249164 -84.25 3.3125 C-60.57753226 -17.33251809 -25.48533375 -17.23912385 0 0 Z " fill="#FEFDFE" transform="translate(437,79)"/>
<path d="M0 0 C20.46269338 18.54481616 29.2001493 43.74129501 30.56176758 70.93847656 C31.74349017 102.92435058 28.422304 136.63281091 6.00170898 161.38671875 C-8.54055543 176.7500917 -27.92384205 183.95640942 -48.86889648 184.56835938 C-70.37290841 184.81073843 -89.5478933 180.73576849 -106.62719727 167.1640625 C-107.45606445 166.54402344 -108.28493164 165.92398438 -109.13891602 165.28515625 C-122.70639247 153.71978778 -129.71658639 136.10633975 -133.62719727 119.1640625 C-133.88758789 118.05458252 -134.14797852 116.94510254 -134.41625977 115.80200195 C-136.8070744 104.55023058 -137.1843143 93.57982607 -137.12719727 82.1015625 C-137.12543488 81.15517914 -137.12367249 80.20879578 -137.12185669 79.23373413 C-137.06182055 64.77083057 -136.39278381 50.95542619 -131.62719727 37.1640625 C-131.37019043 36.41785645 -131.11318359 35.67165039 -130.84838867 34.90283203 C-123.8154888 15.41880679 -110.93391019 -0.48736072 -92.09594727 -9.53125 C-64.0096415 -21.95403909 -24.04524017 -20.88998241 0 0 Z M-71.62719727 36.1640625 C-86.44469237 58.64328678 -83.00651559 92.86543208 -78.37719727 118.0390625 C-76.53237121 125.64782271 -73.32544205 131.56561723 -66.87719727 136.1640625 C-60.26646866 139.8031112 -52.90597577 139.87041053 -45.72485352 137.9453125 C-38.76905508 135.35469856 -34.85635944 130.70579694 -31.62719727 124.1640625 C-22.32755629 103.6726458 -23.05246198 70.78990688 -29.72094727 49.55078125 C-32.66936422 41.78576937 -35.94255099 34.33156668 -43.47094727 30.13671875 C-53.37717435 25.87153764 -64.45089765 27.69678835 -71.62719727 36.1640625 Z " fill="#000000" transform="translate(994.627197265625,86.8359375)"/>
<path d="M0 0 C0.67509613 -0.0049649 1.35019226 -0.00992981 2.04574585 -0.01504517 C4.29613249 -0.02973026 6.54644814 -0.03648713 8.796875 -0.04199219 C10.36897787 -0.04774831 11.94108073 -0.05350598 13.51318359 -0.05926514 C16.82552415 -0.06979973 20.13784034 -0.07562303 23.45019531 -0.07910156 C27.64679329 -0.08452378 31.84305639 -0.10840347 36.03955078 -0.13707352 C39.29830774 -0.15594493 42.55698898 -0.16091878 45.8157959 -0.16243744 C47.35918972 -0.16542111 48.90258365 -0.17329994 50.44592285 -0.18662262 C73.45994563 -0.37073417 98.22092533 3.59595597 115.45361328 19.99365234 C125.33205 29.74033265 131.58444734 41.04567955 131.73803711 55.18725586 C131.71268691 70.58158789 128.34905162 84.02068716 117.109375 95.22363281 C106.46833518 105.16113281 106.46833518 105.16113281 101.546875 105.16113281 C102.14205933 106.38908569 102.14205933 106.38908569 102.74926758 107.6418457 C113.35180949 129.52153939 123.93831373 151.40744281 134.26852417 173.41744995 C134.90914477 174.78125589 135.55099854 176.14448328 136.19412231 177.5071106 C137.09022145 179.40696711 137.98131155 181.30909256 138.87109375 183.21191406 C139.38760498 184.31188721 139.90411621 185.41186035 140.4362793 186.54516602 C141.546875 189.16113281 141.546875 189.16113281 141.546875 191.16113281 C123.066875 191.16113281 104.586875 191.16113281 85.546875 191.16113281 C62.10365091 143.04083073 62.10365091 143.04083073 54.140625 126.02832031 C53.76437988 125.22491211 53.38813477 124.42150391 53.00048828 123.59375 C52.3038293 122.10329716 51.60933705 120.61182876 50.91748047 119.11914062 C49.57290644 115.91841053 49.57290644 115.91841053 47.546875 113.16113281 C47.53656754 114.12357407 47.52626007 115.08601532 47.51564026 116.07762146 C47.41807481 125.1278037 47.31535717 134.17791458 47.20753574 143.22798061 C47.15226493 147.8812105 47.09883842 152.53444662 47.04956055 157.18774414 C47.00197815 161.67463398 46.94963783 166.16144493 46.89393425 170.64824104 C46.87348284 172.36391307 46.85477447 174.07960674 46.83780098 175.7953167 C46.81381835 178.1900405 46.78375588 180.58461384 46.75219727 182.97924805 C46.7464418 183.69565964 46.74068634 184.41207123 46.73475647 185.15019226 C46.66092716 190.04708065 46.66092716 190.04708065 45.546875 191.16113281 C43.88949057 191.25460197 42.22812856 191.27858258 40.56811523 191.2746582 C39.50709091 191.27458267 38.44606659 191.27450714 37.35289001 191.27442932 C35.62166649 191.26668739 35.62166649 191.26668739 33.85546875 191.25878906 C32.68049332 191.25737411 31.50551788 191.25595917 30.29493713 191.25450134 C26.52472436 191.24888273 22.75456996 191.23632707 18.984375 191.22363281 C16.43554773 191.21862021 13.88671953 191.21405689 11.33789062 191.20996094 C5.07419867 191.19890726 -1.18945899 191.18215103 -7.453125 191.16113281 C-7.47645106 166.40548212 -7.49410273 141.64983307 -7.50493717 116.89417362 C-7.51010075 105.40055538 -7.51714463 93.90694395 -7.52856445 82.41333008 C-7.53850939 72.39938094 -7.54497797 62.38543673 -7.54721349 52.37148279 C-7.54852093 47.06567839 -7.55160881 41.7598881 -7.55885506 36.45408821 C-7.56561228 31.4662251 -7.56774257 26.47838201 -7.56623268 21.49051476 C-7.56650914 19.65423092 -7.56851602 17.81794646 -7.57233047 15.98166656 C-7.57726308 13.48592665 -7.5761249 10.99026357 -7.57337952 8.49452209 C-7.57629236 7.75815476 -7.5792052 7.02178743 -7.58220631 6.26310593 C-7.56209113 -0.44350378 -6.50623144 0.0362479 0 0 Z M45.546875 39.16113281 C45.546875 53.02113281 45.546875 66.88113281 45.546875 81.16113281 C57.49380589 81.16113281 65.35819453 80.35827114 74.359375 72.59863281 C78.11517106 68.05214285 76.90576601 60.66412823 76.546875 55.16113281 C75.38625738 49.5350881 72.20189559 46.38383937 67.546875 43.16113281 C60.20305483 38.78609101 55.04381167 39.79426192 45.546875 39.16113281 Z M45.546875 108.16113281 C46.546875 110.16113281 46.546875 110.16113281 46.546875 110.16113281 Z " fill="#000000" transform="translate(1621.453125,74.8388671875)"/>
<path d="M0 0 C1.26187386 -0.002062 1.26187386 -0.002062 2.54924011 -0.00416565 C3.45339157 -0.00057037 4.35754303 0.0030249 5.28909302 0.00672913 C6.73881248 0.00651009 6.73881248 0.00651009 8.21781921 0.00628662 C11.39931515 0.00698101 14.58075189 0.01475119 17.76223755 0.02259827 C19.97326628 0.02446413 22.18429542 0.02588724 24.39532471 0.02688599 C30.20512032 0.0306979 36.0148908 0.04051687 41.82467651 0.05158997 C48.80062338 0.06363453 55.77657866 0.06821264 62.75253296 0.07404327 C73.34172278 0.08372932 83.9308575 0.10289518 94.52005005 0.12025452 C94.52005005 14.31025452 94.52005005 28.50025452 94.52005005 43.12025452 C77.36005005 43.12025452 60.20005005 43.12025452 42.52005005 43.12025452 C42.52005005 53.68025452 42.52005005 64.24025452 42.52005005 75.12025452 C45.75688599 75.10865295 48.99372192 75.09705139 52.3286438 75.08509827 C55.44949241 75.07730864 58.57033996 75.07123134 61.69119263 75.06532288 C63.86697877 75.06028144 66.04276152 75.05344844 68.21853638 75.04481506 C71.33858072 75.03274114 74.45858043 75.02702447 77.5786438 75.02259827 C78.55780258 75.01743698 79.53696136 75.0122757 80.54579163 75.00695801 C81.44664993 75.00688248 82.34750824 75.00680695 83.27566528 75.00672913 C84.07286484 75.00450851 84.87006439 75.0022879 85.69142151 75 C87.52005005 75.12025452 87.52005005 75.12025452 88.52005005 76.12025452 C88.60872641 79.07708682 88.63532532 82.01110666 88.6177063 84.96791077 C88.61669922 85.75323181 88.61569214 86.53855286 88.61465454 87.34767151 C88.60940643 90.29271395 88.59544528 93.23773564 88.58255005 96.18275452 C88.56192505 102.76212952 88.54130005 109.34150452 88.52005005 116.12025452 C73.34005005 116.12025452 58.16005005 116.12025452 42.52005005 116.12025452 C42.52005005 127.01025452 42.52005005 137.90025452 42.52005005 149.12025452 C60.01005005 149.12025452 77.50005005 149.12025452 95.52005005 149.12025452 C95.54067505 156.02962952 95.56130005 162.93900452 95.58255005 170.05775452 C95.59165405 172.24134583 95.60075806 174.42493713 95.61013794 176.67469788 C95.61305703 178.39483071 95.6156056 180.11496424 95.6177063 181.83509827 C95.62282227 182.73683777 95.62793823 183.63857727 95.63320923 184.56764221 C95.63351887 186.75217196 95.58250875 188.93661781 95.52005005 191.12025452 C93.98579199 192.65451258 92.59691385 192.24618375 90.45828247 192.24723816 C89.58328094 192.25005798 88.70827942 192.25287781 87.8067627 192.25578308 C86.35579697 192.25274673 86.35579697 192.25274673 84.8755188 192.24964905 C83.86260773 192.25140137 82.84969666 192.25315369 81.80609131 192.25495911 C78.43989373 192.25937974 75.07374821 192.25643889 71.70755005 192.25306702 C69.37966909 192.25374 67.05178819 192.25470997 64.72390747 192.25596619 C59.83791436 192.25744345 54.95193949 192.2552877 50.06594849 192.25062561 C43.78732349 192.24492831 37.50874123 192.24820717 31.2301178 192.25419807 C26.42104772 192.25780293 21.61198786 192.25666545 16.80291748 192.25407028 C14.48714188 192.2534008 12.17136536 192.25423016 9.85559082 192.25654984 C6.62522914 192.25907512 3.39493772 192.25523751 0.1645813 192.24964905 C-0.80272919 192.25167328 -1.77003967 192.25369751 -2.7666626 192.25578308 C-3.64166412 192.25296326 -4.51666565 192.25014343 -5.41818237 192.24723816 C-6.18289352 192.24686113 -6.94760468 192.24648411 -7.73548889 192.24609566 C-9.47994995 192.12025452 -9.47994995 192.12025452 -10.47994995 191.12025452 C-10.57764872 188.66654831 -10.60991236 186.24102282 -10.60020447 183.78686523 C-10.60105889 183.01013586 -10.60191332 182.23340649 -10.60279363 181.43313986 C-10.60445079 178.8105113 -10.59892324 176.18794562 -10.59347534 173.56532288 C-10.59319349 171.69327801 -10.59335115 169.82123303 -10.59391785 167.94918823 C-10.59420592 162.85022691 -10.58830764 157.7512889 -10.58134389 152.65233302 C-10.57511195 147.32983819 -10.57450668 142.00734289 -10.57331848 136.68484497 C-10.57020469 126.59840561 -10.56199067 116.51197702 -10.55196899 106.42554241 C-10.54080933 94.94569073 -10.53529778 83.46583853 -10.53027356 71.98598278 C-10.51980809 48.36406737 -10.50220773 24.74216155 -10.47994995 1.12025452 C-6.95210835 0.48150309 -3.5855617 -0.00456178 0 0 Z " fill="#000000" transform="translate(1506.4799499511719,74.87974548339844)"/>
<path d="M0 0 C1.14901495 0.00138269 1.14901495 0.00138269 2.32124233 0.00279331 C3.19768902 0.00141865 4.0741357 0.00004398 4.97714138 -0.00137234 C6.43046368 0.00402058 6.43046368 0.00402058 7.91314602 0.00952244 C8.92766338 0.00937641 9.94218075 0.00923038 10.98744106 0.00907993 C14.35844936 0.00977954 17.72940317 0.01757414 21.10040188 0.02539158 C23.43067806 0.02725559 25.76095463 0.02867957 28.09123135 0.0296793 C34.23811828 0.03350581 40.38498176 0.04333723 46.5318594 0.05438328 C52.79884429 0.06459454 59.06583295 0.06917631 65.33282375 0.0742197 C77.63947637 0.08495938 89.94610538 0.10255725 102.25274563 0.12304783 C102.25274563 14.31304783 102.25274563 28.50304783 102.25274563 43.12304783 C85.42274563 43.12304783 68.59274563 43.12304783 51.25274563 43.12304783 C51.25274563 53.68304783 51.25274563 64.24304783 51.25274563 75.12304783 C65.77274563 75.12304783 80.29274563 75.12304783 95.25274563 75.12304783 C96.88758195 78.39272046 96.39445051 82.00337898 96.38555813 85.59570408 C96.38651485 86.43395222 96.38747158 87.27220036 96.3884573 88.13584995 C96.38913823 89.90868295 96.38728997 91.68151844 96.38311672 93.45434666 C96.37776056 96.1779546 96.38306806 98.90139812 96.38946438 101.62500095 C96.38880371 103.34440236 96.38752279 105.06380367 96.38555813 106.78320408 C96.38758236 107.6029723 96.38960659 108.42274052 96.39169216 109.2673502 C96.3677007 115.00809276 96.3677007 115.00809276 95.25274563 116.12304783 C93.87114448 116.21583113 92.48486525 116.24051825 91.10015774 116.23657322 C90.21932018 116.23649769 89.33848263 116.23642216 88.43095303 116.23634434 C87.47366802 116.23118305 86.51638302 116.22602177 85.53008938 116.22070408 C84.55487835 116.21928913 83.57966732 116.21787418 82.57490444 116.21641636 C79.4466542 116.21079916 76.3184744 116.19824376 73.19024563 116.18554783 C71.07501228 116.18053504 68.95977782 116.17597175 66.8445425 116.17187595 C61.64722762 116.16167314 56.45006587 116.14210114 51.25274563 116.12304783 C51.25274563 127.01304783 51.25274563 137.90304783 51.25274563 149.12304783 C68.08274563 149.12304783 84.91274563 149.12304783 102.25274563 149.12304783 C102.25274563 162.98304783 102.25274563 176.84304783 102.25274563 191.12304783 C67.60274563 191.12304783 32.95274563 191.12304783 -2.74725437 191.12304783 C-2.78755741 143.51620819 -2.78755741 143.51620819 -2.7960825 123.63281345 C-2.80202614 109.88028689 -2.8090296 96.12776644 -2.82269382 82.37524509 C-2.83263877 72.36129595 -2.83910734 62.34735175 -2.84134287 52.33339781 C-2.8426503 47.0275934 -2.84573818 41.72180312 -2.85298443 36.41600323 C-2.85974165 31.42814012 -2.86187194 26.44029702 -2.86036205 21.45242977 C-2.86063852 19.61614594 -2.8626454 17.77986147 -2.86645985 15.94358158 C-2.87139245 13.44784167 -2.87025428 10.95217858 -2.86750889 8.45643711 C-2.87042173 7.72006978 -2.87333457 6.98370244 -2.87633568 6.22502095 C-2.85826866 0.20128938 -2.85826866 0.20128938 0 0 Z " fill="#000000" transform="translate(1897.747254371643,74.87695217132568)"/>
<path d="M0 0 C1 1 1 1 1.12025452 2.86659241 C1.11803391 3.68155685 1.11581329 4.4965213 1.11352539 5.33618164 C1.11344986 6.2570607 1.11337433 7.17793976 1.11329651 8.12672424 C1.10813522 9.12775681 1.10297394 10.12878937 1.09765625 11.16015625 C1.09553383 12.68956093 1.09553383 12.68956093 1.09336853 14.24986267 C1.08775097 17.52077107 1.0751955 20.79161213 1.0625 24.0625 C1.05748726 26.27408756 1.05292396 28.48567618 1.04882812 30.69726562 C1.03777584 36.13153357 1.02102063 41.56576197 1 47 C-2.89259152 48.29753051 -5.85188569 47.37244729 -9.75 46.5625 C-24.62151362 43.71838668 -39.03627916 43.30369616 -52 52 C-63.66676857 60.56845091 -69.07558532 72.09938172 -71.3125 86.1875 C-72.24218749 94.25850381 -71.895716 101.95611906 -71 110 C-70.90976562 110.83015625 -70.81953125 111.6603125 -70.7265625 112.515625 C-68.68304006 124.77675967 -61.41908925 135.25152127 -51.796875 142.70703125 C-39.66396693 150.96303327 -24.9895595 150.92496859 -11.01171875 148.4765625 C-9.38519413 148.14402858 -7.76263615 147.79031781 -6.1484375 147.40234375 C-3.72768964 146.9490037 -1.45803675 146.97387226 1 147 C1.07589036 153.51441001 1.12853202 160.0287066 1.16479492 166.54345703 C1.17990753 168.76094828 1.20039826 170.97840953 1.22631836 173.19580078 C1.26259293 176.37800489 1.27970139 179.55981482 1.29296875 182.7421875 C1.30845261 183.73805878 1.32393646 184.73393005 1.33988953 185.75997925 C1.34022942 187.14118454 1.34022942 187.14118454 1.34057617 188.55029297 C1.35056892 189.76940872 1.35056892 189.76940872 1.36076355 191.01315308 C1.24171158 191.66881256 1.12265961 192.32447205 1 193 C-12.57703069 202.0513538 -37.51376598 199.3011695 -52.625 196.3125 C-60.41600011 194.63280647 -67.72253101 192.27804361 -75 189 C-76.07894531 188.54173828 -76.07894531 188.54173828 -77.1796875 188.07421875 C-97.39365677 178.86022071 -113.79834778 159.74497819 -121.8125 139.3125 C-122.56101904 137.2151396 -123.29173034 135.11129237 -124 133 C-124.29648437 132.14792969 -124.59296875 131.29585937 -124.8984375 130.41796875 C-128.52765143 119.29676369 -129.36906727 107.88265413 -129.3125 96.25 C-129.30686035 95.02643799 -129.3012207 93.80287598 -129.29541016 92.54223633 C-128.95646133 67.14959984 -121.00519237 46.17164795 -104 27 C-103.06220703 25.93652344 -103.06220703 25.93652344 -102.10546875 24.8515625 C-77.22430229 -1.65342745 -34.38783122 -9.58963485 0 0 Z " fill="#000000" transform="translate(848,73)"/>
<path d="M0 0 C0.86512207 0.07839111 1.73024414 0.15678223 2.62158203 0.23754883 C3.4464209 0.32157959 4.27125977 0.40561035 5.12109375 0.4921875 C5.85642334 0.56550293 6.59175293 0.63881836 7.34936523 0.71435547 C9.5625 1.125 9.5625 1.125 14.5625 3.125 C14.5625 18.635 14.5625 34.145 14.5625 50.125 C1.5625 48.125 1.5625 48.125 -4.4375 47.125 C-19.74511424 46.28445518 -31.31944444 48.06718345 -43.125 58.5 C-53.64893127 70.44608414 -59.40792211 85.5597573 -58.7265625 101.7265625 C-56.78435169 117.84166302 -52.48221482 133.04983737 -39.484375 143.62890625 C-27.93514177 152.07042596 -14.25732565 152.91309148 -0.4375 151.125 C2.49012739 150.65348309 5.39136937 150.13797219 8.29296875 149.52734375 C10.5625 149.125 10.5625 149.125 14.5625 149.125 C14.5625 164.635 14.5625 180.145 14.5625 196.125 C-13.48379458 202.59722183 -42.63404327 202.48988634 -68.18359375 187.57421875 C-72.75701278 184.6335975 -77.1083037 181.41085322 -81.4375 178.125 C-82.984375 176.9803125 -82.984375 176.9803125 -84.5625 175.8125 C-103.6010356 158.01560802 -114.45388042 132.44100264 -115.5456543 106.5612793 C-116.20705263 77.03051859 -109.87694692 50.39289584 -89.4375 28.125 C-82.74903836 21.35715009 -75.69900834 15.8372093 -67.4375 11.125 C-66.66148438 10.67511719 -65.88546875 10.22523437 -65.0859375 9.76171875 C-45.02876377 -1.0718383 -22.24030265 -2.0896526 0 0 Z " fill="#000000" transform="translate(1868.4375,70.875)"/>
<path d="M0 0 C10.41150202 7.57200147 14.87623941 18.72180916 17.24609375 31.05859375 C18.82129192 43.37932979 18.22553524 55.05378798 14.75 67 C14.48316406 68.12664062 14.21632813 69.25328125 13.94140625 70.4140625 C10.16761596 85.54276846 2.02696147 100.24532562 -11.625 108.5 C-13.16311966 109.33986217 -14.70431383 110.17414601 -16.25 111 C-17.24 111.66 -18.23 112.32 -19.25 113 C-24.0609209 113.71211566 -28.10121091 113.55230245 -32.5 111.4375 C-44.25095944 101.02187686 -48.60859728 86.79454553 -49.60546875 71.33203125 C-50.56781162 47.55209394 -41.98571012 25.80790777 -26.4375 7.9140625 C-18.76890578 -0.19958406 -11.16600715 -3.43569451 0 0 Z " fill="#9D5D90" transform="translate(405.25,115)"/>
<path d="M0 0 C9.78291437 5.30062851 13.39352463 16.20984037 16.7421875 26.17578125 C22.38442931 45.3614203 17.05237107 70.88544034 7.7421875 88.17578125 C1.04207956 98.93487575 -7.16563616 108.54437666 -19.2578125 113.17578125 C-24.2754263 114.19246976 -28.57829002 114.01094961 -33.0078125 111.30078125 C-37.26310437 107.76808611 -39.74323635 103.0203775 -42.2578125 98.17578125 C-42.8146875 97.10328125 -43.3715625 96.03078125 -43.9453125 94.92578125 C-51.36945748 73.71393844 -50.19608742 50.76637988 -40.75756836 30.38671875 C-37.54941353 23.88266162 -33.64049511 17.93740546 -29.2578125 12.17578125 C-28.5153125 11.12390625 -27.7728125 10.07203125 -27.0078125 8.98828125 C-19.45244379 1.26119962 -10.83500509 -3.95533923 0 0 Z " fill="#9C5D8F" transform="translate(578.2578125,114.82421875)"/>
</svg>
