<?xml version="1.0" encoding="UTF-8"?>
<svg version="1.1" xmlns="http://www.w3.org/2000/svg" width="829" height="138">
<path d="M0 0 C6.97415644 -0.10178049 13.94811989 -0.17162496 20.92285156 -0.21972656 C23.29336709 -0.23978826 25.66383345 -0.26704426 28.03417969 -0.30175781 C31.44999351 -0.35051418 34.86515055 -0.37302399 38.28125 -0.390625 C39.33364868 -0.41127014 40.38604736 -0.43191528 41.47033691 -0.45318604 C47.83380247 -0.45510776 52.720466 0.27059845 58 4 C61.30171907 7.46680503 62.27061424 10.20126511 62.5 14.875 C62.29196468 19.79354945 61.09575924 24.10163651 58 28 C55.859375 29.21875 55.859375 29.21875 54 30 C54 30.66 54 31.32 54 32 C53.01 32 52.02 32 51 32 C51.763125 32.680625 52.52625 33.36125 53.3125 34.0625 C57.0677055 38.16702694 58.76012098 41.84108883 59.375 47.375 C58.59448966 54.91993327 56.38794033 60.61205967 51 66 C50.34 66 49.68 66 49 66 C49 66.66 49 67.32 49 68 C40.61543473 73.03073916 34.01032012 74.31019585 24.2578125 74.4140625 C22.57254959 74.44311172 22.57254959 74.44311172 20.85324097 74.4727478 C17.27723702 74.53235875 13.70120057 74.57885548 10.125 74.625 C7.69529874 74.66319674 5.26561077 74.70224946 2.8359375 74.7421875 C-3.10925667 74.83804515 -9.05453142 74.92314658 -15 75 C-16.21963778 70.89733388 -15.52610918 67.66425715 -14.59375 63.5703125 C-14.35350853 62.46771843 -14.35350853 62.46771843 -14.1084137 61.34284973 C-13.58112238 58.93485399 -13.04084305 56.529985 -12.5 54.125 C-12.13280707 52.46309897 -11.76619421 50.80106967 -11.40014648 49.13891602 C-7.77086231 32.72605336 -4.09060952 16.30458341 0 0 Z M21 19 C18.83577992 22.21142334 18 24.12446408 18 28 C20.58445773 28.1081866 23.16437352 28.18737237 25.75 28.25 C26.84441406 28.30027344 26.84441406 28.30027344 27.9609375 28.3515625 C31.51642 28.41620764 33.61021745 28.26694199 36.578125 26.234375 C38.25131222 24.1203846 38.25131222 24.1203846 37.75 21.75 C37.5025 21.1725 37.255 20.595 37 20 C31.50019317 18.49098271 26.59662511 17.20907997 21 19 Z M14 44 C13.67 45.2375 13.34 46.475 13 47.75 C12.814375 48.44609375 12.62875 49.1421875 12.4375 49.859375 C11.86650651 52.28901861 11.86650651 52.28901861 12 56 C14.7302389 56.1083667 17.45614543 56.18746694 20.1875 56.25 C20.95642578 56.28351562 21.72535156 56.31703125 22.51757812 56.3515625 C26.4961599 56.41986433 28.51154357 56.29715495 31.9921875 54.1796875 C34.50293463 51.4540126 34.92011916 49.67451848 35 46 C33.234465 43.82009873 33.234465 43.82009873 31.02880859 43.77294922 C29.8505249 43.78865967 29.8505249 43.78865967 28.6484375 43.8046875 C27.79765625 43.81113281 26.946875 43.81757812 26.0703125 43.82421875 C25.18085937 43.84097656 24.29140625 43.85773437 23.375 43.875 C22.02921875 43.88853516 22.02921875 43.88853516 20.65625 43.90234375 C18.43723414 43.9259503 16.21874923 43.9588769 14 44 Z " fill="#F48525" transform="translate(548,2)"/>
<path d="M0 0 C0.90862289 -0.00960754 1.81724579 -0.01921509 2.75340271 -0.02911377 C3.74493851 -0.03336365 4.7364743 -0.03761353 5.75805664 -0.04199219 C6.77613907 -0.04769226 7.7942215 -0.05339233 8.84315491 -0.05926514 C11.00789343 -0.06873752 13.17264651 -0.07525795 15.33740234 -0.07910156 C18.62306734 -0.08873482 21.90808747 -0.11970672 25.19360352 -0.15136719 C27.29841752 -0.15790434 29.40323599 -0.16315201 31.50805664 -0.16699219 C32.48137436 -0.17933899 33.45469208 -0.19168579 34.45750427 -0.20440674 C42.18244329 -0.17966448 49.64142784 0.5867286 55.73071289 5.66113281 C59.31840321 10.14574571 61.10626077 13.40565401 60.51977539 19.27050781 C58.8259919 28.53837972 54.11269848 34.54486712 46.73071289 40.16113281 C47.37008789 41.08925781 48.00946289 42.01738281 48.66821289 42.97363281 C54.29717923 51.67294444 51.49726512 63.31914975 50.73071289 73.16113281 C50.73071289 73.49113281 50.73071289 73.82113281 50.73071289 74.16113281 C42.81071289 74.16113281 34.89071289 74.16113281 26.73071289 74.16113281 C26.91821289 63.84863281 26.91821289 63.84863281 27.00097656 60.60913086 C27.01221558 59.34129761 27.01221558 59.34129761 27.02368164 58.04785156 C27.04724731 56.7517395 27.04724731 56.7517395 27.07128906 55.42944336 C26.9004064 53.10695248 26.9004064 53.10695248 25.43579102 51.37402344 C22.5977505 49.35521111 19.38532317 49.85193132 16.04321289 49.97363281 C15.34131836 49.98716797 14.63942383 50.00070313 13.91625977 50.01464844 C12.1874146 50.04993099 10.45896524 50.10373698 8.73071289 50.16113281 C8.51137085 51.14509033 8.51137085 51.14509033 8.28759766 52.14892578 C7.62550261 55.11193899 6.9594087 58.07403904 6.29321289 61.03613281 C6.06311523 62.06867187 5.83301758 63.10121094 5.59594727 64.16503906 C5.37358398 65.15117188 5.1512207 66.13730469 4.92211914 67.15332031 C4.61576538 68.52012939 4.61576538 68.52012939 4.30322266 69.91455078 C3.73071289 72.16113281 3.73071289 72.16113281 2.73071289 74.16113281 C-5.18928711 74.16113281 -13.10928711 74.16113281 -21.26928711 74.16113281 C-11.35510889 27.17654906 -11.35510889 27.17654906 -7.70678711 11.28613281 C-7.46814941 10.23828613 -7.22951172 9.19043945 -6.98364258 8.11083984 C-6.76724121 7.18126465 -6.55083984 6.25168945 -6.32788086 5.29394531 C-6.14539795 4.50906738 -5.96291504 3.72418945 -5.77490234 2.91552734 C-4.80421551 -0.45258256 -3.22915569 0.02747269 0 0 Z M14.73071289 19.16113281 C12.98125109 25.56328352 12.98125109 25.56328352 12.73071289 32.16113281 C15.29385788 32.24245469 17.85439707 32.30177456 20.41821289 32.34863281 C21.50005859 32.38633789 21.50005859 32.38633789 22.60375977 32.42480469 C27.19218163 32.48765978 30.10005763 32.02817033 33.73071289 29.16113281 C35.12502793 26.37250274 34.98731383 24.24034413 34.73071289 21.16113281 C31.68390228 19.12992574 31.12952965 18.91453406 27.71899414 18.96582031 C26.96166992 18.97226562 26.2043457 18.97871094 25.42407227 18.98535156 C24.63838867 19.00210937 23.85270508 19.01886719 23.04321289 19.03613281 C22.24592773 19.04515625 21.44864258 19.05417969 20.62719727 19.06347656 C18.66157389 19.08701696 16.69610514 19.12288734 14.73071289 19.16113281 Z " fill="#0B0B0B" transform="translate(255.269287109375,1.8388671875)"/>
<path d="M0 0 C1.09920273 0.00222061 2.19840546 0.00444122 3.33091736 0.00672913 C4.57212845 0.00680466 5.81333954 0.00688019 7.09216309 0.00695801 C8.45682311 0.01206541 9.82148274 0.01728142 11.18614197 0.02259827 C12.57476755 0.02446251 13.96339379 0.02588638 15.35202026 0.02688599 C19.01319686 0.03071065 22.67433402 0.04054048 26.335495 0.05158997 C30.06890835 0.06180519 33.80232805 0.06638384 37.53575134 0.07142639 C44.86584748 0.08216281 52.19591108 0.0992386 59.52598572 0.12025452 C58.84948461 7.15586606 57.29069085 13.061434 55.52598572 20.12025452 C42.65598572 20.12025452 29.78598572 20.12025452 16.52598572 20.12025452 C16.19598572 22.76025452 15.86598572 25.40025452 15.52598572 28.12025452 C26.74598572 28.12025452 37.96598572 28.12025452 49.52598572 28.12025452 C48.37475698 38.48131312 48.37475698 38.48131312 47.58848572 42.12025452 C47.35838806 43.23400452 47.35838806 43.23400452 47.12364197 44.37025452 C46.52598572 46.12025452 46.52598572 46.12025452 44.52598572 47.12025452 C41.97235967 47.2068402 39.44644152 47.23587968 36.89317322 47.21791077 C36.14133759 47.21649582 35.38950195 47.21508087 34.61488342 47.21362305 C32.21021062 47.20801917 29.80563045 47.19546608 27.40098572 47.18275452 C25.77208081 47.17774001 24.14317445 47.17317702 22.51426697 47.16908264 C18.51813745 47.15804849 14.5220773 47.1407813 10.52598572 47.12025452 C10.19598572 49.43025452 9.86598572 51.74025452 9.52598572 54.12025452 C22.39598572 54.12025452 35.26598572 54.12025452 48.52598572 54.12025452 C47.52598572 64.12025452 47.52598572 64.12025452 45.52598572 74.12025452 C24.07598572 74.12025452 2.62598572 74.12025452 -19.47401428 74.12025452 C-17.49401428 64.71525452 -17.49401428 64.71525452 -15.47401428 55.12025452 C-14.72053472 51.49567309 -13.96859592 47.8708578 -13.22010803 44.24525452 C-12.64442418 41.4699421 -12.0681529 38.69475206 -11.49183655 35.91957092 C-11.10203428 34.03927105 -10.71337908 32.15873306 -10.32582092 30.27796936 C-4.12424742 0.20046747 -4.12424742 0.20046747 0 0 Z " fill="#F3872A" transform="translate(702.4740142822266,1.8797454833984375)"/>
<path d="M0 0 C1.09920273 0.00222061 2.19840546 0.00444122 3.33091736 0.00672913 C4.57212845 0.00680466 5.81333954 0.00688019 7.09216309 0.00695801 C8.45682311 0.01206541 9.82148274 0.01728142 11.18614197 0.02259827 C12.57476755 0.02446251 13.96339379 0.02588638 15.35202026 0.02688599 C19.01319686 0.03071065 22.67433402 0.04054048 26.335495 0.05158997 C30.06890835 0.06180519 33.80232805 0.06638384 37.53575134 0.07142639 C44.86584748 0.08216281 52.19591108 0.0992386 59.52598572 0.12025452 C59.52598572 2.76025452 59.52598572 5.40025452 59.52598572 8.12025452 C58.86598572 8.12025452 58.20598572 8.12025452 57.52598572 8.12025452 C57.46539978 8.90271545 57.40481384 9.68517639 57.34239197 10.49134827 C57.21670837 12.00921936 57.21670837 12.00921936 57.08848572 13.55775452 C56.96666931 15.07175842 56.96666931 15.07175842 56.84239197 16.61634827 C56.52598572 19.12025452 56.52598572 19.12025452 55.52598572 20.12025452 C52.64164752 20.20890659 49.78136414 20.23546748 46.89707947 20.21791077 C45.60073326 20.21578835 45.60073326 20.21578835 44.27819824 20.21362305 C41.5065928 20.2080069 38.73506692 20.19545171 35.96348572 20.18275452 C34.08913792 20.17774159 32.21478887 20.17317833 30.34043884 20.16908264 C25.73559028 20.15803223 21.13080151 20.14075681 16.52598572 20.12025452 C16.19598572 22.76025452 15.86598572 25.40025452 15.52598572 28.12025452 C26.74598572 28.12025452 37.96598572 28.12025452 49.52598572 28.12025452 C49.52598572 32.9325361 49.42704415 36.49614622 48.52598572 41.05775452 C48.24754822 42.49441467 48.24754822 42.49441467 47.96348572 43.96009827 C47.81911072 44.67294983 47.67473572 45.38580139 47.52598572 46.12025452 C39.81445848 47.17674207 32.23932751 47.23649505 24.46348572 47.18275452 C23.21631775 47.1782428 21.96914978 47.17373108 20.68418884 47.16908264 C17.63140351 47.15738615 14.57872074 47.14099537 11.52598572 47.12025452 C10.86598572 49.76025452 10.20598572 52.40025452 9.52598572 55.12025452 C10.36548767 54.95799377 11.20498962 54.79573303 12.06993103 54.6285553 C15.70537363 54.09387096 19.14916018 53.99074486 22.82286072 53.98744202 C23.49770508 53.98648529 24.17254944 53.98552856 24.86784363 53.98454285 C26.28302606 53.98386655 27.6982117 53.98568217 29.11338806 53.98988342 C31.28354265 53.99527329 33.45349345 53.98990271 35.62364197 53.98353577 C37.00254867 53.98419599 38.38145525 53.985476 39.76036072 53.98744202 C41.01042908 53.98856995 42.26049744 53.98969788 43.54844666 53.99085999 C46.52598572 54.12025452 46.52598572 54.12025452 48.52598572 55.12025452 C48.40952097 56.78753936 48.2822881 58.45407252 48.15098572 60.12025452 C48.08137634 61.04837952 48.01176697 61.97650452 47.94004822 62.93275452 C47.44860168 66.71596563 46.45125852 70.41916329 45.52598572 74.12025452 C24.07598572 74.12025452 2.62598572 74.12025452 -19.47401428 74.12025452 C-18.15401428 68.18025452 -16.83401428 62.24025452 -15.47401428 56.12025452 C-14.3573693 50.07204449 -14.3573693 50.07204449 -13.24745178 44.02259827 C-12.35471321 39.51832639 -11.25691642 35.08827157 -10.10169983 30.64491272 C-8.22327767 23.33716406 -6.67999907 15.95785433 -5.13661194 8.57313538 C-4.93471252 7.62059875 -4.73281311 6.66806213 -4.52479553 5.68666077 C-4.34601868 4.8301593 -4.16724182 3.97365784 -3.98304749 3.09120178 C-3.23561445 0.1971841 -3.0553751 0.14851275 0 0 Z " fill="#F48628" transform="translate(628.4740142822266,1.8797454833984375)"/>
<path d="M0 0 C20.46 0 40.92 0 62 0 C63.702868 3.40573601 62.00098627 7.00924442 61.125 10.5625 C60.93808594 11.35591797 60.75117188 12.14933594 60.55859375 12.96679688 C59.13920135 18.86079865 59.13920135 18.86079865 58 20 C55.19023482 20.16017166 52.40226404 20.25950534 49.58984375 20.31640625 C48.32679161 20.3475779 48.32679161 20.3475779 47.03822327 20.37937927 C44.33806821 20.44496812 41.63781283 20.50380276 38.9375 20.5625 C37.11131759 20.60567637 35.28514546 20.64929036 33.45898438 20.69335938 C28.97276008 20.80065894 24.4864345 20.90189966 20 21 C19.34 23.31 18.68 25.62 18 28 C29.55 28 41.1 28 53 28 C51 40 51 40 49 47 C31.675 47.495 31.675 47.495 14 48 C13.34 50.31 12.68 52.62 12 55 C25.2 55 38.4 55 52 55 C50.68 61.27 49.36 67.54 48 74 C26.88 74 5.76 74 -16 74 C-13.74970491 60.49822948 -13.74970491 60.49822948 -12.59545898 55.26928711 C-12.33856796 54.09865219 -12.08167694 52.92801727 -11.81700134 51.72190857 C-11.54610184 50.50270218 -11.27520233 49.28349579 -10.99609375 48.02734375 C-10.71274673 46.74187149 -10.42939972 45.45639923 -10.13746643 44.13197327 C-9.5435053 41.43822311 -8.94750559 38.74493557 -8.34985352 36.05200195 C-7.58446082 32.60291133 -6.82328481 29.15290678 -6.06347561 25.70258236 C-5.3344652 22.39377452 -4.60273986 19.08556982 -3.87109375 15.77734375 C-3.59817001 14.53991928 -3.32524628 13.30249481 -3.04405212 12.02757263 C-2.79031326 10.88530716 -2.5365744 9.74304169 -2.27514648 8.56616211 C-2.0524559 7.56088974 -1.82976532 6.55561737 -1.60032654 5.5198822 C-1 3 -1 3 0 0 Z " fill="#0C0C0C" transform="translate(328,2)"/>
<path d="M0 0 C0 0.66 0 1.32 0 2 C1.32 2.66 2.64 3.32 4 4 C4 4.66 4 5.32 4 6 C4.66 6 5.32 6 6 6 C6.98204842 9.28128878 7.13412615 12.26975521 7.125 15.6875 C7.12886719 17.14736328 7.12886719 17.14736328 7.1328125 18.63671875 C7 21 7 21 6 22 C4.45044441 22.09899523 2.89646327 22.13079524 1.34375 22.1328125 C-0.06583984 22.13474609 -0.06583984 22.13474609 -1.50390625 22.13671875 C-2.49261719 22.13285156 -3.48132813 22.12898438 -4.5 22.125 C-5.48871094 22.12886719 -6.47742188 22.13273437 -7.49609375 22.13671875 C-8.43582031 22.13542969 -9.37554688 22.13414063 -10.34375 22.1328125 C-11.21193359 22.13168457 -12.08011719 22.13055664 -12.97460938 22.12939453 C-15 22 -15 22 -16 21 C-16.04063832 19.33382885 -16.042721 17.66611905 -16 16 C-18.94826763 15.01724412 -20.92652504 14.86585275 -24 14.875 C-24.86625 14.87242188 -25.7325 14.86984375 -26.625 14.8671875 C-29.15011695 14.90405795 -29.15011695 14.90405795 -32 16 C-31.89386164 18.45224694 -31.89386164 18.45224694 -31 21 C-27.42445552 22.78455103 -23.77389284 23.53176347 -19.875 24.3125 C-13.45627051 25.73645023 -7.84874444 28.0383407 -2 31 C-1.34 31.33 -0.68 31.66 0 32 C0 32.66 0 33.32 0 34 C0.66 34 1.32 34 2 34 C4.98377235 39.03660773 4.59710549 44.32055471 4 50 C2.9564013 53.49378694 1.61789826 56.73531244 0 60 C-0.66 60 -1.32 60 -2 60 C-2 60.66 -2 61.32 -2 62 C-2.66 62 -3.32 62 -4 62 C-4 62.66 -4 63.32 -4 64 C-4.66 64 -5.32 64 -6 64 C-6 64.66 -6 65.32 -6 66 C-6.99 66 -7.98 66 -9 66 C-9 66.66 -9 67.32 -9 68 C-10.155 68.61875 -11.31 69.2375 -12.5 69.875 C-13.1496875 70.22304687 -13.799375 70.57109375 -14.46875 70.9296875 C-21.73733144 74.00313089 -28.64318238 74.36484454 -36.4375 74.375 C-37.42298828 74.39949219 -38.40847656 74.42398438 -39.42382812 74.44921875 C-46.16054684 74.47600491 -51.09649428 73.25666123 -57 70 C-57 69.34 -57 68.68 -57 68 C-57.8971875 67.62875 -57.8971875 67.62875 -58.8125 67.25 C-61.8322053 65.52445412 -63.51578415 63.52511523 -64.57421875 60.19140625 C-65.06040811 57.68909221 -65.13252794 55.36070726 -65.125 52.8125 C-65.12757813 51.93207031 -65.13015625 51.05164062 -65.1328125 50.14453125 C-65 48 -65 48 -64 47 C-60.93343752 46.5912092 -57.83784868 46.48303656 -54.75 46.3125 C-53.89019531 46.25255859 -53.03039062 46.19261719 -52.14453125 46.13085938 C-43.70993782 45.65649472 -43.70993782 45.65649472 -40 48 C-38.6875 51.625 -38.6875 51.625 -38 55 C-31.02238162 55.86147274 -31.02238162 55.86147274 -24 56 C-24 55.34 -24 54.68 -24 54 C-23.34 54 -22.68 54 -22 54 C-22 52.02 -22 50.04 -22 48 C-27.14260936 45.66986128 -32.2533179 43.94991065 -37.6875 42.4375 C-46.59082059 39.95195761 -46.59082059 39.95195761 -50 38 C-50 37.34 -50 36.68 -50 36 C-50.99 36 -51.98 36 -53 36 C-56.32653753 30.73298224 -57.08558651 26.05908749 -56 20 C-54.29865599 15.81814573 -52.2558055 11.90737738 -50 8 C-49.34 8 -48.68 8 -48 8 C-48 7.34 -48 6.68 -48 6 C-47.34 6 -46.68 6 -46 6 C-46 5.34 -46 4.68 -46 4 C-45.01 4 -44.02 4 -43 4 C-43 3.34 -43 2.68 -43 2 C-30.74856019 -4.93477725 -12.76844366 -7.23545141 0 0 Z " fill="#F48628" transform="translate(822,4)"/>
<path d="M0 0 C4.87908984 3.34212496 7.51752319 7.46140801 8.84765625 13.265625 C9.15800108 18.64493534 9.15800108 18.64493534 7.84765625 21.265625 C0.58765625 21.265625 -6.67234375 21.265625 -14.15234375 21.265625 C-14.81234375 19.615625 -15.47234375 17.965625 -16.15234375 16.265625 C-17.80888061 14.60908814 -19.75885171 15.09456335 -22.02734375 15.078125 C-22.91164063 15.06394531 -23.7959375 15.04976562 -24.70703125 15.03515625 C-27.41001101 15.09494076 -27.41001101 15.09494076 -30.15234375 17.265625 C-29.88653094 19.23179352 -29.88653094 19.23179352 -29.15234375 21.265625 C-25.92176153 22.78202074 -22.71880787 23.79878972 -19.30419922 24.81640625 C-17.92271393 25.22829415 -16.54212707 25.64320487 -15.16235352 26.06079102 C-13.76627083 26.48081315 -12.36705889 26.89060558 -10.96459961 27.28881836 C-4.42623942 29.23609357 1.24498342 32.26117029 4.84765625 38.265625 C7.10224792 45.46577259 5.17843838 51.72025081 1.84765625 58.265625 C-3.34808086 66.63653479 -12.02750546 71.03678672 -21.33984375 73.640625 C-31.16483254 75.37971973 -44.08141077 75.97394956 -53.15234375 71.265625 C-57.37228744 68.30952231 -61.36943109 65.23483206 -63.15234375 60.265625 C-63.41496916 55.91654824 -63.23957673 51.62727414 -63.15234375 47.265625 C-55.23234375 47.265625 -47.31234375 47.265625 -39.15234375 47.265625 C-38.82234375 49.575625 -38.49234375 51.885625 -38.15234375 54.265625 C-34.9248732 56.41727203 -33.94728736 56.53807579 -30.21484375 56.515625 C-29.36019531 56.52078125 -28.50554687 56.5259375 -27.625 56.53125 C-24.87811353 56.23616583 -23.34255048 55.97075239 -21.15234375 54.265625 C-20.33649807 51.20654087 -20.33649807 51.20654087 -20.15234375 48.265625 C-20.8071875 48.04946533 -21.46203125 47.83330566 -22.13671875 47.6105957 C-25.14563054 46.6105469 -28.14890194 45.59447803 -31.15234375 44.578125 C-32.18230469 44.23845703 -33.21226562 43.89878906 -34.2734375 43.54882812 C-41.24289114 41.17388692 -47.65306396 38.53914481 -53.08984375 33.453125 C-55.7860258 27.90216196 -55.50061453 23.48495216 -53.65234375 17.765625 C-49.73873592 8.20637345 -44.16135514 3.74740572 -34.921875 -0.60546875 C-24.96354287 -4.66464786 -9.64145591 -4.82923012 0 0 Z " fill="#0B0B0B" transform="translate(519.15234375,3.734375)"/>
<path d="M0 0 C3.44473185 3.00795963 5.81148735 6.57008923 7 11 C7.32307692 17.35384615 7.32307692 17.35384615 6 20 C-1.26 20 -8.52 20 -16 20 C-16.495 17.03 -16.495 17.03 -17 14 C-18.93719378 13.94593878 -20.87481921 13.90717975 -22.8125 13.875 C-23.89144531 13.85179688 -24.97039062 13.82859375 -26.08203125 13.8046875 C-29.19402868 13.76976283 -29.19402868 13.76976283 -32 16 C-31.73418719 17.96616852 -31.73418719 17.96616852 -31 20 C-27.15266013 21.80589423 -23.26802653 22.92110399 -19.19140625 24.12109375 C-1.59773361 29.34693711 -1.59773361 29.34693711 3 35.8125 C5.17755256 42.75344879 4.19790892 48.02842002 1.30859375 54.546875 C-3.3071118 63.19960063 -9.96476449 67.49312243 -19 71 C-29.81280185 74.23610924 -44.72128603 75.42382324 -55 70 C-59.2188322 67.03966689 -63.21635573 63.97124615 -65 59 C-65.26262541 54.65092324 -65.08723298 50.36164914 -65 46 C-57.08 46 -49.16 46 -41 46 C-40.67 48.31 -40.34 50.62 -40 53 C-36.77252945 55.15164703 -35.79494361 55.27245079 -32.0625 55.25 C-31.20785156 55.25515625 -30.35320312 55.2603125 -29.47265625 55.265625 C-26.72576978 54.97054083 -25.19020673 54.70512739 -23 53 C-22.60723259 51.01081804 -22.26946175 49.00960232 -22 47 C-22.72590332 46.74831055 -23.45180664 46.49662109 -24.19970703 46.23730469 C-27.51124671 45.0835797 -30.81809132 43.91692906 -34.125 42.75 C-35.26710938 42.35425781 -36.40921875 41.95851562 -37.5859375 41.55078125 C-52.5011613 36.26107979 -52.5011613 36.26107979 -56 30 C-57.84158111 23.90861632 -56.58259171 18.29201132 -53.87890625 12.66796875 C-49.0170401 4.58322248 -41.28086409 -1.23395285 -32.09765625 -3.5625 C-21.74792341 -5.02425294 -9.03924102 -6.09492393 0 0 Z " fill="#0B0B0B" transform="translate(451,5)"/>
<path d="M0 0 C0.91184555 -0.0033284 1.8236911 -0.0066568 2.76316833 -0.01008606 C4.70091242 -0.0151624 6.63866529 -0.01749417 8.57641602 -0.01733398 C11.52179767 -0.01950414 14.46679489 -0.0376067 17.41210938 -0.05664062 C19.29557164 -0.05957779 21.17903568 -0.06156042 23.0625 -0.0625 C23.93677139 -0.06968552 24.81104279 -0.07687103 25.71180725 -0.08427429 C33.76803437 -0.05466276 40.49594643 0.99739702 46.99609375 6.16796875 C51.09270627 10.37837606 52.82499527 14.51786783 53.1015625 20.41796875 C52.69131365 29.89927539 48.46341344 38.29777349 41.55859375 44.73046875 C34.92651233 50.10301202 28.2353681 52.31556685 19.6953125 52.265625 C18.71884766 52.26240234 17.74238281 52.25917969 16.73632812 52.25585938 C15.72892578 52.24748047 14.72152344 52.23910156 13.68359375 52.23046875 C12.65685547 52.22595703 11.63011719 52.22144531 10.57226562 52.21679688 C8.04681493 52.20505059 5.5214847 52.1886244 2.99609375 52.16796875 C2.87492187 52.91820312 2.75375 53.6684375 2.62890625 54.44140625 C2.46132812 55.46492188 2.29375 56.4884375 2.12109375 57.54296875 C1.95867187 58.54070313 1.79625 59.5384375 1.62890625 60.56640625 C0.82974098 65.11474194 -0.09823984 69.63963671 -1.00390625 74.16796875 C-8.92390625 74.16796875 -16.84390625 74.16796875 -25.00390625 74.16796875 C-24.38901553 68.6339523 -23.79237326 63.64604258 -22.62109375 58.28710938 C-22.20561279 56.37097839 -22.20561279 56.37097839 -21.78173828 54.4161377 C-21.48100442 53.05211836 -21.18005547 51.68814644 -20.87890625 50.32421875 C-20.5685515 48.90464642 -20.25849799 47.4850082 -19.94873047 46.06530762 C-19.30275131 43.10961492 -18.65356074 40.15465212 -18.00195312 37.20019531 C-17.16562361 33.40720945 -16.33685196 29.61261892 -15.51034546 25.81748199 C-14.87315307 22.89505573 -14.23234876 19.97343101 -13.59039307 17.05204773 C-13.28313467 15.65198204 -12.97693869 14.25168276 -12.67181396 12.85115051 C-12.24708559 10.90452726 -11.8170399 8.95906643 -11.38671875 7.01367188 C-11.02151123 5.35229187 -11.02151123 5.35229187 -10.64892578 3.65734863 C-9.27303333 -1.65275256 -4.65083838 0.00582544 0 0 Z M9.99609375 20.16796875 C9.00609375 24.78796875 8.01609375 29.40796875 6.99609375 34.16796875 C10.30640625 34.22984375 10.30640625 34.22984375 13.68359375 34.29296875 C14.92496094 34.31617188 16.16632813 34.339375 17.4453125 34.36328125 C21.56574105 34.13663501 24.38140045 33.22587125 27.80859375 30.98046875 C29.72708551 28.05224449 29.36571639 25.55617627 28.99609375 22.16796875 C25.20446348 19.64021524 22.18735344 19.9435384 17.80859375 20.04296875 C16.68420898 20.05650391 16.68420898 20.05650391 15.53710938 20.0703125 C13.68996721 20.09384297 11.84298963 20.12971314 9.99609375 20.16796875 Z " fill="#0A0A0A" transform="translate(186.00390625,1.83203125)"/>
<path d="M0 0 C4.27047833 -0.14486019 8.54032833 -0.23392616 12.8125 -0.3125 C14.63491211 -0.3753418 14.63491211 -0.3753418 16.49414062 -0.43945312 C18.23920898 -0.46362305 18.23920898 -0.46362305 20.01953125 -0.48828125 C21.62985229 -0.52755737 21.62985229 -0.52755737 23.27270508 -0.56762695 C26 0 26 0 27.80078125 2.35620117 C29.03932483 5.08669555 30.1730092 7.80308307 31.1875 10.625 C31.53167969 11.56601563 31.87585938 12.50703125 32.23046875 13.4765625 C33 16 33 16 33 19 C36.82744817 15.33776542 40.07308504 11.48271604 43.25 7.25 C47.92567568 1.07432432 47.92567568 1.07432432 49 0 C50.85369611 -0.08737645 52.71067541 -0.10698153 54.56640625 -0.09765625 C55.69111328 -0.09443359 56.81582031 -0.09121094 57.97460938 -0.08789062 C59.15861328 -0.07951172 60.34261719 -0.07113281 61.5625 -0.0625 C62.75037109 -0.05798828 63.93824219 -0.05347656 65.16210938 -0.04882812 C68.10812226 -0.03699675 71.05403681 -0.02051287 74 0 C73.1912927 3.91573823 71.80372759 5.49004654 68.875 8.25 C65.40517781 11.60543244 62.15746798 15.01117802 59.04296875 18.6953125 C57.36334355 20.59010957 55.6467488 22.38514251 53.86328125 24.1796875 C53.31003174 24.74719727 52.75678223 25.31470703 52.18676758 25.89941406 C51.07938336 27.03228303 49.95838219 28.15203064 48.82299805 29.25683594 C47.04775613 31.01807767 47.04775613 31.01807767 45 34 C45.27956849 38.78887349 46.99239659 42.47027885 49.125 46.71875 C49.58543701 47.65019836 49.58543701 47.65019836 50.05517578 48.60046387 C51.02937009 50.57076814 52.01336409 52.53589945 53 54.5 C54.3007282 57.08936549 55.59091824 59.6835964 56.875 62.28125 C57.44992188 63.42658203 58.02484375 64.57191406 58.6171875 65.75195312 C60 69 60 69 61 75 C47.14 74.505 47.14 74.505 33 74 C30.36 67.4 27.72 60.8 25 54 C23.123125 56.18625 21.24625 58.3725 19.3125 60.625 C18.73153564 61.30127441 18.15057129 61.97754883 17.55200195 62.67431641 C17.07722412 63.22780762 16.60244629 63.78129883 16.11328125 64.3515625 C15.30661011 65.26349365 15.30661011 65.26349365 14.48364258 66.19384766 C12.77578297 68.17883349 12.77578297 68.17883349 10.96875 71.4375 C6.0395949 75.69213914 0.44914401 74.62766851 -5.8125 74.375 C-7.71032227 74.33439453 -7.71032227 74.33439453 -9.64648438 74.29296875 C-12.7660547 74.22233697 -15.88215841 74.12373646 -19 74 C-15.76167484 69.54277389 -12.5610234 65.31510489 -8.5625 61.5 C-5.21425052 58.22961678 -2.08452324 54.87875696 0.9609375 51.328125 C5.52562256 46.11633899 10.28665395 41.07710182 15 36 C13.47279236 31.01895353 11.42943668 26.43606672 9.1875 21.75 C8.83365234 21.00218262 8.47980469 20.25436523 8.11523438 19.48388672 C5.77873909 14.56511728 3.36144461 9.69562239 0.8125 4.8828125 C0 3 0 3 0 0 Z " fill="#0B0B0B" transform="translate(95,2)"/>
<path d="M0 0 C4.69543315 -0.62987518 8.51168371 -0.61331185 13 1 C16.23822878 5.21621733 18.0267375 9.748774 19.98925781 14.65820312 C22.05260262 19.43878367 24.76826942 23.91756016 27.38378906 28.4140625 C30.14241043 33.41840777 30.14241043 33.41840777 29.44140625 36.28125 C27.96422004 38.04266445 26.4859466 39.67228833 24.8125 41.25 C22.38480664 43.60818885 20.07980782 45.99480611 17.875 48.5625 C13.961643 53.10447317 9.88699429 57.49360597 5.75268555 61.8347168 C2.72115309 65.03759107 0.15783375 68.21186657 -2.3125 71.875 C-4.01966906 73.93235758 -5.19221006 74.86102079 -7.84472656 75.31738281 C-12.59317508 75.67193944 -17.26323873 75.40941994 -22 75 C-22 72 -22 72 -20.27734375 70.01953125 C-19.50519531 69.29121094 -18.73304687 68.56289062 -17.9375 67.8125 C-14.36624571 64.42438695 -11.11957465 60.87842133 -7.90258789 57.16088867 C-3.93560294 52.65533448 0.2496595 48.34889743 4.390625 44.00390625 C5.07125 43.28589844 5.751875 42.56789062 6.453125 41.828125 C7.06317383 41.1877832 7.67322266 40.54744141 8.30175781 39.88769531 C8.86217773 39.26475586 9.42259766 38.64181641 10 38 C10.5887793 37.36416992 11.17755859 36.72833984 11.78417969 36.07324219 C13.22149123 34.05870197 13.22149123 34.05870197 12.87353516 31.62939453 C11.8498527 28.54804738 10.52824662 25.80824028 9.0234375 22.9296875 C8.435625 21.78628906 7.8478125 20.64289062 7.2421875 19.46484375 C6.30619651 17.66140905 5.36700554 15.85974568 4.42382812 14.06005859 C3.51100539 12.31269573 2.61077364 10.55877337 1.7109375 8.8046875 C1.16743652 7.76296387 0.62393555 6.72124023 0.06396484 5.64794922 C-1 3 -1 3 0 0 Z " fill="#151515" transform="translate(70,2)"/>
<path d="M0 0 C10.18497235 -1.33492356 10.18497235 -1.33492356 13.81640625 1.3359375 C15.5244957 3.79831147 16.74053129 6.274431 18 9 C18.74850522 10.55150328 19.4986487 12.10221675 20.25 13.65234375 C22.21451784 17.73613099 24.11274986 21.84755769 26.00146484 25.96679688 C27.04231417 28.18724308 27.04231417 28.18724308 28.83203125 30.828125 C30 33 30 33 30 34.9609375 C28.5195304 37.97970754 26.30787377 40.22754505 24 42.625 C22.98783239 43.70140101 21.97611945 44.77822974 20.96484375 45.85546875 C20.46065918 46.38833496 19.95647461 46.92120117 19.43701172 47.47021484 C17.44232245 49.5936812 15.50174429 51.76341145 13.5625 53.9375 C9.94653851 57.96540647 6.29452185 61.95845379 2.625 65.9375 C1.85651733 66.77172485 1.85651733 66.77172485 1.07250977 67.62280273 C-0.27992148 69.08657106 -1.63961942 70.54361659 -3 72 C-3.44214844 72.61617188 -3.88429688 73.23234375 -4.33984375 73.8671875 C-7.27355174 75.86901177 -10.7682746 75.3039627 -14.1875 75.1875 C-14.93708984 75.17396484 -15.68667969 75.16042969 -16.45898438 75.14648438 C-18.30629767 75.11118539 -20.15324066 75.05737917 -22 75 C-20.54604538 71.72306675 -18.7318044 69.38588974 -16.3125 66.75 C-15.11367187 65.44095703 -15.11367187 65.44095703 -13.890625 64.10546875 C-9.81666144 59.71712038 -5.71678384 55.35284387 -1.61425781 50.99121094 C3.65540724 45.38501381 8.85161709 39.71773349 14 34 C12.71562003 29.87734585 11.16761313 26.13542996 9.1796875 22.3046875 C8.64472656 21.25925781 8.10976563 20.21382812 7.55859375 19.13671875 C6.43136909 16.95288443 5.30113321 14.7706019 4.16796875 12.58984375 C3.63558594 11.54699219 3.10320313 10.50414062 2.5546875 9.4296875 C1.81968018 8.01018799 1.81968018 8.01018799 1.06982422 6.56201172 C0 4 0 4 0 0 Z " fill="#121212" transform="translate(22,2)"/>
<path d="M0 0 C4.8059985 -0.866285 8.43991831 -0.84622776 13 1 C17.13835408 5.70193256 19.42862087 11.8140691 21.88769531 17.50585938 C22.91629798 19.81231347 24.03375659 22.01802952 25.2421875 24.234375 C25.58330566 24.86512939 25.92442383 25.49588379 26.27587891 26.14575195 C26.59733887 26.73702881 26.91879883 27.32830566 27.25 27.9375 C30.17600386 33.36873283 30.17600386 33.36873283 29.4140625 36.1015625 C27.75216901 38.33272337 26.01058083 40.38960727 24.125 42.4375 C22.9184375 43.75427734 22.9184375 43.75427734 21.6875 45.09765625 C20.3571875 46.53431641 20.3571875 46.53431641 19 48 C18.04140744 49.04012574 17.08308114 50.08049691 16.125 51.12109375 C14.11193462 53.3057647 12.09594629 55.48769028 10.078125 57.66796875 C6.0946093 61.97498652 2.13748837 66.30608157 -1.8203125 70.63671875 C-5.83666587 74.99136712 -5.83666587 74.99136712 -9.6953125 75.1953125 C-11.17200108 75.182009 -12.64862358 75.15814835 -14.125 75.125 C-14.87910156 75.11597656 -15.63320313 75.10695313 -16.41015625 75.09765625 C-18.27357254 75.0740687 -20.13682593 75.03819719 -22 75 C-20.53719693 71.69376652 -18.69091617 69.34406102 -16.25 66.6875 C-15.04730469 65.37458984 -15.04730469 65.37458984 -13.8203125 64.03515625 C-12.88116837 63.02254627 -11.94099228 62.01089277 -11 61 C-10.46729492 60.42749512 -9.93458984 59.85499023 -9.38574219 59.26513672 C-7.03549712 56.74202016 -4.68293 54.22110495 -2.32666016 51.70361328 C3.1590479 45.84194699 8.58870899 39.93033321 14 34 C12.66686158 29.6891565 10.99751301 25.80261421 8.92578125 21.796875 C8.34119141 20.6521875 7.75660156 19.5075 7.15429688 18.328125 C6.22881397 16.52707843 5.30079649 14.72742266 4.36889648 12.9296875 C3.46431405 11.18062307 2.56987546 9.42632401 1.67578125 7.671875 C1.13864502 6.6312793 0.60150879 5.59068359 0.0480957 4.51855469 C-0.29777588 3.68743164 -0.64364746 2.85630859 -1 2 C-0.67 1.34 -0.34 0.68 0 0 Z " fill="#131313" transform="translate(46,2)"/>
<path d="M0 0 C2.359375 1.0703125 2.359375 1.0703125 4 2 C4 2.66 4 3.32 4 4 C5.32 4.66 6.64 5.32 8 6 C8 6.66 8 7.32 8 8 C8.66 8 9.32 8 10 8 C10.98204842 11.28128878 11.13412615 14.26975521 11.125 17.6875 C11.12886719 19.14736328 11.12886719 19.14736328 11.1328125 20.63671875 C11 23 11 23 10 24 C8.45044441 24.09899523 6.89646327 24.13079524 5.34375 24.1328125 C3.93416016 24.13474609 3.93416016 24.13474609 2.49609375 24.13671875 C1.50738281 24.13285156 0.51867187 24.12898438 -0.5 24.125 C-1.48871094 24.12886719 -2.47742188 24.13273437 -3.49609375 24.13671875 C-4.90568359 24.13478516 -4.90568359 24.13478516 -6.34375 24.1328125 C-7.21193359 24.13168457 -8.08011719 24.13055664 -8.97460938 24.12939453 C-11 24 -11 24 -12 23 C-12 21.35 -12 19.7 -12 18 C-17.94 17.01 -17.94 17.01 -24 16 C-23.67 15.34 -23.34 14.68 -23 14 C-20.93359375 13.5859375 -20.93359375 13.5859375 -18.4375 13.375 C-17.19806641 13.26285156 -17.19806641 13.26285156 -15.93359375 13.1484375 C-14.97646484 13.07496094 -14.97646484 13.07496094 -14 13 C-14 12.01 -14 11.02 -14 10 C-13.34 10 -12.68 10 -12 10 C-12 7.03 -12 4.06 -12 1 C-15.96 0.67 -19.92 0.34 -24 0 C-16.47475656 -3.76262172 -7.97475055 -1.84558513 0 0 Z " fill="#F38C32" transform="translate(818,2)"/>
<path d="M0 0 C13.2 0 26.4 0 40 0 C40 10 40 10 37.7734375 12.578125 C32.83546328 15.05727255 27.01961798 14.68010507 21.625 14.75 C20.50738281 14.77964844 19.38976562 14.80929688 18.23828125 14.83984375 C15.4921161 14.91025824 12.74678596 14.96309623 10 15 C10 14.01 10 13.02 10 12 C8.68 12 7.36 12 6 12 C6 12.66 6 13.32 6 14 C5.34 14 4.68 14 4 14 C4 13.34 4 12.68 4 12 C2.68 12 1.36 12 0 12 C0 11.34 0 10.68 0 10 C0.66 10 1.32 10 2 10 C2 9.34 2 8.68 2 8 C2.66 8 3.32 8 4 8 C4 6.68 4 5.36 4 4 C2.68 4 1.36 4 0 4 C0 2.68 0 1.36 0 0 Z " fill="#F5821F" transform="translate(710,32)"/>
<path d="M0 0 C4.83766699 0.41465717 6.85646376 2.4198615 10 6 C12.14568911 10.29137821 11.67325326 15.88605453 10.24609375 20.3671875 C8.3925246 24.33600615 7.13517757 26.26253043 3 28 C3.33 26.02 3.66 24.04 4 22 C3.01 22 2.02 22 1 22 C1 22.66 1 23.32 1 24 C0.34 24 -0.32 24 -1 24 C-1 22.68 -1 21.36 -1 20 C-1.9075 20.495 -2.815 20.99 -3.75 21.5 C-7 23 -7 23 -11 23 C-11.144375 23.639375 -11.28875 24.27875 -11.4375 24.9375 C-12 27 -12 27 -13 28 C-14.4887186 28.08669432 -15.981445 28.10703494 -17.47265625 28.09765625 C-18.37177734 28.09443359 -19.27089844 28.09121094 -20.19726562 28.08789062 C-21.14279297 28.07951172 -22.08832031 28.07113281 -23.0625 28.0625 C-24.01189453 28.05798828 -24.96128906 28.05347656 -25.93945312 28.04882812 C-28.29303065 28.0370011 -30.64648477 28.02052025 -33 28 C-33 27.34 -33 26.68 -33 26 C-31.87980469 25.93941406 -30.75960937 25.87882812 -29.60546875 25.81640625 C-28.13280016 25.73198576 -26.66014456 25.64733851 -25.1875 25.5625 C-24.08051758 25.50352539 -24.08051758 25.50352539 -22.95117188 25.44335938 C-19.76928658 25.25618965 -17.03837622 25.01279207 -14 24 C-14 22.35 -14 20.7 -14 19 C-16.31 18.34 -18.62 17.68 -21 17 C-19.68 16.67 -18.36 16.34 -17 16 C-16.87625 15.38125 -16.7525 14.7625 -16.625 14.125 C-16 12 -16 12 -14 10 C-13.3574765 7.93125966 -13.3574765 7.93125966 -13 6 C-12.01 6 -11.02 6 -10 6 C-9.67 6.99 -9.34 7.98 -9 9 C-8.34 9.33 -7.68 9.66 -7 10 C-7 10.66 -7 11.32 -7 12 C-5.68 12 -4.36 12 -3 12 C-2.34 12 -1.68 12 -1 12 C-1 10.68 -1 9.36 -1 8 C-2.32 7.67 -3.64 7.34 -5 7 C-4 6 -4 6 -1.93359375 5.90234375 C-0.69802734 5.91974609 -0.69802734 5.91974609 0.5625 5.9375 C1.38878906 5.94652344 2.21507812 5.95554687 3.06640625 5.96484375 C3.70449219 5.97644531 4.34257813 5.98804688 5 6 C3.74458443 3.48916886 2.49936512 3.12874554 0 2 C0 1.34 0 0.68 0 0 Z " fill="#F38525" transform="translate(599,4)"/>
<path d="M0 0 C2.63804589 -0.39397335 2.63804589 -0.39397335 5 -1 C4.24511422 3.06563116 3.46832222 7.12677701 2.6875 11.1875 C2.47416016 12.33798828 2.26082031 13.48847656 2.04101562 14.67382812 C1.82509766 15.78564453 1.60917969 16.89746094 1.38671875 18.04296875 C1.19295654 19.06414795 0.99919434 20.08532715 0.79956055 21.13745117 C-0.23997283 24.85913937 -1.61161401 27.95871051 -4.75 30.3125 C-9.09549115 31.64028896 -12.71012324 31.56081598 -16.875 29.75 C-19.19330344 27.84080893 -19.69611836 26.93752254 -20 24 C-18.68 23.67 -17.36 23.34 -16 23 C-15.34 23.99 -14.68 24.98 -14 26 C-12.02252878 26.36297936 -12.02252878 26.36297936 -9.875 26.1875 C-8.59625 26.125625 -7.3175 26.06375 -6 26 C-5.67 24.35 -5.34 22.7 -5 21 C-5.66 21.33 -6.32 21.66 -7 22 C-10.99390436 22.53252058 -12.51741242 22.35389756 -15.8125 19.9375 C-18.48667377 16.34646665 -19.07588182 14.47702742 -19 10 C-17.4602193 5.35499489 -15.4078148 1.41718876 -11 -1 C-6.82518761 -2.39160413 -4.09766916 -1.36588972 0 0 Z M-10.625 4 C-13.75676117 7.95590885 -14 9.9897146 -14 15 C-13.12129086 17.212981 -13.12129086 17.212981 -11 18 C-7.94729537 18.15811388 -7.94729537 18.15811388 -5 17 C-2.44162261 14.10050563 -2.02380046 12.23007116 -1.625 8.375 C-1.72565358 5.08092144 -1.72565358 5.08092144 -3.3125 3.0625 C-6.44638335 1.08931419 -7.80269656 1.84967357 -10.625 4 Z " fill="#2F2F2F" transform="translate(562,107)"/>
<path d="M0 0 C3.49266475 1.30974928 4.64406251 2.70679399 6.5 5.9375 C7.12409585 11.55436269 6.68169427 15.1101018 3.5 19.9375 C0.53281473 23.06952889 -0.85473401 23.87187973 -5.1875 24.3125 C-8.5 23.9375 -8.5 23.9375 -10.5 21.9375 C-10.67015625 22.64777344 -10.8403125 23.35804688 -11.015625 24.08984375 C-11.25796875 25.00894531 -11.5003125 25.92804688 -11.75 26.875 C-11.98203125 27.79152344 -12.2140625 28.70804688 -12.453125 29.65234375 C-13.5 31.9375 -13.5 31.9375 -15.609375 32.75390625 C-16.23328125 32.81449219 -16.8571875 32.87507813 -17.5 32.9375 C-18.99130596 29.95488807 -18.02284594 27.91562532 -17.3203125 24.6875 C-17.05089844 23.4396875 -16.78148437 22.191875 -16.50390625 20.90625 C-16.28758545 19.92978516 -16.28758545 19.92978516 -16.06689453 18.93359375 C-15.62706819 16.94684227 -15.19743825 14.958099 -14.76953125 12.96875 C-12.64709249 3.23168498 -12.64709249 3.23168498 -11.5 0.9375 C-10.7575 1.14375 -10.015 1.35 -9.25 1.5625 C-6.54447912 2.19472358 -6.54447912 2.19472358 -4.5 0.9375 C-2.5 -0.0625 -2.5 -0.0625 0 0 Z M-3.5 3.9375 C-7.41603304 6.73170492 -7.41603304 6.73170492 -9.5 10.9375 C-9.8053818 15.592297 -9.8053818 15.592297 -8.5 19.9375 C-5.66848027 20.35559201 -5.66848027 20.35559201 -2.5 19.9375 C0.21568468 17.72207303 1.37689279 16.12488889 1.7421875 12.6015625 C1.74924256 10.36510718 1.67482975 8.16657932 1.5 5.9375 C-0.975 4.9475 -0.975 4.9475 -3.5 3.9375 Z " fill="#363636" transform="translate(689.5,105.0625)"/>
<path d="M0 0 C1.32 0 2.64 0 4 0 C3.71817692 10.93985957 0.66596627 21.45217424 -2 32 C-2.763125 31.81179687 -3.52625 31.62359375 -4.3125 31.4296875 C-7.10257899 30.75642128 -7.10257899 30.75642128 -10 32.125 C-13 33 -13 33 -15.75 31.8125 C-18.22569411 29.81819085 -19.80024693 28.19851842 -20.3359375 24.984375 C-20.43868708 19.10709925 -19.58703406 15.71978166 -16 11 C-12.86147803 8.86313397 -11.11279186 7.92236336 -7.3125 8.1875 C-5 9 -5 9 -2 11 C-1.90912109 10.06027344 -1.90912109 10.06027344 -1.81640625 9.1015625 C-1.73261719 8.28429687 -1.64882813 7.46703125 -1.5625 6.625 C-1.48128906 5.81289062 -1.40007812 5.00078125 -1.31640625 4.1640625 C-1 2 -1 2 0 0 Z M-12.125 13.875 C-14.85322855 16.96699236 -15.12009319 18.59347643 -15.0625 22.625 C-15.05347656 23.44226563 -15.04445313 24.25953125 -15.03515625 25.1015625 C-15.02355469 25.72804688 -15.01195312 26.35453125 -15 27 C-13.15036319 28.12821214 -13.15036319 28.12821214 -11 29 C-8.2159359 27.80682967 -6.50903996 26.67871995 -4.6875 24.25 C-3.7048254 21.03397403 -3.6964552 18.33899283 -4 15 C-5.16884106 12.99515224 -5.16884106 12.99515224 -7 12 C-10.09740541 11.66918918 -10.09740541 11.66918918 -12.125 13.875 Z " fill="#313131" transform="translate(354,97)"/>
<path d="M0 0 C2.88947486 3.02739729 3.43170683 5.23867741 3.4375 9.375 C3.30509073 14.33372709 2.39121155 17.22122141 -1 21 C-3.99738941 22.99825961 -4.63347508 23.27550398 -8 23.25 C-9.0209375 23.25773437 -9.0209375 23.25773437 -10.0625 23.265625 C-12 23 -12 23 -15 21 C-15.33 24.3 -15.66 27.6 -16 31 C-18.475 31.495 -18.475 31.495 -21 32 C-20.34941146 24.82856996 -19.01874321 17.95786552 -17.4375 10.9375 C-17.20353516 9.88111328 -16.96957031 8.82472656 -16.72851562 7.73632812 C-16.15653688 5.15658727 -15.58028727 2.57788225 -15 0 C-13.57073581 -0.1740843 -12.14094051 -0.34381149 -10.7109375 -0.51171875 C-9.51670166 -0.65420044 -9.51670166 -0.65420044 -8.29833984 -0.79956055 C-5.29715575 -1.06129543 -2.88264121 -0.89224609 0 0 Z M-9.625 5 C-12.78227065 8.98813134 -13.08039733 10.93496836 -13 16 C-11.22845348 18.52590848 -11.22845348 18.52590848 -9 20 C-6.54368999 19.50452457 -6.54368999 19.50452457 -4 18 C-1.877176 14.3204384 -0.94634396 11.94792344 -1.1875 7.6875 C-1.8055366 4.87964913 -1.8055366 4.87964913 -4 3 C-7.15229992 2.69697839 -7.15229992 2.69697839 -9.625 5 Z " fill="#303030" transform="translate(663,106)"/>
<path d="M0 0 C2.66930125 3.1636163 2.7278999 6.94385053 2.6875 11 C1.6875 12 1.6875 12 -1.91015625 12.09765625 C-3.39846867 12.0909822 -4.88676432 12.07902183 -6.375 12.0625 C-7.51291992 12.05573242 -7.51291992 12.05573242 -8.67382812 12.04882812 C-10.55341871 12.0370068 -12.43296899 12.01907078 -14.3125 12 C-13.53119929 14.49552484 -13.53119929 14.49552484 -12.3125 17 C-11.3225 17.33 -10.3325 17.66 -9.3125 18 C-7.63041365 17.02616054 -5.96511839 16.02304948 -4.3125 15 C-1.5 14.3125 -1.5 14.3125 0.6875 14 C0.37775617 16.89094238 -0.35420446 18.04691751 -2.3125 20.25 C-6.35349177 22.6072452 -9.73222839 22.87324805 -14.3125 22 C-16.81410818 20.12379387 -17.93195652 18.76108697 -19.3125 16 C-19.80727502 9.56792471 -18.50650655 5.61865298 -14.375 0.6875 C-9.82004679 -3.0392799 -5.23716385 -2.2647195 0 0 Z M-11.125 3.8125 C-11.846875 4.534375 -12.56875 5.25625 -13.3125 6 C-13.3125 6.66 -13.3125 7.32 -13.3125 8 C-9.6825 8 -6.0525 8 -2.3125 8 C-2.6425 6.35 -2.9725 4.7 -3.3125 3 C-6.88210946 1.7761339 -7.86773589 1.71337424 -11.125 3.8125 Z " fill="#3F3F3F" transform="translate(767.3125,107)"/>
<path d="M0 0 C2.62024761 1.72384711 3.73944561 2.94547279 4.49609375 6.0078125 C4.8125 8.1875 4.8125 8.1875 5 12 C2.94077598 14.05922402 -1.21708124 13.41427579 -4.0625 13.5625 C-5.20041992 13.62727539 -5.20041992 13.62727539 -6.36132812 13.69335938 C-8.24065438 13.79973633 -10.12030244 13.90039934 -12 14 C-11.67 15.32 -11.34 16.64 -11 18 C-8.48910624 18.89674777 -7.35464891 19.13172674 -4.8125 18.1875 C-2.84977807 17.11878013 -2.84977807 17.11878013 -2 15 C-0.35 15 1.3 15 3 15 C1.7345464 18.90181526 0.59658191 20.94481034 -3 23 C-6.58963522 24.35824036 -7.97459115 24.00861317 -11.6875 22.75 C-15 21 -15 21 -17 18 C-17.7556891 13.4658654 -17.47811031 9.24359102 -15.375 5.125 C-11.02352336 -0.60062715 -6.93803819 -1.92723283 0 0 Z M-9.375 4.8125 C-11.19877467 6.81340984 -11.19877467 6.81340984 -11 9 C-7.37 9 -3.74 9 0 9 C-0.33 7.35 -0.66 5.7 -1 4 C-5.46555153 2.695104 -5.46555153 2.695104 -9.375 4.8125 Z " fill="#202020" transform="translate(467,106)"/>
<path d="M0 0 C2.4375 2.0625 2.4375 2.0625 4 5 C4 7.64 4 10.28 4 13 C-1.61 13 -7.22 13 -13 13 C-12.34 14.65 -11.68 16.3 -11 18 C-10.01 18.33 -9.02 18.66 -8 19 C-5.79192337 17.84338843 -3.77322566 16.77322566 -2 15 C-0.33382885 14.95936168 1.33388095 14.957279 3 15 C0.56976694 19.49593116 -1.51355215 22.17118405 -6.4375 23.8125 C-10.22409364 24.08956783 -12.6135187 22.89130941 -15.75 20.875 C-17.81180896 17.78228656 -18.21942467 14.62696067 -18 11 C-16.52298843 6.3366264 -14.3965643 2.41101913 -10 0 C-6.16652698 -1.27782434 -3.91272241 -0.96101954 0 0 Z M-9.8125 5.375 C-12.1066974 7.55853951 -12.1066974 7.55853951 -12 9 C-8.04 9 -4.08 9 0 9 C-1.35209171 3.99468773 -1.35209171 3.99468773 -4.3125 2.875 C-7.27026884 2.73920548 -7.27026884 2.73920548 -9.8125 5.375 Z " fill="#262626" transform="translate(381,106)"/>
<path d="M0 0 C1.32 0.33 2.64 0.66 4 1 C3.67 3.97 3.34 6.94 3 10 C4.32 9.34 5.64 8.68 7 8 C12.43478261 8.43478261 12.43478261 8.43478261 15 11 C15.34945017 16.04830687 14.62291072 20.52476562 13.5 25.4375 C13.2215625 26.67371094 12.943125 27.90992188 12.65625 29.18359375 C12.4396875 30.11300781 12.223125 31.04242188 12 32 C10.35 32 8.7 32 7 32 C7.144375 30.906875 7.28875 29.81375 7.4375 28.6875 C8.09310693 23.470742 8.54748223 18.23765253 9 13 C6.46755843 13.34222183 4.48790382 13.68496653 2.32421875 15.08203125 C0.30247677 18.01027701 -0.36876506 21.27557347 -1.1875 24.6875 C-1.36474609 25.38939453 -1.54199219 26.09128906 -1.72460938 26.81445312 C-2.15909219 28.5406416 -2.58080792 30.2700347 -3 32 C-4.32 32 -5.64 32 -7 32 C-6.55572179 25.22475727 -5.43429986 18.7014345 -4.0625 12.0625 C-3.89266602 11.22162842 -3.72283203 10.38075684 -3.54785156 9.5144043 C-3.29406738 8.31811401 -3.29406738 8.31811401 -3.03515625 7.09765625 C-2.8844165 6.38101807 -2.73367676 5.66437988 -2.57836914 4.92602539 C-2 3 -2 3 0 0 Z " fill="#2E2E2E" transform="translate(592,97)"/>
<path d="M0 0 C3 2 3 2 3.77734375 4.10546875 C4.07855386 8.02120024 3.36555392 11.48859646 2.5625 15.3125 C2.41490234 16.05306641 2.26730469 16.79363281 2.11523438 17.55664062 C1.75199921 19.37281643 1.37715682 21.18666411 1 23 C-0.32 23 -1.64 23 -3 23 C-3 22.34 -3 21.68 -3 21 C-3.495 21.33 -3.99 21.66 -4.5 22 C-8.21669939 23.48667975 -10.9941956 23.31792098 -15 23 C-17 21.9375 -17 21.9375 -18 20 C-18.64689235 13.96233809 -18.64689235 13.96233809 -16.89453125 11.35546875 C-14.15884822 9.39818625 -11.62459974 9.23880987 -8.3125 8.8125 C-7.13300781 8.65394531 -5.95351563 8.49539062 -4.73828125 8.33203125 C-3.83464844 8.22246094 -2.93101562 8.11289063 -2 8 C-2 7.01 -2 6.02 -2 5 C-4.85078091 4.23283149 -4.85078091 4.23283149 -8 4 C-9.58333333 5.41666667 -9.58333333 5.41666667 -11 7 C-13.6875 7.1875 -13.6875 7.1875 -16 7 C-15.07279031 3.56932415 -14.30656703 2.21897645 -11.375 0.125 C-6.95483239 -1.3483892 -4.54621362 -0.9688652 0 0 Z M-12 13 C-12.66 13.66 -13.32 14.32 -14 15 C-13.6814823 17.10820797 -13.6814823 17.10820797 -13 19 C-10.75124253 19.86850174 -10.75124253 19.86850174 -8 20 C-5.07689096 18.206274 -3.36669731 17.01546949 -2.1875 13.75 C-2.125625 13.1725 -2.06375 12.595 -2 12 C-5.43885893 12 -8.61691776 12.38489414 -12 13 Z " fill="#2B2B2B" transform="translate(633,106)"/>
<path d="M0 0 C0.495 0.99 0.495 0.99 1 2 C1.66 2 2.32 2 3 2 C3.02687279 3.81242052 3.04633715 5.62495233 3.0625 7.4375 C3.07410156 8.44683594 3.08570313 9.45617187 3.09765625 10.49609375 C3 13 3 13 2 14 C0.45044441 14.09899523 -1.10353673 14.13079524 -2.65625 14.1328125 C-4.06583984 14.13474609 -4.06583984 14.13474609 -5.50390625 14.13671875 C-6.49261719 14.13285156 -7.48132813 14.12898438 -8.5 14.125 C-9.48871094 14.12886719 -10.47742188 14.13273437 -11.49609375 14.13671875 C-12.90568359 14.13478516 -12.90568359 14.13478516 -14.34375 14.1328125 C-15.21193359 14.13168457 -16.08011719 14.13055664 -16.97460938 14.12939453 C-19 14 -19 14 -20 13 C-20 11.35 -20 9.7 -20 8 C-25.94 7.01 -25.94 7.01 -32 6 C-31.67 5.34 -31.34 4.68 -31 4 C-29.00390625 3.55078125 -29.00390625 3.55078125 -26.5625 3.3125 C-25.75941406 3.22613281 -24.95632813 3.13976562 -24.12890625 3.05078125 C-22 3 -22 3 -20 4 C-17.28239892 4.07181821 -14.59140612 4.09299506 -11.875 4.0625 C-10.74384766 4.05573242 -10.74384766 4.05573242 -9.58984375 4.04882812 C-7.72652873 4.03703499 -5.86325445 4.01909942 -4 4 C-4 3.34 -4 2.68 -4 2 C-2.68 2 -1.36 2 0 2 C0 1.34 0 0.68 0 0 Z " fill="#F29541" transform="translate(826,12)"/>
<path d="M0 0 C2 2 2 2 2.3125 5.3125 C2.1896975 11.35215039 0.49071458 17.17911449 -1 23 C-2.65 23 -4.3 23 -6 23 C-4.5 14 -4.5 14 -3 5 C-4.72476911 4.04497842 -4.72476911 4.04497842 -7 4 C-11.77994624 7.03118542 -12.55648572 10.37964578 -13.8125 15.8125 C-14.22612918 17.8715049 -14.62777793 19.93310837 -15 22 C-16.65 22.33 -18.3 22.66 -20 23 C-19.32545897 15.1753241 -17.73123042 7.65443386 -16 0 C-13.33333333 0 -10.66666667 0 -8 0 C-5.09288879 -1.4535556 -3.10402897 -0.71133997 0 0 Z " fill="#353535" transform="translate(738,106)"/>
<path d="M0 0 C0.66 0.33 1.32 0.66 2 1 C3.53823124 6.23481834 2.48206151 10.29398047 1.0625 15.375 C0.86720703 16.11105469 0.67191406 16.84710938 0.47070312 17.60546875 C-0.00880196 19.40653661 -0.50292465 21.20370196 -1 23 C-2.32 23 -3.64 23 -5 23 C-4.48446121 16.50149789 -3.53332291 10.33773468 -2 4 C-5.40080577 4.10407917 -5.40080577 4.10407917 -9 5 C-11.80267535 8.66503699 -12.73992541 12.34536265 -13.6875 16.8125 C-13.93886719 17.97394531 -14.19023438 19.13539062 -14.44921875 20.33203125 C-14.63097656 21.21246094 -14.81273437 22.09289062 -15 23 C-16.65 23 -18.3 23 -20 23 C-19.35901851 19.54074898 -18.71139409 16.08277476 -18.0625 12.625 C-17.88009766 11.64015625 -17.69769531 10.6553125 -17.50976562 9.640625 C-17.33251953 8.69960937 -17.15527344 7.75859375 -16.97265625 6.7890625 C-16.72914429 5.48509521 -16.72914429 5.48509521 -16.48071289 4.15478516 C-16 2 -16 2 -15 0 C-13.9171875 0.309375 -13.9171875 0.309375 -12.8125 0.625 C-9.99424792 1.23494031 -9.99424792 1.23494031 -7.5 0 C-4.50449869 -1.19820052 -3.0479713 -0.90615363 0 0 Z " fill="#2F2F2F" transform="translate(533,106)"/>
<path d="M0 0 C2.4375 1.875 2.4375 1.875 4 4 C4 4.99 4 5.98 4 7 C1.525 6.505 1.525 6.505 -1 6 C-1 5.34 -1 4.68 -1 4 C-3.64 4 -6.28 4 -9 4 C-8.3473941 7.0520788 -8.3473941 7.0520788 -6.2578125 8.02734375 C-5.55398438 8.32769531 -4.85015625 8.62804687 -4.125 8.9375 C-0.86317768 10.48349837 1.44437053 11.57761517 3 15 C2.9375 17.5625 2.9375 17.5625 2 20 C-1.71648174 23.44272304 -4.68105624 23.56675869 -9.578125 23.421875 C-12 23 -12 23 -15.1875 20.75 C-17 18 -17 18 -16.8125 15.6875 C-16.544375 15.130625 -16.27625 14.57375 -16 14 C-14.02 14.495 -14.02 14.495 -12 15 C-11.67 16.32 -11.34 17.64 -11 19 C-6.85906302 19.20970559 -6.85906302 19.20970559 -3 18 C-2.67 17.01 -2.34 16.02 -2 15 C-2.886875 14.7525 -3.77375 14.505 -4.6875 14.25 C-8.77749594 12.70660531 -11.91311912 10.98195924 -14.0625 7.0625 C-13.96305795 3.78091233 -12.22255725 2.28429496 -10 0 C-6.19426871 -1.2685771 -3.89430952 -0.88817586 0 0 Z " fill="#323232" transform="translate(821,106)"/>
<path d="M0 0 C2.4375 1.875 2.4375 1.875 4 4 C4 4.99 4 5.98 4 7 C2.35 7 0.7 7 -1 7 C-1 6.01 -1 5.02 -1 4 C-3.31 4 -5.62 4 -8 4 C-8 4.99 -8 5.98 -8 7 C-7.45730469 7.24234375 -6.91460938 7.4846875 -6.35546875 7.734375 C1.52921865 11.42810243 1.52921865 11.42810243 3 15 C2.375 18.125 2.375 18.125 1 21 C-3.23543124 23.82362083 -7.02715812 23.78268895 -12 23 C-15.1875 20.75 -15.1875 20.75 -17 18 C-16.8125 15.6875 -16.8125 15.6875 -16 14 C-14.0625 14.3125 -14.0625 14.3125 -12 15 C-11.67 15.99 -11.34 16.98 -11 18 C-6.89776415 19.01540112 -6.89776415 19.01540112 -3 18 C-3.67193185 14.89597176 -3.67193185 14.89597176 -6.03125 13.7890625 C-7.67507972 13.01396558 -9.32091927 12.24311667 -10.96875 11.4765625 C-13 10 -13 10 -13.890625 7.5078125 C-14 5 -14 5 -12.25 2.25 C-8.31589877 -1.68410123 -5.1937825 -1.18454689 0 0 Z " fill="#333333" transform="translate(794,106)"/>
<path d="M0 0 C0 2.64 0 5.28 0 8 C-1.32 8 -2.64 8 -4 8 C-4 6.02 -4 4.04 -4 2 C-4.66 2 -5.32 2 -6 2 C-6 4.64 -6 7.28 -6 10 C-5.01 10 -4.02 10 -3 10 C-3 11.32 -3 12.64 -3 14 C-3.99 14 -4.98 14 -6 14 C-6 14.66 -6 15.32 -6 16 C-6.66 16 -7.32 16 -8 16 C-8 15.34 -8 14.68 -8 14 C-8.66 14 -9.32 14 -10 14 C-10 12.68 -10 11.36 -10 10 C-12.50965614 10.70339566 -12.50965614 10.70339566 -15 12 C-15.88693303 14.04105639 -15.88693303 14.04105639 -16 16 C-15.01 16.33 -14.02 16.66 -13 17 C-14.32 17.33 -15.64 17.66 -17 18 C-17 17.34 -17 16.68 -17 16 C-17.66 16 -18.32 16 -19 16 C-18.67 14.02 -18.34 12.04 -18 10 C-19.32 10 -20.64 10 -22 10 C-22 7.03 -22 4.06 -22 1 C-19.45847098 0.83096719 -16.91681012 0.66470573 -14.375 0.5 C-13.30572266 0.42845703 -13.30572266 0.42845703 -12.21484375 0.35546875 C-8.13492439 0.09345558 -4.09108781 -0.05162256 0 0 Z " fill="#F5821F" transform="translate(780,52)"/>
<path d="M0 0 C0.33 1.32 0.66 2.64 1 4 C12.22 4 23.44 4 35 4 C35 8.81228158 34.90105843 12.3758917 34 16.9375 C33.7215625 18.37416016 33.7215625 18.37416016 33.4375 19.83984375 C33.293125 20.55269531 33.14875 21.26554687 33 22 C30.03 22.33 27.06 22.66 24 23 C24.66 22.34 25.32 21.68 26 21 C26.64767793 18.42938689 26.64767793 18.42938689 27 16 C26.34 16 25.68 16 25 16 C25 13.36 25 10.72 25 8 C24.34 8 23.68 8 23 8 C23 7.34 23 6.68 23 6 C22.3387915 6.00523682 21.67758301 6.01047363 20.99633789 6.01586914 C18.01840149 6.03657656 15.04048018 6.04964012 12.0625 6.0625 C10.50112305 6.07506836 10.50112305 6.07506836 8.90820312 6.08789062 C7.91884766 6.09111328 6.92949219 6.09433594 5.91015625 6.09765625 C4.53549194 6.10551147 4.53549194 6.10551147 3.13305664 6.11352539 C1 6 1 6 0 5 C-0.04063832 3.33382885 -0.042721 1.66611905 0 0 Z " fill="#F29642" transform="translate(643,26)"/>
<path d="M0 0 C2.475 0.495 2.475 0.495 5 1 C5.13277344 1.84304687 5.26554687 2.68609375 5.40234375 3.5546875 C5.57894531 4.65039062 5.75554687 5.74609375 5.9375 6.875 C6.11152344 7.96554688 6.28554688 9.05609375 6.46484375 10.1796875 C6.85551159 12.93821546 6.85551159 12.93821546 8 15 C8.51949219 14.00097656 9.03898437 13.00195312 9.57421875 11.97265625 C10.27774635 10.6687851 10.98222331 9.36542588 11.6875 8.0625 C12.02716797 7.40314453 12.36683594 6.74378906 12.71679688 6.06445312 C15.38013799 1.21070063 15.38013799 1.21070063 18.76953125 0.05859375 C19.50558594 0.03925781 20.24164063 0.01992187 21 0 C19.45103986 5.41703379 16.97911989 10.02358399 14.1875 14.875 C13.54844727 16.050625 13.54844727 16.050625 12.89648438 17.25 C11.70329584 19.32228509 10.58037311 21.20473362 9 23 C6.17578125 23.5078125 6.17578125 23.5078125 4 23 C2.39149613 17.85684266 1.47204975 12.91147849 0.875 7.5625 C0.78863281 6.83095703 0.70226562 6.09941406 0.61328125 5.34570312 C0.40371607 3.56439906 0.20112132 1.78227719 0 0 Z " fill="#323232" transform="translate(424,106)"/>
<path d="M0 0 C1.09920273 0.00222061 2.19840546 0.00444122 3.33091736 0.00672913 C4.57212845 0.00680466 5.81333954 0.00688019 7.09216309 0.00695801 C8.45682311 0.01206541 9.82148274 0.01728142 11.18614197 0.02259827 C12.57476755 0.02446251 13.96339379 0.02588638 15.35202026 0.02688599 C19.01319686 0.03071065 22.67433402 0.04054048 26.335495 0.05158997 C30.06890835 0.06180519 33.80232805 0.06638384 37.53575134 0.07142639 C44.86584748 0.08216281 52.19591108 0.0992386 59.52598572 0.12025452 C58.45957947 8.87025452 58.45957947 8.87025452 57.46348572 13.12025452 C57.28688416 13.88337952 57.11028259 14.64650452 56.92832947 15.43275452 C56.79555603 15.98962952 56.66278259 16.54650452 56.52598572 17.12025452 C56.19598572 17.12025452 55.86598572 17.12025452 55.52598572 17.12025452 C55.52598572 13.49025452 55.52598572 9.86025452 55.52598572 6.12025452 C56.18598572 6.12025452 56.84598572 6.12025452 57.52598572 6.12025452 C57.52598572 4.80025452 57.52598572 3.48025452 57.52598572 2.12025452 C37.72598572 2.12025452 17.92598572 2.12025452 -2.47401428 2.12025452 C-2.47401428 4.76025452 -2.47401428 7.40025452 -2.47401428 10.12025452 C-3.97401428 13.62025452 -3.97401428 13.62025452 -5.47401428 16.12025452 C-6.76704347 12.49115259 -6.16079372 10.08079489 -5.09901428 6.43275452 C-4.82315491 5.45951233 -4.54729553 4.48627014 -4.26307678 3.48353577 C-3.1511188 0.15316656 -3.1511188 0.15316656 0 0 Z " fill="#EBB277" transform="translate(702.4740142822266,1.8797454833984375)"/>
<path d="M0 0 C0 1.32 0 2.64 0 4 C-0.66 4 -1.32 4 -2 4 C-2.33 7.96 -2.66 11.92 -3 16 C-5.97 16.33 -8.94 16.66 -12 17 C-12 12.05 -12 7.1 -12 2 C-10.35 1.67 -8.7 1.34 -7 1 C-6.113125 0.814375 -5.22625 0.62875 -4.3125 0.4375 C-2 0 -2 0 0 0 Z " fill="#F5821E" transform="translate(676,58)"/>
<path d="M0 0 C1.32 0 2.64 0 4 0 C2.59250484 10.48213503 0.38060702 20.70329684 -2 31 C-3.65 31.33 -5.3 31.66 -7 32 C-6.36434279 25.00777072 -5.09037563 18.33407127 -3.5 11.5 C-3.27441406 10.4996875 -3.04882812 9.499375 -2.81640625 8.46875 C-1.13166887 1.13166887 -1.13166887 1.13166887 0 0 Z " fill="#373737" transform="translate(399,97)"/>
<path d="M0 0 C2 2 2 2 2.21875 5.16015625 C1.9960061 9.07010713 1.37197328 12.62261692 0.5 16.4375 C0.2215625 17.67371094 -0.056875 18.90992188 -0.34375 20.18359375 C-0.5603125 21.11300781 -0.776875 22.04242188 -1 23 C-2.65 23 -4.3 23 -6 23 C-5.855625 21.906875 -5.71125 20.81375 -5.5625 19.6875 C-4.90689307 14.470742 -4.45251777 9.23765253 -4 4 C-6.31 4.33 -8.62 4.66 -11 5 C-11.33 3.35 -11.66 1.7 -12 0 C-11.01 0 -10.02 0 -9 0 C-5.47955362 -1.17348213 -3.57539179 -0.83679382 0 0 Z " fill="#3B3B3B" transform="translate(605,106)"/>
<path d="M0 0 C0.5775 0.20625 1.155 0.4125 1.75 0.625 C1.625 2.5 1.625 2.5 0.75 4.625 C-0.19875 4.934375 -1.1475 5.24375 -2.125 5.5625 C-6.04421972 6.8950347 -6.43637845 7.98770913 -8.25 11.625 C-8.88520612 13.7083715 -9.44774363 15.81522238 -9.9375 17.9375 C-10.18886719 19.00613281 -10.44023437 20.07476562 -10.69921875 21.17578125 C-10.88097656 21.98402344 -11.06273437 22.79226562 -11.25 23.625 C-12.57 23.625 -13.89 23.625 -15.25 23.625 C-14.73400816 15.7427798 -13.1578547 8.28041695 -11.25 0.625 C-10.46753906 0.810625 -9.68507813 0.99625 -8.87890625 1.1875 C-5.20422132 1.79903746 -3.55520553 -0.59253426 0 0 Z " fill="#2C2C2C" transform="translate(494.25,105.375)"/>
<path d="M0 0 C20.46 0 40.92 0 62 0 C62 2.64 62 5.28 62 8 C61.34 8 60.68 8 60 8 C60 6.02 60 4.04 60 2 C40.2 2 20.4 2 0 2 C-0.33 2.99 -0.66 3.98 -1 5 C-0.67 3.35 -0.34 1.7 0 0 Z " fill="#EAB278" transform="translate(626,2)"/>
<path d="M0 0 C3.32957907 0.27746492 4.78804723 0.81096104 7.3125 3.0625 C9.45160634 6.78612956 9.66859152 9.84984043 9 14 C7.27714629 18.71517858 5.08527604 21.12926548 1 24 C-1.475 23.01 -1.475 23.01 -4 22 C-3.071875 21.87625 -3.071875 21.87625 -2.125 21.75 C0.16088794 21.19416524 0.16088794 21.19416524 1.1875 19.0625 C1.455625 18.381875 1.72375 17.70125 2 17 C2.33 16.34 2.66 15.68 3 15 C3.06950541 13.45976004 3.08452357 11.91665012 3.0625 10.375 C3.05347656 9.55773437 3.04445313 8.74046875 3.03515625 7.8984375 C3.02355469 7.27195312 3.01195312 6.64546875 3 6 C1.02 5.34 -0.96 4.68 -3 4 C-2.01 2.68 -1.02 1.36 0 0 Z " fill="#2C2C2C" transform="translate(687,105)"/>
<path d="M0 0 C0.33 0 0.66 0 1 0 C1 1.65 1 3.3 1 5 C18.16 5 35.32 5 53 5 C50.47695087 7.52304913 49.58668674 7.26719182 46.09130859 7.31884766 C45.07040131 7.33871735 44.04949402 7.35858704 42.99765015 7.37905884 C41.89240997 7.39061005 40.7871698 7.40216125 39.6484375 7.4140625 C38.5192691 7.43342865 37.39010071 7.4527948 36.22671509 7.4727478 C32.60955428 7.53267069 28.99236187 7.57898002 25.375 7.625 C22.92706922 7.66316805 20.47915204 7.70221908 18.03125 7.7421875 C12.02095376 7.83838259 6.01057607 7.92339265 0 8 C-0.87840996 4.90279155 -0.99435406 3.09354597 0 0 Z " fill="#F58F38" transform="translate(533,69)"/>
<path d="M0 0 C1.65 0 3.3 0 5 0 C3.81034913 7.36571071 2.51922091 14.69481007 1 22 C-0.65 22.33 -2.3 22.66 -4 23 C-3.32545897 15.1753241 -1.73123042 7.65443386 0 0 Z " fill="#353535" transform="translate(707,106)"/>
<path d="M0 0 C1.32 0 2.64 0 4 0 C3.3622098 7.52592433 1.80110167 14.67098882 0 22 C-1.65 22.33 -3.3 22.66 -5 23 C-3.33333333 3.33333333 -3.33333333 3.33333333 0 0 Z " fill="#353535" transform="translate(412,106)"/>
<path d="M0 0 C1.32 0 2.64 0 4 0 C3.48400816 7.8822202 1.9078547 15.34458305 0 23 C-1.65 23 -3.3 23 -5 23 C-4.35901851 19.54074898 -3.71139409 16.08277476 -3.0625 12.625 C-2.88009766 11.64015625 -2.69769531 10.6553125 -2.50976562 9.640625 C-2.33251953 8.69960937 -2.15527344 7.75859375 -1.97265625 6.7890625 C-1.72914429 5.48509521 -1.72914429 5.48509521 -1.48071289 4.15478516 C-1 2 -1 2 0 0 Z " fill="#333333" transform="translate(503,106)"/>
<path d="M0 0 C0.99 0 1.98 0 3 0 C3 0.99 3 1.98 3 3 C3.66 3 4.32 3 5 3 C4.80664062 3.70125 4.61328125 4.4025 4.4140625 5.125 C2.874383 10.73492134 1.38582343 16.35010447 0 22 C-1.65 22 -3.3 22 -5 22 C-4.36046095 18.51964536 -3.71232005 15.0409485 -3.0625 11.5625 C-2.88009766 10.56927734 -2.69769531 9.57605469 -2.50976562 8.55273438 C-2.33251953 7.60849609 -2.15527344 6.66425781 -1.97265625 5.69140625 C-1.81031494 4.81685791 -1.64797363 3.94230957 -1.48071289 3.04125977 C-1 1 -1 1 0 0 Z " fill="#2C2C2C" transform="translate(518,107)"/>
<path d="M0 0 C0.99 2.64 1.98 5.28 3 8 C3.61488281 8.06058594 4.22976563 8.12117188 4.86328125 8.18359375 C5.67152344 8.26738281 6.47976563 8.35117187 7.3125 8.4375 C8.11300781 8.51871094 8.91351562 8.59992187 9.73828125 8.68359375 C12 9 12 9 15 10 C12.36473759 11.3176312 10.05890299 11.37393251 7.125 11.625 C6.07570313 11.72039063 5.02640625 11.81578125 3.9453125 11.9140625 C1.33729071 11.99015863 -0.54041086 11.7960989 -3 11 C-3 10.34 -3 9.68 -3 9 C-2.34 9 -1.68 9 -1 9 C-1 6.36 -1 3.72 -1 1 C-1.81726563 1.16371094 -2.63453125 1.32742187 -3.4765625 1.49609375 C-7.48768176 2.06974606 -11.33248121 2.11001604 -15.375 2.0625 C-16.11105469 2.05798828 -16.84710937 2.05347656 -17.60546875 2.04882812 C-19.40368158 2.03715142 -21.20185197 2.01922011 -23 2 C-23 4.97 -23 7.94 -23 11 C-23.33 11 -23.66 11 -24 11 C-24.02688151 9.35425434 -24.04634123 7.70838587 -24.0625 6.0625 C-24.07410156 5.14597656 -24.08570313 4.22945312 -24.09765625 3.28515625 C-24 1 -24 1 -23 0 C-20.45157336 -0.26731748 -17.93063479 -0.47011304 -15.375 -0.625 C-14.32505859 -0.70234375 -14.32505859 -0.70234375 -13.25390625 -0.78125 C-8.66555418 -1.07068223 -4.52892718 -0.79642551 0 0 Z " fill="#EEB37A" transform="translate(781,51)"/>
<path d="M0 0 C-0.165 0.639375 -0.33 1.27875 -0.5 1.9375 C-1.15932515 5.97586652 -1.08003779 9.91807258 -1 14 C1.475 14.99 1.475 14.99 4 16 C4 16.99 4 17.98 4 19 C2.3125 19.6875 2.3125 19.6875 0 20 C-3.44560634 18.35923508 -4.85674962 17.21487558 -7 14 C-7.54538534 10.93436028 -7.54238379 8.06634798 -7 5 C-3.12244898 0 -3.12244898 0 0 0 Z " fill="#2E2E2E" transform="translate(341,110)"/>
<path d="M0 0 C-0.375 2.9375 -0.375 2.9375 -1 6 C-4.06594594 7.53297297 -7.27111853 7.12131455 -10.6328125 7.09765625 C-11.76056595 7.09553383 -11.76056595 7.09553383 -12.91110229 7.09336853 C-15.3157751 7.08776465 -17.72035527 7.07521157 -20.125 7.0625 C-21.75390491 7.0574855 -23.38281127 7.0529225 -25.01171875 7.04882812 C-29.00784827 7.03779397 -33.00390842 7.02052679 -37 7 C-37.33 7.99 -37.66 8.98 -38 10 C-38 8.68 -38 7.36 -38 6 C-36.68 6 -35.36 6 -34 6 C-34 4.68 -34 3.36 -34 2 C-32.68 2 -31.36 2 -30 2 C-30 2.99 -30 3.98 -30 5 C-29.43539062 4.83935059 -28.87078125 4.67870117 -28.2890625 4.51318359 C-25.92548139 3.98329372 -23.79431309 3.8427484 -21.375 3.7890625 C-20.50359375 3.76070312 -19.6321875 3.73234375 -18.734375 3.703125 C-16.91166465 3.65104756 -15.08871458 3.60677429 -13.265625 3.5703125 C-12.39421875 3.539375 -11.5228125 3.5084375 -10.625 3.4765625 C-9.83351563 3.45674316 -9.04203125 3.43692383 -8.2265625 3.41650391 C-4.90163661 2.7945386 -3.30781518 0 0 0 Z " fill="#F5913C" transform="translate(750,42)"/>
<path d="M0 0 C0.66 0 1.32 0 2 0 C0.63055898 2.94956528 -0.87830409 5.52468811 -3 8 C-3.66 8 -4.32 8 -5 8 C-5 8.66 -5 9.32 -5 10 C-11.625 14 -11.625 14 -15 14 C-15 13.34 -15 12.68 -15 12 C-15.99 12 -16.98 12 -18 12 C-18 11.34 -18 10.68 -18 10 C-16.02 10 -14.04 10 -12 10 C-11.34 7.36 -10.68 4.72 -10 2 C-8.68 2 -7.36 2 -6 2 C-6 2.66 -6 3.32 -6 4 C-5.01 3.34 -4.02 2.68 -3 2 C-2.01 2 -1.02 2 0 2 C0 1.34 0 0.68 0 0 Z " fill="#F39643" transform="translate(602,60)"/>
<path d="M0 0 C0.66 0 1.32 0 2 0 C3.9772521 3.9545042 3.42493999 8.68989437 3 13 C1.4375 16.625 1.4375 16.625 -1 19 C-4.75 19.875 -4.75 19.875 -8 20 C-8 19.01 -8 18.02 -8 17 C-7.38125 16.79375 -6.7625 16.5875 -6.125 16.375 C-3.05013281 14.38538005 -2.84783585 12.52177969 -2 9 C-1.79535208 7.56484087 -1.60808164 6.12710564 -1.4375 4.6875 C-1 1 -1 1 0 0 Z " fill="#262626" transform="translate(663,108)"/>
<path d="M0 0 C3.3 0 6.6 0 10 0 C10 1.32 10 2.64 10 4 C11.32 4 12.64 4 14 4 C14 4.66 14 5.32 14 6 C12.68 6.33 11.36 6.66 10 7 C9.855625 7.639375 9.71125 8.27875 9.5625 8.9375 C9 11 9 11 8 12 C6.5112814 12.08669432 5.018555 12.10703494 3.52734375 12.09765625 C2.62822266 12.09443359 1.72910156 12.09121094 0.80273438 12.08789062 C-0.14279297 12.07951172 -1.08832031 12.07113281 -2.0625 12.0625 C-3.01189453 12.05798828 -3.96128906 12.05347656 -4.93945312 12.04882812 C-7.29303065 12.0370011 -9.64648477 12.02052025 -12 12 C-12 11.34 -12 10.68 -12 10 C-10.87980469 9.93941406 -9.75960937 9.87882812 -8.60546875 9.81640625 C-7.13280016 9.73198576 -5.66014456 9.64733851 -4.1875 9.5625 C-3.44951172 9.52318359 -2.71152344 9.48386719 -1.95117188 9.44335938 C1.23071342 9.25618965 3.96162378 9.01279207 7 8 C7 6.35 7 4.7 7 3 C4.69 2.34 2.38 1.68 0 1 C0 0.67 0 0.34 0 0 Z " fill="#EEB57D" transform="translate(578,20)"/>
<path d="M0 0 C0.99 0.66 1.98 1.32 3 2 C3 2.99 3 3.98 3 5 C2.01 5.495 2.01 5.495 1 6 C0.67 6.99 0.34 7.98 0 9 C-0.66 8.67 -1.32 8.34 -2 8 C-2 7.01 -2 6.02 -2 5 C-4.85078091 4.23283149 -4.85078091 4.23283149 -8 4 C-9.58333333 5.41666667 -9.58333333 5.41666667 -11 7 C-13.6875 7.1875 -13.6875 7.1875 -16 7 C-15.07279031 3.56932415 -14.30656703 2.21897645 -11.375 0.125 C-6.95483239 -1.3483892 -4.54621362 -0.9688652 0 0 Z " fill="#343434" transform="translate(633,106)"/>
<path d="M0 0 C0.66 0 1.32 0 2 0 C1.85704109 1.39613065 1.71048442 2.79189308 1.5625 4.1875 C1.48128906 4.96480469 1.40007813 5.74210937 1.31640625 6.54296875 C0.99402379 9.04640786 0.49501895 11.52490524 0 14 C-19.8 14 -39.6 14 -60 14 C-60 13.67 -60 13.34 -60 13 C-40.53 12.67 -21.06 12.34 -1 12 C-1 9.69 -1 7.38 -1 5 C-0.71479595 3.32442621 -0.40044304 1.65182755 0 0 Z " fill="#FA8C30" transform="translate(674,62)"/>
<path d="M0 0 C3.5625 0.9375 3.5625 0.9375 6 3 C7.5625 5.9375 7.5625 5.9375 7.5625 13.9375 C1.9525 13.9375 -3.6575 13.9375 -9.4375 13.9375 C-9.4375 13.6075 -9.4375 13.2775 -9.4375 12.9375 C-4.1575 12.9375 1.1225 12.9375 6.5625 12.9375 C6.2325 11.2875 5.9025 9.6375 5.5625 7.9375 C4.9025 8.5975 4.2425 9.2575 3.5625 9.9375 C3.211875 9.174375 2.86125 8.41125 2.5 7.625 C-0.09252364 4.02891882 -2.31197406 3.41646213 -6.4375 1.9375 C-3.4375 -0.0625 -3.4375 -0.0625 0 0 Z " fill="#565656" transform="translate(377.4375,105.0625)"/>
<path d="M0 0 C0.33 0 0.66 0 1 0 C1 2.97 1 5.94 1 9 C19.48 9 37.96 9 57 9 C57 9.33 57 9.66 57 10 C37.53 10 18.06 10 -2 10 C-1.34 6.7 -0.68 3.4 0 0 Z " fill="#F98C32" transform="translate(685,66)"/>
<path d="M0 0 C1.21236328 0.01353516 1.21236328 0.01353516 2.44921875 0.02734375 C3.37154297 0.04474609 3.37154297 0.04474609 4.3125 0.0625 C4.3125 0.3925 4.3125 0.7225 4.3125 1.0625 C1.6725 1.3925 -0.9675 1.7225 -3.6875 2.0625 C-0.7175 2.5575 -0.7175 2.5575 2.3125 3.0625 C2.3125 3.3925 2.3125 3.7225 2.3125 4.0625 C0.0025 4.3925 -2.3075 4.7225 -4.6875 5.0625 C-5.3689823 6.95429203 -5.3689823 6.95429203 -5.6875 9.0625 C-5.0275 9.7225 -4.3675 10.3825 -3.6875 11.0625 C-5.0075 11.0625 -6.3275 11.0625 -7.6875 11.0625 C-8.0175 11.7225 -8.3475 12.3825 -8.6875 13.0625 C-10.6875 11.0625 -10.6875 11.0625 -11 7.625 C-10.6875 4.0625 -10.6875 4.0625 -9.375 2.1875 C-6.27594487 0.12146325 -3.6083786 -0.05229534 0 0 Z " fill="#3D3D3D" transform="translate(625.6875,114.9375)"/>
<path d="M0 0 C2.375 0.25 2.375 0.25 5 1 C7.62761259 4.37835905 7 6.39548043 7 11 C2.38 11 -2.24 11 -7 11 C-6.67 10.34 -6.34 9.68 -6 9 C-3.03 9 -0.06 9 3 9 C2.01 6.03 1.02 3.06 0 0 Z " fill="#1B1B1B" transform="translate(763,107)"/>
<path d="M0 0 C1.32 0.66 2.64 1.32 4 2 C4.042721 3.66611905 4.04063832 5.33382885 4 7 C3 8 3 8 -0.81640625 8.09765625 C-2.39846682 8.09098089 -3.98051159 8.07901875 -5.5625 8.0625 C-6.36880859 8.05798828 -7.17511719 8.05347656 -8.00585938 8.04882812 C-10.00393756 8.03700518 -12.00197783 8.01906914 -14 8 C-14 7.67 -14 7.34 -14 7 C-7.565 6.505 -7.565 6.505 -1 6 C-4.96 5.67 -8.92 5.34 -13 5 C-12.67 4.01 -12.34 3.02 -12 2 C-12 2.66 -12 3.32 -12 4 C-8.37 4 -4.74 4 -1 4 C-0.67 2.68 -0.34 1.36 0 0 Z " fill="#626262" transform="translate(468,111)"/>
<path d="M0 0 C2 0.3125 2 0.3125 4 1 C4.33 1.66 4.66 2.32 5 3 C6.134375 3.144375 7.26875 3.28875 8.4375 3.4375 C9.613125 3.623125 10.78875 3.80875 12 4 C12.99 5.485 12.99 5.485 14 7 C10.93570224 8.53214888 8.3834358 8.22938548 5 8 C1.93740701 6.66843783 0.40941519 5.99429402 -0.875 2.875 C-0.91625 2.25625 -0.9575 1.6375 -1 1 C-0.67 0.67 -0.34 0.34 0 0 Z " fill="#3A3A3A" transform="translate(543,130)"/>
<path d="M0 0 C2.4375 2.0625 2.4375 2.0625 4 4 C3.67 4.66 3.34 5.32 3 6 C-0.14737182 5.30058404 -3.02588876 4.23921302 -6 3 C-6 2.34 -6 1.68 -6 1 C-6.928125 1.66 -7.85625 2.32 -8.8125 3 C-12 5 -12 5 -15 5 C-9.91332081 -0.36163482 -7.36124137 -1.67887961 0 0 Z " fill="#444444" transform="translate(467,106)"/>
<path d="M0 0 C7.26 0 14.52 0 22 0 C22 2.64 22 5.28 22 8 C21.5359375 7.0409375 21.5359375 7.0409375 21.0625 6.0625 C20.1654837 4.06389179 20.1654837 4.06389179 19 3 C17.58672053 2.84379445 16.1664541 2.74943827 14.74609375 2.68359375 C13.89208984 2.64169922 13.03808594 2.59980469 12.15820312 2.55664062 C11.26037109 2.51732422 10.36253906 2.47800781 9.4375 2.4375 C8.53580078 2.39431641 7.63410156 2.35113281 6.70507812 2.30664062 C4.47021515 2.20021858 2.23523692 2.09820012 0 2 C0 1.34 0 0.68 0 0 Z " fill="#EAB883" transform="translate(562,44)"/>
<path d="M0 0 C1.2065625 0.0309375 1.2065625 0.0309375 2.4375 0.0625 C-0.00798269 4.58664297 -2.09392608 7.26021348 -7.0625 8.875 C-9.90338901 9.08806668 -11.18271205 8.56088501 -13.5625 7.0625 C-11.5825 6.7325 -9.6025 6.4025 -7.5625 6.0625 C-7.8925 5.4025 -8.2225 4.7425 -8.5625 4.0625 C-7.3559375 3.3509375 -7.3559375 3.3509375 -6.125 2.625 C-1.89583333 0.04623984 -1.89583333 0.04623984 0 0 Z " fill="#3E3E3E" transform="translate(381.5625,120.9375)"/>
<path d="M0 0 C1.98 0 3.96 0 6 0 C6 0.66 6 1.32 6 2 C6.66 2 7.32 2 8 2 C8 3.32 8 4.64 8 6 C4.7 6 1.4 6 -2 6 C-1.34 4.02 -0.68 2.04 0 0 Z " fill="#F9821C" transform="translate(574,14)"/>
<path d="M0 0 C0.99 0 1.98 0 3 0 C2.67 2.31 2.34 4.62 2 7 C-3.03733166 8.5111995 -7.88171027 7.64599773 -13 7 C-12.67 6.34 -12.34 5.68 -12 5 C-9.49609375 4.5859375 -9.49609375 4.5859375 -6.4375 4.375 C-5.42558594 4.30023438 -4.41367187 4.22546875 -3.37109375 4.1484375 C-2.58863281 4.09945312 -1.80617188 4.05046875 -1 4 C-0.67 2.68 -0.34 1.36 0 0 Z " fill="#1D1D1D" transform="translate(634,111)"/>
<path d="M0 0 C1.98 0.495 1.98 0.495 4 1 C4.103125 1.639375 4.20625 2.27875 4.3125 2.9375 C4.539375 3.618125 4.76625 4.29875 5 5 C5.99 5.33 6.98 5.66 8 6 C8 6.99 8 7.98 8 9 C2.55122777 8.51566469 2.55122777 8.51566469 0.0625 6.1875 C-1 4 -1 4 -0.6875 1.75 C-0.460625 1.1725 -0.23375 0.595 0 0 Z " fill="#393939" transform="translate(805,120)"/>
<path d="M0 0 C0.33 0.99 0.66 1.98 1 3 C2.19238281 2.9278125 3.38476562 2.855625 4.61328125 2.78125 C6.17968471 2.68745339 7.74609111 2.59370595 9.3125 2.5 C10.09818359 2.45230469 10.88386719 2.40460937 11.69335938 2.35546875 C12.45068359 2.31035156 13.20800781 2.26523437 13.98828125 2.21875 C14.68477783 2.17685547 15.38127441 2.13496094 16.09887695 2.09179688 C17.73096966 2.01299029 19.36600579 2 21 2 C20.01 3.485 20.01 3.485 19 5 C17.02880859 5.34057617 17.02880859 5.34057617 14.6484375 5.29296875 C13.79765625 5.28330078 12.946875 5.27363281 12.0703125 5.26367188 C11.18085937 5.23853516 10.29140625 5.21339844 9.375 5.1875 C8.4778125 5.17396484 7.580625 5.16042969 6.65625 5.14648438 C4.43690211 5.11106925 2.21874812 5.06168461 0 5 C0 3.35 0 1.7 0 0 Z " fill="#F5AA5F" transform="translate(559,55)"/>
<path d="M0 0 C0.33 0 0.66 0 1 0 C1 2.31 1 4.62 1 7 C1.66 7 2.32 7 3 7 C3 7.66 3 8.32 3 9 C2.34 9 1.68 9 1 9 C0.73445312 9.90363281 0.46890625 10.80726562 0.1953125 11.73828125 C-0.33449219 13.50751953 -0.33449219 13.50751953 -0.875 15.3125 C-1.22304688 16.48425781 -1.57109375 17.65601563 -1.9296875 18.86328125 C-3 22 -3 22 -5 25 C-4.29058623 19.43670254 -3.18398149 14.02851955 -1.9375 8.5625 C-1.75123047 7.73556641 -1.56496094 6.90863281 -1.37304688 6.05664062 C-0.9177995 4.03720996 -0.45924139 2.01852613 0 0 Z " fill="#F5A55F" transform="translate(541,33)"/>
<path d="M0 0 C2.44821444 1.91599391 2.99324823 2.97243029 3.75 6.0625 C4 9 4 9 3 11 C2.34 11 1.68 11 1 11 C1 9.68 1 8.36 1 7 C0.34 7 -0.32 7 -1 7 C-1 8.98 -1 10.96 -1 13 C-1.66 13 -2.32 13 -3 13 C-2.52060632 8.28596212 -2.03165952 4.33420699 0 0 Z " fill="#F3903A" transform="translate(537,55)"/>
<path d="M0 0 C1.32 0 2.64 0 4 0 C3.66410006 3.13506611 2.97334828 4.025249 0.625 6.25 C-2 8 -2 8 -5 8 C-5.33 6.68 -5.66 5.36 -6 4 C-5.195625 3.525625 -4.39125 3.05125 -3.5625 2.5625 C-1.15246512 1.23099846 -1.15246512 1.23099846 0 0 Z " fill="#373737" transform="translate(764,121)"/>
<path d="M0 0 C0.5775 0.20625 1.155 0.4125 1.75 0.625 C1.42 1.945 1.09 3.265 0.75 4.625 C-1.56 5.285 -3.87 5.945 -6.25 6.625 C-6.25 5.965 -6.25 5.305 -6.25 4.625 C-6.91 4.625 -7.57 4.625 -8.25 4.625 C-8.25 3.635 -8.25 2.645 -8.25 1.625 C-9.24 1.955 -10.23 2.285 -11.25 2.625 C-11.25 1.965 -11.25 1.305 -11.25 0.625 C-10.5075 0.83125 -9.765 1.0375 -9 1.25 C-5.29805874 1.75481017 -3.55099811 -0.59183302 0 0 Z " fill="#454545" transform="translate(494.25,105.375)"/>
<path d="M0 0 C-0.99 0.495 -0.99 0.495 -2 1 C-2 1.66 -2 2.32 -2 3 C-5.25 4.625 -5.25 4.625 -9 6 C-11.4375 5.1875 -11.4375 5.1875 -13 4 C-8.36319839 0.11511216 -5.99966724 -1.45937852 0 0 Z " fill="#3A3A3A" transform="translate(559,106)"/>
<path d="M0 0 C0 3.10551666 -0.5393715 4.35261084 -2 7 C-2.66 6.01 -3.32 5.02 -4 4 C-6.58380177 3.74969023 -6.58380177 3.74969023 -9 4 C-9.33 3.01 -9.66 2.02 -10 1 C-6.42181037 -1.33958553 -4.07775191 -0.9267618 0 0 Z " fill="#454545" transform="translate(663,106)"/>
<path d="M0 0 C4.0985356 0.60272582 8.03207619 1.83296358 12 3 C12 3.33 12 3.66 12 4 C7.8803623 5.29243536 4.33168317 6.26252625 0 6 C0.33 5.01 0.66 4.02 1 3 C0.34 2.34 -0.32 1.68 -1 1 C-0.67 0.67 -0.34 0.34 0 0 Z " fill="#F1A056" transform="translate(791,26)"/>
<path d="M0 0 C3.375 0.3125 3.375 0.3125 7 1 C9 4 9 4 9 7 C7.35 6.67 5.7 6.34 4 6 C4 5.34 4 4.68 4 4 C1.525 3.01 1.525 3.01 -1 2 C-0.67 1.34 -0.34 0.68 0 0 Z " fill="#272727" transform="translate(816,106)"/>
<path d="M0 0 C-1.2824977 2.86095641 -2.45343989 5.11365918 -5 7 C-7.6875 7.1875 -7.6875 7.1875 -10 7 C-8.07091409 1.3611335 -6.01450566 -0.32510841 0 0 Z " fill="#202020" transform="translate(627,106)"/>
<path d="M0 0 C0.66 0 1.32 0 2 0 C2 1.32 2 2.64 2 4 C-3.94 4 -9.88 4 -16 4 C-16 3.34 -16 2.68 -16 2 C-10.72 2 -5.44 2 0 2 C0 1.34 0 0.68 0 0 Z " fill="#F4872D" transform="translate(662,44)"/>
<path d="M0 0 C1.32 0 2.64 0 4 0 C3.67 1.98 3.34 3.96 3 6 C3.66 6 4.32 6 5 6 C5 6.66 5 7.32 5 8 C6.65 8 8.3 8 10 8 C10 9.32 10 10.64 10 12 C9.01 12 8.02 12 7 12 C7 11.34 7 10.68 7 10 C6.401875 9.7525 5.80375 9.505 5.1875 9.25 C2.64141207 7.79509261 1.48265135 6.52050729 0 4 C0 2.68 0 1.36 0 0 Z " fill="#F0A057" transform="translate(758,62)"/>
<path d="M0 0 C5.79152098 0.36771562 5.79152098 0.36771562 8 1 C10 4 10 4 10 7 C8.35 7 6.7 7 5 7 C5 6.01 5 5.02 5 4 C4.34 4 3.68 4 3 4 C3 3.34 3 2.68 3 2 C1.68 1.67 0.36 1.34 -1 1 C-0.67 0.67 -0.34 0.34 0 0 Z " fill="#2A2A2A" transform="translate(788,106)"/>
<path d="M0 0 C2.97759558 2.97759558 2.9560567 5.20902056 3.1875 9.375 C3.00196601 12.9619905 2.29918276 15.67084417 1 19 C0.67 19 0.34 19 0 19 C0 12.73 0 6.46 0 0 Z " fill="#F5A968" transform="translate(604,40)"/>
<path d="M0 0 C3.14737182 0.69941596 6.02588876 1.76078698 9 3 C8.67 4.32 8.34 5.64 8 7 C6.35 6.67 4.7 6.34 3 6 C3 5.34 3 4.68 3 4 C2.01 4 1.02 4 0 4 C0 2.68 0 1.36 0 0 Z " fill="#F29138" transform="translate(806,30)"/>
<path d="M0 0 C0.66 0 1.32 0 2 0 C2 2.64 2 5.28 2 8 C1.34 8 0.68 8 0 8 C-0.33 9.32 -0.66 10.64 -1 12 C-1.33 12 -1.66 12 -2 12 C-2 8.7 -2 5.4 -2 2 C-1.34 2 -0.68 2 0 2 C0 1.34 0 0.68 0 0 Z " fill="#FB8118" transform="translate(642,18)"/>
<path d="M0 0 C0.99 0 1.98 0 3 0 C3 1.32 3 2.64 3 4 C1.68 3.67 0.36 3.34 -1 3 C-1.33 4.65 -1.66 6.3 -2 8 C-3.65 8 -5.3 8 -7 8 C-7 7.34 -7 6.68 -7 6 C-6.34 6 -5.68 6 -5 6 C-5 5.34 -5 4.68 -5 4 C-4.34 4 -3.68 4 -3 4 C-3 3.34 -3 2.68 -3 2 C-2.01 2 -1.02 2 0 2 C0 1.34 0 0.68 0 0 Z " fill="#F19E51" transform="translate(779,6)"/>
<path d="M0 0 C-0.99 0.495 -0.99 0.495 -2 1 C-2.33 1.99 -2.66 2.98 -3 4 C-4.97746603 4.73080266 -6.98072489 5.39421747 -9 6 C-9.99 6.66 -10.98 7.32 -12 8 C-10.73090537 4.08695821 -9.53743024 2.14389712 -6 0 C-3 -1 -3 -1 0 0 Z " fill="#464646" transform="translate(347,106)"/>
<path d="M0 0 C1.32 0 2.64 0 4 0 C4 0.66 4 1.32 4 2 C5.65 2 7.3 2 9 2 C8.67 3.32 8.34 4.64 8 6 C6.02 6 4.04 6 2 6 C2 4.68 2 3.36 2 2 C1.34 2 0.68 2 0 2 C0 1.34 0 0.68 0 0 Z " fill="#FA8018" transform="translate(586,18)"/>
<path d="M0 0 C-4.44444444 4.44444444 -4.44444444 4.44444444 -8 5 C-8.66 4.67 -9.32 4.34 -10 4 C-10 3.01 -10 2.02 -10 1 C-10.99 0.67 -11.98 0.34 -13 0 C-12.278125 0.20625 -11.55625 0.4125 -10.8125 0.625 C-6.42371162 1.21017178 -4.2817008 -1.4272336 0 0 Z " fill="#535353" transform="translate(531,106)"/>
<path d="M0 0 C0.598125 0.185625 1.19625 0.37125 1.8125 0.5625 C4.16408762 1.22093687 4.16408762 1.22093687 7 0 C6.34 1.98 5.68 3.96 5 6 C4.34 6 3.68 6 3 6 C3 6.66 3 7.32 3 8 C2.34 8 1.68 8 1 8 C0.67 5.36 0.34 2.72 0 0 Z " fill="#F1A059" transform="translate(817,58)"/>
<path d="M0 0 C-0.66 1.65 -1.32 3.3 -2 5 C-8.75 3.375 -8.75 3.375 -11 0 C-7.18243176 -1.37432457 -3.92744671 -0.67975039 0 0 Z " fill="#393939" transform="translate(462,125)"/>
<path d="M0 0 C0.33 0.99 0.66 1.98 1 3 C-2.63 6.63 -6.26 10.26 -10 14 C-10.66 13.67 -11.32 13.34 -12 13 C-8.04 8.71 -4.08 4.42 0 0 Z " fill="#414141" transform="translate(34,38)"/>
<path d="M0 0 C1.65 0 3.3 0 5 0 C4.67 1.32 4.34 2.64 4 4 C5.32 4.33 6.64 4.66 8 5 C6.88625 5.12375 5.7725 5.2475 4.625 5.375 C0.96896323 5.6465813 0.96896323 5.6465813 -1 8 C-0.67 5.36 -0.34 2.72 0 0 Z " fill="#F2AB6C" transform="translate(568,16)"/>
<path d="M0 0 C0.66 0.66 1.32 1.32 2 2 C-1.63 5.63 -5.26 9.26 -9 13 C-9.66 12.67 -10.32 12.34 -11 12 C-7.37 8.04 -3.74 4.08 0 0 Z " fill="#3B3B3B" transform="translate(21,52)"/>
<path d="M0 0 C0.66 0 1.32 0 2 0 C2 2.64 2 5.28 2 8 C-2.455 8.495 -2.455 8.495 -7 9 C-6.01 8.01 -5.02 7.02 -4 6 C-2.68 6 -1.36 6 0 6 C0 4.02 0 2.04 0 0 Z " fill="#F6A968" transform="translate(674,40)"/>
<path d="M0 0 C0.33 0 0.66 0 1 0 C1 1.65 1 3.3 1 5 C3.64 5 6.28 5 9 5 C9.33 5.66 9.66 6.32 10 7 C6.7 7.33 3.4 7.66 0 8 C-0.92538169 4.29847322 -1.08174162 3.36541838 0 0 Z " fill="#EF9E5B" transform="translate(533,69)"/>
<path d="M0 0 C0.66 0 1.32 0 2 0 C1.03644647 9.41002278 1.03644647 9.41002278 0 14 C-0.99 14 -1.98 14 -3 14 C-3 13.34 -3 12.68 -3 12 C-2.34 12 -1.68 12 -1 12 C-1.020625 10.948125 -1.04125 9.89625 -1.0625 8.8125 C-1.01103198 5.67295096 -0.73482813 3.03116604 0 0 Z " fill="#F3A766" transform="translate(674,62)"/>
<path d="M0 0 C0.99 0 1.98 0 3 0 C2.34 1.98 1.68 3.96 1 6 C1.99 6.33 2.98 6.66 4 7 C2.68 7.33 1.36 7.66 0 8 C0 7.34 0 6.68 0 6 C-0.66 6 -1.32 6 -2 6 C-2 4.68 -2 3.36 -2 2 C-1.34 2 -0.68 2 0 2 C0 1.34 0 0.68 0 0 Z " fill="#FA8014" transform="translate(763,62)"/>
<path d="M0 0 C0.33 0.66 0.66 1.32 1 2 C3.01669827 3.13350534 3.01669827 3.13350534 5 4 C3.741875 4.04125 2.48375 4.0825 1.1875 4.125 C0.47980469 4.14820313 -0.22789062 4.17140625 -0.95703125 4.1953125 C-3 4 -3 4 -6 2 C-6 1.34 -6 0.68 -6 0 C-3 -1 -3 -1 0 0 Z " fill="#444444" transform="translate(654,125)"/>
<path d="M0 0 C0.33 1.32 0.66 2.64 1 4 C-2.55780196 3.39009109 -5.6828589 2.4216319 -9 1 C-5.64919071 -1.10976881 -3.77897651 -1.0497157 0 0 Z " fill="#383838" transform="translate(470,108)"/>
<path d="M0 0 C4.47750118 -0.17558828 8.04689074 -0.25891958 12 2 C12.66 3.32 13.32 4.64 14 6 C9.38 4.35 4.76 2.7 0 1 C0 0.67 0 0.34 0 0 Z " fill="#F0A563" transform="translate(787,46)"/>
<path d="M0 0 C2.32536063 3.48804095 2.33457898 4.90140754 2 9 C1 11.375 1 11.375 0 13 C-0.66 13 -1.32 13 -2 13 C-1.48041715 8.62065881 -0.94324258 4.31196609 0 0 Z " fill="#F5AB65" transform="translate(692,33)"/>
<path d="M0 0 C0.66 0 1.32 0 2 0 C2 2.64 2 5.28 2 8 C2.66 8 3.32 8 4 8 C4 9.32 4 10.64 4 12 C3.34 12 2.68 12 2 12 C-0.60018816 8.09971775 -0.15085514 4.52565431 0 0 Z " fill="#EC842A" transform="translate(666,34)"/>
<path d="M0 0 C0.66 0.33 1.32 0.66 2 1 C1.49890042 5.38462134 0.01704885 7.8000997 -3 11 C-3.66 11 -4.32 11 -5 11 C-5 9.68 -5 8.36 -5 7 C-4.01 7 -3.02 7 -2 7 C-2 6.34 -2 5.68 -2 5 C-1.34 5 -0.68 5 0 5 C0 3.35 0 1.7 0 0 Z " fill="#F2A25A" transform="translate(607,21)"/>
<path d="M0 0 C0.33 0 0.66 0 1 0 C0.88590318 2.10478604 0.75834639 4.20884577 0.625 6.3125 C0.52058594 8.07013672 0.52058594 8.07013672 0.4140625 9.86328125 C0 13 0 13 -2 16 C-2 12.37 -2 8.74 -2 5 C-1.34 5 -0.68 5 0 5 C0 3.35 0 1.7 0 0 Z " fill="#EDA862" transform="translate(760,3)"/>
<path d="M0 0 C0.66 0.33 1.32 0.66 2 1 C-1.3 4.3 -4.6 7.6 -8 11 C-8 6.67750434 -5.85084926 5.11604454 -3 2 C-2.01 1.34 -1.02 0.68 0 0 Z " fill="#474747" transform="translate(407,7)"/>
<path d="M0 0 C1.32 0.33 2.64 0.66 4 1 C3.34 2.65 2.68 4.3 2 6 C0.68 5.67 -0.64 5.34 -2 5 C-1.34 3.35 -0.68 1.7 0 0 Z " fill="#555555" transform="translate(710,97)"/>
<path d="M0 0 C1.32 0 2.64 0 4 0 C4 1.65 4 3.3 4 5 C2.68 5.33 1.36 5.66 0 6 C-1.125 2.25 -1.125 2.25 0 0 Z " fill="#555555" transform="translate(505,97)"/>
<path d="M0 0 C1.32 0 2.64 0 4 0 C3.67 1.65 3.34 3.3 3 5 C1.68 5.33 0.36 5.66 -1 6 C-1.042721 4.33388095 -1.04063832 2.66617115 -1 1 C-0.67 0.67 -0.34 0.34 0 0 Z " fill="#565656" transform="translate(414,97)"/>
<path d="M0 0 C0.66 0 1.32 0 2 0 C2 1.98 2 3.96 2 6 C2.66 6 3.32 6 4 6 C4 7.32 4 8.64 4 10 C2.68 9.34 1.36 8.68 0 8 C0 5.36 0 2.72 0 0 Z " fill="#F97F1B" transform="translate(628,16)"/>
<path d="M0 0 C2.64 0 5.28 0 8 0 C8 0.99 8 1.98 8 3 C5.36 3 2.72 3 0 3 C0 2.01 0 1.02 0 0 Z " fill="#1D1D1D" transform="translate(618,126)"/>
<path d="M0 0 C1.32 0 2.64 0 4 0 C4 1.32 4 2.64 4 4 C1.69 4.33 -0.62 4.66 -3 5 C-3.33 5.99 -3.66 6.98 -4 8 C-4 6.68 -4 5.36 -4 4 C-2.68 4 -1.36 4 0 4 C0 2.68 0 1.36 0 0 Z " fill="#F19F5A" transform="translate(716,44)"/>
<path d="M0 0 C1.98 0.99 1.98 0.99 4 2 C4 2.66 4 3.32 4 4 C4.66 4 5.32 4 6 4 C5.67 5.32 5.34 6.64 5 8 C4.01 8 3.02 8 2 8 C2 6.02 2 4.04 2 2 C1.34 2 0.68 2 0 2 C0 1.34 0 0.68 0 0 Z " fill="#F0A763" transform="translate(822,6)"/>
<path d="M0 0 C-0.99 0.33 -1.98 0.66 -3 1 C-3.33 1.99 -3.66 2.98 -4 4 C-6.31 4 -8.62 4 -11 4 C-8.74499851 -0.51000297 -4.55950767 -0.20725035 0 0 Z " fill="#F1A961" transform="translate(793,2)"/>
<path d="M0 0 C3.82097239 0.53069061 6.06171403 1.49701566 9 4 C8.67 4.66 8.34 5.32 8 6 C5.36 4.68 2.72 3.36 0 2 C0 1.34 0 0.68 0 0 Z " fill="#F0AF75" transform="translate(599,4)"/>
<path d="M0 0 C0.99 0 1.98 0 3 0 C3 1.32 3 2.64 3 4 C2.01 4 1.02 4 0 4 C0 4.66 0 5.32 0 6 C-0.66 6 -1.32 6 -2 6 C-2 4.68 -2 3.36 -2 2 C-1.34 2 -0.68 2 0 2 C0 1.34 0 0.68 0 0 Z " fill="#FA8016" transform="translate(774,62)"/>
<path d="M0 0 C1.41377341 2.63904371 2.37240135 5.07120629 3 8 C1.68 8 0.36 8 -1 8 C-1.125 2.25 -1.125 2.25 0 0 Z " fill="#F19E53" transform="translate(615,50)"/>
<path d="M0 0 C1.32 0 2.64 0 4 0 C4 1.32 4 2.64 4 4 C3.34 4 2.68 4 2 4 C2 4.66 2 5.32 2 6 C1.34 6 0.68 6 0 6 C0 4.02 0 2.04 0 0 Z " fill="#F98317" transform="translate(700,4)"/>
<path d="M0 0 C0.99 0.33 1.98 0.66 3 1 C2.34 3.97 1.68 6.94 1 10 C0.67 10 0.34 10 0 10 C-0.19412181 8.52168779 -0.38012131 7.04230684 -0.5625 5.5625 C-0.66691406 4.73878906 -0.77132812 3.91507813 -0.87890625 3.06640625 C-0.91886719 2.38449219 -0.95882812 1.70257813 -1 1 C-0.67 0.67 -0.34 0.34 0 0 Z " fill="#F4A257" transform="translate(637,48)"/>
<path d="M0 0 C0.99 0.33 1.98 0.66 3 1 C1.515 2.485 1.515 2.485 0 4 C0.66 4.66 1.32 5.32 2 6 C0.35 6 -1.3 6 -3 6 C-1.125 1.125 -1.125 1.125 0 0 Z " fill="#4D4D4D" transform="translate(620,107)"/>
<path d="M0 0 C2.97 0.495 2.97 0.495 6 1 C5.01 1.495 5.01 1.495 4 2 C4.33 2.99 4.66 3.98 5 5 C3.35 4.67 1.7 4.34 0 4 C0 2.68 0 1.36 0 0 Z " fill="#4A4A4A" transform="translate(759,105)"/>
<path d="M0 0 C2.64 0.33 5.28 0.66 8 1 C4.375 4 4.375 4 1 4 C0.67 2.68 0.34 1.36 0 0 Z " fill="#4E4E4E" transform="translate(625,105)"/>
<path d="M0 0 C0.33 0 0.66 0 1 0 C1 3.3 1 6.6 1 10 C0.01 10 -0.98 10 -2 10 C-1.34 6.7 -0.68 3.4 0 0 Z " fill="#F1AE6F" transform="translate(685,66)"/>
<path d="M0 0 C0.66 0 1.32 0 2 0 C2.33 2.64 2.66 5.28 3 8 C2.01 8 1.02 8 0 8 C0 5.36 0 2.72 0 0 Z " fill="#EC822D" transform="translate(774,54)"/>
<path d="M0 0 C2.86724686 0.57344937 3.8614515 0.8614515 6 3 C5 4 5 4 2.4375 4.0625 C1.2309375 4.0315625 1.2309375 4.0315625 0 4 C0 2.68 0 1.36 0 0 Z " fill="#EEA04C" transform="translate(806,30)"/>
<path d="M0 0 C1.89213369 2.38573379 3.02391783 4.07175348 4 7 C2.35 6.67 0.7 6.34 -1 6 C-1.042721 4.33388095 -1.04063832 2.66617115 -1 1 C-0.67 0.67 -0.34 0.34 0 0 Z " fill="#F68019" transform="translate(769,30)"/>
<path d="M0 0 C0.33 0.66 0.66 1.32 1 2 C3.02463255 2.65213292 3.02463255 2.65213292 5 3 C4.01 4.485 4.01 4.485 3 6 C2.34 6 1.68 6 1 6 C1 5.34 1 4.68 1 4 C0.34 4 -0.32 4 -1 4 C-0.67 2.68 -0.34 1.36 0 0 Z " fill="#EE8C38" transform="translate(769,18)"/>
<path d="M0 0 C0.66 0.33 1.32 0.66 2 1 C1.01 2.485 1.01 2.485 0 4 C0 4.66 0 5.32 0 6 C-1.65 5.67 -3.3 5.34 -5 5 C-3.35 3.35 -1.7 1.7 0 0 Z " fill="#232323" transform="translate(464,123)"/>
<path d="M0 0 C0.33 0 0.66 0 1 0 C1.33 1.98 1.66 3.96 2 6 C0.35 6 -1.3 6 -3 6 C-2.67 4.68 -2.34 3.36 -2 2 C-1.34 2 -0.68 2 0 2 C0 1.34 0 0.68 0 0 Z " fill="#ED8A30" transform="translate(716,26)"/>
</svg>
